<?xml version="1.0" standalone="no"?>
<!DOCTYPE svg PUBLIC "-//W3C//DTD SVG 20010904//EN"
 "http://www.w3.org/TR/2001/REC-SVG-20010904/DTD/svg10.dtd">
<svg version="1.0" xmlns="http://www.w3.org/2000/svg"
 width="1056.000000pt" height="813.000000pt" viewBox="0 0 1056.000000 813.000000"
 preserveAspectRatio="xMidYMid meet">

<g transform="translate(0.000000,813.000000) scale(0.100000,-0.100000)"
fill="#000000" stroke="none">
<path d="M10540 4065 c0 -2703 3 -4065 10 -4065 7 0 10 1362 10 4065 0 2703
-3 4065 -10 4065 -7 0 -10 -1362 -10 -4065z"/>
<path d="M2332 7258 c-220 -29 -405 -208 -443 -431 -42 -248 130 -505 382
-572 111 -30 271 -15 365 33 174 89 256 246 246 470 l-2 32 -235 0 -235 0 0
-65 0 -65 170 0 c94 0 170 -3 170 -7 0 -4 -7 -33 -16 -65 -22 -76 -84 -147
-162 -185 -51 -25 -67 -28 -162 -28 -93 0 -112 3 -162 27 -79 37 -142 98 -181
177 -30 61 -32 72 -32 171 0 99 2 110 32 171 63 127 174 199 319 207 93 5 152
-10 229 -59 l48 -30 43 42 c50 49 49 53 -32 105 -99 63 -215 88 -342 72z"/>
<path d="M7712 7077 c-48 -57 2 -150 65 -121 14 6 10 9 -17 13 -42 7 -61 45
-42 86 13 28 49 34 59 9 4 -12 8 -13 14 -3 4 7 5 17 3 21 -8 13 -71 9 -82 -5z"/>
<path d="M7850 7075 c-20 -24 -16 -96 6 -112 25 -18 58 -16 77 5 20 22 23 92
5 110 -17 17 -73 15 -88 -3z m79 -29 c18 -39 2 -76 -34 -76 -29 0 -50 39 -39
74 14 45 52 46 73 2z"/>
<path d="M7998 7078 c7 -7 12 -33 12 -58 0 -50 13 -70 45 -70 32 0 45 20 45
70 0 25 5 51 12 58 9 9 5 12 -17 12 -20 0 -26 -3 -17 -9 9 -5 12 -25 10 -57
-3 -43 -6 -49 -27 -52 -13 -2 -28 2 -32 10 -13 20 -11 96 4 101 6 3 -1 6 -17
6 -23 1 -27 -2 -18 -11z"/>
<path d="M8165 7020 c0 -60 3 -70 17 -70 14 0 16 6 12 30 -4 17 -2 30 3 30 5
0 17 -13 26 -30 10 -16 25 -30 33 -30 19 0 18 5 -11 36 -23 25 -24 29 -9 45
27 30 14 54 -31 57 l-40 3 0 -71z m60 35 c0 -11 -8 -21 -17 -23 -14 -3 -18 3
-18 23 0 20 4 26 18 23 9 -2 17 -12 17 -23z"/>
<path d="M8310 7075 c-17 -21 -5 -45 30 -58 32 -12 40 -41 15 -51 -8 -3 -22 2
-30 11 -18 18 -30 11 -22 -12 8 -18 47 -20 71 -2 25 18 17 47 -18 67 -16 9
-31 21 -34 28 -6 18 26 26 43 12 12 -10 15 -9 15 4 0 21 -53 22 -70 1z"/>
<path d="M8438 7083 c16 -6 16 -105 0 -121 -9 -9 0 -12 40 -12 47 0 52 2 51
23 0 12 -3 16 -6 10 -2 -7 -18 -13 -35 -13 -25 0 -29 4 -26 22 2 14 12 25 28
29 l25 6 -25 4 c-29 5 -39 36 -14 46 9 3 25 1 35 -6 15 -9 19 -8 19 4 0 12
-12 15 -52 14 -29 0 -47 -3 -40 -6z"/>
<path d="M3189 6887 c-100 -28 -182 -97 -223 -186 -16 -36 -20 -66 -20 -136 0
-78 3 -98 27 -147 102 -209 386 -247 545 -73 79 86 104 214 65 336 -23 73
-116 168 -188 193 -69 23 -151 28 -206 13z m148 -128 c71 -27 123 -108 123
-194 0 -199 -233 -278 -345 -117 -27 39 -30 52 -30 117 0 65 3 78 30 117 51
73 146 106 222 77z"/>
<path d="M4671 6889 c-70 -13 -127 -46 -181 -105 -125 -138 -115 -335 25 -462
93 -85 212 -106 313 -56 29 14 52 30 52 35 0 5 5 9 11 9 8 0 10 -24 7 -73 -3
-63 -8 -80 -32 -111 -34 -45 -79 -66 -141 -66 -63 0 -105 20 -146 69 l-35 42
-57 -22 -57 -22 23 -39 c51 -91 154 -149 267 -149 141 -1 231 55 286 176 17
36 19 77 22 398 l3 357 -65 0 c-64 0 -66 -1 -66 -26 l0 -26 -32 24 c-60 44
-126 60 -197 47z m126 -130 c70 -26 112 -100 113 -197 0 -122 -71 -202 -180
-202 -132 0 -219 131 -179 273 12 46 63 105 104 123 37 16 104 18 142 3z"/>
<path d="M5581 6885 c-112 -31 -185 -111 -217 -235 -41 -163 42 -331 194 -394
67 -27 181 -27 245 2 55 24 122 75 137 103 9 15 3 23 -41 53 l-52 35 -44 -39
c-49 -43 -104 -58 -169 -46 -40 8 -116 71 -112 93 2 8 97 53 218 103 235 97
226 89 189 163 -69 134 -211 200 -348 162z m170 -138 c19 -12 35 -29 36 -37 2
-11 -41 -33 -144 -76 -136 -55 -148 -59 -151 -41 -5 28 25 100 51 125 60 57
149 69 208 29z"/>
<path d="M7413 6812 c-30 -19 -36 -87 -10 -119 12 -16 56 -17 77 -2 12 8 9 9
-12 5 -29 -7 -68 21 -68 47 1 53 42 85 67 51 15 -20 29 -13 20 11 -7 16 -53
20 -74 7z"/>
<path d="M7535 6750 l0 -70 48 0 c34 0 47 4 47 14 0 11 -9 13 -35 9 -32 -5
-35 -4 -35 20 0 20 6 27 28 30 l27 4 -27 2 c-22 1 -28 6 -28 24 0 15 6 23 20
24 11 1 22 -2 25 -8 9 -14 25 -11 25 6 0 11 -12 15 -47 15 l-48 0 0 -70z"/>
<path d="M7675 6750 c0 -68 1 -70 25 -70 19 0 21 3 12 12 -14 14 -16 48 -3 48
6 0 18 -13 28 -30 9 -16 23 -30 31 -30 8 0 4 12 -13 34 -21 28 -23 35 -10 40
20 7 19 52 -1 60 -9 3 -28 6 -42 6 -27 0 -27 -1 -27 -70z m68 44 c11 -11 -5
-34 -24 -34 -12 0 -19 7 -19 20 0 19 28 28 43 14z"/>
<path d="M7800 6805 c0 -17 16 -20 25 -5 17 28 26 5 23 -55 -3 -64 -3 -65 22
-64 14 0 19 3 13 6 -20 7 -18 123 2 123 8 0 15 -4 15 -10 0 -5 5 -10 10 -10 6
0 10 7 10 15 0 12 -13 15 -60 15 -47 0 -60 -3 -60 -15z"/>
<path d="M7958 6808 c7 -7 12 -33 12 -58 0 -25 -5 -51 -12 -58 -9 -9 -7 -12
13 -12 23 0 24 2 24 70 0 68 -1 70 -24 70 -20 0 -22 -3 -13 -12z"/>
<path d="M8048 6813 c16 -6 16 -105 0 -121 -9 -9 -4 -12 23 -11 18 0 28 3 22
6 -22 8 -15 50 10 58 l22 8 -22 4 c-31 6 -33 53 -3 53 11 0 20 -4 20 -10 0 -5
5 -10 10 -10 6 0 10 7 10 15 0 12 -12 15 -52 14 -29 0 -47 -3 -40 -6z"/>
<path d="M8178 6813 c7 -3 12 -26 12 -63 0 -37 -5 -60 -12 -63 -7 -3 -2 -6 12
-6 24 -1 25 1 25 69 0 68 -1 70 -25 69 -14 0 -19 -3 -12 -6z"/>
<path d="M8293 6814 c-7 -3 -17 -21 -23 -39 -22 -66 33 -119 87 -85 15 10 14
10 -9 5 -53 -11 -90 61 -52 99 20 21 41 20 53 -1 11 -21 26 -11 18 12 -6 14
-47 19 -74 9z"/>
<path d="M8428 6750 c-23 -63 -24 -70 -9 -70 12 0 17 8 17 23 -1 17 5 23 28
25 26 3 28 1 24 -22 -4 -22 -2 -26 18 -26 20 0 22 3 14 18 -5 9 -18 39 -29 67
-10 27 -22 50 -27 52 -5 2 -21 -28 -36 -67z m48 -7 c-2 -3 -11 -3 -19 -1 -11
2 -12 9 -5 28 l10 25 9 -24 c5 -13 7 -26 5 -28z"/>
<path d="M8550 6803 c0 -13 3 -14 12 -5 24 24 30 11 26 -53 -3 -63 -2 -65 22
-65 19 0 21 3 12 12 -15 15 -16 104 -2 113 6 4 17 1 25 -5 12 -10 15 -9 15 4
0 13 -11 16 -55 16 -45 0 -55 -3 -55 -17z"/>
<path d="M8705 6750 l0 -70 43 0 c28 0 42 4 42 13 0 9 -10 12 -30 9 -27 -4
-30 -1 -30 21 0 19 6 27 23 30 l22 4 -22 2 c-17 1 -23 7 -23 26 0 27 26 35 48
13 9 -9 12 -8 12 5 0 13 -9 17 -42 17 l-43 0 0 -70z"/>
<path d="M1518 5513 c7 -3 16 -2 19 1 4 3 -2 6 -13 5 -11 0 -14 -3 -6 -6z"/>
<path d="M1658 5513 c7 -3 16 -2 19 1 4 3 -2 6 -13 5 -11 0 -14 -3 -6 -6z"/>
<path d="M3990 5191 c0 -6 5 -11 10 -11 6 0 10 -42 10 -105 0 -63 -4 -105 -10
-105 -5 0 -10 -4 -10 -10 0 -5 16 -10 35 -10 19 0 35 5 35 10 0 6 -4 10 -10
10 -5 0 -11 49 -12 113 -3 108 -4 112 -25 115 -13 2 -23 -1 -23 -7z"/>
<path d="M1378 5178 c15 -15 17 -208 2 -208 -5 0 -10 -4 -10 -10 0 -5 16 -10
35 -10 19 0 35 5 35 10 0 6 -7 10 -15 10 -11 0 -15 12 -15 44 0 49 17 69 52
64 21 -3 23 -9 26 -65 3 -59 4 -63 27 -63 28 0 33 15 10 24 -11 4 -15 21 -15
60 0 51 -2 56 -26 62 -14 4 -36 2 -50 -5 -24 -10 -24 -10 -24 44 0 50 -2 55
-22 55 -17 0 -19 -3 -10 -12z"/>
<path d="M1050 5171 c0 -5 7 -12 16 -15 14 -5 16 -21 12 -102 -4 -85 -7 -99
-26 -114 -12 -10 -22 -21 -22 -24 0 -14 23 -4 45 19 23 22 25 31 25 125 0 60
4 100 10 100 6 0 10 5 10 10 0 6 -16 10 -35 10 -19 0 -35 -4 -35 -9z"/>
<path d="M1933 5166 c14 -11 17 -29 17 -101 0 -72 -3 -90 -17 -101 -16 -12
-13 -13 25 -14 41 0 56 12 27 24 -9 3 -15 19 -15 41 0 52 28 46 68 -15 21 -32
39 -50 52 -50 11 0 20 5 20 10 0 6 -6 10 -12 10 -7 0 -25 19 -40 42 l-27 42
25 23 c29 27 31 56 4 83 -16 16 -33 20 -82 20 -55 -1 -61 -2 -45 -14z m105
-18 c21 -21 14 -57 -12 -70 -39 -17 -56 -4 -56 42 0 37 2 40 28 40 15 0 33 -5
40 -12z"/>
<path d="M2577 5174 c-13 -13 -7 -24 14 -24 11 0 19 5 17 12 -5 14 -22 21 -31
12z"/>
<path d="M3190 5079 c-19 -56 -41 -104 -47 -106 -25 -10 -12 -23 22 -23 34 0
48 14 23 22 -10 4 -10 10 -1 31 11 23 19 27 53 27 35 0 40 -3 46 -27 5 -17 3
-28 -4 -31 -27 -9 -9 -22 28 -22 39 0 53 13 26 23 -8 3 -29 51 -47 106 -23 70
-38 101 -49 101 -10 0 -26 -31 -50 -101z m59 39 c25 -68 25 -68 -13 -68 l-35
0 16 45 c8 25 17 45 19 45 3 0 8 -10 13 -22z"/>
<path d="M4420 5170 c0 -5 5 -10 10 -10 6 0 10 -38 10 -95 0 -57 -4 -95 -10
-95 -5 0 -10 -4 -10 -10 0 -16 108 -12 140 5 57 30 67 148 15 192 -21 19 -38
23 -91 23 -36 0 -64 -4 -64 -10z m126 -18 c21 -14 34 -51 34 -96 0 -58 -25
-86 -75 -86 l-35 0 0 95 0 95 33 0 c17 0 37 -4 43 -8z"/>
<path d="M3705 5102 c-27 -2 -58 -10 -67 -19 -21 -19 -23 -54 -5 -72 6 -6 12
-24 12 -39 0 -19 6 -27 20 -30 51 -8 65 -13 65 -27 0 -18 -40 -29 -69 -20 -12
3 -21 13 -21 21 0 8 -4 14 -10 14 -5 0 -10 -9 -10 -20 0 -44 95 -50 124 -8 21
29 10 46 -35 55 -48 10 -52 25 -9 36 31 8 57 48 44 68 -3 6 0 17 7 25 15 19
13 20 -46 16z m10 -57 c0 -24 -5 -31 -24 -33 -29 -5 -51 20 -44 49 4 16 13 19
37 17 27 -3 31 -7 31 -33z"/>
<path d="M1192 5077 c-28 -29 -29 -87 -4 -110 47 -43 122 -3 122 65 0 65 -73
93 -118 45z m82 -13 c31 -30 12 -94 -27 -94 -31 0 -44 11 -52 42 -14 55 40 91
79 52z"/>
<path d="M1593 5086 c12 -9 17 -27 17 -61 0 -34 -5 -52 -17 -61 -16 -12 -13
-13 25 -14 23 0 42 5 42 10 0 6 -7 10 -15 10 -11 0 -15 12 -15 44 0 49 17 69
52 64 21 -3 23 -9 26 -65 3 -59 4 -63 27 -63 28 0 33 15 10 24 -11 4 -15 21
-15 60 0 51 -2 56 -26 62 -14 4 -36 2 -50 -5 -15 -6 -24 -7 -24 -1 0 6 -12 10
-27 10 -25 -1 -26 -2 -10 -14z"/>
<path d="M2184 5092 c-34 -22 -43 -84 -18 -120 16 -24 75 -31 104 -12 11 7 4
10 -25 10 -42 0 -65 13 -65 37 0 9 16 13 50 13 41 0 50 3 50 18 0 46 -59 79
-96 54z m64 -34 c3 -15 -4 -18 -32 -18 -34 0 -47 15 -29 34 13 13 58 1 61 -16z"/>
<path d="M2330 5091 c0 -5 7 -11 15 -15 10 -4 15 -20 15 -51 0 -31 -5 -47 -15
-51 -27 -11 -16 -24 20 -24 19 0 35 5 35 10 0 6 -4 10 -10 10 -5 0 -10 22 -10
49 0 50 9 61 50 61 23 0 30 -19 30 -81 0 -42 3 -49 20 -49 11 0 20 5 20 10 0
6 -4 10 -10 10 -5 0 -10 24 -10 53 0 29 -5 58 -12 65 -15 15 -61 15 -76 0 -9
-9 -12 -9 -12 0 0 7 -11 12 -25 12 -14 0 -25 -4 -25 -9z"/>
<path d="M2560 5090 c0 -5 5 -10 10 -10 6 0 10 -25 10 -55 0 -30 -4 -55 -10
-55 -5 0 -10 -4 -10 -10 0 -5 16 -10 35 -10 19 0 35 5 35 10 0 6 -4 10 -10 10
-6 0 -10 28 -10 65 0 63 -1 65 -25 65 -14 0 -25 -4 -25 -10z"/>
<path d="M2710 5080 c-26 -26 -27 -90 -2 -113 20 -19 87 -23 97 -7 4 6 -10 10
-34 10 -30 0 -43 5 -51 19 -15 29 -14 30 43 33 49 3 52 4 49 28 -2 14 -9 31
-14 38 -16 19 -66 14 -88 -8z m78 -22 c3 -15 -4 -18 -38 -18 -38 0 -40 1 -30
21 14 25 63 23 68 -3z"/>
<path d="M2870 5090 c0 -5 5 -10 10 -10 6 0 10 -25 10 -55 0 -30 -4 -55 -10
-55 -5 0 -10 -4 -10 -10 0 -5 19 -10 43 -10 37 1 40 2 25 14 -18 13 -24 68
-12 100 7 17 44 22 44 6 0 -5 5 -10 10 -10 6 0 10 9 10 20 0 23 -38 28 -59 8
-11 -10 -14 -10 -18 0 -6 14 -43 16 -43 2z"/>
<path d="M3403 5086 c12 -9 17 -27 17 -61 0 -34 -5 -52 -17 -61 -16 -12 -13
-13 25 -14 23 0 42 5 42 10 0 6 -7 10 -15 10 -11 0 -15 12 -15 44 0 49 17 69
52 64 21 -3 23 -9 26 -65 3 -59 4 -63 27 -63 28 0 33 15 10 24 -11 4 -15 21
-15 60 0 51 -2 56 -26 62 -14 4 -36 2 -50 -5 -15 -6 -24 -7 -24 -1 0 6 -12 10
-27 10 -25 -1 -26 -2 -10 -14z"/>
<path d="M3844 5092 c-34 -22 -43 -84 -18 -120 16 -24 75 -31 104 -12 11 7 4
10 -25 10 -42 0 -65 13 -65 37 0 9 16 13 50 13 41 0 50 3 50 18 0 46 -59 79
-96 54z m64 -34 c3 -15 -4 -18 -32 -18 -34 0 -47 15 -29 34 13 13 58 1 61 -16z"/>
<path d="M4132 5077 c-28 -29 -29 -87 -4 -110 47 -43 122 -3 122 65 0 65 -73
93 -118 45z m82 -13 c31 -30 12 -94 -27 -94 -31 0 -44 11 -52 42 -14 55 40 91
79 52z"/>
<path d="M4684 5079 c-25 -28 -25 -96 1 -115 22 -16 73 -18 95 -4 11 7 4 10
-25 10 -42 0 -65 13 -65 37 0 9 16 13 50 13 44 0 50 3 50 21 0 58 -66 82 -106
38z m76 -3 c0 -2 3 -11 6 -20 5 -13 -2 -16 -35 -16 -44 0 -44 0 -35 24 5 14
64 24 64 12z"/>
<path d="M4840 5090 c0 -5 5 -10 10 -10 15 0 13 -187 -2 -193 -7 -3 7 -5 32
-5 25 0 37 2 28 5 -12 3 -18 14 -18 34 0 25 4 29 29 29 46 0 76 31 76 78 0 22
-7 47 -14 56 -16 19 -62 21 -79 4 -9 -9 -12 -9 -12 0 0 7 -11 12 -25 12 -14 0
-25 -4 -25 -10z m118 -22 c17 -17 15 -73 -2 -88 -8 -6 -25 -10 -38 -8 -19 2
-23 10 -26 47 -3 45 7 61 39 61 8 0 20 -5 27 -12z"/>
<path d="M5075 5075 c-61 -60 -1 -150 80 -119 23 9 48 62 41 89 -15 58 -78 74
-121 30z m83 -7 c7 -7 12 -26 12 -43 0 -36 -15 -55 -45 -55 -12 0 -26 5 -33
12 -13 13 -17 80 -5 91 11 11 58 8 71 -5z"/>
<path d="M5250 5091 c0 -5 6 -11 14 -14 19 -8 19 -83 0 -102 -21 -21 -17 -25
21 -25 19 0 35 5 35 10 0 6 -4 10 -10 10 -5 0 -10 22 -10 49 0 50 9 61 50 61
23 0 30 -19 30 -81 0 -42 3 -49 20 -49 11 0 20 5 20 10 0 6 -4 10 -10 10 -5 0
-10 24 -10 53 0 29 -5 58 -12 65 -15 15 -61 15 -76 0 -9 -9 -12 -9 -12 0 0 7
-11 12 -25 12 -14 0 -25 -4 -25 -9z"/>
<path d="M5514 5092 c-34 -22 -43 -84 -18 -120 16 -24 75 -31 104 -12 11 7 4
10 -25 10 -42 0 -65 13 -65 37 0 9 16 13 50 13 41 0 50 3 50 18 0 46 -59 79
-96 54z m64 -34 c3 -15 -4 -18 -32 -18 -34 0 -47 15 -29 34 13 13 58 1 61 -16z"/>
<path d="M8112 5069 c2 -6 8 -10 13 -10 5 0 11 4 13 10 2 6 -4 11 -13 11 -9 0
-15 -5 -13 -11z"/>
<path d="M8182 5069 c2 -6 8 -10 13 -10 5 0 11 4 13 10 2 6 -4 11 -13 11 -9 0
-15 -5 -13 -11z"/>
<path d="M8250 5065 c0 -8 5 -15 10 -15 6 0 10 7 10 15 0 8 -4 15 -10 15 -5 0
-10 -7 -10 -15z"/>
<path d="M8040 5060 c0 -5 7 -10 15 -10 8 0 15 5 15 10 0 6 -7 10 -15 10 -8 0
-15 -4 -15 -10z"/>
<path d="M8320 5054 c0 -8 5 -12 10 -9 6 3 10 10 10 16 0 5 -4 9 -10 9 -5 0
-10 -7 -10 -16z"/>
<path d="M7980 5044 c0 -8 5 -12 10 -9 6 3 10 10 10 16 0 5 -4 9 -10 9 -5 0
-10 -7 -10 -16z"/>
<path d="M8382 5048 c6 -18 28 -21 28 -4 0 9 -7 16 -16 16 -9 0 -14 -5 -12
-12z"/>
<path d="M7916 5043 c-11 -11 -6 -23 9 -23 8 0 15 4 15 9 0 13 -16 22 -24 14z"/>
<path d="M8452 5029 c2 -6 8 -10 13 -10 5 0 11 4 13 10 2 6 -4 11 -13 11 -9 0
-15 -5 -13 -11z"/>
<path d="M7846 5023 c-11 -11 -6 -23 9 -23 8 0 15 4 15 9 0 13 -16 22 -24 14z"/>
<path d="M8016 5014 c-369 -73 -651 -348 -732 -717 -21 -95 -21 -279 0 -374
38 -174 110 -312 229 -439 123 -132 269 -220 442 -267 114 -31 353 -31 470 1
329 90 586 360 661 694 25 111 23 300 -4 412 -78 316 -317 570 -627 666 -132
41 -306 51 -439 24z m388 -44 c326 -83 582 -350 651 -681 19 -90 19 -268 0
-359 -69 -330 -319 -592 -650 -681 -104 -29 -315 -31 -418 -6 -319 79 -574
325 -659 638 -30 112 -33 336 -4 444 81 307 332 564 627 640 149 39 315 41
453 5z"/>
<path d="M8179 4919 c-8 -16 -8 -28 0 -45 18 -41 71 -25 71 21 0 44 -50 61
-71 24z m56 -24 c0 -23 -5 -31 -21 -33 -24 -3 -38 20 -28 50 4 13 13 18 27 16
17 -2 22 -10 22 -33z"/>
<path d="M8083 4890 c0 -25 2 -35 4 -23 2 12 12 24 21 26 16 4 16 5 0 6 -9 0
-19 9 -21 19 -3 9 -5 -3 -4 -28z"/>
<path d="M8306 4918 c-3 -7 -7 -26 -10 -43 -5 -26 -5 -27 5 -11 11 18 12 18
31 -5 l19 -24 -12 25 c-9 18 -9 25 0 28 16 5 13 29 -5 36 -22 8 -24 8 -28 -6z
m26 -13 c0 -5 -5 -11 -11 -13 -6 -2 -11 4 -11 13 0 9 5 15 11 13 6 -2 11 -8
11 -13z"/>
<path d="M7961 4884 c0 -11 3 -14 6 -6 3 7 2 16 -1 19 -3 4 -6 -2 -5 -13z"/>
<path d="M7904 4874 c3 -9 6 -21 6 -27 0 -7 4 -6 10 3 8 12 13 11 33 -8 29
-27 37 -28 30 -1 -4 12 -8 16 -13 10 -4 -7 -15 -2 -30 14 -26 28 -45 33 -36 9z"/>
<path d="M8461 4849 c-11 -33 -7 -49 12 -49 8 0 7 4 -2 9 -12 8 -12 12 -2 25
8 9 10 16 5 16 -5 0 0 7 10 15 16 12 17 15 4 15 -9 0 -21 -14 -27 -31z"/>
<path d="M7797 4843 c-11 -11 -8 -48 5 -61 14 -14 44 -16 52 -3 3 4 -6 6 -19
3 -20 -3 -25 1 -31 23 -5 18 -2 30 7 36 8 5 9 9 3 9 -6 0 -14 -3 -17 -7z"/>
<path d="M7847 4826 c10 -13 19 -23 21 -21 7 6 -19 45 -29 45 -5 0 -2 -11 8
-24z"/>
<path d="M8561 4788 c0 -16 3 -28 7 -28 5 0 19 12 33 28 l24 27 -27 -23 -26
-24 -5 24 c-4 21 -4 20 -6 -4z"/>
<path d="M7720 4794 c0 -5 12 -22 26 -39 l26 -30 -23 35 c-29 45 -29 45 -29
34z"/>
<path d="M8088 4783 c12 -2 30 -2 40 0 9 3 -1 5 -23 4 -22 0 -30 -2 -17 -4z"/>
<path d="M8253 4783 c9 -2 25 -2 35 0 9 3 1 5 -18 5 -19 0 -27 -2 -17 -5z"/>
<path d="M8005 4770 c-25 -11 1 -11 35 0 20 6 21 8 5 8 -11 0 -29 -3 -40 -8z"/>
<path d="M8328 4773 c7 -3 16 -2 19 1 4 3 -2 6 -13 5 -11 0 -14 -3 -6 -6z"/>
<path d="M8653 4750 c-28 -34 -28 -43 -5 -61 15 -13 16 -12 4 3 -16 20 -6 42
15 33 13 -4 14 -3 4 9 -15 18 0 29 26 19 19 -6 18 -4 -7 14 -12 8 -20 4 -37
-17z"/>
<path d="M8390 4755 c46 -18 64 -17 25 0 -16 8 -37 14 -45 14 -8 0 1 -7 20
-14z"/>
<path d="M8138 4753 c29 -2 74 -2 100 0 26 2 2 3 -53 3 -55 0 -76 -1 -47 -3z"/>
<path d="M7640 4733 c-8 -10 -10 -15 -5 -10 5 4 22 -5 39 -20 17 -16 24 -19
15 -8 -9 11 -21 28 -26 38 -9 18 -10 18 -23 0z"/>
<path d="M7920 4740 c-8 -5 -10 -10 -5 -10 6 0 17 5 25 10 8 5 11 10 5 10 -5
0 -17 -5 -25 -10z"/>
<path d="M8048 4743 c6 -2 18 -2 25 0 6 3 1 5 -13 5 -14 0 -19 -2 -12 -5z"/>
<path d="M8291 4746 c2 -2 22 -6 44 -9 28 -5 34 -4 20 3 -19 8 -73 14 -64 6z"/>
<path d="M7975 4725 c-39 -17 -21 -18 25 0 19 7 28 14 20 14 -8 0 -28 -6 -45
-14z"/>
<path d="M8519 4699 c91 -51 201 -159 254 -249 20 -35 37 -60 37 -54 0 26
-101 163 -158 216 -56 51 -175 128 -198 128 -5 0 24 -19 65 -41z"/>
<path d="M7826 4692 c-101 -62 -236 -215 -261 -297 -4 -11 8 7 27 40 46 83
149 189 238 247 87 56 84 64 -4 10z"/>
<path d="M8420 4710 c8 -5 20 -10 25 -10 6 0 3 5 -5 10 -8 5 -19 10 -25 10 -5
0 -3 -5 5 -10z"/>
<path d="M7885 4688 c-104 -55 -208 -155 -260 -249 -14 -27 -24 -49 -21 -49 3
0 14 17 25 38 48 95 145 187 264 253 59 33 53 39 -8 7z"/>
<path d="M8460 4696 c0 -2 7 -7 16 -10 8 -3 12 -2 9 4 -6 10 -25 14 -25 6z"/>
<path d="M8729 4673 c-13 -15 -16 -21 -6 -14 15 12 17 10 18 -15 0 -17 3 -23
6 -14 4 8 15 21 25 28 15 11 16 17 7 28 -16 19 -22 18 -50 -13z m46 8 c7 -12
-12 -24 -25 -16 -11 7 -4 25 10 25 5 0 11 -4 15 -9z"/>
<path d="M8500 4677 c0 -3 22 -19 50 -37 70 -45 160 -145 200 -223 19 -36 36
-64 38 -62 2 2 -11 32 -29 67 -35 67 -168 209 -226 241 -18 10 -33 16 -33 14z"/>
<path d="M7570 4651 c0 -12 28 -71 34 -71 1 0 2 10 2 22 -1 15 6 24 24 28 l25
6 -27 7 c-14 4 -33 10 -42 13 -9 3 -16 1 -16 -5z m34 -22 c-6 -11 -24 -2 -24
11 0 5 7 7 15 4 8 -4 12 -10 9 -15z"/>
<path d="M8812 4582 c-13 -20 -18 -31 -11 -24 7 6 27 13 44 13 24 1 25 3 7 6
-17 3 -21 9 -17 24 9 28 3 23 -23 -19z"/>
<path d="M7502 4578 c-27 -27 -6 -68 34 -68 13 0 25 4 28 9 3 4 -5 6 -17 4
-32 -6 -55 22 -39 48 14 22 11 24 -6 7z"/>
<path d="M8856 4504 c-19 -19 -20 -36 -4 -52 17 -17 43 -15 59 6 11 14 11 15
-1 5 -19 -18 -49 -16 -56 2 -9 23 16 47 43 42 12 -2 20 0 17 4 -8 14 -41 10
-58 -7z"/>
<path d="M7451 4477 c28 -21 59 -36 59 -29 0 5 -11 14 -25 20 -24 11 -44 16
-34 9z"/>
<path d="M7440 4426 c27 -17 56 -20 63 -8 3 4 -7 7 -21 8 -15 0 -36 4 -47 8
-12 5 -10 2 5 -8z"/>
<path d="M8915 4395 l-30 -14 29 6 30 6 -22 -28 c-25 -32 -23 -40 9 -30 16 5
18 9 8 15 -11 7 -10 12 4 28 31 34 21 40 -28 17z"/>
<path d="M7404 4368 c-4 -7 -3 -8 5 -4 22 14 61 -3 62 -27 1 -17 2 -18 6 -4 3
10 -1 24 -7 32 -15 18 -56 20 -66 3z"/>
<path d="M7582 4355 c-7 -14 -12 -31 -12 -38 1 -7 7 3 16 22 17 39 13 54 -4
16z"/>
<path d="M8810 4379 c0 -4 7 -22 15 -40 8 -19 14 -27 14 -19 0 14 -28 72 -29
59z"/>
<path d="M7536 4324 c-9 -26 -16 -55 -15 -63 0 -9 9 11 19 44 23 70 19 87 -4
19z"/>
<path d="M7390 4338 c0 -16 66 -46 77 -34 3 3 -8 8 -23 12 -16 3 -35 13 -41
22 -12 14 -13 14 -13 0z"/>
<path d="M8797 4320 c3 -14 12 -47 20 -75 l13 -50 -5 43 c-3 24 -12 58 -20 75
-10 22 -13 24 -8 7z"/>
<path d="M8841 4284 c0 -11 3 -14 6 -6 3 7 2 16 -1 19 -3 4 -6 -2 -5 -13z"/>
<path d="M8948 4283 c-21 -3 -28 -10 -27 -26 1 -15 3 -17 6 -6 5 20 55 32 65
16 5 -8 8 -6 8 6 0 9 -6 16 -12 16 -7 -1 -25 -4 -40 -6z"/>
<path d="M7552 4250 c0 -14 2 -19 5 -12 2 6 2 18 0 25 -3 6 -5 1 -5 -13z"/>
<path d="M8852 4240 c0 -14 2 -19 5 -12 2 6 2 18 0 25 -3 6 -5 1 -5 -13z"/>
<path d="M7401 4233 c0 -7 -9 -13 -18 -14 -10 0 -4 -5 12 -10 37 -11 55 -5 54
18 -1 17 -2 17 -6 1 -2 -10 -11 -18 -18 -18 -7 0 -16 8 -18 18 -3 9 -5 11 -6
5z"/>
<path d="M7512 4215 c0 -16 2 -22 5 -12 2 9 2 23 0 30 -3 6 -5 -1 -5 -18z"/>
<path d="M7543 4180 c0 -25 2 -35 4 -22 2 12 2 32 0 45 -2 12 -4 2 -4 -23z"/>
<path d="M8864 4105 c0 -60 1 -84 3 -52 2 32 2 81 0 110 -2 29 -3 3 -3 -58z"/>
<path d="M7637 4180 c-33 -26 -41 -63 -23 -99 23 -43 82 -56 122 -27 15 12 17
17 6 28 -10 10 -16 10 -33 0 -17 -11 -25 -11 -45 3 -28 18 -31 37 -8 59 18 18
45 21 60 6 8 -8 15 -6 23 4 10 11 8 17 -11 30 -30 21 -60 20 -91 -4z"/>
<path d="M7813 4190 c-75 -30 -46 -150 36 -150 82 0 112 108 40 145 -32 17
-44 18 -76 5z m65 -42 c33 -33 -6 -91 -47 -69 -28 15 -34 41 -15 62 20 22 45
24 62 7z"/>
<path d="M7950 4132 c0 -45 5 -73 13 -80 7 -6 39 -11 70 -11 l57 1 0 80 c0 70
-2 79 -17 76 -14 -2 -19 -15 -21 -60 -2 -47 -6 -58 -23 -63 -30 -10 -37 3 -41
65 -2 43 -7 56 -20 58 -16 3 -18 -5 -18 -66z"/>
<path d="M8110 4120 c0 -73 2 -80 20 -80 17 0 20 7 20 44 0 53 8 76 25 76 7 0
15 9 18 20 6 22 -12 27 -31 8 -9 -9 -12 -9 -12 0 0 7 -9 12 -20 12 -18 0 -20
-7 -20 -80z"/>
<path d="M8228 4189 c-11 -6 -18 -22 -18 -38 0 -24 6 -31 41 -45 32 -13 39
-20 30 -29 -9 -9 -16 -9 -31 1 -20 12 -50 7 -50 -9 0 -26 95 -40 118 -17 16
16 15 53 -1 66 -6 6 -24 13 -40 17 -37 10 -35 29 3 22 35 -8 51 11 25 30 -22
15 -53 16 -77 2z"/>
<path d="M8368 4170 c-25 -26 -29 -36 -24 -63 11 -57 74 -85 127 -56 16 8 18
13 9 24 -9 11 -17 12 -31 4 -24 -12 -59 -3 -59 17 0 10 14 14 55 14 49 0 55 2
55 20 0 29 -44 70 -75 70 -16 0 -39 -12 -57 -30z m90 -27 c2 -9 -8 -13 -32
-13 -34 0 -44 8 -29 24 11 11 56 2 61 -11z"/>
<path d="M8520 4120 c0 -73 2 -80 20 -80 18 0 20 7 20 56 0 47 3 57 20 61 11
3 20 14 20 24 0 22 -11 24 -28 7 -9 -9 -12 -9 -12 0 0 7 -9 12 -20 12 -18 0
-20 -7 -20 -80z"/>
<path d="M8635 4175 c-32 -32 -34 -86 -3 -114 16 -16 34 -20 80 -20 l58 1 0
79 c0 62 -3 79 -14 79 -8 0 -18 -5 -21 -10 -4 -7 -12 -7 -25 0 -29 16 -49 12
-75 -15z m83 -27 c34 -34 -6 -90 -48 -68 -35 19 -20 80 20 80 9 0 21 -5 28
-12z"/>
<path d="M8833 4110 c0 -41 2 -58 4 -37 2 20 2 54 0 75 -2 20 -4 3 -4 -38z"/>
<path d="M7503 4110 c0 -36 2 -50 4 -32 2 17 2 47 0 65 -2 17 -4 3 -4 -33z"/>
<path d="M7387 4124 c-8 -8 1 -24 14 -24 5 0 9 7 9 15 0 15 -12 20 -23 9z"/>
<path d="M8962 4109 c2 -6 8 -10 13 -10 5 0 11 4 13 10 2 6 -4 11 -13 11 -9 0
-15 -5 -13 -11z"/>
<path d="M7542 4030 c0 -19 2 -27 5 -17 2 9 2 25 0 35 -3 9 -5 1 -5 -18z"/>
<path d="M7512 4005 c0 -16 5 -48 13 -70 17 -52 17 -35 0 40 -8 37 -13 49 -13
30z"/>
<path d="M8822 3995 c0 -16 2 -22 5 -12 2 9 2 23 0 30 -3 6 -5 -1 -5 -18z"/>
<path d="M7552 3970 c0 -14 2 -19 5 -12 2 6 2 18 0 25 -3 6 -5 1 -5 -13z"/>
<path d="M8846 3959 c-8 -42 0 -50 9 -9 4 17 5 34 2 36 -2 3 -7 -10 -11 -27z"/>
<path d="M8806 3934 c-4 -14 -5 -28 -3 -31 3 -2 8 8 11 23 4 14 5 28 3 31 -3
2 -8 -8 -11 -23z"/>
<path d="M7560 3933 c0 -16 31 -95 36 -90 2 2 -5 25 -16 53 -10 27 -19 43 -20
37z"/>
<path d="M7422 3898 c-14 -14 -16 -44 -3 -52 4 -3 6 6 3 19 -3 20 1 25 23 31
18 4 30 2 37 -7 8 -12 9 -11 5 1 -5 19 -48 25 -65 8z"/>
<path d="M7540 3885 c0 -5 5 -17 10 -25 5 -8 10 -10 10 -5 0 6 -5 17 -10 25
-5 8 -10 11 -10 5z"/>
<path d="M8782 3865 c-17 -37 -14 -45 4 -12 9 16 14 31 11 33 -2 2 -9 -7 -15
-21z"/>
<path d="M8810 3846 c-20 -61 -104 -179 -170 -238 -34 -32 -96 -74 -136 -95
-40 -21 -71 -39 -69 -41 2 -2 36 13 77 34 104 54 230 182 282 286 22 43 37 81
34 84 -3 3 -11 -11 -18 -30z"/>
<path d="M8916 3864 c-5 -13 -9 -14 -21 -4 -9 7 -15 8 -15 2 0 -9 22 -22 39
-22 4 0 7 9 8 20 2 24 -3 26 -11 4z"/>
<path d="M8945 3840 c-3 -5 -1 -10 4 -10 6 0 11 5 11 10 0 6 -2 10 -4 10 -3 0
-8 -4 -11 -10z"/>
<path d="M7565 3825 c24 -78 168 -246 246 -288 33 -17 33 -17 9 0 -93 68 -180
163 -230 252 -17 31 -29 47 -25 36z"/>
<path d="M7631 3770 c38 -72 163 -190 247 -234 41 -21 75 -36 77 -34 2 2 -29
20 -69 41 -88 45 -170 117 -221 194 -52 77 -63 88 -34 33z"/>
<path d="M8729 3763 c-32 -52 -125 -149 -179 -186 -25 -18 -81 -47 -125 -65
-44 -18 -67 -31 -51 -27 97 21 247 120 313 207 49 64 77 108 70 108 -3 0 -16
-17 -28 -37z"/>
<path d="M7473 3783 c-7 -2 -13 -9 -13 -15 0 -7 4 -7 13 0 6 5 23 12 37 15
l25 4 -25 1 c-14 0 -31 -2 -37 -5z"/>
<path d="M7527 3751 c-5 -19 -11 -23 -36 -19 -16 2 -28 1 -25 -4 16 -26 81 5
72 34 -3 7 -7 2 -11 -11z"/>
<path d="M8841 3766 c10 -9 69 -36 69 -32 0 6 -55 36 -66 36 -4 0 -5 -2 -3 -4z"/>
<path d="M7552 3667 c-24 -25 -28 -42 -12 -52 6 -4 7 1 3 11 -4 12 3 24 23 41
16 12 24 23 18 23 -6 0 -20 -10 -32 -23z"/>
<path d="M8789 3653 c11 -21 45 -63 37 -46 -9 17 4 43 23 44 24 1 -18 17 -47
18 -19 1 -21 -2 -13 -16z m35 -8 c-4 -8 -10 -12 -15 -9 -14 8 -10 24 6 24 9 0
12 -6 9 -15z"/>
<path d="M7581 3630 c-13 -11 -19 -20 -14 -20 6 0 18 9 28 20 23 25 17 25 -14
0z"/>
<path d="M8700 3580 c-6 -11 -9 -20 -8 -20 2 0 11 9 21 20 9 11 13 20 7 20 -5
0 -14 -9 -20 -20z"/>
<path d="M7632 3567 c-25 -26 -30 -46 -7 -27 13 11 15 8 16 -16 1 -24 2 -25 6
-6 2 12 11 22 18 22 21 0 28 19 15 35 -17 20 -23 19 -48 -8z m39 -10 c-13 -13
-26 -3 -16 12 3 6 11 8 17 5 6 -4 6 -10 -1 -17z"/>
<path d="M8709 3537 c7 -10 21 -17 31 -17 10 0 24 7 31 17 13 15 12 15 -8 2
-20 -12 -26 -12 -45 0 -21 13 -22 13 -9 -2z"/>
<path d="M7850 3515 c0 -7 61 -37 66 -33 2 3 -12 12 -31 21 -19 9 -35 15 -35
12z"/>
<path d="M7735 3500 c-3 -5 -1 -18 5 -27 9 -15 10 -14 4 6 -5 21 -3 23 15 18
12 -3 19 -1 15 4 -7 12 -31 11 -39 -1z"/>
<path d="M8650 3480 c12 -16 24 -30 26 -30 3 0 -4 14 -16 30 -12 17 -24 30
-26 30 -3 0 4 -13 16 -30z"/>
<path d="M8015 3480 c19 -8 73 -14 64 -6 -2 2 -22 6 -44 9 -28 5 -34 4 -20 -3z"/>
<path d="M7955 3465 c17 -8 37 -14 45 -14 8 0 -1 7 -20 14 -46 18 -64 17 -25
0z"/>
<path d="M8308 3473 c6 -2 18 -2 25 0 6 3 1 5 -13 5 -14 0 -19 -2 -12 -5z"/>
<path d="M8138 3463 c28 -2 76 -2 105 0 28 2 5 3 -53 3 -58 0 -81 -1 -52 -3z"/>
<path d="M8545 3460 c-5 -8 20 -70 28 -70 1 0 2 11 2 24 0 13 -4 24 -10 23 -5
-1 -9 6 -9 16 2 19 -2 22 -11 7z"/>
<path d="M7824 3429 c-8 -17 -13 -36 -10 -42 2 -7 5 -4 5 6 1 9 9 17 19 18 9
0 12 3 5 5 -17 7 -4 34 13 27 8 -3 14 -3 14 0 0 3 -7 7 -15 11 -10 3 -20 -5
-31 -25z"/>
<path d="M8340 3450 c-20 -6 -21 -8 -5 -8 11 0 29 3 40 8 25 11 -1 11 -35 0z"/>
<path d="M8040 3440 c25 -8 97 -13 89 -6 -2 2 -29 6 -59 9 -36 4 -46 3 -30 -3z"/>
<path d="M8263 3433 c9 -2 25 -2 35 0 9 3 1 5 -18 5 -19 0 -27 -2 -17 -5z"/>
<path d="M8168 3423 c12 -2 32 -2 45 0 12 2 2 4 -23 4 -25 0 -35 -2 -22 -4z"/>
<path d="M8365 3390 c-15 -7 -16 -9 -4 -9 10 -1 19 -13 23 -33 3 -17 8 -29 11
-26 3 2 1 18 -4 36 -7 21 -6 32 2 36 7 2 8 4 2 5 -5 0 -19 -4 -30 -9z"/>
<path d="M8000 3376 c-15 -19 -9 -58 10 -63 12 -4 12 -3 2 5 -8 5 -12 20 -10
33 2 19 9 24 30 24 14 -1 24 3 22 7 -8 13 -41 9 -54 -6z"/>
<path d="M8480 3385 c0 -5 5 -17 10 -25 5 -8 10 -10 10 -5 0 6 -5 17 -10 25
-5 8 -10 11 -10 5z"/>
<path d="M8121 3333 c-1 -38 1 -43 22 -42 16 1 18 2 5 6 -20 5 -25 33 -5 33 8
0 9 3 1 8 -6 4 -14 14 -17 22 -3 8 -6 -4 -6 -27z"/>
<path d="M8265 3345 c0 -13 7 -30 15 -37 12 -11 12 -11 2 3 -6 8 -9 25 -5 37
3 12 1 22 -4 22 -5 0 -9 -11 -8 -25z"/>
<path d="M8242 3320 c0 -19 2 -27 5 -17 2 9 2 25 0 35 -3 9 -5 1 -5 -18z"/>
<path d="M8517 5014 c-8 -8 1 -24 14 -24 5 0 9 7 9 15 0 15 -12 20 -23 9z"/>
<path d="M7780 4984 c0 -17 22 -14 28 4 2 7 -3 12 -12 12 -9 0 -16 -7 -16 -16z"/>
<path d="M8580 4980 c0 -5 7 -10 15 -10 8 0 15 5 15 10 0 6 -7 10 -15 10 -8 0
-15 -4 -15 -10z"/>
<path d="M7720 4955 c0 -9 5 -15 11 -13 6 2 11 8 11 13 0 5 -5 11 -11 13 -6 2
-11 -4 -11 -13z"/>
<path d="M8642 4949 c2 -6 8 -10 13 -10 5 0 11 4 13 10 2 6 -4 11 -13 11 -9 0
-15 -5 -13 -11z"/>
<path d="M7660 4920 c0 -5 7 -10 15 -10 8 0 15 5 15 10 0 6 -7 10 -15 10 -8 0
-15 -4 -15 -10z"/>
<path d="M8700 4915 c0 -9 5 -15 11 -13 6 2 11 8 11 13 0 5 -5 11 -11 13 -6 2
-11 -4 -11 -13z"/>
<path d="M7606 4893 c-11 -11 -6 -23 9 -23 8 0 15 4 15 9 0 13 -16 22 -24 14z"/>
<path d="M8757 4884 c-8 -8 1 -24 14 -24 5 0 9 7 9 15 0 15 -12 20 -23 9z"/>
<path d="M7552 4839 c2 -6 8 -10 13 -10 5 0 11 4 13 10 2 6 -4 11 -13 11 -9 0
-15 -5 -13 -11z"/>
<path d="M8810 4830 c0 -5 5 -10 10 -10 6 0 10 5 10 10 0 6 -4 10 -10 10 -5 0
-10 -4 -10 -10z"/>
<path d="M7506 4803 c-11 -11 -6 -23 9 -23 8 0 15 4 15 9 0 13 -16 22 -24 14z"/>
<path d="M8860 4785 c0 -9 5 -15 11 -13 6 2 11 8 11 13 0 5 -5 11 -11 13 -6 2
-11 -4 -11 -13z"/>
<path d="M7456 4753 c-11 -11 -6 -23 9 -23 8 0 15 4 15 9 0 13 -16 22 -24 14z"/>
<path d="M8907 4743 c-12 -11 -8 -23 8 -23 8 0 15 7 15 15 0 16 -12 20 -23 8z"/>
<path d="M7412 4691 c4 -13 18 -16 19 -4 0 4 -5 9 -11 12 -7 2 -11 -2 -8 -8z"/>
<path d="M8950 4675 c0 -8 5 -15 10 -15 6 0 10 7 10 15 0 8 -4 15 -10 15 -5 0
-10 -7 -10 -15z"/>
<path d="M7370 4636 c0 -9 7 -16 16 -16 9 0 14 5 12 12 -6 18 -28 21 -28 4z"/>
<path d="M8987 4634 c-8 -8 1 -24 14 -24 5 0 9 7 9 15 0 15 -12 20 -23 9z"/>
<path d="M1503 4576 c1 -11 9 -21 17 -23 10 -3 11 -2 4 4 -6 4 -14 15 -17 23
-5 11 -6 9 -4 -4z"/>
<path d="M7337 4583 c-12 -11 -8 -23 8 -23 8 0 15 7 15 15 0 16 -12 20 -23 8z"/>
<path d="M1643 4565 c0 -8 4 -12 9 -9 5 3 6 10 3 15 -9 13 -12 11 -12 -6z"/>
<path d="M9026 4573 c-11 -11 -6 -23 9 -23 8 0 15 4 15 9 0 13 -16 22 -24 14z"/>
<path d="M1967 4559 c7 -7 15 -10 18 -7 3 3 -2 9 -12 12 -14 6 -15 5 -6 -5z"/>
<path d="M2487 4559 c7 -7 15 -10 18 -7 3 3 -2 9 -12 12 -14 6 -15 5 -6 -5z"/>
<path d="M7306 4523 c-11 -11 -6 -23 9 -23 8 0 15 4 15 9 0 13 -16 22 -24 14z"/>
<path d="M9056 4513 c-11 -11 -6 -23 9 -23 8 0 15 4 15 9 0 13 -16 22 -24 14z"/>
<path d="M7280 4444 c0 -8 5 -12 10 -9 6 3 10 10 10 16 0 5 -4 9 -10 9 -5 0
-10 -7 -10 -16z"/>
<path d="M9080 4435 c0 -8 5 -15 10 -15 6 0 10 7 10 15 0 8 -4 15 -10 15 -5 0
-10 -7 -10 -15z"/>
<path d="M7257 4393 c-12 -11 -8 -23 8 -23 8 0 15 7 15 15 0 16 -12 20 -23 8z"/>
<path d="M9106 4381 c-4 -7 -5 -15 -2 -18 9 -9 19 4 14 18 -4 11 -6 11 -12 0z"/>
<path d="M7240 4315 c0 -8 5 -15 10 -15 6 0 10 7 10 15 0 8 -4 15 -10 15 -5 0
-10 -7 -10 -15z"/>
<path d="M9117 4314 c-8 -8 1 -24 14 -24 5 0 9 7 9 15 0 15 -12 20 -23 9z"/>
<path d="M1568 4241 c3 -24 0 -30 -18 -33 -59 -8 -49 -71 11 -75 l34 -2 -3 70
c-3 47 -8 69 -16 69 -8 0 -11 -10 -8 -29z m0 -68 c-2 -17 -9 -28 -18 -28 -9 0
-16 11 -18 28 -3 22 1 27 18 27 17 0 21 -5 18 -27z"/>
<path d="M4075 4200 c0 -63 2 -70 20 -70 15 0 17 3 7 9 -22 13 -11 56 16 59
19 3 22 -1 22 -32 0 -20 3 -36 8 -36 4 0 6 18 4 40 -4 37 -7 40 -33 40 -26 0
-29 4 -29 30 0 17 -3 30 -7 30 -5 0 -8 -31 -8 -70z"/>
<path d="M1048 4253 c7 -3 12 -25 12 -58 0 -33 -5 -55 -12 -58 -7 -3 1 -5 17
-5 17 0 24 2 18 5 -23 9 -15 51 10 56 l22 4 -22 2 c-17 1 -23 7 -23 26 0 20 5
25 24 25 13 0 27 -6 29 -12 3 -8 6 -6 6 5 1 14 -7 17 -46 16 -27 0 -42 -3 -35
-6z"/>
<path d="M1815 4250 c-3 -5 -1 -10 4 -10 6 0 11 5 11 10 0 6 -2 10 -4 10 -3 0
-8 -4 -11 -10z"/>
<path d="M2315 4195 c0 -65 0 -65 28 -65 42 0 65 16 72 50 10 47 -16 80 -63
80 l-37 0 0 -65z m73 43 c7 -7 12 -26 12 -43 0 -35 -15 -55 -42 -55 -15 0 -18
9 -18 55 0 46 3 55 18 55 10 0 23 -5 30 -12z"/>
<path d="M2855 4195 l0 -65 32 0 c42 0 63 23 63 70 0 44 -18 60 -67 60 -28 0
-28 0 -28 -65z m75 35 c24 -45 -5 -102 -44 -87 -11 5 -16 19 -16 50 0 24 3 47
7 50 13 14 43 6 53 -13z"/>
<path d="M3388 4253 c7 -3 12 -25 12 -58 0 -33 -5 -55 -12 -58 -7 -3 8 -6 35
-6 39 -1 47 2 46 17 0 10 -3 12 -6 5 -2 -7 -16 -13 -29 -13 -33 0 -35 47 -1
53 l22 4 -22 2 c-17 1 -23 7 -23 26 0 20 5 25 24 25 13 0 27 -6 29 -12 3 -8 6
-6 6 5 1 14 -7 17 -46 16 -27 0 -42 -3 -35 -6z"/>
<path d="M7222 4249 c2 -6 8 -10 13 -10 5 0 11 4 13 10 2 6 -4 11 -13 11 -9 0
-15 -5 -13 -11z"/>
<path d="M9127 4244 c-8 -8 1 -24 14 -24 5 0 9 7 9 15 0 15 -12 20 -23 9z"/>
<path d="M1737 4222 c-2 -4 -2 -26 1 -49 3 -36 7 -43 26 -42 16 1 17 2 4 6
-21 5 -26 69 -6 75 8 3 6 7 -5 11 -9 3 -18 3 -20 -1z"/>
<path d="M2567 4222 c-2 -4 -2 -26 1 -49 3 -36 7 -43 26 -42 16 1 17 2 4 6
-21 5 -26 69 -6 75 8 3 6 7 -5 11 -9 3 -18 3 -20 -1z"/>
<path d="M3100 4196 c0 -49 9 -66 34 -65 16 1 17 2 4 6 -21 5 -26 73 -5 73 8
0 7 4 -3 10 -25 16 -30 12 -30 -24z"/>
<path d="M1154 4196 c-12 -31 0 -61 27 -64 31 -4 52 18 47 50 -2 18 -10 24
-36 26 -21 2 -34 -2 -38 -12z m60 -11 c8 -23 -4 -45 -25 -45 -11 0 -22 7 -25
15 -9 23 3 45 25 45 10 0 21 -7 25 -15z"/>
<path d="M1269 4173 c6 -35 9 -38 41 -39 35 -2 35 -2 32 37 -5 47 -17 52 -17
7 0 -26 -4 -33 -20 -33 -15 0 -21 8 -23 33 -2 17 -7 32 -11 32 -4 0 -5 -17 -2
-37z"/>
<path d="M1395 4170 c0 -33 3 -40 20 -40 15 0 17 3 7 9 -21 13 -11 56 13 56
15 0 21 -8 23 -32 2 -18 7 -33 11 -33 4 0 5 17 2 38 -6 34 -9 37 -41 40 -35 3
-35 3 -35 -38z"/>
<path d="M1630 4201 c0 -4 11 -6 25 -3 15 2 25 0 25 -7 0 -6 -6 -11 -12 -11
-10 0 -9 -3 1 -9 16 -11 6 -31 -16 -31 -9 0 -13 6 -9 15 3 8 1 15 -4 15 -6 0
-10 -9 -10 -20 0 -16 6 -19 33 -18 31 1 32 2 29 40 -4 34 -7 38 -33 38 -16 0
-29 -4 -29 -9z"/>
<path d="M1815 4170 c0 -22 5 -40 10 -40 6 0 9 17 7 40 -2 22 -7 40 -11 40 -3
0 -6 -18 -6 -40z"/>
<path d="M1876 4195 c-13 -34 -6 -55 19 -61 33 -8 57 12 53 45 -2 21 -9 27
-34 29 -22 2 -33 -2 -38 -13z m58 -10 c8 -23 -4 -45 -25 -45 -11 0 -22 7 -25
15 -9 23 3 45 25 45 10 0 21 -7 25 -15z"/>
<path d="M1998 4185 c2 -14 -1 -32 -8 -40 -10 -12 -9 -15 7 -15 16 0 18 6 15
35 -4 30 -1 35 17 35 17 0 21 -6 21 -35 0 -26 4 -35 17 -35 13 0 14 3 5 12 -7
7 -12 25 -12 40 0 25 -3 28 -34 28 -30 0 -33 -2 -28 -25z"/>
<path d="M2110 4195 c0 -8 9 -19 20 -25 11 -6 20 -16 20 -22 0 -5 -9 -8 -20
-5 -11 3 -20 1 -20 -4 0 -15 36 -10 50 6 10 12 7 17 -14 26 -31 14 -35 34 -6
26 11 -3 20 -1 20 4 0 5 -11 9 -25 9 -15 0 -25 -6 -25 -15z"/>
<path d="M2205 4200 c3 -5 8 -10 11 -10 2 0 4 5 4 10 0 6 -5 10 -11 10 -5 0
-7 -4 -4 -10z"/>
<path d="M2460 4201 c0 -4 11 -6 25 -3 15 2 25 0 25 -7 0 -6 -6 -11 -12 -11
-10 0 -9 -3 1 -9 16 -11 6 -31 -16 -31 -9 0 -13 6 -9 15 3 8 1 15 -4 15 -6 0
-10 -9 -10 -20 0 -16 6 -19 33 -18 31 1 32 2 29 40 -4 34 -7 38 -33 38 -16 0
-29 -4 -29 -9z"/>
<path d="M2640 4202 c0 -6 8 -8 19 -5 10 3 22 0 25 -6 4 -6 3 -11 -2 -11 -6 0
-9 -7 -8 -16 0 -9 -5 -19 -13 -22 -10 -3 -12 0 -8 12 5 12 3 16 -5 14 -29 -10
-13 -33 23 -34 35 -1 35 -1 30 35 -5 30 -11 37 -34 39 -15 2 -27 -1 -27 -6z"/>
<path d="M3000 4202 c0 -6 8 -8 19 -5 10 3 22 0 25 -6 4 -6 3 -11 -2 -11 -6 0
-9 -7 -8 -16 0 -9 -5 -19 -13 -22 -10 -3 -12 0 -8 12 5 12 3 16 -5 14 -29 -10
-13 -33 23 -34 35 -1 35 -1 30 35 -5 30 -11 37 -34 39 -15 2 -27 -1 -27 -6z"/>
<path d="M3170 4201 c0 -4 11 -6 25 -3 15 2 25 0 25 -7 0 -6 -6 -11 -12 -11
-9 0 -8 -3 2 -10 11 -7 12 -12 3 -21 -13 -13 -37 -3 -28 12 4 5 1 9 -5 9 -6 0
-10 -8 -8 -17 2 -13 14 -19 42 -20 30 -2 37 0 28 9 -7 7 -12 25 -12 40 0 24
-4 28 -30 28 -16 0 -30 -4 -30 -9z"/>
<path d="M3521 4170 c11 -22 22 -40 24 -40 2 0 13 18 24 40 13 27 15 40 7 40
-6 0 -12 -10 -13 -21 -3 -39 -22 -46 -29 -11 -4 18 -12 32 -19 32 -10 0 -8
-11 6 -40z"/>
<path d="M3614 4185 c-8 -32 11 -55 45 -54 l26 1 -24 7 c-34 9 -39 31 -7 31
19 0 26 5 26 20 0 16 -7 20 -30 20 -23 0 -31 -5 -36 -25z m56 5 c0 -5 -9 -10
-20 -10 -11 0 -20 5 -20 10 0 6 9 10 20 10 11 0 20 -4 20 -10z"/>
<path d="M3725 4169 c0 -32 3 -39 20 -39 15 0 17 3 7 9 -20 12 -11 56 11 55 9
-1 17 2 17 6 0 5 -12 8 -27 8 -26 -1 -28 -4 -28 -39z"/>
<path d="M3828 4164 c16 -44 16 -46 -3 -61 -19 -14 -19 -15 -1 -11 26 4 73
118 50 118 -9 0 -13 -4 -10 -9 4 -5 2 -20 -2 -32 l-9 -23 -12 22 c-7 12 -9 27
-6 32 3 6 -1 10 -9 10 -13 0 -13 -6 2 -46z"/>
<path d="M3927 4170 c9 -22 20 -40 25 -40 11 0 10 3 -6 36 -8 15 -13 31 -10
36 3 4 -1 8 -10 8 -12 0 -12 -5 1 -40z"/>
<path d="M4014 4201 c4 -5 2 -20 -3 -33 l-9 -23 -12 30 c-9 23 -13 26 -20 15
-13 -20 -12 -33 1 -25 6 4 13 -2 16 -14 8 -31 18 -26 36 19 13 35 13 40 1 40
-9 0 -13 -4 -10 -9z"/>
<path d="M4204 4196 c-3 -8 -4 -25 -2 -38 2 -18 10 -23 33 -25 27 -2 28 -1 6
5 -38 12 -38 32 -1 32 25 0 31 3 26 16 -3 9 -6 18 -6 20 0 11 -51 2 -56 -10z
m46 -6 c0 -5 -9 -10 -20 -10 -11 0 -20 5 -20 10 0 6 9 10 20 10 11 0 20 -4 20
-10z"/>
<path d="M4305 4168 c0 -30 4 -38 19 -38 15 0 16 3 6 15 -16 20 -4 53 23 58
12 2 6 4 -13 4 -34 0 -35 -1 -35 -39z"/>
<path d="M4394 4186 c-8 -33 11 -56 45 -55 l26 1 -24 7 c-35 9 -39 31 -6 31
37 0 30 34 -7 38 -22 3 -29 -2 -34 -22z m56 4 c0 -5 -9 -10 -20 -10 -11 0 -20
5 -20 10 0 6 9 10 20 10 11 0 20 -4 20 -10z"/>
<path d="M7220 4180 c0 -5 5 -10 10 -10 6 0 10 5 10 10 0 6 -4 10 -10 10 -5 0
-10 -4 -10 -10z"/>
<path d="M9132 4169 c2 -6 8 -10 13 -10 5 0 11 4 13 10 2 6 -4 11 -13 11 -9 0
-15 -5 -13 -11z"/>
<path d="M2205 4140 c3 -5 8 -10 11 -10 2 0 4 5 4 10 0 6 -5 10 -11 10 -5 0
-7 -4 -4 -10z"/>
<path d="M2740 4141 c0 -6 5 -13 10 -16 6 -3 10 1 10 9 0 9 -4 16 -10 16 -5 0
-10 -4 -10 -9z"/>
<path d="M3280 4140 c0 -5 5 -10 10 -10 6 0 10 5 10 10 0 6 -4 10 -10 10 -5 0
-10 -4 -10 -10z"/>
<path d="M7217 4124 c-8 -8 1 -24 14 -24 5 0 9 7 9 15 0 15 -12 20 -23 9z"/>
<path d="M9130 4110 c0 -5 7 -10 15 -10 8 0 15 5 15 10 0 6 -7 10 -15 10 -8 0
-15 -4 -15 -10z"/>
<path d="M7220 4045 c0 -8 5 -15 10 -15 6 0 10 7 10 15 0 8 -4 15 -10 15 -5 0
-10 -7 -10 -15z"/>
<path d="M9136 4053 c-11 -11 -6 -23 9 -23 8 0 15 4 15 9 0 13 -16 22 -24 14z"/>
<path d="M7222 3979 c2 -6 8 -10 13 -10 5 0 11 4 13 10 2 6 -4 11 -13 11 -9 0
-15 -5 -13 -11z"/>
<path d="M9127 3984 c-8 -8 1 -24 14 -24 5 0 9 7 9 15 0 15 -12 20 -23 9z"/>
<path d="M7230 3910 c0 -5 7 -10 15 -10 8 0 15 5 15 10 0 6 -7 10 -15 10 -8 0
-15 -4 -15 -10z"/>
<path d="M9112 3908 c6 -18 28 -21 28 -4 0 9 -7 16 -16 16 -9 0 -14 -5 -12
-12z"/>
<path d="M7256 3853 c-11 -11 -6 -23 9 -23 8 0 15 4 15 9 0 13 -16 22 -24 14z"/>
<path d="M9090 3840 c0 -5 7 -10 15 -10 8 0 15 5 15 10 0 6 -7 10 -15 10 -8 0
-15 -4 -15 -10z"/>
<path d="M3311 3794 c0 -11 3 -14 6 -6 3 7 2 16 -1 19 -3 4 -6 -2 -5 -13z"/>
<path d="M4821 3794 c0 -11 3 -14 6 -6 3 7 2 16 -1 19 -3 4 -6 -2 -5 -13z"/>
<path d="M1480 3786 c0 -8 4 -17 9 -20 5 -4 7 3 4 14 -6 23 -13 26 -13 6z"/>
<path d="M1920 3786 c0 -8 4 -17 9 -20 5 -4 7 3 4 14 -6 23 -13 26 -13 6z"/>
<path d="M2450 3786 c0 -8 4 -17 9 -20 5 -4 7 3 4 14 -6 23 -13 26 -13 6z"/>
<path d="M3003 3786 c1 -11 9 -21 17 -23 10 -3 11 -2 4 4 -6 4 -14 15 -17 23
-5 11 -6 9 -4 -4z"/>
<path d="M3620 3786 c0 -8 4 -17 9 -20 5 -4 7 3 4 14 -6 23 -13 26 -13 6z"/>
<path d="M4093 3786 c1 -11 9 -21 17 -23 10 -3 11 -2 4 4 -6 4 -14 15 -17 23
-5 11 -6 9 -4 -4z"/>
<path d="M4200 3786 c0 -8 4 -17 9 -20 5 -4 7 3 4 14 -6 23 -13 26 -13 6z"/>
<path d="M5130 3786 c0 -8 4 -17 9 -20 5 -4 7 3 4 14 -6 23 -13 26 -13 6z"/>
<path d="M1980 3781 c0 -10 19 -25 25 -20 1 2 -3 10 -11 17 -8 7 -14 8 -14 3z"/>
<path d="M3460 3781 c0 -10 19 -25 25 -20 1 2 -3 10 -11 17 -8 7 -14 8 -14 3z"/>
<path d="M4520 3781 c0 -6 4 -13 10 -16 6 -3 7 1 4 9 -7 18 -14 21 -14 7z"/>
<path d="M7272 3779 c2 -6 8 -10 13 -10 5 0 11 4 13 10 2 6 -4 11 -13 11 -9 0
-15 -5 -13 -11z"/>
<path d="M9077 3783 c-12 -11 -8 -23 8 -23 8 0 15 7 15 15 0 16 -12 20 -23 8z"/>
<path d="M1827 3769 c7 -7 15 -10 18 -7 3 3 -2 9 -12 12 -14 6 -15 5 -6 -5z"/>
<path d="M3067 3769 c7 -7 15 -10 18 -7 3 3 -2 9 -12 12 -14 6 -15 5 -6 -5z"/>
<path d="M3847 3769 c7 -7 15 -10 18 -7 3 3 -2 9 -12 12 -14 6 -15 5 -6 -5z"/>
<path d="M4267 3769 c7 -7 15 -10 18 -7 3 3 -2 9 -12 12 -14 6 -15 5 -6 -5z"/>
<path d="M2408 3763 c7 -3 16 -2 19 1 4 3 -2 6 -13 5 -11 0 -14 -3 -6 -6z"/>
<path d="M2948 3763 c6 -2 18 -2 25 0 6 3 1 5 -13 5 -14 0 -19 -2 -12 -5z"/>
<path d="M7300 3715 c0 -9 5 -15 11 -13 6 2 11 8 11 13 0 5 -5 11 -11 13 -6 2
-11 -4 -11 -13z"/>
<path d="M9050 3710 c0 -5 5 -10 10 -10 6 0 10 5 10 10 0 6 -4 10 -10 10 -5 0
-10 -4 -10 -10z"/>
<path d="M7330 3656 c0 -9 7 -16 16 -16 17 0 14 22 -4 28 -7 2 -12 -3 -12 -12z"/>
<path d="M9020 3650 c0 -5 5 -10 10 -10 6 0 10 5 10 10 0 6 -4 10 -10 10 -5 0
-10 -4 -10 -10z"/>
<path d="M7367 3604 c-8 -8 1 -24 14 -24 5 0 9 7 9 15 0 15 -12 20 -23 9z"/>
<path d="M8980 3590 c0 -5 7 -10 15 -10 8 0 15 5 15 10 0 6 -7 10 -15 10 -8 0
-15 -4 -15 -10z"/>
<path d="M7402 3538 c6 -18 28 -21 28 -4 0 9 -7 16 -16 16 -9 0 -14 -5 -12
-12z"/>
<path d="M8947 3543 c-12 -11 -8 -23 8 -23 8 0 15 7 15 15 0 16 -12 20 -23 8z"/>
<path d="M7450 3485 c0 -8 5 -15 10 -15 6 0 10 7 10 15 0 8 -4 15 -10 15 -5 0
-10 -7 -10 -15z"/>
<path d="M8900 3480 c0 -5 7 -10 15 -10 8 0 15 5 15 10 0 6 -7 10 -15 10 -8 0
-15 -4 -15 -10z"/>
<path d="M7496 3443 c-11 -11 -6 -23 9 -23 8 0 15 4 15 9 0 13 -16 22 -24 14z"/>
<path d="M8850 3430 c0 -5 7 -10 15 -10 8 0 15 5 15 10 0 6 -7 10 -15 10 -8 0
-15 -4 -15 -10z"/>
<path d="M7547 3394 c-8 -8 1 -24 14 -24 5 0 9 7 9 15 0 15 -12 20 -23 9z"/>
<path d="M8806 3393 c-11 -11 -6 -23 9 -23 8 0 15 4 15 9 0 13 -16 22 -24 14z"/>
<path d="M7600 3345 c0 -8 5 -15 10 -15 6 0 10 7 10 15 0 8 -4 15 -10 15 -5 0
-10 -7 -10 -15z"/>
<path d="M8750 3340 c0 -5 7 -10 15 -10 8 0 15 5 15 10 0 6 -7 10 -15 10 -8 0
-15 -4 -15 -10z"/>
<path d="M7657 3313 c-12 -11 -8 -23 8 -23 8 0 15 7 15 15 0 16 -12 20 -23 8z"/>
<path d="M8696 3313 c-11 -11 -6 -23 9 -23 8 0 15 4 15 9 0 13 -16 22 -24 14z"/>
<path d="M7712 3269 c2 -6 8 -10 13 -10 5 0 11 4 13 10 2 6 -4 11 -13 11 -9 0
-15 -5 -13 -11z"/>
<path d="M8632 3268 c6 -18 28 -21 28 -4 0 9 -7 16 -16 16 -9 0 -14 -5 -12
-12z"/>
<path d="M7772 3238 c6 -18 28 -21 28 -4 0 9 -7 16 -16 16 -9 0 -14 -5 -12
-12z"/>
<path d="M8570 3234 c0 -17 22 -14 28 4 2 7 -3 12 -12 12 -9 0 -16 -7 -16 -16z"/>
<path d="M7840 3210 c0 -5 5 -10 10 -10 6 0 10 5 10 10 0 6 -4 10 -10 10 -5 0
-10 -4 -10 -10z"/>
<path d="M8510 3210 c0 -5 5 -10 10 -10 6 0 10 5 10 10 0 6 -4 10 -10 10 -5 0
-10 -4 -10 -10z"/>
<path d="M7902 3189 c2 -6 8 -10 13 -10 5 0 11 4 13 10 2 6 -4 11 -13 11 -9 0
-15 -5 -13 -11z"/>
<path d="M8442 3189 c2 -6 8 -10 13 -10 5 0 11 4 13 10 2 6 -4 11 -13 11 -9 0
-15 -5 -13 -11z"/>
<path d="M7975 3179 c-10 -15 3 -25 16 -12 7 7 7 13 1 17 -6 3 -14 1 -17 -5z"/>
<path d="M8380 3170 c0 -5 5 -10 10 -10 6 0 10 5 10 10 0 6 -4 10 -10 10 -5 0
-10 -4 -10 -10z"/>
<path d="M8040 3160 c0 -5 5 -10 10 -10 6 0 10 5 10 10 0 6 -4 10 -10 10 -5 0
-10 -4 -10 -10z"/>
<path d="M8107 3164 c-8 -8 1 -24 14 -24 5 0 9 7 9 15 0 15 -12 20 -23 9z"/>
<path d="M8246 3163 c-11 -11 -6 -23 9 -23 8 0 15 4 15 9 0 13 -16 22 -24 14z"/>
<path d="M8312 3161 c4 -13 18 -16 19 -4 0 4 -5 9 -11 12 -7 2 -11 -2 -8 -8z"/>
<path d="M8172 3149 c2 -6 8 -10 13 -10 5 0 11 4 13 10 2 6 -4 11 -13 11 -9 0
-15 -5 -13 -11z"/>
<path d="M1231 2236 c-26 -8 -39 -23 -61 -66 -15 -30 -30 -76 -34 -102 -5 -31
-12 -48 -21 -48 -10 0 -7 -8 9 -25 29 -31 43 -31 71 -1 15 16 30 23 43 19 11
-2 23 0 26 6 5 7 -2 11 -18 11 l-24 0 21 65 21 66 28 -53 c33 -65 33 -66 6
-71 -21 -4 -20 -4 3 -6 15 0 32 -8 39 -16 11 -13 8 -14 -21 -10 -24 3 -18 -1
21 -15 30 -10 64 -19 75 -19 17 -1 17 1 -5 16 -28 19 -51 46 -44 52 2 2 21 8
41 12 34 8 33 8 -10 4 l-48 -5 -29 63 c-15 35 -31 80 -35 100 -4 20 -10 36
-14 36 -3 -1 -21 -7 -40 -13z m-6 -113 c-30 -104 -73 -144 -60 -56 8 56 42
126 55 118 6 -4 10 0 11 7 0 10 2 10 6 1 2 -7 -3 -39 -12 -70z"/>
<path d="M2643 2193 c-26 -39 -26 -176 0 -181 13 -3 17 3 17 27 0 28 3 31 33
32 17 1 24 3 15 6 -22 6 -23 17 -2 33 30 26 35 48 19 80 -20 39 -58 41 -82 3z
m57 -53 c-5 -9 -16 -22 -24 -30 -14 -11 -16 -9 -16 14 0 15 5 37 11 48 11 21
12 21 25 3 9 -12 10 -24 4 -35z"/>
<path d="M2125 2094 l-63 -65 -69 1 c-37 1 -81 -1 -97 -5 -19 -5 -27 -4 -23 2
4 6 -7 13 -24 17 -53 10 -75 7 -94 -14 -12 -13 -32 -20 -59 -21 -31 -1 -24 -4
29 -11 39 -5 81 -6 95 -2 14 4 36 8 50 9 133 13 182 15 197 7 10 -6 45 -12 78
-14 33 -3 48 -3 33 -1 -37 6 -35 14 10 38 39 21 78 84 68 110 -3 9 -18 15 -37
15 -26 0 -43 -12 -94 -66z m113 32 c5 -22 -74 -98 -96 -94 -28 6 -23 24 22 72
44 48 68 55 74 22z"/>
<path d="M3480 2130 c-37 -52 -25 -65 55 -64 39 1 89 5 112 9 23 4 50 4 60 0
17 -7 17 -8 -2 -15 -19 -8 -19 -9 2 -9 26 -1 68 -73 59 -98 -4 -9 -1 -13 6
-11 22 7 20 41 -4 88 -20 39 -29 47 -71 58 -42 12 -53 12 -82 -2 -38 -18 -49
-20 -40 -7 10 18 -16 23 -34 7 -44 -40 -74 11 -31 54 15 15 16 20 6 20 -8 0
-24 -14 -36 -30z"/>
<path d="M2798 2083 c12 -2 30 -2 40 0 9 3 -1 5 -23 4 -22 0 -30 -2 -17 -4z"/>
<path d="M2860 2082 c0 -5 -26 -16 -57 -26 -68 -21 -106 -43 -98 -56 7 -12 82
-12 110 0 13 5 -1 6 -35 3 -49 -5 -53 -4 -40 10 8 8 44 24 79 34 60 17 94 43
57 43 -9 0 -16 -4 -16 -8z"/>
<path d="M3003 2073 c22 -4 27 -8 22 -24 -8 -23 19 -25 80 -4 l40 14 -37 -6
c-27 -4 -42 0 -53 11 -9 9 -31 15 -48 15 -31 -2 -31 -2 -4 -6z"/>
<path d="M3175 2070 l-30 -7 28 -7 c15 -5 48 -5 74 -1 42 6 46 5 34 -9 -23
-28 -6 -46 43 -46 44 0 44 0 48 38 l3 38 -85 0 c-47 1 -98 -2 -115 -6z m62 -6
c-3 -3 -12 -4 -19 -1 -8 3 -5 6 6 6 11 1 17 -2 13 -5z m91 -26 c18 -18 15 -28
-8 -28 -13 0 -20 7 -20 20 0 23 10 26 28 8z"/>
<path d="M2293 2059 c-23 -7 -33 -16 -33 -29 0 -14 -7 -20 -22 -20 -12 0 -19
-3 -15 -6 3 -3 32 0 64 7 32 7 71 11 87 10 l28 -1 -30 25 c-33 27 -33 27 -79
14z m27 -19 c-20 -13 -33 -13 -25 0 3 6 14 10 23 10 15 0 15 -2 2 -10z"/>
<path d="M2894 2055 c-4 -9 -18 -22 -33 -31 l-26 -15 25 7 c14 3 36 13 50 23
14 9 34 19 45 23 14 4 9 6 -18 7 -25 1 -40 -4 -43 -14z"/>
<path d="M3798 2063 c12 -2 30 -2 40 0 9 3 -1 5 -23 4 -22 0 -30 -2 -17 -4z"/>
<path d="M1453 2048 c0 -7 -4 -21 -8 -30 -6 -14 -2 -18 17 -18 13 0 33 7 46
15 19 14 24 14 47 -1 31 -20 97 -12 88 11 -6 18 -40 20 -46 3 -3 -9 -12 -6
-29 10 -13 12 -32 22 -41 22 -9 0 -23 -10 -32 -22 l-17 -23 7 23 c5 17 2 22
-13 22 -10 0 -19 -6 -19 -12z"/>
<path d="M3658 2043 c7 -3 16 -2 19 1 4 3 -2 6 -13 5 -11 0 -14 -3 -6 -6z"/>
<path d="M2433 2033 c9 -2 25 -2 35 0 9 3 1 5 -18 5 -19 0 -27 -2 -17 -5z"/>
<path d="M3604 2030 c-12 -5 -29 -19 -38 -31 -22 -32 -5 -47 59 -54 l50 -5
-45 12 c-57 16 -63 40 -18 68 34 20 30 26 -8 10z"/>
<path d="M3693 1933 c9 -2 25 -2 35 0 9 3 1 5 -18 5 -19 0 -27 -2 -17 -5z"/>
<path d="M9208 983 c7 -3 16 -2 19 1 4 3 -2 6 -13 5 -11 0 -14 -3 -6 -6z"/>
<path d="M6951 840 c1 -34 3 -39 8 -21 9 35 29 37 34 4 l4 -28 2 28 c0 18 -5
30 -16 34 -10 4 -21 11 -25 17 -4 6 -7 -9 -7 -34z"/>
<path d="M8388 868 c-2 -7 -1 -26 2 -43 l6 -30 5 32 c6 34 -4 66 -13 41z"/>
<path d="M8548 873 c-3 -4 -5 -23 -6 -40 -2 -27 1 -33 18 -33 17 0 20 6 18 37
-3 34 -21 55 -30 36z m22 -13 c0 -5 -4 -10 -10 -10 -5 0 -10 5 -10 10 0 6 5
10 10 10 6 0 10 -4 10 -10z m0 -40 c0 -5 -4 -10 -10 -10 -5 0 -10 5 -10 10 0
6 5 10 10 10 6 0 10 -4 10 -10z"/>
<path d="M8610 840 c0 -37 2 -41 21 -38 12 2 27 11 33 21 14 22 -3 51 -33 55
-19 3 -21 -1 -21 -38z m45 0 c0 -16 -6 -26 -17 -28 -14 -3 -18 3 -18 28 0 25
4 31 18 28 11 -2 17 -12 17 -28z"/>
<path d="M8700 840 c0 -35 3 -40 23 -39 16 1 18 2 5 6 -21 5 -24 29 -5 36 10
4 10 6 0 6 -19 1 -16 19 5 24 13 4 11 5 -5 6 -20 1 -23 -4 -23 -39z"/>
<path d="M8772 838 c-1 -26 -7 -49 -14 -51 -10 -4 -10 -6 0 -6 18 -1 24 20 19
65 -4 38 -4 37 -5 -8z"/>
<path d="M8817 874 c-4 -4 -7 -21 -7 -37 0 -20 6 -30 20 -34 11 -3 20 -9 20
-14 0 -5 4 -9 8 -9 4 0 8 21 7 48 0 40 -3 47 -20 50 -12 2 -24 0 -28 -4z m43
-34 c0 -23 -4 -30 -20 -30 -14 0 -20 7 -20 23 0 27 7 37 27 37 8 0 13 -12 13
-30z"/>
<path d="M8902 840 c0 -25 2 -37 5 -27 2 9 7 17 10 17 3 0 12 -8 20 -17 12
-16 12 -15 2 9 -10 22 -9 31 2 45 13 17 12 16 -8 0 -21 -18 -21 -18 -26 0 -3
10 -5 -2 -5 -27z"/>
<path d="M8972 838 c-1 -26 -7 -49 -14 -51 -10 -4 -10 -6 0 -6 18 -1 24 20 19
65 -4 38 -4 37 -5 -8z"/>
<path d="M9023 873 c21 -6 22 -26 2 -43 -22 -18 -18 -30 8 -29 18 1 18 2 4 6
-17 4 -18 6 -2 24 20 22 13 49 -12 48 -17 -1 -17 -2 0 -6z"/>
<path d="M9077 848 c-5 -37 4 -54 26 -45 21 8 17 71 -5 75 -11 2 -17 -7 -21
-30z m33 12 c0 -5 -4 -10 -10 -10 -5 0 -10 5 -10 10 0 6 5 10 10 10 6 0 10 -4
10 -10z m0 -41 c0 -5 -7 -9 -15 -9 -15 0 -20 12 -9 23 8 8 24 -1 24 -14z"/>
<path d="M9157 857 c-21 -32 -21 -37 -2 -37 8 0 15 -5 15 -12 0 -8 3 -8 9 -2
5 5 6 24 3 43 l-7 34 -18 -26z m13 -17 c0 -5 -5 -10 -11 -10 -5 0 -7 5 -4 10
3 6 8 10 11 10 2 0 4 -4 4 -10z"/>
<path d="M9220 863 c8 -17 8 -29 0 -45 -10 -21 -10 -22 4 -5 14 18 15 18 25 0
13 -23 14 -8 1 17 -7 13 -7 21 0 25 5 3 10 12 10 18 0 7 -5 4 -11 -6 -10 -18
-11 -18 -25 0 -14 17 -14 16 -4 -4z"/>
<path d="M9287 848 c-5 -37 4 -54 26 -45 21 8 17 71 -5 75 -11 2 -17 -7 -21
-30z m33 12 c0 -5 -4 -10 -10 -10 -5 0 -10 5 -10 10 0 6 5 10 10 10 6 0 10 -4
10 -10z m0 -41 c0 -5 -7 -9 -15 -9 -15 0 -20 12 -9 23 8 8 24 -1 24 -14z"/>
<path d="M7022 833 c2 -14 9 -28 16 -29 7 -1 8 0 2 3 -14 7 -13 40 3 46 7 3 4
6 -6 6 -14 1 -18 -5 -15 -26z"/>
<path d="M7072 833 c2 -14 9 -28 16 -29 7 -1 8 0 2 3 -14 7 -13 40 3 46 7 3 4
6 -6 6 -14 1 -18 -5 -15 -26z"/>
<path d="M7120 818 c0 -24 4 -38 8 -32 4 6 15 13 25 17 26 10 18 51 -10 55
-21 3 -23 -1 -23 -40z m40 12 c0 -11 -7 -20 -15 -20 -8 0 -15 9 -15 20 0 11 7
20 15 20 8 0 15 -9 15 -20z"/>
<path d="M7190 846 c0 -8 6 -17 13 -19 9 -4 8 -8 -3 -16 -13 -9 -13 -11 3 -11
19 0 23 25 6 36 -8 4 -7 9 2 15 11 7 10 9 -3 9 -10 0 -18 -6 -18 -14z"/>
<path d="M7292 831 c-6 -17 -9 -31 -6 -31 7 0 25 52 20 57 -2 2 -8 -10 -14
-26z"/>
<path d="M7342 831 c-6 -17 -9 -31 -6 -31 7 0 25 52 20 57 -2 2 -8 -10 -14
-26z"/>
<path d="M7394 845 c-9 -23 3 -45 23 -44 17 1 17 2 1 6 -21 5 -24 39 -5 46 9
4 9 6 -1 6 -7 1 -15 -6 -18 -14z"/>
<path d="M7454 845 c-8 -21 2 -45 20 -45 17 0 28 24 20 45 -4 8 -13 15 -20 15
-8 0 -17 -7 -20 -15z m31 -15 c0 -7 -6 -15 -12 -17 -8 -3 -13 4 -13 17 0 13 5
20 13 18 6 -3 12 -11 12 -18z"/>
<path d="M7521 833 c-1 -29 2 -33 24 -33 21 0 25 5 24 28 0 26 -1 26 -9 5 -13
-31 -28 -29 -33 5 -4 25 -4 25 -6 -5z"/>
<path d="M7594 846 c-3 -8 -4 -23 -1 -33 3 -12 5 -9 6 9 0 14 7 29 14 31 9 4
9 6 -1 6 -7 1 -15 -5 -18 -13z"/>
<path d="M7636 851 c-3 -5 1 -15 10 -22 14 -12 14 -14 -3 -20 -16 -7 -15 -8 5
-8 26 -1 30 24 5 34 -17 7 -16 8 2 15 16 7 17 9 3 9 -9 1 -19 -3 -22 -8z"/>
<path d="M7697 845 c-10 -24 3 -45 27 -44 16 1 17 2 4 6 -22 6 -24 23 -2 23
20 0 13 24 -8 28 -9 2 -18 -4 -21 -13z"/>
<path d="M7774 846 c-3 -8 -4 -23 -1 -33 3 -12 5 -9 6 9 0 14 7 29 14 31 9 4
9 6 -1 6 -7 1 -15 -5 -18 -13z"/>
<path d="M7830 852 c19 -9 20 -34 1 -40 -8 -3 -11 0 -7 7 4 6 2 11 -4 11 -21
0 -4 -25 19 -28 19 -3 22 0 19 25 -2 19 -9 29 -23 30 -15 2 -16 1 -5 -5z"/>
<path d="M7927 845 c-9 -22 3 -46 22 -43 10 2 16 13 16 28 0 28 -29 40 -38 15z
m33 -15 c0 -21 -15 -27 -25 -10 -7 12 2 30 16 30 5 0 9 -9 9 -20z"/>
<path d="M8004 846 c-3 -8 -4 -23 -1 -33 3 -12 5 -9 6 9 0 14 7 29 14 31 9 4
9 6 -1 6 -7 1 -15 -5 -18 -13z"/>
<path d="M8047 853 c-9 -19 -1 -77 11 -79 7 -1 8 0 2 3 -5 2 -10 9 -10 14 0
14 28 11 33 -3 3 -8 6 -6 6 5 1 10 -6 17 -16 17 -11 0 -14 3 -7 8 6 4 13 15
17 25 5 12 1 17 -13 17 -10 0 -21 -3 -23 -7z m23 -13 c0 -5 -4 -10 -10 -10 -5
0 -10 5 -10 10 0 6 5 10 10 10 6 0 10 -4 10 -10z"/>
<path d="M8224 845 c-9 -23 3 -45 23 -44 17 1 17 2 1 6 -24 6 -23 23 2 23 13
0 18 5 14 15 -4 8 -13 15 -20 15 -8 0 -17 -7 -20 -15z"/>
<path d="M8291 826 c1 -21 3 -25 6 -11 3 11 9 25 14 31 5 7 3 11 -6 11 -10 0
-15 -10 -14 -31z"/>
<path d="M8342 830 c0 -19 2 -27 5 -17 2 9 2 25 0 35 -3 9 -5 1 -5 -18z"/>
<path d="M8116 835 c-3 -9 -6 -22 -5 -28 0 -7 5 -1 10 12 5 13 8 26 5 28 -2 2
-6 -3 -10 -12z"/>
<path d="M8182 830 c-14 -23 -15 -30 -3 -30 8 0 24 41 18 47 -2 1 -8 -7 -15
-17z"/>
<path d="M8435 809 c0 -21 1 -39 2 -39 1 0 7 9 13 20 8 15 8 25 -3 39 -12 18
-13 16 -12 -20z"/>
<path d="M8496 835 c-3 -9 -6 -22 -5 -28 0 -7 5 -1 10 12 5 13 8 26 5 28 -2 2
-6 -3 -10 -12z"/>
<path d="M6983 783 c26 -2 67 -2 90 0 23 2 2 3 -48 3 -49 0 -68 -1 -42 -3z"/>
<path d="M7363 783 c126 -2 328 -2 450 0 122 1 20 2 -228 2 -247 0 -347 -1
-222 -2z"/>
<path d="M8178 783 c46 -2 118 -2 160 0 42 1 5 3 -83 3 -88 0 -123 -2 -77 -3z"/>
<path d="M8528 783 c39 -2 105 -2 145 0 39 1 7 3 -73 3 -80 0 -112 -2 -72 -3z"/>
<path d="M8803 783 c9 -2 23 -2 30 0 6 3 -1 5 -18 5 -16 0 -22 -2 -12 -5z"/>
<path d="M8893 783 c9 -2 25 -2 35 0 9 3 1 5 -18 5 -19 0 -27 -2 -17 -5z"/>
<path d="M9078 783 c50 -2 134 -2 185 0 50 1 9 3 -93 3 -102 0 -143 -2 -92 -3z"/>
</g>
</svg>
