<?xml version="1.0" standalone="no"?>
<!DOCTYPE svg PUBLIC "-//W3C//DTD SVG 20010904//EN"
 "http://www.w3.org/TR/2001/REC-SVG-20010904/DTD/svg10.dtd">
<svg version="1.0" xmlns="http://www.w3.org/2000/svg"
 width="1061.000000pt" height="609.000000pt" viewBox="0 0 1061.000000 609.000000"
 preserveAspectRatio="xMidYMid meet">

<g transform="translate(0.000000,609.000000) scale(0.100000,-0.100000)"
fill="#000000" stroke="none">
<path d="M4688 4683 c6 -2 18 -2 25 0 6 3 1 5 -13 5 -14 0 -19 -2 -12 -5z"/>
<path d="M5046 4681 c-4 -5 3 -7 14 -4 23 6 26 13 6 13 -8 0 -17 -4 -20 -9z"/>
<path d="M5170 4681 c0 -4 11 -6 25 -3 14 2 25 6 25 8 0 2 -11 4 -25 4 -14 0
-25 -4 -25 -9z"/>
<path d="M5326 4681 c-4 -5 3 -7 14 -4 23 6 26 13 6 13 -8 0 -17 -4 -20 -9z"/>
<path d="M5407 4683 c-3 -5 5 -8 18 -8 13 0 21 3 18 8 -2 4 -10 7 -18 7 -8 0
-16 -3 -18 -7z"/>
<path d="M5887 4683 c-3 -5 5 -8 18 -8 13 0 21 3 18 8 -2 4 -10 7 -18 7 -8 0
-16 -3 -18 -7z"/>
<path d="M5125 4670 c-3 -5 -1 -10 4 -10 6 0 11 5 11 10 0 6 -2 10 -4 10 -3 0
-8 -4 -11 -10z"/>
<path d="M5372 4645 c0 -16 2 -22 5 -12 2 9 2 23 0 30 -3 6 -5 -1 -5 -18z"/>
<path d="M5611 4654 c0 -11 3 -14 6 -6 3 7 2 16 -1 19 -3 4 -6 -2 -5 -13z"/>
<path d="M5640 4642 c0 -17 4 -33 8 -36 9 -5 7 52 -2 61 -3 4 -6 -8 -6 -25z"/>
<path d="M5032 4640 c0 -14 2 -19 5 -12 2 6 2 18 0 25 -3 6 -5 1 -5 -13z"/>
<path d="M4900 4636 c0 -8 4 -17 9 -20 5 -4 7 3 4 14 -6 23 -13 26 -13 6z"/>
<path d="M5419 4623 l-24 -28 28 24 c15 14 27 26 27 28 0 8 -8 1 -31 -24z"/>
<path d="M5765 4625 c0 -13 3 -21 8 -18 4 2 7 10 7 18 0 8 -3 16 -7 18 -5 3
-8 -5 -8 -18z"/>
<path d="M4814 4620 c0 -13 4 -16 10 -10 7 7 7 13 0 20 -6 6 -10 3 -10 -10z"/>
<path d="M5889 4613 c-13 -16 -12 -17 4 -4 16 13 21 21 13 21 -2 0 -10 -8 -17
-17z"/>
<path d="M3993 4279 c-6 -8 -30 -63 -53 -122 -23 -60 -50 -113 -61 -120 -30
-18 -23 -25 26 -23 49 1 53 3 29 20 -14 11 -14 16 0 49 14 34 18 37 56 37 34
0 42 -4 50 -26 15 -38 12 -64 -7 -64 -32 0 -7 -7 47 -14 l55 -6 -25 19 c-17
14 -36 54 -65 141 -31 94 -43 119 -52 109z m19 -99 l16 -50 -40 0 c-28 0 -39
4 -35 13 2 6 10 29 18 50 7 20 16 37 19 37 3 0 13 -22 22 -50z"/>
<path d="M5903 4279 c-6 -8 -30 -61 -52 -119 -27 -68 -51 -113 -68 -127 l-27
-22 52 2 c56 2 60 4 37 21 -12 9 -13 18 -4 49 10 38 11 38 57 35 43 -3 46 -5
55 -38 7 -28 5 -36 -9 -47 -16 -12 -16 -13 8 -13 14 0 41 -3 59 -6 l34 -6 -25
20 c-17 15 -36 56 -65 142 -32 95 -43 119 -52 109z m15 -88 c17 -56 16 -61
-23 -61 -19 0 -35 1 -35 3 0 15 34 97 39 97 4 0 13 -17 19 -39z"/>
<path d="M6110 4277 c0 -9 -3 -24 -7 -34 -6 -17 -6 -17 14 0 14 12 33 17 55
15 l33 -3 3 -105 c3 -97 1 -105 -19 -121 -21 -16 -20 -16 37 -16 55 0 57 1 36
15 -20 13 -22 22 -22 123 l0 109 45 0 c33 0 47 -4 52 -17 6 -15 7 -15 14 3 15
38 11 43 -27 32 -40 -10 -169 -7 -196 6 -13 6 -18 4 -18 -7z"/>
<path d="M4261 4254 c-37 -47 -29 -64 53 -127 39 -30 49 -74 21 -97 -21 -18
-64 -4 -77 25 -14 31 -32 33 -23 3 10 -32 33 -48 71 -48 41 0 72 26 80 68 7
34 11 29 -86 110 -31 27 -33 32 -22 56 16 35 54 35 81 -1 l21 -28 -2 30 c-3
28 -6 30 -49 33 -41 3 -50 -1 -68 -24z"/>
<path d="M4540 4260 c-38 -38 -26 -77 41 -125 40 -28 49 -41 49 -65 0 -54 -69
-65 -92 -14 -13 28 -28 32 -28 6 0 -42 72 -68 120 -42 25 13 41 65 30 94 -4
13 -29 36 -55 52 -48 31 -65 64 -45 89 20 24 56 18 79 -12 15 -21 20 -24 21
-11 0 38 -11 48 -56 48 -31 0 -50 -6 -64 -20z"/>
<path d="M4859 4265 c-36 -19 -58 -57 -65 -107 -13 -105 101 -182 197 -133 88
46 93 189 9 239 -34 20 -106 20 -141 1z m130 -29 c43 -43 46 -142 5 -187 -19
-21 -82 -26 -113 -9 -23 12 -51 80 -51 123 1 94 94 138 159 73z"/>
<path d="M5261 4263 c-43 -21 -71 -67 -71 -118 0 -86 69 -141 167 -133 56 5
73 17 73 53 -1 18 -3 17 -21 -7 -61 -82 -179 -18 -179 97 0 40 5 52 34 81 27
27 42 34 74 34 34 0 45 -5 66 -32 l26 -33 0 26 c0 14 -5 30 -12 37 -18 18
-117 14 -157 -5z"/>
<path d="M5573 4269 c15 -9 17 -26 17 -123 0 -107 -1 -113 -22 -123 -19 -9
-11 -11 39 -11 35 0 60 4 57 9 -3 5 -12 9 -20 9 -11 0 -14 21 -14 113 0 108 1
114 23 125 18 9 12 11 -38 11 -45 0 -56 -2 -42 -10z"/>
<path d="M6478 4268 c21 -10 22 -17 22 -118 0 -98 -2 -109 -21 -121 -18 -13
-11 -14 70 -16 80 -2 92 0 101 17 17 31 11 47 -8 22 -15 -19 -26 -23 -63 -20
l-44 3 -3 53 -3 52 35 0 c20 0 36 -4 36 -10 0 -5 5 -10 10 -10 6 0 10 14 10
30 0 17 -4 30 -10 30 -5 0 -10 -4 -10 -10 0 -5 -16 -10 -35 -10 l-35 0 0 49
c0 35 4 51 16 55 31 12 64 6 85 -16 18 -19 21 -20 15 -5 -3 10 -6 23 -6 28 0
5 -42 9 -92 8 -74 0 -88 -3 -70 -11z"/>
<path d="M3860 3815 c-14 -37 -13 -41 9 -21 12 11 31 16 53 14 l33 -3 3 -105
c3 -97 1 -106 -19 -122 -21 -18 -20 -18 36 -18 56 0 57 0 36 18 -20 16 -22 25
-19 122 l3 105 43 3 c32 2 44 -1 48 -13 6 -13 8 -14 15 -3 20 30 9 33 -96 30
-73 -3 -110 -1 -120 8 -12 10 -16 8 -25 -15z"/>
<path d="M6296 3818 c-10 -37 -7 -42 12 -25 10 10 33 17 50 17 l32 0 0 -115
c0 -111 -1 -116 -22 -125 -17 -6 -7 -9 42 -9 49 0 59 3 43 9 -22 9 -23 14 -23
125 l0 115 37 0 c20 0 45 -7 55 -17 17 -15 18 -15 18 8 l0 24 -105 -3 c-68 -3
-111 0 -119 7 -11 9 -15 6 -20 -11z"/>
<path d="M7150 3826 c0 -8 -3 -23 -7 -33 -6 -17 -6 -17 14 0 14 12 33 17 55
15 l33 -3 0 -110 c0 -107 -1 -110 -25 -122 -23 -11 -19 -13 40 -12 55 0 61 2
42 11 -22 11 -23 15 -20 122 l3 111 40 3 c29 3 43 -1 52 -14 7 -10 13 -13 13
-7 0 6 2 17 5 25 4 11 -14 13 -101 10 -69 -3 -109 -1 -117 7 -15 15 -27 14
-27 -3z"/>
<path d="M3150 3820 c0 -4 7 -10 15 -14 12 -4 15 -27 15 -116 0 -105 -1 -111
-22 -120 -17 -6 3 -9 67 -9 73 -1 96 3 123 19 88 54 96 172 15 226 -22 14 -49
19 -120 20 -51 1 -93 -1 -93 -6z m199 -47 c31 -33 33 -39 29 -90 -6 -74 -39
-108 -104 -108 -29 0 -48 5 -54 15 -5 8 -10 59 -10 112 0 82 3 99 18 108 30
18 84 2 121 -37z"/>
<path d="M3655 3822 c-6 -4 -30 -58 -55 -120 -33 -85 -51 -117 -70 -128 -24
-12 -22 -13 34 -14 56 0 58 1 38 18 -16 14 -18 22 -11 50 9 30 12 32 58 32 48
0 49 -1 56 -36 5 -28 2 -39 -12 -50 -16 -12 -11 -13 40 -14 l58 0 -25 23 c-16
14 -37 60 -61 135 -20 61 -37 112 -38 112 -1 0 -7 -4 -12 -8z m18 -94 l16 -48
-39 0 -39 0 14 41 c15 43 25 62 30 57 1 -2 9 -24 18 -50z"/>
<path d="M4293 3823 c-7 -3 -13 -10 -13 -17 0 -30 -82 -212 -103 -228 -22 -17
-21 -18 32 -18 48 0 53 2 36 13 -14 11 -16 21 -11 50 7 37 7 37 56 37 49 0 49
0 56 -37 5 -29 3 -39 -11 -50 -17 -11 -11 -13 46 -13 58 0 62 1 39 13 -20 10
-33 36 -65 129 -22 64 -42 118 -45 121 -3 2 -11 2 -17 0z m22 -97 l14 -46 -39
0 -39 0 13 33 c7 17 16 41 20 51 9 25 14 18 31 -38z"/>
<path d="M4742 3818 c-25 -13 -37 -46 -28 -80 3 -13 26 -36 51 -51 25 -16 48
-39 51 -52 8 -33 -12 -65 -41 -65 -24 0 -32 6 -60 45 -14 19 -14 19 -15 -5 0
-37 18 -50 67 -50 54 0 83 26 83 75 0 30 -7 39 -55 75 -64 47 -74 82 -29 102
24 11 29 9 50 -15 26 -30 34 -33 34 -13 0 39 -58 57 -108 34z"/>
<path d="M5063 3810 c-76 -34 -105 -119 -63 -187 28 -47 69 -64 143 -61 54 3
63 6 74 28 17 35 7 38 -25 7 -51 -49 -120 -31 -156 40 -35 70 -7 151 59 173
49 16 82 6 105 -33 l20 -32 0 33 c0 26 -5 35 -26 42 -39 15 -84 12 -131 -10z"/>
<path d="M5370 3810 c19 -14 21 -24 18 -120 -3 -100 -4 -105 -28 -117 -23 -11
-19 -13 40 -12 54 0 61 2 43 11 -22 10 -23 17 -23 118 0 98 2 109 21 122 20
13 17 14 -35 14 -54 0 -56 -1 -36 -16z"/>
<path d="M5580 3818 c0 -4 7 -8 15 -8 12 0 15 -19 15 -115 0 -111 -1 -116 -22
-125 -16 -6 5 -9 73 -9 101 -1 109 2 109 47 0 13 -4 11 -16 -6 -12 -17 -25
-22 -60 -22 l-44 0 0 55 c0 54 0 55 30 55 17 0 33 -7 39 -17 8 -15 10 -10 11
21 0 37 -1 38 -18 23 -10 -10 -28 -17 -40 -17 -20 0 -22 5 -22 55 l0 55 41 0
c28 0 46 -6 55 -17 11 -15 13 -15 14 -3 0 8 -4 20 -8 25 -8 12 -172 15 -172 3z"/>
<path d="M5880 3822 c0 -4 10 -12 23 -17 21 -10 22 -15 21 -114 -1 -89 -4
-106 -20 -118 -16 -11 -12 -13 31 -13 48 0 49 1 27 16 -19 13 -22 24 -21 82 1
116 4 117 98 3 46 -56 90 -101 97 -101 11 0 14 26 14 125 0 104 2 125 15 125
8 0 15 5 15 11 0 7 -9 9 -22 5 -13 -3 -32 -6 -42 -6 -19 0 -19 -1 -2 -13 14
-10 16 -26 14 -102 l-3 -90 -89 108 c-81 97 -92 107 -122 107 -19 0 -34 -3
-34 -8z"/>
<path d="M6650 3818 c0 -4 7 -8 15 -8 12 0 15 -19 15 -115 0 -111 -1 -116 -22
-125 -17 -6 -7 -9 42 -9 36 1 58 3 50 6 -32 11 -40 37 -40 124 0 96 5 119 26
119 8 0 14 4 14 8 0 5 -22 8 -50 8 -27 0 -50 -3 -50 -8z"/>
<path d="M6899 3812 c-29 -25 -31 -79 -2 -101 12 -9 37 -29 57 -44 39 -30 45
-56 20 -81 -26 -27 -62 -20 -84 17 -20 31 -20 31 -20 7 0 -37 18 -50 65 -50
63 0 100 49 79 104 -3 9 -28 31 -55 51 -36 26 -49 42 -49 60 0 45 58 56 81 14
5 -11 14 -19 20 -19 13 0 1 42 -15 52 -21 14 -74 8 -97 -10z"/>
<path d="M1640 2620 c0 -5 11 -10 25 -10 24 0 25 -2 25 -70 0 -40 4 -70 10
-70 6 0 10 30 10 70 0 68 1 70 25 70 14 0 25 5 25 10 0 6 -27 10 -60 10 -33 0
-60 -4 -60 -10z"/>
<path d="M1780 2550 c0 -47 4 -80 10 -80 6 0 10 17 10 39 0 22 6 44 15 51 23
19 45 -5 45 -51 0 -22 5 -39 10 -39 15 0 12 73 -3 95 -10 12 -22 16 -40 13
-24 -5 -27 -2 -27 23 0 16 -4 29 -10 29 -6 0 -10 -33 -10 -80z"/>
<path d="M1907 2624 c-8 -8 1 -24 14 -24 5 0 9 7 9 15 0 15 -12 20 -23 9z"/>
<path d="M2522 2618 c-7 -7 -12 -17 -12 -24 0 -7 -6 -15 -12 -17 -10 -4 -10
-6 0 -6 8 -1 12 -18 12 -51 0 -27 5 -50 10 -50 6 0 10 23 10 50 0 47 2 50 25
50 23 0 25 -3 25 -50 0 -27 5 -50 10 -50 6 0 10 25 10 55 l0 55 -35 0 c-24 0
-35 5 -35 15 0 8 7 15 15 15 8 0 15 5 15 10 0 14 -23 13 -38 -2z"/>
<path d="M2580 2615 c0 -8 5 -15 10 -15 6 0 10 7 10 15 0 8 -4 15 -10 15 -5 0
-10 -7 -10 -15z"/>
<path d="M3150 2550 c0 -47 4 -80 10 -80 6 0 10 17 10 39 0 46 22 70 45 51 9
-7 15 -29 15 -51 0 -22 5 -39 10 -39 15 0 12 73 -3 95 -10 12 -22 16 -40 13
-24 -5 -27 -2 -27 23 0 16 -4 29 -10 29 -6 0 -10 -33 -10 -80z"/>
<path d="M3642 2573 c-2 -65 -20 -97 -48 -86 -9 3 -20 15 -24 27 -7 16 -9 17
-9 4 -1 -19 25 -48 43 -48 32 0 47 36 43 101 l-3 64 -2 -62z"/>
<path d="M3813 2550 c0 -65 1 -75 6 -42 14 82 61 83 72 1 l6 -44 1 46 c2 54
-15 74 -52 65 -22 -5 -25 -2 -29 26 -2 18 -4 -5 -4 -52z"/>
<path d="M4131 2548 c1 -56 4 -72 8 -48 8 49 35 51 62 5 25 -42 38 -41 16 2
-13 24 -13 30 -1 41 8 7 14 24 14 38 0 26 -30 44 -76 44 -24 0 -24 -1 -23 -82z
m84 32 c0 -22 -5 -25 -37 -28 -36 -3 -38 -2 -38 28 0 30 2 31 38 28 32 -3 37
-6 37 -28z"/>
<path d="M4515 2620 c-3 -5 -1 -10 4 -10 6 0 11 5 11 10 0 6 -2 10 -4 10 -3 0
-8 -4 -11 -10z"/>
<path d="M4872 2578 c-44 -116 -44 -115 -27 -94 8 11 15 23 15 28 0 4 18 8 40
8 22 0 40 -4 40 -8 0 -5 7 -17 15 -28 10 -13 8 -1 -6 36 -12 30 -26 67 -31 83
-6 15 -14 27 -18 27 -5 0 -17 -24 -28 -52z m41 5 c2 -10 8 -26 12 -35 6 -15 2
-18 -24 -18 -17 0 -31 2 -31 4 0 1 5 17 11 35 12 35 24 40 32 14z"/>
<path d="M5387 2623 c-11 -10 -8 -141 3 -148 6 -4 10 23 10 74 0 81 -1 87 -13
74z"/>
<path d="M5640 2550 l0 -83 41 6 c52 7 79 31 79 72 0 45 -27 73 -77 81 l-43 7
0 -83z m92 43 c41 -37 10 -103 -49 -103 l-33 0 0 60 0 60 32 0 c17 0 40 -7 50
-17z"/>
<path d="M6500 2550 c0 -47 4 -80 10 -80 6 0 10 17 10 39 0 43 23 72 42 53 6
-6 15 -31 19 -54 7 -42 7 -41 6 12 l-2 55 -32 0 c-29 0 -33 3 -33 27 0 16 -4
28 -10 28 -6 0 -10 -33 -10 -80z"/>
<path d="M6928 2624 c-5 -4 -8 -39 -8 -79 l0 -71 38 -1 c61 -2 92 46 59 91
-10 14 -23 17 -45 14 -28 -4 -31 -2 -34 25 -2 16 -6 25 -10 21z m72 -68 c17
-21 8 -60 -14 -64 -18 -4 -46 21 -46 39 0 10 29 39 39 39 5 0 14 -7 21 -14z"/>
<path d="M7917 2624 c-8 -8 1 -24 14 -24 5 0 9 7 9 15 0 15 -12 20 -23 9z"/>
<path d="M7992 2618 c-7 -7 -12 -17 -12 -24 0 -7 -6 -15 -12 -17 -10 -4 -10
-6 0 -6 8 -1 12 -18 12 -51 0 -27 5 -50 10 -50 6 0 10 23 10 50 0 47 2 50 25
50 23 0 25 -3 25 -50 0 -27 5 -50 10 -50 6 0 10 25 10 55 l0 55 -35 0 c-24 0
-35 5 -35 15 0 8 7 15 15 15 8 0 15 5 15 10 0 14 -23 13 -38 -2z"/>
<path d="M8050 2615 c0 -8 5 -15 10 -15 6 0 10 7 10 15 0 8 -4 15 -10 15 -5 0
-10 -7 -10 -15z"/>
<path d="M8310 2602 c0 -26 -2 -28 -32 -24 -22 3 -35 0 -45 -14 -33 -45 -2
-93 60 -91 l37 1 0 78 c0 45 -4 78 -10 78 -5 0 -10 -13 -10 -28z m-5 -63 c8
-24 -11 -49 -36 -49 -27 0 -38 49 -15 66 22 16 43 8 51 -17z"/>
<path d="M3074 2605 c-4 -11 -12 -23 -18 -27 -7 -5 -7 -8 2 -8 7 0 12 -14 12
-38 0 -21 5 -43 12 -50 15 -15 38 -16 38 -2 0 6 -7 10 -15 10 -11 0 -15 11
-15 40 0 31 4 40 17 40 15 0 15 1 1 13 -9 6 -18 19 -21 27 -4 12 -6 11 -13 -5z"/>
<path d="M3420 2600 c0 -11 -6 -20 -12 -20 -10 0 -10 -2 -1 -8 6 -4 13 -28 15
-52 2 -38 7 -46 26 -48 12 -2 22 1 22 7 0 6 -7 11 -15 11 -23 0 -21 77 3 83
16 4 16 5 0 6 -11 1 -18 9 -18 21 0 11 -4 20 -10 20 -5 0 -10 -9 -10 -20z"/>
<path d="M7840 2601 c0 -12 -6 -21 -12 -21 -10 0 -10 -2 -1 -8 6 -4 13 -28 15
-52 2 -38 7 -46 26 -48 12 -2 22 1 22 7 0 6 -7 11 -15 11 -23 0 -21 77 3 83
16 4 16 5 0 6 -10 0 -18 7 -18 15 0 8 -4 18 -10 21 -5 3 -10 -3 -10 -14z"/>
<path d="M1910 2525 c0 -30 5 -55 10 -55 6 0 10 25 10 55 0 30 -4 55 -10 55
-5 0 -10 -25 -10 -55z"/>
<path d="M1964 2565 c-8 -19 3 -34 32 -45 13 -5 24 -14 24 -20 0 -14 -33 -13
-49 3 -11 10 -13 9 -9 -2 7 -25 36 -37 56 -25 30 19 27 44 -7 57 -17 6 -31 15
-31 19 0 14 22 20 33 9 17 -17 31 -13 17 4 -16 19 -59 19 -66 0z"/>
<path d="M2134 2555 c-21 -33 -6 -71 31 -81 26 -6 55 9 55 29 0 7 -4 7 -12 -1
-28 -28 -75 -1 -63 37 7 25 34 35 52 20 15 -13 28 -6 18 10 -13 21 -64 12 -81
-14z"/>
<path d="M2260 2561 c-15 -30 -12 -56 10 -76 45 -41 110 18 76 70 -21 31 -70
35 -86 6z m65 -7 c19 -19 16 -43 -6 -57 -37 -23 -69 29 -37 61 16 16 23 15 43
-4z"/>
<path d="M2380 2523 c0 -29 5 -53 10 -53 6 0 10 17 10 39 0 22 6 44 15 51 23
19 45 -5 45 -51 0 -22 5 -39 10 -39 13 0 13 66 0 91 -8 14 -20 18 -50 17 l-40
-1 0 -54z"/>
<path d="M2630 2523 c0 -29 5 -53 10 -53 6 0 10 18 10 39 0 29 6 44 21 55 21
14 21 15 -10 14 -31 -1 -31 -1 -31 -55z"/>
<path d="M2710 2525 c0 -30 5 -55 10 -55 6 0 10 20 10 44 0 43 11 58 38 49 7
-3 12 -22 12 -49 0 -24 5 -44 10 -44 6 0 10 17 10 38 0 41 15 63 36 55 9 -3
14 -21 14 -49 0 -24 5 -44 11 -44 6 0 9 21 7 53 l-3 52 -77 2 -78 3 0 -55z"/>
<path d="M2907 2573 c-17 -16 -5 -42 25 -52 25 -9 29 -14 20 -23 -10 -10 -17
-10 -33 0 -18 12 -20 11 -17 -5 2 -13 12 -18 33 -18 25 0 31 4 33 26 3 22 -2
29 -29 38 -25 8 -30 14 -21 23 8 8 15 8 27 -2 17 -14 31 -8 20 9 -7 12 -48 15
-58 4z"/>
<path d="M3278 2554 c-10 -21 -9 -31 3 -52 12 -22 22 -27 57 -28 l42 -1 0 52
0 52 -45 1 c-40 2 -47 -1 -57 -24z m82 -22 c0 -45 -56 -58 -66 -15 -5 19 -2
30 11 39 22 16 55 2 55 -24z"/>
<path d="M3696 2564 c-24 -24 -20 -61 9 -80 23 -15 27 -15 50 0 26 17 32 45
15 77 -13 23 -53 25 -74 3z m64 -9 c19 -23 4 -65 -24 -65 -35 0 -52 25 -38 55
13 28 43 33 62 10z"/>
<path d="M3942 2520 c1 -49 2 -50 5 -13 8 80 63 87 63 8 0 -28 4 -44 10 -40
13 8 13 61 0 86 -8 14 -20 18 -45 16 l-35 -2 2 -55z"/>
<path d="M4270 2561 c-17 -32 -12 -60 14 -76 19 -13 29 -14 45 -5 12 6 21 13
21 16 0 2 -9 0 -19 -6 -23 -12 -47 -5 -55 16 -4 11 5 14 39 14 49 0 58 15 27
43 -25 23 -59 21 -72 -2z m68 -13 c3 -15 -4 -18 -32 -18 -38 0 -44 8 -24 28
17 17 52 11 56 -10z"/>
<path d="M4392 2520 c1 -49 2 -50 5 -13 8 81 63 83 74 2 l6 -44 1 46 c2 54
-11 69 -56 66 l-32 -2 2 -55z"/>
<path d="M4523 2525 c0 -33 2 -45 4 -27 2 18 2 45 0 60 -2 15 -4 0 -4 -33z"/>
<path d="M4582 2568 c-19 -19 -14 -63 8 -83 17 -15 24 -16 46 -6 15 6 24 14
21 18 -4 3 -13 0 -21 -6 -11 -9 -20 -10 -35 -1 -34 18 -24 30 24 30 49 0 53 5
29 38 -17 24 -53 29 -72 10z m66 -20 c3 -15 -4 -18 -32 -18 -38 0 -44 8 -24
28 17 17 52 11 56 -10z"/>
<path d="M4702 2520 c1 -50 2 -51 5 -13 3 28 11 47 24 57 20 14 20 14 -5 12
-25 -1 -26 -3 -24 -56z"/>
<path d="M5002 2520 c1 -49 2 -50 5 -13 7 75 63 88 63 14 0 -22 5 -43 10 -46
13 -8 13 61 0 86 -8 14 -20 18 -45 16 l-35 -2 2 -55z"/>
<path d="M5130 2561 c-15 -30 -12 -56 10 -76 17 -15 24 -16 45 -7 20 9 25 9
25 -3 0 -16 -27 -45 -42 -45 -6 0 -20 8 -31 18 -16 13 -19 14 -15 2 2 -8 17
-19 31 -24 44 -16 67 14 67 88 l0 61 -40 3 c-30 2 -41 -2 -50 -17z m70 -11
c13 -24 5 -56 -15 -64 -8 -3 -24 3 -37 13 -20 16 -21 22 -10 45 14 31 47 34
62 6z"/>
<path d="M5264 2555 c-18 -28 -11 -60 17 -76 22 -11 59 -4 59 12 0 7 -6 7 -17
0 -11 -6 -24 -6 -35 0 -30 16 -20 29 22 29 32 0 40 4 40 18 0 45 -60 57 -86
17z m64 3 c20 -20 14 -28 -23 -28 -22 0 -35 5 -35 13 0 28 36 37 58 15z"/>
<path d="M5452 2568 c-28 -28 -4 -98 34 -98 17 0 54 36 54 53 0 42 -60 73 -88
45z m54 -6 c35 -24 15 -76 -27 -70 -16 2 -25 10 -27 26 -6 38 26 64 54 44z"/>
<path d="M5804 2555 c-18 -28 -11 -60 17 -76 22 -11 59 -4 59 12 0 7 -6 7 -17
0 -11 -6 -24 -6 -35 0 -30 16 -20 29 22 29 32 0 40 4 40 18 0 45 -60 57 -86
17z m64 3 c20 -20 14 -28 -23 -28 -22 0 -35 5 -35 13 0 28 36 37 58 15z"/>
<path d="M5920 2498 c0 -45 4 -78 10 -78 6 0 10 16 10 35 0 32 2 35 19 25 25
-13 27 -13 45 6 19 19 21 67 4 82 -7 6 -30 10 -50 9 l-38 -1 0 -78z m80 58 c6
-8 10 -25 8 -38 -2 -18 -9 -23 -33 -23 -26 0 -30 4 -33 29 -5 41 32 62 58 32z"/>
<path d="M6064 2555 c-30 -46 13 -99 62 -76 18 8 24 19 24 44 0 18 -5 38 -12
45 -20 20 -56 14 -74 -13z m66 1 c6 -8 10 -25 8 -38 -2 -18 -9 -23 -33 -23
-26 0 -30 4 -33 29 -5 41 32 62 58 32z"/>
<path d="M6190 2525 c0 -32 2 -56 4 -54 8 7 10 98 3 105 -4 4 -7 -19 -7 -51z"/>
<path d="M6235 2571 c15 -6 22 -21 26 -57 l6 -49 -1 55 c-1 51 -3 55 -26 57
-22 2 -23 2 -5 -6z"/>
<path d="M6314 2555 c-30 -47 13 -99 64 -76 13 7 22 14 19 17 -3 3 -14 1 -23
-4 -12 -7 -25 -7 -36 -1 -30 16 -20 29 22 29 32 0 40 4 40 18 0 45 -60 57 -86
17z m64 3 c20 -20 14 -28 -23 -28 -22 0 -35 5 -35 13 0 28 36 37 58 15z"/>
<path d="M6632 2568 c-14 -14 -16 -57 -2 -78 5 -9 27 -15 55 -16 l45 -2 0 53
0 52 -43 1 c-24 1 -48 -3 -55 -10z m62 -14 c19 -19 20 -25 3 -48 -18 -24 -51
-17 -55 12 -3 23 13 52 29 52 4 0 15 -7 23 -16z"/>
<path d="M6756 2565 c-6 -17 19 -45 40 -45 8 0 14 -7 14 -15 0 -18 -36 -20
-43 -2 -2 6 -8 9 -12 5 -14 -13 18 -39 44 -36 38 4 36 48 -2 66 -20 10 -26 17
-18 25 7 7 15 6 26 -3 17 -14 31 -8 20 9 -9 16 -62 13 -69 -4z"/>
<path d="M7063 2554 c-15 -24 -15 -29 -2 -53 8 -14 25 -27 37 -29 24 -4 52 13
52 31 0 7 -4 7 -12 -1 -16 -16 -43 -15 -58 3 -11 13 -6 15 34 15 47 0 54 7 36
41 -16 29 -65 25 -87 -7z m67 1 c11 -13 8 -15 -19 -15 -31 0 -42 14 -18 23 20
9 24 8 37 -8z"/>
<path d="M7192 2568 c-7 -7 -12 -24 -12 -38 0 -49 61 -79 90 -45 17 21 7 29
-18 14 -21 -13 -52 -7 -52 11 0 5 18 10 40 10 32 0 40 4 40 18 0 25 -20 42
-50 42 -14 0 -31 -5 -38 -12z m52 -4 c27 -10 18 -24 -15 -24 -27 0 -30 2 -19
15 14 17 13 17 34 9z"/>
<path d="M7310 2524 c0 -30 5 -54 10 -54 6 0 10 17 10 39 0 79 56 77 62 -2 3
-33 6 -38 12 -23 5 10 5 34 0 55 -9 34 -11 36 -51 37 l-43 2 0 -54z"/>
<path d="M7512 2568 c-17 -17 -15 -64 4 -82 20 -21 48 -20 69 0 21 21 13 29
-13 13 -26 -17 -52 -5 -52 24 0 34 23 51 49 38 28 -15 36 -14 21 4 -15 18 -61
20 -78 3z"/>
<path d="M7637 2562 c-21 -23 -21 -41 -1 -70 23 -33 84 -24 84 12 0 6 -5 5
-12 -2 -17 -17 -55 -15 -62 3 -4 12 4 15 39 15 46 0 53 7 35 41 -14 25 -61 25
-83 1z m63 -7 c11 -13 7 -15 -25 -15 -32 0 -36 2 -25 15 7 8 18 15 25 15 7 0
18 -7 25 -15z"/>
<path d="M7750 2523 c0 -29 5 -53 10 -53 6 0 10 18 10 39 0 29 6 44 21 55 21
14 21 15 -10 14 -31 -1 -31 -1 -31 -55z"/>
<path d="M7920 2525 c0 -30 5 -55 10 -55 6 0 10 25 10 55 0 30 -4 55 -10 55
-5 0 -10 -25 -10 -55z"/>
<path d="M8110 2565 c-44 -52 27 -127 75 -79 21 21 13 29 -13 13 -21 -13 -52
-7 -52 11 0 5 18 10 40 10 41 0 47 8 30 41 -13 23 -62 26 -80 4z m60 -10 c11
-13 8 -15 -19 -15 -31 0 -42 14 -18 23 20 9 24 8 37 -8z"/>
<path d="M8429 2553 c-18 -46 6 -78 59 -79 l42 -1 0 52 0 52 -45 1 c-41 2 -46
-1 -56 -25z m71 2 c17 -20 4 -65 -18 -65 -38 0 -53 37 -26 64 19 20 28 20 44
1z"/>
<path d="M8564 2566 c-8 -20 3 -35 32 -46 13 -5 24 -14 24 -20 0 -14 -33 -13
-48 2 -9 9 -12 8 -12 -5 0 -21 45 -33 65 -17 24 20 18 41 -15 53 -16 6 -30 15
-30 19 0 15 22 19 37 6 14 -11 16 -11 11 2 -6 21 -57 26 -64 6z"/>
<path d="M8728 2554 c-10 -21 -9 -31 3 -52 12 -22 22 -27 57 -28 l42 -1 0 52
0 52 -45 1 c-40 2 -47 -1 -57 -24z m72 1 c17 -20 4 -65 -18 -65 -39 0 -57 50
-24 69 23 14 27 13 42 -4z"/>
<path d="M8860 2523 c0 -29 5 -53 10 -53 6 0 10 17 10 39 0 22 6 44 15 51 23
19 45 -5 45 -51 0 -22 5 -39 10 -39 15 0 12 86 -3 99 -8 6 -30 10 -50 9 l-37
-1 0 -54z"/>
<path d="M3265 2253 c-15 -38 -29 -74 -32 -80 -3 -7 0 -13 6 -13 6 0 16 11 21
25 8 20 16 25 43 25 27 0 36 -5 46 -26 6 -15 14 -24 18 -21 9 10 -50 157 -63
157 -7 0 -24 -30 -39 -67z m58 -25 c-6 -11 -43 -10 -43 1 0 5 5 22 11 38 l11
28 13 -30 c7 -16 11 -33 8 -37z"/>
<path d="M3842 2309 c2 -6 8 -10 13 -10 5 0 11 4 13 10 2 6 -4 11 -13 11 -9 0
-15 -5 -13 -11z"/>
<path d="M4320 2239 l0 -82 47 6 c32 3 53 12 65 27 44 55 3 130 -72 130 l-40
0 0 -81z m92 44 c40 -36 9 -103 -49 -103 -21 0 -23 4 -23 60 0 58 1 60 27 60
14 0 35 -7 45 -17z"/>
<path d="M4910 2305 c-19 -23 -8 -49 30 -67 20 -10 35 -25 35 -35 0 -23 -43
-30 -51 -9 -8 20 -24 21 -24 1 0 -38 83 -43 95 -6 9 29 -4 49 -41 61 -24 8
-34 17 -32 28 5 24 37 27 53 5 12 -15 14 -15 15 -2 0 36 -56 53 -80 24z"/>
<path d="M5152 2309 c2 -6 8 -10 13 -10 5 0 11 4 13 10 2 6 -4 11 -13 11 -9 0
-15 -5 -13 -11z"/>
<path d="M5550 2311 c0 -6 5 -13 10 -16 6 -3 10 1 10 9 0 9 -4 16 -10 16 -5 0
-10 -4 -10 -9z"/>
<path d="M5860 2241 l0 -78 38 2 c53 3 52 3 61 27 10 28 -5 74 -25 82 -9 3
-24 1 -35 -4 -17 -10 -19 -7 -19 20 0 16 -4 30 -10 30 -6 0 -10 -33 -10 -79z
m74 3 c19 -19 20 -25 3 -48 -18 -24 -51 -17 -55 12 -3 23 13 52 29 52 4 0 15
-7 23 -16z"/>
<path d="M6190 2239 l0 -82 47 6 c32 3 53 12 65 27 44 55 3 130 -72 130 l-40
0 0 -81z m92 44 c40 -36 9 -103 -49 -103 -21 0 -23 4 -23 60 0 58 1 60 27 60
14 0 35 -7 45 -17z"/>
<path d="M6733 2305 c-44 -31 -37 -111 13 -134 35 -16 48 -14 78 10 35 27 28
35 -12 12 -24 -14 -35 -15 -56 -5 -33 15 -43 54 -22 87 19 29 60 33 88 8 26
-23 34 -9 9 16 -25 25 -68 27 -98 6z"/>
<path d="M4040 2291 c0 -11 -6 -22 -12 -24 -10 -4 -10 -6 0 -6 7 -1 12 -16 12
-39 0 -21 5 -43 12 -50 15 -15 38 -16 38 -2 0 6 -7 10 -15 10 -11 0 -15 11
-15 40 0 31 4 40 18 40 16 1 16 1 0 11 -10 5 -18 17 -18 24 0 8 -4 15 -10 15
-5 0 -10 -9 -10 -19z"/>
<path d="M4620 2291 c0 -11 -6 -22 -12 -24 -10 -4 -10 -6 0 -6 7 -1 12 -16 12
-39 0 -21 5 -43 12 -50 15 -15 38 -16 38 -2 0 6 -7 10 -15 10 -11 0 -15 11
-15 40 0 31 4 40 18 40 16 1 16 1 0 11 -10 5 -18 17 -18 24 0 8 -4 15 -10 15
-5 0 -10 -9 -10 -19z"/>
<path d="M5470 2291 c0 -11 -6 -22 -12 -24 -10 -4 -10 -6 0 -6 7 -1 12 -16 12
-39 0 -21 5 -43 12 -50 15 -15 38 -16 38 -2 0 6 -7 10 -15 10 -23 0 -21 77 3
83 16 4 16 5 0 6 -11 1 -18 9 -18 21 0 11 -4 20 -10 20 -5 0 -10 -9 -10 -19z"/>
<path d="M5710 2291 c0 -11 -6 -22 -12 -24 -10 -4 -10 -6 0 -6 7 -1 12 -16 12
-39 0 -21 5 -43 12 -50 15 -15 38 -16 38 -2 0 6 -7 10 -15 10 -11 0 -15 11
-15 40 0 31 4 40 18 40 16 1 16 1 0 11 -10 5 -18 17 -18 24 0 8 -4 15 -10 15
-5 0 -10 -9 -10 -19z"/>
<path d="M6494 2295 c-4 -11 -12 -23 -18 -27 -7 -5 -7 -8 2 -8 7 0 12 -14 12
-38 0 -21 5 -43 12 -50 15 -15 38 -16 38 -2 0 6 -7 10 -15 10 -11 0 -15 11
-15 40 0 31 4 40 17 40 15 0 15 1 1 13 -9 6 -18 19 -21 27 -4 12 -6 11 -13 -5z"/>
<path d="M3406 2264 c-23 -23 -20 -34 14 -47 17 -6 30 -17 30 -24 0 -17 -37
-17 -43 0 -2 6 -8 9 -12 5 -11 -11 14 -38 35 -38 23 0 44 26 36 45 -3 8 -18
20 -32 26 -20 7 -24 13 -16 21 8 8 15 8 27 -2 8 -7 19 -10 23 -6 7 7 -24 36
-39 36 -4 0 -15 -7 -23 -16z"/>
<path d="M3505 2266 c-24 -17 -14 -43 21 -57 21 -7 25 -12 15 -22 -9 -9 -16
-9 -32 2 -17 10 -20 10 -17 0 8 -23 36 -35 56 -23 30 19 27 44 -7 57 -17 6
-31 17 -31 24 0 16 22 17 38 1 7 -7 12 -8 12 -2 0 11 -20 34 -30 34 -3 0 -15
-6 -25 -14z"/>
<path d="M3612 2264 c-18 -12 -22 -24 -20 -52 2 -30 8 -38 30 -46 56 -20 95
64 46 98 -28 20 -28 20 -56 0z m48 -18 c17 -21 8 -60 -14 -64 -18 -4 -46 21
-46 39 0 10 29 39 39 39 5 0 14 -7 21 -14z"/>
<path d="M3730 2260 c-11 -11 -20 -29 -20 -40 0 -23 33 -60 53 -60 18 0 53 27
45 35 -3 3 -15 1 -26 -6 -17 -10 -23 -10 -36 0 -36 30 -3 87 36 62 26 -16 39
-3 14 15 -27 19 -42 18 -66 -6z"/>
<path d="M3919 2270 c-25 -15 -32 -58 -15 -86 13 -18 24 -23 56 -21 l40 1 0
53 c0 43 -3 52 -17 51 -10 0 -25 2 -33 5 -8 4 -22 2 -31 -3z m51 -25 c17 -21
4 -65 -19 -65 -30 0 -46 26 -33 55 13 28 34 32 52 10z"/>
<path d="M4142 2264 c-29 -20 -31 -79 -3 -94 28 -14 47 -13 66 6 21 21 13 29
-13 13 -21 -13 -52 -7 -52 11 0 5 18 10 40 10 33 0 40 3 40 19 0 17 -33 51
-50 51 -3 0 -16 -7 -28 -16z m42 -10 c26 -10 18 -24 -14 -24 -30 0 -41 14 -17
23 6 3 13 6 14 6 1 1 8 -2 17 -5z"/>
<path d="M4491 2261 c-25 -25 -27 -49 -5 -79 17 -24 43 -29 62 -10 9 9 12 9
12 0 0 -7 5 -12 10 -12 6 0 10 24 10 54 0 46 -3 55 -17 54 -10 0 -26 3 -35 6
-11 5 -24 0 -37 -13z m57 -13 c17 -17 15 -43 -4 -59 -31 -26 -70 25 -44 56 15
18 32 19 48 3z"/>
<path d="M4724 2272 c-23 -15 -34 -50 -24 -76 10 -29 9 -28 63 -31 l37 -2 0
53 c0 44 -3 53 -17 52 -10 0 -25 2 -33 6 -8 3 -20 2 -26 -2z m46 -26 c17 -21
8 -60 -14 -64 -18 -4 -46 21 -46 39 0 10 29 39 39 39 5 0 14 -7 21 -14z"/>
<path d="M5053 2270 c-47 -19 -37 -94 13 -106 27 -7 65 19 50 33 -5 5 -11 2
-13 -4 -6 -16 -35 -17 -51 -1 -17 17 -15 43 4 59 13 10 19 10 36 0 26 -16 39
-3 14 15 -22 16 -23 16 -53 4z"/>
<path d="M5232 2264 c-29 -20 -31 -79 -3 -94 28 -14 47 -13 66 6 21 21 13 29
-13 13 -21 -13 -52 -7 -52 11 0 5 18 10 40 10 33 0 40 3 40 19 0 17 -33 51
-50 51 -3 0 -16 -7 -28 -16z m42 -10 c26 -10 18 -24 -14 -24 -30 0 -41 14 -17
23 6 3 13 6 14 6 1 1 8 -2 17 -5z"/>
<path d="M5363 2273 c-21 -4 -23 -10 -23 -59 0 -66 18 -72 22 -6 3 39 6 47 23
47 17 0 20 -8 23 -47 4 -63 22 -62 22 2 0 38 -4 52 -19 60 -11 5 -21 9 -23 9
-2 -1 -13 -4 -25 -6z"/>
<path d="M5618 2269 c-27 -15 -21 -39 12 -52 17 -6 30 -17 30 -24 0 -17 -37
-17 -43 0 -2 6 -8 9 -12 5 -11 -11 14 -38 35 -38 23 0 44 26 36 45 -3 8 -18
20 -32 26 -20 7 -24 13 -16 21 8 8 15 8 27 -2 21 -18 30 -6 10 14 -19 19 -24
19 -47 5z"/>
<path d="M6368 2268 c-23 -19 -29 -49 -15 -78 10 -20 20 -25 55 -26 l42 -1 0
53 c0 44 -3 53 -17 52 -10 0 -25 2 -33 6 -9 3 -23 1 -32 -6z m52 -22 c18 -22
9 -60 -16 -64 -31 -4 -50 23 -36 53 13 28 34 32 52 11z"/>
<path d="M6587 2262 c-20 -22 -23 -77 -5 -88 7 -5 30 -9 50 -10 l38 -2 0 53
c0 45 -3 54 -17 53 -10 0 -25 2 -34 6 -9 4 -22 -1 -32 -12z m53 -16 c17 -21 8
-60 -14 -64 -37 -8 -54 48 -22 70 16 11 22 10 36 -6z"/>
<path d="M6904 2272 c-23 -15 -34 -50 -24 -76 10 -29 9 -28 63 -31 l37 -2 0
53 c0 44 -3 53 -17 52 -10 0 -25 2 -33 6 -8 3 -20 2 -26 -2z m46 -26 c17 -21
8 -60 -14 -64 -18 -4 -46 21 -46 39 0 10 29 39 39 39 5 0 14 -7 21 -14z"/>
<path d="M7043 2273 c-21 -4 -23 -10 -23 -59 0 -34 4 -53 10 -49 6 3 10 24 10
45 0 21 5 42 10 45 20 12 40 -17 40 -56 0 -22 5 -39 10 -39 6 0 10 20 10 44 0
48 8 60 34 50 11 -4 16 -19 16 -50 0 -24 5 -44 10 -44 17 0 12 87 -6 104 -18
19 -20 19 -46 5 -14 -8 -23 -8 -31 0 -6 6 -13 10 -16 10 -4 -1 -16 -4 -28 -6z"/>
<path d="M7251 2271 c-8 -5 -20 -7 -28 -4 -10 4 -13 -12 -13 -76 0 -47 4 -81
10 -81 6 0 10 14 10 31 0 26 3 29 20 24 10 -3 28 -1 40 5 26 14 27 70 2 93
-21 20 -22 20 -41 8z m25 -19 c32 -22 15 -78 -22 -70 -22 4 -31 43 -14 64 14
16 20 17 36 6z"/>
<path d="M3840 2215 c0 -30 5 -55 10 -55 6 0 10 25 10 55 0 30 -4 55 -10 55
-5 0 -10 -25 -10 -55z"/>
<path d="M5163 2215 c0 -33 2 -45 4 -27 2 18 2 45 0 60 -2 15 -4 0 -4 -33z"/>
<path d="M5550 2215 c0 -30 5 -55 10 -55 6 0 10 25 10 55 0 30 -4 55 -10 55
-5 0 -10 -25 -10 -55z"/>
<path d="M5990 2234 c0 -55 16 -77 52 -70 32 6 35 -9 5 -28 -12 -8 -23 -7 -38
2 -27 17 -35 9 -13 -12 23 -24 66 -16 81 14 15 30 17 130 3 130 -5 0 -10 -15
-10 -34 0 -37 -21 -62 -45 -52 -10 3 -15 19 -15 46 0 22 -4 40 -10 40 -5 0
-10 -16 -10 -36z"/>
<path d="M7340 2174 c0 -9 5 -14 12 -12 18 6 21 28 4 28 -9 0 -16 -7 -16 -16z"/>
<path d="M5649 1823 c-13 -16 -12 -17 4 -4 14 11 20 11 35 0 15 -13 16 -12 3
4 -7 9 -17 17 -21 17 -4 0 -14 -8 -21 -17z"/>
<path d="M6008 1824 c12 -8 23 -27 23 -42 2 -25 2 -25 6 -4 5 24 -21 62 -41
62 -6 0 0 -7 12 -16z"/>
<path d="M4409 1813 c-13 -16 -12 -17 4 -4 16 13 21 21 13 21 -2 0 -10 -8 -17
-17z"/>
<path d="M4763 1780 c0 -30 2 -43 4 -27 2 15 2 39 0 55 -2 15 -4 2 -4 -28z"/>
<path d="M5342 1788 c-2 -40 -5 -48 -21 -48 -11 0 -21 6 -24 13 -2 7 -3 6 -3
-3 2 -20 44 -26 52 -7 3 8 4 32 1 53 -3 37 -4 37 -5 -8z"/>
<path d="M5473 1780 c0 -30 2 -43 4 -27 2 15 2 39 0 55 -2 15 -4 2 -4 -28z"/>
<path d="M5875 1819 c-4 -6 -5 -12 -2 -15 2 -3 7 2 10 11 7 17 1 20 -8 4z"/>
<path d="M6065 1819 c-4 -6 -5 -12 -2 -15 2 -3 7 2 10 11 7 17 1 20 -8 4z"/>
<path d="M6179 1813 c-13 -16 -12 -17 4 -4 16 13 21 21 13 21 -2 0 -10 -8 -17
-17z"/>
<path d="M5730 1810 c-9 -6 -10 -10 -3 -10 6 0 15 5 18 10 8 12 4 12 -15 0z"/>
<path d="M5961 1785 c0 -17 4 -36 11 -43 14 -14 44 -16 52 -4 2 4 -8 8 -22 7
-23 0 -28 5 -33 35 -6 35 -6 35 -8 5z"/>
<path d="M6091 1768 l-33 -38 38 1 c32 2 34 3 10 6 l-28 5 28 29 c15 16 26 30
23 32 -2 2 -19 -14 -38 -35z"/>
<path d="M4600 1765 c0 -19 2 -35 4 -35 2 0 6 16 8 35 2 19 0 35 -4 35 -4 0
-8 -16 -8 -35z"/>
<path d="M4723 1765 c0 -22 2 -30 4 -17 2 12 2 30 0 40 -3 9 -5 -1 -4 -23z"/>
<path d="M4813 1765 c0 -22 2 -30 4 -17 2 12 2 30 0 40 -3 9 -5 -1 -4 -23z"/>
<path d="M4844 1785 c-3 -8 -4 -20 -2 -27 3 -7 7 -1 10 15 6 29 1 36 -8 12z"/>
<path d="M5125 1772 c0 -35 -31 -42 -45 -10 -7 17 -9 18 -7 4 3 -28 32 -43 51
-27 17 14 22 46 8 55 -4 2 -8 -7 -7 -22z"/>
<path d="M5163 1765 c0 -22 2 -30 4 -17 2 12 2 30 0 40 -3 9 -5 -1 -4 -23z"/>
<path d="M5205 1790 c3 -5 8 -10 11 -10 2 0 4 5 4 10 0 6 -5 10 -11 10 -5 0
-7 -4 -4 -10z"/>
<path d="M5381 1783 c-2 -32 9 -53 27 -53 14 0 14 1 0 13 -9 6 -19 23 -21 37
-4 22 -4 22 -6 3z"/>
<path d="M5558 1773 c-2 -21 -8 -28 -25 -27 -12 0 -19 -4 -16 -9 3 -5 14 -7
24 -4 10 3 20 0 23 -7 2 -6 5 8 5 32 1 47 -6 57 -11 15z"/>
<path d="M5667 1763 l-29 -33 34 1 c25 1 27 3 10 6 l-24 5 23 24 c12 13 21 25
18 27 -2 2 -17 -11 -32 -30z"/>
<path d="M5895 1760 l-29 -30 35 1 c25 1 28 3 11 6 l-24 5 23 24 c12 13 20 24
18 24 -3 0 -18 -13 -34 -30z"/>
<path d="M6155 1779 c-4 -6 -5 -12 -2 -15 2 -3 7 2 10 11 7 17 1 20 -8 4z"/>
<path d="M4511 1769 c-1 -21 24 -43 41 -36 8 3 6 6 -5 6 -10 1 -22 11 -27 24
-6 15 -9 17 -9 6z"/>
<path d="M4400 1761 c0 -6 4 -13 10 -16 6 -3 7 1 4 9 -7 18 -14 21 -14 7z"/>
<path d="M4475 1751 c-6 -5 -19 -11 -30 -14 -19 -4 -19 -5 1 -6 12 0 27 6 34
14 14 16 10 20 -5 6z"/>
<path d="M4875 1740 c-16 -7 -17 -9 -3 -9 9 -1 20 4 23 9 7 11 7 11 -20 0z"/>
<path d="M4938 1738 c5 -5 16 -8 23 -6 8 3 3 7 -10 11 -17 4 -21 3 -13 -5z"/>
<path d="M5512 1704 c10 -10 20 -16 22 -13 3 3 -5 11 -17 18 -21 13 -21 12 -5
-5z"/>
<path d="M9460 1354 c0 -23 -80 -162 -106 -185 -11 -9 -59 -38 -109 -64 -49
-26 -119 -65 -155 -86 -36 -21 -112 -58 -170 -82 -138 -58 -190 -85 -190 -98
0 -7 11 -9 25 -7 36 7 25 -3 -75 -71 -86 -59 -97 -70 -84 -83 11 -12 244 80
454 180 47 22 86 39 89 37 2 -2 -30 -42 -72 -89 -74 -83 -134 -172 -124 -182
3 -3 24 16 48 43 24 26 100 105 169 175 117 117 133 130 227 176 82 40 139 59
280 92 371 87 443 105 443 112 0 10 -22 5 -287 -57 -206 -48 -268 -56 -193
-25 59 24 22 41 -48 21 -47 -14 -39 0 21 37 79 48 122 86 112 101 -13 21 -64
7 -191 -53 -64 -31 -119 -55 -121 -53 -2 2 12 30 32 62 43 72 50 94 36 108 -8
8 -11 6 -11 -9z m221 -77 c-25 -31 -227 -151 -283 -168 -34 -11 -63 -17 -65
-15 -17 16 48 62 167 119 144 69 157 75 179 76 10 1 11 -2 2 -12z m-171 -177
c-30 -16 -61 -29 -69 -30 -24 0 19 39 53 49 63 18 70 10 16 -19z m-211 -9
c-11 -16 -108 -56 -116 -47 -5 5 100 65 115 65 9 1 10 -3 1 -18z m90 -18 c-16
-18 -70 -43 -96 -43 -27 0 4 26 52 44 53 19 60 19 44 -1z m-141 -45 c-4 -12
-278 -113 -278 -103 0 8 64 37 164 76 113 43 119 44 114 27z m52 -23 c0 -2
-13 -11 -30 -20 -16 -9 -30 -11 -30 -6 0 7 22 19 58 30 1 1 2 -1 2 -4z m-97
-41 c-3 -9 -45 -34 -92 -56 -267 -125 -450 -202 -458 -195 -2 3 45 38 104 78
95 65 127 80 273 130 91 32 168 58 172 58 4 1 5 -6 1 -15z m7 -37 c0 -2 -10
-12 -22 -23 l-23 -19 19 23 c18 21 26 27 26 19z"/>
<path d="M4980 1056 c0 -34 0 -34 -40 -29 -53 7 -80 -15 -80 -67 0 -52 24 -71
88 -68 l52 2 0 98 c0 59 -4 98 -10 98 -5 0 -10 -15 -10 -34z m-14 -71 c15 -23
15 -27 0 -50 -29 -44 -86 -28 -86 25 0 53 57 69 86 25z"/>
<path d="M5190 1055 c0 -9 -7 -18 -15 -21 -19 -8 -20 -24 0 -24 10 0 15 -15
17 -57 3 -51 6 -58 26 -61 12 -2 22 1 22 7 0 6 -7 11 -15 11 -11 0 -15 12 -15
50 0 43 3 50 20 50 11 0 20 5 20 10 0 6 -9 10 -20 10 -13 0 -20 7 -20 20 0 11
-4 20 -10 20 -5 0 -10 -7 -10 -15z"/>
<path d="M5030 1010 c-11 -11 -20 -33 -20 -50 0 -47 31 -70 90 -68 l50 2 0 66
0 66 -50 2 c-39 2 -55 -3 -70 -18z m84 -16 c31 -30 9 -84 -34 -84 -24 0 -50
26 -50 50 0 24 26 50 50 50 10 0 26 -7 34 -16z"/>
<path d="M5270 1010 c-24 -24 -26 -67 -4 -98 13 -19 23 -22 70 -20 l54 2 0 66
0 66 -50 2 c-39 2 -55 -3 -70 -18z m86 -25 c15 -23 15 -27 0 -50 -19 -29 -47
-32 -70 -9 -31 30 -9 84 34 84 11 0 27 -11 36 -25z"/>
<path d="M5421 1004 c-12 -15 -21 -34 -21 -44 0 -10 9 -29 21 -44 24 -31 78
-36 100 -9 13 15 11 16 -19 10 -45 -9 -72 7 -72 42 0 40 24 58 60 44 33 -12
45 -6 29 14 -20 23 -75 16 -98 -13z"/>
<path d="M5556 1012 c-22 -25 -21 -85 2 -105 13 -12 35 -16 70 -16 l52 2 0 67
0 67 -54 2 c-40 1 -57 -4 -70 -17z m91 -32 c15 -30 -2 -63 -36 -68 -43 -7 -64
35 -40 79 15 28 60 22 76 -11z"/>
<path d="M5700 960 c0 -38 4 -70 9 -70 6 0 22 23 38 50 l28 50 5 -47 c3 -25
10 -48 15 -50 6 -2 21 17 35 42 14 25 28 45 32 45 5 0 8 -20 8 -45 0 -25 5
-45 10 -45 6 0 10 30 10 70 0 83 -16 93 -52 30 -13 -22 -26 -40 -30 -40 -5 0
-8 18 -8 40 0 53 -19 52 -51 -2 l-24 -43 -3 43 c-5 69 -22 48 -22 -28z"/>
<path d="M5902 933 c2 -66 7 -98 16 -101 8 -2 12 8 12 30 0 33 1 33 38 30 66
-6 103 55 65 106 -17 23 -28 27 -77 29 l-57 1 3 -95z m114 52 c15 -23 15 -27
0 -50 -30 -45 -86 -28 -86 27 0 49 59 65 86 23z"/>
<path d="M9144 495 c-20 -31 -10 -63 23 -71 17 -5 30 -1 41 12 10 10 10 13 3
6 -33 -27 -80 3 -65 42 7 20 35 29 48 16 16 -16 30 -12 16 5 -19 22 -47 18
-66 -10z"/>
<path d="M9945 500 c-39 -44 22 -108 63 -65 16 16 16 16 -6 4 -16 -10 -27 -11
-40 -3 -46 29 -8 88 41 63 20 -11 21 -11 8 4 -18 23 -44 21 -66 -3z"/>
<path d="M10040 470 l0 -50 33 1 c30 2 30 2 5 6 -34 5 -38 33 -5 34 l22 0 -23
10 c-29 11 -24 31 9 40 21 6 21 7 -8 8 -33 1 -33 1 -33 -49z"/>
<path d="M10136 504 c-32 -31 -14 -84 29 -84 29 0 45 19 45 52 0 42 -45 62
-74 32z m52 -6 c31 -31 3 -76 -39 -63 -33 11 -18 75 16 75 6 0 16 -5 23 -12z"/>
<path d="M8530 476 c0 -34 -20 -61 -28 -38 -2 7 -9 12 -15 12 -6 0 -4 -7 5
-16 26 -27 48 -10 48 36 0 22 -2 40 -5 40 -3 0 -5 -15 -5 -34z"/>
<path d="M8808 500 c-9 -28 4 -80 21 -80 13 0 13 2 2 9 -8 5 -12 19 -9 34 5
28 -6 59 -14 37z"/>
<path d="M8862 465 c1 -37 2 -41 5 -17 5 40 25 38 34 -4 l7 -29 1 33 c1 23 -4
35 -16 39 -10 4 -21 11 -25 17 -4 6 -7 -11 -6 -39z"/>
<path d="M9523 465 c0 -27 2 -38 4 -22 2 15 2 37 0 50 -2 12 -4 0 -4 -28z"/>
<path d="M8564 476 c-11 -29 0 -51 26 -51 21 0 25 5 25 30 0 24 -5 31 -23 33
-13 2 -24 -3 -28 -12z m43 -12 c8 -21 -13 -42 -28 -27 -13 13 -5 43 11 43 6 0
13 -7 17 -16z"/>
<path d="M8641 453 c1 -36 2 -37 8 -8 3 17 13 30 21 30 8 0 18 -13 22 -30 6
-29 6 -29 5 5 -2 30 -6 35 -29 38 -26 3 -28 1 -27 -35z"/>
<path d="M8724 476 c-11 -30 1 -51 29 -52 24 -1 27 2 27 32 0 30 -3 34 -25 34
-14 0 -28 -6 -31 -14z m43 -12 c8 -21 -13 -42 -28 -27 -13 13 -5 43 11 43 6 0
13 -7 17 -16z"/>
<path d="M8934 476 c-11 -29 1 -51 29 -54 25 -3 27 -1 26 35 -1 35 -2 36 -8 9
-7 -34 -28 -45 -38 -20 -4 11 0 22 12 30 17 13 17 14 2 14 -10 0 -20 -6 -23
-14z"/>
<path d="M9022 453 c1 -37 1 -37 5 -5 3 18 10 32 18 32 8 0 15 -14 18 -32 4
-32 4 -32 5 5 2 33 0 37 -23 37 -23 0 -25 -4 -23 -37z"/>
<path d="M9241 472 c-12 -23 4 -52 29 -52 23 0 36 36 20 55 -17 20 -37 19 -49
-3z m44 -17 c0 -28 -29 -25 -33 3 -3 19 0 23 15 20 10 -2 18 -12 18 -23z"/>
<path d="M9321 453 c1 -28 3 -31 6 -13 3 14 10 31 15 38 8 9 6 12 -6 12 -12 0
-16 -9 -15 -37z"/>
<path d="M9373 455 c0 -22 2 -30 4 -17 2 12 2 30 0 40 -3 9 -5 -1 -4 -23z"/>
<path d="M9398 483 c6 -2 12 -18 12 -34 0 -16 5 -29 10 -29 11 0 13 30 4 54
-3 9 -14 16 -23 15 -10 0 -11 -2 -3 -6z"/>
<path d="M9450 476 c-23 -28 17 -73 42 -48 8 8 5 9 -11 5 -12 -3 -21 -1 -21 6
0 6 9 11 21 11 14 0 19 5 17 17 -4 23 -31 28 -48 9z m40 -6 c0 -5 -7 -10 -15
-10 -8 0 -15 5 -15 10 0 6 7 10 15 10 8 0 15 -4 15 -10z"/>
<path d="M9590 475 c0 -9 7 -18 15 -21 8 -4 15 -11 15 -16 0 -6 -7 -8 -15 -4
-8 3 -15 1 -15 -4 0 -6 9 -10 20 -10 13 0 20 7 20 20 0 11 -7 20 -15 20 -8 0
-15 5 -15 11 0 6 7 8 16 5 8 -3 12 -2 9 4 -10 16 -35 12 -35 -5z"/>
<path d="M9650 475 c0 -9 7 -18 15 -21 8 -4 15 -11 15 -16 0 -6 -8 -7 -17 -3
-14 5 -15 3 -6 -6 13 -13 43 -5 43 12 0 6 -9 13 -20 16 -11 3 -20 10 -20 15 0
6 7 8 15 4 8 -3 15 -1 15 4 0 6 -9 10 -20 10 -11 0 -20 -7 -20 -15z"/>
<path d="M9714 466 c-3 -14 -3 -30 1 -35 8 -13 42 -14 49 -2 4 5 -2 7 -13 4
-10 -3 -22 0 -25 6 -5 7 3 11 19 11 20 0 26 4 23 18 -2 9 -13 18 -25 20 -17 3
-24 -3 -29 -22z m46 4 c0 -5 -7 -10 -15 -10 -8 0 -15 5 -15 10 0 6 7 10 15 10
8 0 15 -4 15 -10z"/>
<path d="M9791 453 c1 -37 2 -37 8 -8 3 17 13 30 21 30 8 0 18 -13 21 -30 5
-22 7 -24 8 -8 2 35 -10 53 -35 53 -21 0 -24 -4 -23 -37z"/>
<path d="M9562 450 c0 -19 2 -27 5 -17 2 9 2 25 0 35 -3 9 -5 1 -5 -18z"/>
<path d="M9871 424 c0 -11 3 -14 6 -6 3 7 2 16 -1 19 -3 4 -6 -2 -5 -13z"/>
</g>
</svg>
