<?xml version="1.0" standalone="no"?>
<!DOCTYPE svg PUBLIC "-//W3C//DTD SVG 20010904//EN"
 "http://www.w3.org/TR/2001/REC-SVG-20010904/DTD/svg10.dtd">
<svg version="1.0" xmlns="http://www.w3.org/2000/svg"
 width="1196.000000pt" height="690.000000pt" viewBox="0 0 1196.000000 690.000000"
 preserveAspectRatio="xMidYMid meet">

<g transform="translate(0.000000,690.000000) scale(0.100000,-0.100000)"
fill="#000000" stroke="none">
<path d="M0 3445 l0 -3445 1515 0 1515 0 0 3445 0 3445 -1515 0 -1515 0 0
-3445z m1235 868 c176 -102 325 -189 330 -194 6 -6 12 -110 15 -249 l5 -240
255 146 255 146 75 -40 c41 -22 76 -44 77 -49 2 -4 -147 -94 -329 -199 l-333
-191 -3 -216 -2 -215 340 -195 341 -195 -81 -47 -82 -47 -319 183 c-176 100
-329 193 -339 207 -18 23 -20 41 -20 228 l0 202 -262 -150 c-242 -137 -266
-149 -302 -144 -26 3 -50 15 -70 35 l-31 31 0 654 c0 649 0 655 21 683 24 32
78 54 114 46 14 -4 169 -89 345 -190z"/>
<path d="M910 3781 c0 -292 3 -531 6 -531 4 0 119 64 255 143 l249 142 -3 244
-2 243 -190 110 c-104 60 -218 125 -252 145 l-63 35 0 -531z"/>
<path d="M3489 6411 c-16 -16 -29 -39 -29 -50 0 -32 41 -70 90 -84 33 -9 46
-18 48 -34 7 -46 -66 -52 -87 -7 -14 32 -51 33 -51 1 0 -34 27 -65 65 -76 68
-19 125 17 125 79 0 45 -21 67 -82 84 -35 11 -43 18 -43 37 0 33 48 40 65 10
6 -12 20 -21 30 -21 28 0 26 35 -5 65 -35 36 -88 34 -126 -4z"/>
<path d="M3710 6415 c0 -22 4 -25 40 -25 l40 0 0 -115 0 -115 30 0 30 0 0 115
0 115 40 0 c36 0 40 3 40 25 l0 25 -110 0 -110 0 0 -25z"/>
<path d="M4049 6413 c-6 -16 -21 -55 -34 -88 -13 -33 -32 -84 -44 -112 l-21
-53 29 0 c25 0 31 6 41 35 11 34 13 35 66 35 52 0 54 -1 68 -35 12 -28 21 -35
42 -35 21 0 25 4 20 18 -92 246 -100 262 -129 262 -21 0 -30 -7 -38 -27z m56
-89 c19 -47 20 -44 -19 -44 l-34 0 15 40 c9 22 18 40 19 40 2 0 11 -16 19 -36z"/>
<path d="M4240 6415 c0 -23 4 -25 45 -25 l45 0 0 -115 0 -115 25 0 25 0 0 115
0 115 40 0 c36 0 40 3 40 25 l0 25 -110 0 -110 0 0 -25z"/>
<path d="M4540 6300 l0 -140 101 0 c98 0 100 0 97 23 -3 20 -9 22 -75 25 l-73
3 0 29 0 30 65 0 c63 0 65 1 65 25 0 24 -2 25 -65 25 l-65 0 0 35 0 35 75 0
c73 0 75 1 75 25 l0 25 -100 0 -100 0 0 -140z"/>
<path d="M4830 6301 l0 -141 25 0 c25 0 25 1 26 93 l0 92 18 -45 c10 -25 25
-66 35 -92 15 -41 22 -48 45 -48 25 0 29 7 62 97 l34 97 3 -97 c3 -96 3 -97
27 -97 l25 0 0 140 0 140 -37 0 -38 0 -29 -83 c-52 -148 -43 -145 -86 -27
l-37 105 -37 3 -36 3 0 -140z"/>
<path d="M5230 6300 l0 -140 100 0 100 0 0 25 c0 24 -2 25 -75 25 l-75 0 0 30
0 30 65 0 c62 0 65 1 65 25 0 23 -4 24 -62 27 -63 3 -63 3 -63 33 l0 30 73 3
c69 3 72 4 72 27 0 25 0 25 -100 25 l-100 0 0 -140z"/>
<path d="M5520 6300 l0 -140 25 0 c25 0 25 0 25 98 l0 97 63 -97 c58 -91 64
-98 95 -98 l32 0 0 140 0 140 -25 0 c-24 0 -24 -1 -27 -97 l-3 -98 -63 98
c-57 86 -67 97 -93 97 l-29 0 0 -140z"/>
<path d="M5830 6415 c0 -23 4 -25 45 -25 l45 0 0 -115 0 -115 25 0 25 0 0 115
0 115 40 0 c36 0 40 3 40 25 l0 25 -110 0 -110 0 0 -25z"/>
<path d="M6355 6430 c-11 -4 -33 -22 -49 -39 -39 -41 -47 -120 -17 -168 75
-120 261 -66 261 76 0 100 -103 170 -195 131z m116 -69 c60 -60 24 -151 -59
-151 -53 0 -82 25 -89 77 -5 37 -2 46 25 73 41 40 83 41 123 1z"/>
<path d="M6640 6300 l0 -140 25 0 c24 0 25 3 25 55 l0 55 65 0 c62 0 65 1 65
25 0 23 -4 24 -62 27 -63 3 -63 3 -66 36 l-3 32 70 0 c69 0 71 1 71 25 0 25 0
25 -95 25 l-95 0 0 -140z"/>
<path d="M7101 6307 c-28 -73 -51 -136 -51 -140 0 -4 11 -7 25 -7 19 0 28 8
39 35 14 34 17 35 68 35 53 0 54 -1 67 -35 10 -29 17 -35 42 -35 17 0 28 3 25
8 -2 4 -27 67 -56 140 -49 125 -53 132 -79 132 -27 0 -31 -7 -80 -133z m109
-18 c0 -5 -13 -9 -30 -9 -35 0 -35 -1 -14 48 l15 37 15 -34 c8 -18 14 -37 14
-42z"/>
<path d="M7443 6421 c-125 -79 -73 -266 74 -263 51 0 87 21 107 61 25 47 -15
59 -52 16 -32 -37 -84 -34 -124 5 -26 27 -30 36 -25 67 8 47 33 72 79 80 30 4
41 1 63 -21 14 -14 37 -26 51 -26 24 0 24 1 10 28 -23 45 -52 65 -103 69 -36
3 -56 -1 -80 -16z"/>
<path d="M7785 6421 c-49 -30 -68 -58 -73 -109 -7 -78 29 -129 107 -152 60
-17 151 32 151 81 0 27 -32 24 -60 -6 -35 -37 -90 -35 -124 6 -35 41 -34 83 3
120 38 37 83 39 115 4 24 -26 66 -34 66 -12 0 21 -29 56 -60 72 -39 20 -89 19
-125 -4z"/>
<path d="M8121 6423 c-95 -47 -95 -199 1 -249 66 -34 150 -12 189 49 28 45 22
127 -12 163 -51 55 -115 68 -178 37z m130 -62 c60 -60 22 -150 -64 -151 -82 0
-117 91 -58 151 20 20 39 29 61 29 22 0 41 -9 61 -29z"/>
<path d="M8420 6301 l0 -141 25 0 c25 0 25 0 26 98 l0 97 36 -97 c34 -92 37
-98 64 -98 26 0 30 6 61 93 l33 92 3 -92 c3 -91 3 -93 27 -93 l25 0 0 141 0
140 -37 -3 -36 -3 -35 -97 c-19 -54 -37 -98 -41 -98 -3 0 -22 44 -41 98 l-35
97 -38 3 -37 3 0 -140z"/>
<path d="M8830 6301 l0 -141 25 0 c23 0 25 3 25 50 l0 50 46 0 c37 0 51 5 76
30 26 27 30 36 25 67 -10 60 -36 77 -122 81 l-75 4 0 -141z m134 73 c33 -33
11 -64 -46 -64 -38 0 -38 0 -38 40 0 39 1 40 34 40 19 0 42 -7 50 -16z"/>
<path d="M9110 6300 l0 -140 85 0 c84 0 85 0 85 25 0 24 -3 25 -60 25 l-60 0
0 115 0 115 -25 0 -25 0 0 -140z"/>
<path d="M9360 6300 l0 -140 25 0 25 0 0 140 0 140 -25 0 -25 0 0 -140z"/>
<path d="M9555 6428 c-30 -16 -45 -39 -45 -70 0 -36 28 -64 78 -78 45 -12 65
-31 56 -53 -14 -37 -76 -28 -89 13 -9 27 -55 28 -55 1 0 -28 40 -70 75 -80 42
-11 92 5 112 35 13 20 14 33 7 62 -8 34 -15 39 -72 61 -52 20 -62 29 -60 45 4
30 53 34 70 7 15 -25 58 -28 58 -5 0 8 -13 29 -29 45 -31 31 -70 37 -106 17z"/>
<path d="M9780 6300 l0 -140 25 0 c24 0 25 3 25 55 l0 55 70 0 70 0 0 -55 c0
-52 1 -55 25 -55 l25 0 0 140 0 140 -25 0 c-22 0 -24 -4 -27 -57 l-3 -58 -65
0 -65 0 -3 58 c-3 53 -5 57 -27 57 l-25 0 0 -140z"/>
<path d="M10120 6301 l0 -141 25 0 c25 0 25 0 26 98 l0 97 36 -97 c33 -91 38
-98 63 -98 25 0 30 7 63 93 l36 92 0 -92 c1 -92 1 -93 26 -93 l25 0 0 141 0
140 -37 -3 -36 -3 -35 -97 c-19 -54 -37 -98 -41 -98 -3 0 -22 44 -41 98 l-35
97 -38 3 -37 3 0 -140z"/>
<path d="M10530 6300 l0 -140 95 0 c95 0 95 0 95 25 0 24 -2 25 -70 25 l-70 0
0 30 0 30 65 0 c63 0 65 1 65 25 0 24 -2 25 -65 25 l-65 0 0 35 0 35 70 0 c68
0 70 1 70 25 0 25 0 25 -95 25 l-95 0 0 -140z"/>
<path d="M10810 6300 l0 -140 25 0 c24 0 24 1 27 98 l3 97 60 -97 c56 -90 62
-97 93 -98 l32 0 0 140 0 140 -25 0 c-24 0 -24 -1 -27 -97 l-3 -97 -62 97
c-56 88 -65 97 -93 97 l-30 0 0 -140z"/>
<path d="M11127 6433 c-4 -3 -7 -15 -7 -25 0 -15 8 -18 45 -18 l45 0 0 -115 0
-115 25 0 25 0 0 115 0 115 45 0 c41 0 45 2 45 25 l0 25 -108 0 c-60 0 -112
-3 -115 -7z"/>
<path d="M3533 5891 c-28 -37 -28 -41 -3 -41 11 0 20 -5 20 -10 0 -6 6 -5 14
2 8 7 10 15 6 18 -5 3 -10 18 -12 34 l-3 28 -22 -31z m13 -28 c-10 -10 -19 5
-10 18 6 11 8 11 12 0 2 -7 1 -15 -2 -18z"/>
<path d="M3591 5902 c-11 -21 2 -42 27 -42 7 0 10 -5 7 -11 -4 -6 -14 -8 -24
-4 -12 5 -13 3 -4 -6 22 -23 44 -2 41 38 -3 43 -30 57 -47 25z m37 -15 c2 -10
-3 -17 -12 -17 -10 0 -16 9 -16 21 0 24 23 21 28 -4z"/>
<path d="M3673 5891 c-28 -37 -28 -41 -3 -41 11 0 20 -5 20 -10 0 -6 6 -5 14
2 8 7 10 15 6 18 -5 3 -10 18 -12 34 l-3 28 -22 -31z m13 -28 c-10 -10 -19 5
-10 18 6 11 8 11 12 0 2 -7 1 -15 -2 -18z"/>
<path d="M3773 5891 c-28 -37 -28 -41 -3 -41 11 0 20 -5 20 -10 0 -6 6 -5 14
2 8 7 10 15 6 18 -5 3 -10 18 -12 34 l-3 28 -22 -31z m13 -28 c-10 -10 -19 5
-10 18 6 11 8 11 12 0 2 -7 1 -15 -2 -18z"/>
<path d="M3841 5906 c-7 -8 -11 -27 -9 -43 2 -22 8 -28 28 -28 21 0 26 5 28
34 5 45 -23 66 -47 37z m34 -32 c0 -19 -5 -29 -15 -29 -16 0 -25 28 -16 51 10
25 31 10 31 -22z"/>
<path d="M3921 5906 c-7 -8 -11 -27 -9 -43 2 -22 8 -28 28 -28 21 0 26 5 28
34 5 45 -23 66 -47 37z m34 -32 c0 -19 -5 -29 -15 -29 -16 0 -25 28 -16 51 10
25 31 10 31 -22z"/>
<path d="M3480 5902 c0 -7 -8 -12 -17 -11 -10 1 -25 1 -33 0 -13 -1 -13 -2 0
-12 11 -7 12 -12 3 -15 -7 -3 -9 -12 -6 -20 4 -11 9 -12 19 -3 11 9 14 8 14
-1 0 -10 3 -10 15 0 8 7 12 17 9 22 -4 6 -2 13 4 17 7 4 8 12 2 21 -7 11 -10
12 -10 2z m-10 -32 c0 -5 -4 -10 -10 -10 -5 0 -10 5 -10 10 0 6 5 10 10 10 6
0 10 -4 10 -10z"/>
<path d="M3731 5834 c0 -11 3 -14 6 -6 3 7 2 16 -1 19 -3 4 -6 -2 -5 -13z"/>
<path d="M3433 5395 c0 -38 2 -55 4 -37 4 29 7 32 38 32 31 0 34 -3 38 -32 2
-18 4 -1 4 37 0 39 -2 55 -4 38 -4 -30 -7 -33 -38 -33 -31 0 -34 3 -38 33 -2
17 -4 1 -4 -38z"/>
<path d="M3626 5452 c-2 -4 -14 -32 -25 -62 -21 -55 -22 -79 -1 -41 15 29 66
29 75 0 4 -11 9 -19 11 -16 6 6 -39 127 -47 127 -4 0 -10 -3 -13 -8z m34 -64
c0 -5 -11 -8 -24 -8 -24 0 -24 2 -14 31 l11 32 13 -24 c7 -13 13 -27 14 -31z"/>
<path d="M3751 5442 c-12 -23 -3 -38 32 -51 15 -6 27 -17 27 -25 0 -22 -31
-28 -51 -10 -12 11 -19 13 -19 5 0 -20 47 -36 65 -21 25 21 18 50 -15 61 -30
11 -39 32 -19 45 6 3 16 1 22 -5 17 -17 31 -13 17 4 -17 20 -47 19 -59 -3z"/>
<path d="M3970 5396 l0 -66 34 0 c39 0 62 22 50 47 -4 10 -8 32 -8 48 -1 27
-4 30 -38 33 l-38 3 0 -65z m65 29 c0 -31 -49 -28 -53 3 -3 20 0 23 25 20 20
-2 28 -8 28 -23z m10 -45 c10 -17 -16 -41 -39 -38 -13 2 -22 12 -24 26 -3 19
1 22 27 22 16 0 33 -5 36 -10z"/>
<path d="M4120 5395 l0 -65 43 2 42 1 -37 4 c-32 4 -38 8 -38 28 0 19 6 24 33
28 l32 4 -32 1 c-28 2 -33 6 -33 26 0 21 5 25 38 29 l37 4 -42 1 -43 2 0 -65z"/>
<path d="M4260 5395 l0 -65 43 1 42 2 -35 6 c-26 4 -36 12 -38 28 -3 19 2 22
35 26 l38 4 -37 1 c-33 2 -38 5 -38 26 0 21 5 25 38 29 l37 4 -42 1 -43 2 0
-65z"/>
<path d="M4412 5393 l1 -68 6 54 6 54 35 -51 c19 -29 38 -52 43 -52 4 0 6 30
5 68 l-1 67 -6 -55 -6 -55 -35 52 c-19 29 -38 53 -42 53 -5 0 -7 -30 -6 -67z"/>
<path d="M4706 5452 c-2 -4 -14 -32 -25 -62 -21 -55 -22 -79 -1 -41 15 29 66
29 75 0 4 -11 9 -19 11 -16 6 6 -39 127 -47 127 -4 0 -10 -3 -13 -8z m34 -64
c0 -5 -11 -8 -24 -8 -24 0 -24 2 -14 31 l11 32 13 -24 c7 -13 13 -27 14 -31z"/>
<path d="M4806 5435 c11 -62 25 -105 33 -100 5 2 14 26 20 52 14 52 25 46 36
-19 4 -21 10 -38 15 -38 7 0 41 107 39 126 -1 5 -9 -16 -19 -46 l-18 -55 -14
50 c-8 28 -19 48 -24 46 -5 -2 -15 -24 -23 -50 l-13 -46 -19 55 c-10 30 -16
42 -13 25z"/>
<path d="M5026 5452 c-2 -4 -14 -32 -25 -62 -21 -55 -22 -79 -1 -41 15 29 66
29 75 0 4 -11 9 -19 11 -16 6 6 -39 127 -47 127 -4 0 -10 -3 -13 -8z m34 -64
c0 -5 -11 -8 -24 -8 -24 0 -24 2 -14 31 l11 32 13 -24 c7 -13 13 -27 14 -31z"/>
<path d="M5151 5393 c1 -37 4 -56 6 -40 6 35 36 36 52 1 6 -15 14 -24 17 -21
3 3 1 15 -5 26 -9 15 -8 26 1 41 18 28 0 54 -41 58 l-31 3 1 -68z m66 41 c3
-8 -1 -23 -10 -31 -21 -21 -47 -9 -47 22 0 20 5 25 25 25 14 0 28 -7 32 -16z"/>
<path d="M5290 5395 l0 -65 35 0 c22 0 43 8 55 20 43 43 10 110 -55 110 l-35
0 0 -65z m80 35 c11 -11 20 -27 20 -35 0 -22 -37 -55 -60 -55 -18 0 -20 7 -20
55 0 48 2 55 20 55 11 0 29 -9 40 -20z"/>
<path d="M5460 5395 l0 -65 43 1 42 2 -35 6 c-26 4 -36 12 -38 28 -3 19 2 22
35 26 l38 4 -37 1 c-33 2 -38 5 -38 26 0 21 5 25 38 29 l37 4 -42 1 -43 2 0
-65z"/>
<path d="M5610 5395 c0 -64 0 -65 28 -65 43 0 72 26 72 65 0 39 -29 65 -72 65
-28 0 -28 -1 -28 -65z m72 38 c36 -33 8 -93 -44 -93 -15 0 -18 9 -18 55 0 50
2 55 22 55 12 0 30 -7 40 -17z"/>
<path d="M5858 5453 c20 -4 22 -10 22 -64 0 -33 4 -59 10 -59 6 0 10 26 10 59
0 54 2 60 23 64 12 2 -3 4 -33 4 -30 0 -45 -2 -32 -4z"/>
<path d="M6002 5444 c-28 -19 -29 -67 -2 -94 24 -24 48 -25 78 -4 45 31 18
114 -38 114 -9 0 -26 -7 -38 -16z m70 -11 c26 -23 23 -59 -7 -79 -23 -15 -27
-15 -50 0 -29 19 -32 51 -8 78 20 22 41 23 65 1z"/>
<path d="M5094 5056 c-10 -26 4 -48 28 -44 17 2 23 10 23 28 0 18 -6 26 -23
28 -13 2 -25 -3 -28 -12z"/>
<path d="M3550 4957 c0 -110 -6 -127 -48 -127 -17 0 -26 8 -33 30 -14 39 -49
42 -49 4 0 -31 50 -84 80 -84 29 0 76 26 84 45 3 9 6 66 6 126 0 102 -1 109
-20 109 -19 0 -20 -7 -20 -103z"/>
<path d="M3880 4920 c0 -133 1 -140 20 -140 18 0 20 7 20 60 0 47 4 64 20 80
16 16 25 18 39 11 25 -14 31 -33 31 -97 0 -47 2 -54 20 -54 18 0 20 7 20 80 0
67 -3 83 -20 100 -21 21 -74 27 -85 10 -14 -23 -25 -7 -25 40 0 43 -3 50 -20
50 -19 0 -20 -7 -20 -140z"/>
<path d="M4430 4920 l0 -140 25 0 c23 0 25 3 25 50 0 46 2 50 23 50 18 0 29
-11 47 -50 20 -43 28 -50 52 -50 l28 0 -27 54 -26 53 22 22 c14 14 21 33 21
59 -1 66 -37 92 -129 92 l-61 0 0 -140z m144 68 c18 -29 -4 -53 -53 -56 l-41
-3 0 41 0 41 41 -3 c27 -2 46 -9 53 -20z"/>
<path d="M5760 5058 c0 -2 -22 -62 -50 -133 -27 -71 -50 -133 -50 -137 0 -4
11 -8 24 -8 18 0 25 8 32 33 9 31 12 32 67 35 57 3 58 3 72 -32 12 -27 21 -36
39 -36 24 0 24 1 -29 138 -48 124 -55 137 -79 140 -14 2 -26 2 -26 0z m39 -90
c25 -68 25 -68 -14 -68 -31 0 -36 3 -30 18 4 9 12 29 17 45 12 33 16 34 27 5z"/>
<path d="M6630 4920 c0 -133 1 -140 20 -140 19 0 20 7 20 140 0 133 -1 140
-20 140 -19 0 -20 -7 -20 -140z"/>
<path d="M7070 4920 l0 -140 65 0 c106 0 165 44 172 127 8 95 -57 153 -169
153 l-68 0 0 -140z m165 65 c19 -18 25 -35 25 -65 0 -58 -33 -90 -95 -90 l-45
0 0 90 0 90 45 0 c35 0 52 -6 70 -25z"/>
<path d="M3669 4951 c-23 -23 -29 -38 -29 -71 0 -101 130 -137 176 -49 18 36
18 63 -1 99 -30 59 -98 68 -146 21z m89 -27 c24 -17 30 -62 10 -82 -19 -19
-66 -15 -78 7 -15 29 -12 49 10 71 24 24 29 24 58 4z"/>
<path d="M4100 4880 c0 -93 1 -100 20 -100 18 0 20 7 20 63 0 50 4 68 19 81
15 14 24 15 40 6 18 -9 21 -20 21 -80 0 -68 1 -70 25 -70 24 0 25 2 25 74 0
59 -4 78 -21 100 -22 28 -56 34 -90 16 -13 -7 -19 -7 -19 0 0 5 -9 10 -20 10
-19 0 -20 -7 -20 -100z"/>
<path d="M4679 4951 c-62 -62 -20 -171 66 -171 35 0 85 35 85 60 0 16 -39 12
-57 -6 -21 -20 -52 -14 -71 14 l-14 22 71 0 c65 0 71 2 71 21 0 81 -92 118
-151 60z m97 -28 c17 -17 16 -18 -25 -21 -50 -4 -59 1 -41 23 17 20 44 19 66
-2z"/>
<path d="M4880 4880 c0 -93 1 -100 20 -100 18 0 20 7 20 63 0 50 4 68 19 81
15 14 24 15 40 6 18 -9 21 -20 21 -80 0 -68 1 -70 25 -70 24 0 25 2 25 74 0
59 -4 78 -21 100 -22 28 -56 34 -90 16 -13 -7 -19 -7 -19 0 0 5 -9 10 -20 10
-19 0 -20 -7 -20 -100z"/>
<path d="M5100 4880 c0 -93 1 -100 20 -100 19 0 20 7 20 100 0 93 -1 100 -20
100 -19 0 -20 -7 -20 -100z"/>
<path d="M5219 4951 c-62 -62 -20 -171 66 -171 35 0 85 35 85 60 0 16 -39 12
-57 -6 -21 -20 -52 -14 -71 14 l-14 22 71 0 c68 0 71 1 71 24 0 14 -12 38 -26
55 -35 42 -84 43 -125 2z m97 -28 c17 -17 16 -18 -25 -21 -50 -4 -59 1 -41 23
17 20 44 19 66 -2z"/>
<path d="M5420 4880 c0 -93 1 -100 20 -100 18 0 20 7 20 58 0 65 15 94 51 97
32 2 41 45 9 45 -12 0 -30 -5 -41 -10 -13 -7 -19 -7 -19 0 0 5 -9 10 -20 10
-19 0 -20 -7 -20 -100z"/>
<path d="M5950 4880 c0 -93 1 -100 20 -100 18 0 20 7 20 63 0 50 4 68 19 81
15 14 24 15 40 6 18 -9 21 -20 21 -80 0 -68 1 -70 25 -70 24 0 25 2 25 74 0
59 -4 78 -21 100 -22 28 -56 34 -90 16 -13 -7 -19 -7 -19 0 0 5 -9 10 -20 10
-19 0 -20 -7 -20 -100z"/>
<path d="M6207 4969 c-22 -13 -47 -61 -47 -91 0 -35 36 -87 65 -94 15 -4 38
-1 52 5 32 15 39 8 25 -24 -16 -35 -57 -43 -86 -16 -24 22 -56 28 -56 10 0
-41 63 -81 113 -72 15 3 38 19 52 35 23 28 25 37 25 144 0 106 -1 114 -19 114
-11 0 -21 -6 -24 -12 -4 -10 -7 -10 -18 0 -16 14 -57 15 -82 1z m84 -50 c34
-34 12 -88 -36 -89 -47 0 -63 66 -23 94 29 21 34 20 59 -5z"/>
<path d="M6429 4951 c-23 -23 -29 -38 -29 -71 0 -86 98 -133 155 -75 32 31 32
45 0 45 -14 0 -25 -4 -25 -10 0 -16 -49 -23 -65 -10 -33 27 -17 40 50 40 62 0
65 1 65 24 0 14 -12 38 -26 55 -35 42 -84 43 -125 2z m97 -28 c17 -17 16 -18
-25 -21 -50 -4 -59 1 -41 23 17 20 44 19 66 -2z"/>
<path d="M6749 4951 c-23 -23 -29 -38 -29 -71 0 -101 130 -137 176 -49 18 36
18 63 -1 99 -30 59 -98 68 -146 21z m89 -27 c24 -17 30 -62 10 -82 -19 -19
-66 -15 -78 7 -15 29 -12 49 10 71 24 24 29 24 58 4z"/>
<path d="M7379 4951 c-23 -23 -29 -38 -29 -71 0 -86 98 -133 155 -75 32 31 32
45 0 45 -14 0 -25 -4 -25 -10 0 -16 -49 -23 -65 -10 -33 27 -17 40 50 40 62 0
65 1 65 24 0 14 -12 38 -26 55 -35 42 -84 43 -125 2z m97 -28 c17 -17 16 -18
-25 -21 -50 -4 -59 1 -41 23 17 20 44 19 66 -2z"/>
<path d="M7580 4840 c0 -133 1 -140 20 -140 17 0 20 7 20 51 0 45 2 50 18 44
37 -16 63 -17 85 -2 54 35 60 128 10 167 -29 23 -72 26 -92 8 -11 -10 -14 -10
-18 0 -3 6 -13 12 -24 12 -18 0 -19 -9 -19 -140z m118 84 c24 -17 30 -62 10
-82 -7 -7 -25 -12 -40 -12 -59 0 -57 100 2 109 3 1 16 -6 28 -15z"/>
<path d="M7829 4951 c-23 -23 -29 -38 -29 -71 0 -101 130 -137 176 -49 18 36
18 63 -1 99 -30 59 -98 68 -146 21z m109 -65 c4 -36 -14 -56 -49 -56 -34 0
-54 30 -45 66 14 54 88 45 94 -10z"/>
<path d="M8040 4880 c0 -93 1 -100 20 -100 18 0 20 7 20 63 0 50 4 68 19 81
15 14 24 15 40 6 18 -9 21 -20 21 -80 0 -68 1 -70 25 -70 24 0 25 2 25 74 0
59 -4 78 -21 100 -22 28 -56 34 -90 16 -13 -7 -19 -7 -19 0 0 5 -9 10 -20 10
-19 0 -20 -7 -20 -100z"/>
<path d="M8279 4951 c-62 -62 -20 -171 66 -171 35 0 85 35 85 60 0 16 -39 12
-57 -6 -21 -20 -52 -14 -71 14 l-14 22 71 0 c68 0 71 1 71 24 0 14 -12 38 -26
55 -35 42 -84 43 -125 2z m97 -28 c17 -17 16 -18 -25 -21 -50 -4 -59 1 -41 23
17 20 44 19 66 -2z"/>
<path d="M3432 4173 c0 -38 3 -54 5 -36 4 27 9 32 36 36 l32 4 -32 1 c-28 2
-33 6 -33 26 0 21 5 25 38 29 l37 4 -42 1 -43 2 2 -67z"/>
<path d="M3561 4213 c-24 -30 -20 -58 11 -85 27 -23 53 -23 78 2 39 39 11 110
-44 110 -15 0 -33 -11 -45 -27z m79 -3 c11 -11 20 -27 20 -35 0 -16 -34 -55
-48 -55 -23 0 -52 34 -52 60 0 47 46 64 80 30z"/>
<path d="M3741 4173 c1 -37 4 -56 6 -40 6 35 36 36 52 1 6 -15 14 -24 17 -21
3 3 1 15 -5 26 -9 15 -8 26 1 41 18 28 0 54 -41 58 l-31 3 1 -68z m66 41 c3
-8 -1 -23 -10 -31 -21 -21 -47 -9 -47 22 0 20 5 25 25 25 14 0 28 -7 32 -16z"/>
<path d="M3974 4225 c-9 -23 3 -44 31 -55 14 -5 25 -16 25 -24 0 -21 -27 -27
-44 -11 -19 19 -27 19 -20 0 14 -36 74 -27 74 12 0 18 -8 27 -30 34 -32 12
-40 36 -15 45 8 4 23 0 33 -7 15 -13 16 -12 3 4 -17 21 -50 22 -57 2z"/>
<path d="M4114 4186 c1 -45 5 -62 19 -70 33 -21 52 4 53 70 1 57 1 57 -3 7 -4
-57 -24 -83 -48 -63 -8 6 -16 35 -18 63 -4 50 -4 50 -3 -7z"/>
<path d="M4271 4213 c-24 -30 -20 -58 11 -85 27 -24 51 -23 74 4 l19 21 -27
-18 c-26 -16 -30 -16 -53 -1 -35 23 -35 72 0 88 19 9 29 8 50 -6 28 -19 33
-15 9 8 -24 24 -60 19 -83 -11z"/>
<path d="M4450 4220 c-27 -27 -25 -62 3 -88 29 -27 48 -28 78 -2 29 23 18 26
-16 4 -28 -18 -60 -7 -70 26 -14 45 41 86 74 56 25 -23 37 -20 16 4 -10 11
-29 20 -42 20 -12 0 -32 -9 -43 -20z"/>
<path d="M4610 4175 l0 -65 48 2 c43 1 44 2 10 5 -32 4 -38 8 -38 28 0 19 6
24 33 28 l32 4 -32 1 c-28 2 -33 6 -33 26 0 21 5 25 38 29 34 3 33 4 -10 5
l-48 2 0 -65z"/>
<path d="M4764 4225 c-9 -23 3 -44 31 -55 14 -5 25 -16 25 -24 0 -21 -27 -27
-44 -11 -19 19 -27 19 -20 0 14 -36 74 -27 74 12 0 18 -8 27 -30 34 -32 12
-40 36 -15 45 8 4 23 0 33 -7 15 -13 16 -12 3 4 -17 21 -50 22 -57 2z"/>
<path d="M4901 4222 c-12 -23 -3 -38 32 -51 15 -6 27 -17 27 -25 0 -22 -31
-28 -51 -10 -12 11 -19 13 -19 5 0 -20 47 -36 65 -21 25 21 18 50 -15 61 -30
11 -39 32 -19 45 6 3 16 1 22 -5 17 -17 31 -13 17 4 -17 20 -47 19 -59 -3z"/>
<path d="M5032 4173 c0 -38 3 -54 5 -36 4 27 9 32 36 36 l32 4 -32 1 c-28 2
-33 6 -33 26 0 21 5 25 38 29 l37 4 -42 1 -43 2 2 -67z"/>
<path d="M5174 4186 c1 -45 5 -62 19 -70 33 -21 52 4 53 70 1 57 1 57 -3 7 -2
-28 -10 -57 -18 -63 -24 -20 -44 6 -48 63 -4 50 -4 50 -3 -7z"/>
<path d="M5320 4175 l0 -65 43 2 c36 1 38 2 10 5 l-33 4 0 60 c0 33 -4 59 -10
59 -6 0 -10 -28 -10 -65z"/>
<path d="M5452 4178 l-2 -68 38 1 c36 1 36 2 7 8 -28 6 -30 9 -36 66 l-6 60
-1 -67z"/>
<path d="M5560 4235 c0 -5 9 -21 20 -35 11 -14 20 -41 21 -60 l1 -35 8 31 c4
18 17 48 29 68 13 20 18 36 13 36 -5 0 -15 -13 -22 -30 -11 -27 -30 -41 -30
-22 -1 11 -40 58 -40 47z"/>
<path d="M5820 4220 c-27 -27 -25 -62 3 -88 29 -27 48 -28 78 -2 28 22 19 27
-14 6 -43 -27 -92 18 -68 63 15 28 49 36 70 17 25 -23 37 -20 16 4 -10 11 -29
20 -42 20 -12 0 -32 -9 -43 -20z"/>
<path d="M6002 4224 c-28 -19 -29 -67 -2 -94 24 -24 48 -25 78 -4 45 31 18
114 -38 114 -9 0 -26 -7 -38 -16z m70 -11 c26 -23 23 -59 -7 -79 -23 -15 -27
-15 -50 0 -29 19 -32 51 -8 78 20 22 41 23 65 1z"/>
<path d="M6172 4173 l1 -68 7 50 6 50 22 -47 c12 -27 24 -48 27 -48 3 0 16 21
28 48 l22 47 6 -50 c6 -49 6 -49 7 18 1 37 -2 67 -7 67 -5 0 -19 -26 -32 -57
l-23 -58 -25 58 c-13 31 -28 57 -33 57 -4 0 -7 -30 -6 -67z"/>
<path d="M6371 4173 c1 -37 4 -56 6 -41 3 20 11 28 30 30 59 7 54 70 -6 76
l-31 3 1 -68z m66 41 c8 -20 -21 -49 -41 -41 -9 4 -16 18 -16 32 0 20 5 25 25
25 14 0 28 -7 32 -16z"/>
<path d="M6512 4178 l-2 -68 38 1 c36 1 36 2 7 8 -28 6 -30 9 -36 66 l-6 60
-1 -67z"/>
<path d="M6640 4175 l0 -65 43 2 42 1 -37 4 c-32 4 -38 8 -38 28 0 19 6 24 33
28 l32 4 -32 1 c-28 2 -33 6 -33 26 0 21 5 25 38 29 l37 4 -42 1 -43 2 0 -65z"/>
<path d="M6787 4233 c19 -4 23 -12 26 -66 l3 -62 2 62 c2 55 4 62 25 66 12 2
0 4 -28 4 -27 0 -40 -2 -28 -4z"/>
<path d="M6923 4175 c0 -38 2 -53 4 -32 2 20 2 52 0 70 -2 17 -4 1 -4 -38z"/>
<path d="M7012 4173 l1 -68 6 54 6 54 35 -51 c19 -29 38 -52 43 -52 4 0 6 30
5 68 l-1 67 -6 -55 -6 -55 -35 52 c-19 29 -38 53 -42 53 -5 0 -7 -30 -6 -67z"/>
<path d="M7197 4223 c-29 -34 -26 -77 8 -99 21 -14 31 -15 50 -6 15 7 25 8 25
2 0 -6 4 -10 8 -10 4 0 6 16 4 35 -4 32 -7 35 -36 34 -30 -2 -30 -2 -3 -6 31
-5 36 -28 8 -43 -21 -10 -51 -4 -63 14 -4 6 -8 23 -8 39 0 39 39 56 75 33 14
-9 25 -12 25 -7 0 13 -33 31 -58 31 -10 0 -26 -8 -35 -17z"/>
<path d="M4514 3836 c-10 -26 4 -48 28 -44 17 2 23 10 23 28 0 18 -6 26 -23
28 -13 2 -25 -3 -28 -12z"/>
<path d="M6754 3836 c-10 -26 4 -48 28 -44 17 2 23 10 23 28 0 18 -6 26 -23
28 -13 2 -25 -3 -28 -12z"/>
<path d="M7434 3836 c-10 -26 4 -48 28 -44 17 2 23 10 23 28 0 18 -6 26 -23
28 -13 2 -25 -3 -28 -12z"/>
<path d="M7964 3836 c-10 -26 4 -48 28 -44 17 2 23 10 23 28 0 18 -6 26 -23
28 -13 2 -25 -3 -28 -12z"/>
<path d="M3520 3838 c0 -2 -22 -62 -50 -133 -27 -71 -50 -133 -50 -137 0 -4
11 -8 24 -8 18 0 25 8 32 33 9 31 12 32 67 35 57 3 58 3 72 -32 12 -27 21 -36
39 -36 24 0 24 1 -29 138 -48 124 -55 137 -79 140 -14 2 -26 2 -26 0z m39 -90
c25 -68 25 -68 -14 -68 -31 0 -36 3 -30 18 4 9 12 29 17 45 12 33 16 34 27 5z"/>
<path d="M5320 3700 l0 -140 65 0 c106 0 165 44 172 127 8 95 -57 153 -169
153 l-68 0 0 -140z m165 65 c19 -18 25 -35 25 -65 0 -58 -33 -90 -95 -90 l-45
0 0 90 0 90 45 0 c35 0 52 -6 70 -25z"/>
<path d="M6344 3817 c-19 -17 -27 -33 -27 -55 0 -42 15 -58 74 -77 55 -19 63
-27 54 -55 -10 -31 -72 -28 -87 5 -14 31 -48 34 -48 4 0 -34 53 -79 94 -79 48
0 89 36 89 78 0 42 -26 69 -82 85 -39 11 -46 17 -46 37 0 21 5 26 33 28 27 3
35 -1 39 -17 3 -14 13 -21 29 -21 33 0 31 25 -5 61 -37 36 -79 38 -117 6z"/>
<path d="M8400 3700 l0 -140 25 0 c23 0 25 3 25 50 l0 50 35 0 c42 0 90 22 99
45 3 9 6 29 6 45 0 65 -36 90 -130 90 l-60 0 0 -140z m144 68 c18 -29 -4 -53
-53 -56 l-41 -3 0 41 0 41 41 -3 c27 -2 46 -9 53 -20z"/>
<path d="M9010 3700 c0 -133 1 -140 20 -140 18 0 20 7 20 60 0 47 4 64 20 80
16 16 25 18 39 11 25 -14 31 -33 31 -97 0 -47 2 -54 20 -54 18 0 20 7 20 80 0
67 -3 83 -20 100 -21 21 -74 27 -85 10 -14 -23 -25 -7 -25 40 0 43 -3 50 -20
50 -19 0 -20 -7 -20 -140z"/>
<path d="M4860 3791 c0 -21 -5 -31 -15 -31 -8 0 -15 -9 -15 -20 0 -11 7 -20
15 -20 12 0 15 -14 15 -63 0 -72 17 -97 63 -97 22 0 27 5 27 25 0 18 -5 25
-20 25 -18 0 -20 7 -20 55 0 48 2 55 20 55 13 0 20 7 20 20 0 13 -7 20 -19 20
-14 0 -21 8 -23 28 -2 19 -9 28 -25 30 -20 3 -23 -1 -23 -27z"/>
<path d="M5850 3791 c0 -21 -5 -31 -15 -31 -8 0 -15 -9 -15 -20 0 -11 7 -20
15 -20 12 0 15 -14 15 -63 0 -72 17 -97 63 -97 22 0 27 5 27 25 0 18 -5 25
-20 25 -18 0 -20 7 -20 55 0 48 2 55 20 55 13 0 20 7 20 20 0 13 -7 20 -19 20
-14 0 -21 8 -23 28 -2 19 -9 28 -25 30 -20 3 -23 -1 -23 -27z"/>
<path d="M7300 3791 c0 -21 -5 -31 -15 -31 -8 0 -15 -9 -15 -20 0 -11 7 -20
15 -20 12 0 15 -14 15 -63 0 -72 17 -97 63 -97 22 0 27 5 27 25 0 18 -5 25
-20 25 -18 0 -20 7 -20 55 0 48 2 55 20 55 13 0 20 7 20 20 0 13 -7 20 -19 20
-14 0 -21 8 -23 28 -2 19 -9 28 -25 30 -20 3 -23 -1 -23 -27z"/>
<path d="M7720 3791 c0 -21 -5 -31 -15 -31 -8 0 -15 -9 -15 -20 0 -11 7 -20
15 -20 12 0 15 -14 15 -63 0 -72 17 -97 63 -97 22 0 27 5 27 25 0 18 -5 25
-20 25 -18 0 -20 7 -20 55 0 48 2 55 20 55 13 0 20 7 20 20 0 13 -7 20 -19 20
-14 0 -21 8 -23 28 -2 19 -9 28 -25 30 -20 3 -23 -1 -23 -27z"/>
<path d="M8870 3791 c0 -21 -5 -31 -15 -31 -8 0 -15 -9 -15 -20 0 -11 7 -20
15 -20 12 0 15 -14 15 -63 0 -72 17 -97 63 -97 22 0 27 5 27 25 0 18 -5 25
-20 25 -18 0 -20 7 -20 55 0 48 2 55 20 55 13 0 20 7 20 20 0 13 -7 20 -19 20
-14 0 -21 8 -23 28 -2 19 -9 28 -25 30 -20 3 -23 -1 -23 -27z"/>
<path d="M3722 3744 c-43 -30 -23 -78 42 -99 33 -11 42 -38 15 -43 -9 -2 -24
4 -32 13 -24 23 -56 20 -50 -5 18 -70 143 -62 143 9 0 29 -27 61 -51 61 -9 0
-23 6 -33 13 -16 12 -16 14 -2 26 14 12 19 11 34 -3 20 -18 52 -22 52 -6 0 20
-41 50 -68 50 -15 0 -38 -7 -50 -16z"/>
<path d="M3902 3744 c-43 -30 -23 -78 42 -99 33 -11 42 -38 15 -43 -9 -2 -24
4 -32 13 -24 23 -56 20 -50 -5 18 -70 143 -62 143 9 0 29 -27 61 -51 61 -9 0
-23 6 -33 13 -16 12 -16 14 -2 26 14 12 19 11 34 -3 20 -18 52 -22 52 -6 0 20
-41 50 -68 50 -15 0 -38 -7 -50 -16z"/>
<path d="M4089 3731 c-23 -23 -29 -38 -29 -71 0 -101 130 -137 176 -49 18 36
18 63 -1 99 -30 59 -98 68 -146 21z m89 -27 c24 -17 30 -62 10 -82 -19 -19
-66 -15 -78 7 -15 29 -12 49 10 71 24 24 29 24 58 4z"/>
<path d="M4319 3731 c-23 -23 -29 -38 -29 -71 0 -52 42 -100 88 -100 30 0 92
42 92 61 0 12 -47 12 -55 -1 -12 -19 -64 -11 -75 11 -27 50 20 104 65 75 28
-18 65 -21 65 -6 0 6 -11 22 -25 35 -35 36 -88 34 -126 -4z"/>
<path d="M4520 3660 c0 -93 1 -100 20 -100 19 0 20 7 20 100 0 93 -1 100 -20
100 -19 0 -20 -7 -20 -100z"/>
<path d="M4652 3753 c-20 -8 -42 -59 -42 -98 0 -27 8 -44 29 -66 31 -30 59
-36 92 -19 13 7 19 7 19 0 0 -5 11 -10 25 -10 l25 0 0 100 0 100 -25 0 c-14 0
-25 -5 -25 -10 0 -7 -6 -7 -19 0 -20 10 -57 12 -79 3z m76 -49 c24 -17 30 -62
10 -82 -19 -19 -66 -15 -78 7 -15 29 -12 49 10 71 24 24 29 24 58 4z"/>
<path d="M5009 3731 c-62 -62 -20 -171 66 -171 35 0 85 35 85 60 0 16 -39 12
-57 -6 -21 -20 -52 -14 -71 14 l-14 22 71 0 c68 0 71 1 71 24 0 14 -12 38 -26
55 -35 42 -84 43 -125 2z m97 -28 c17 -17 16 -18 -25 -21 -50 -4 -59 1 -41 23
17 20 44 19 66 -2z"/>
<path d="M5642 3753 c-20 -8 -42 -59 -42 -98 0 -27 8 -44 29 -66 31 -30 59
-36 92 -19 13 7 19 7 19 0 0 -5 11 -10 25 -10 l25 0 0 100 0 100 -25 0 c-14 0
-25 -5 -25 -10 0 -7 -6 -7 -19 0 -20 10 -57 12 -79 3z m76 -49 c24 -17 30 -62
10 -82 -19 -19 -66 -15 -78 7 -15 29 -12 49 10 71 24 24 29 24 58 4z"/>
<path d="M6012 3753 c-20 -8 -42 -59 -42 -98 0 -27 8 -44 29 -66 31 -30 59
-36 92 -19 13 7 19 7 19 0 0 -5 11 -10 25 -10 l25 0 0 100 0 100 -25 0 c-14 0
-25 -5 -25 -10 0 -7 -6 -7 -19 0 -20 10 -57 12 -79 3z m76 -49 c24 -17 30 -62
10 -82 -19 -19 -66 -15 -78 7 -15 29 -12 49 10 71 24 24 29 24 58 4z"/>
<path d="M6559 3731 c-23 -23 -29 -38 -29 -71 0 -52 42 -100 88 -100 30 0 92
42 92 61 0 12 -47 12 -55 -1 -12 -19 -64 -11 -75 11 -27 50 20 104 65 75 28
-18 65 -21 65 -6 0 6 -11 22 -25 35 -35 36 -88 34 -126 -4z"/>
<path d="M6760 3660 c0 -93 1 -100 20 -100 19 0 20 7 20 100 0 93 -1 100 -20
100 -19 0 -20 -7 -20 -100z"/>
<path d="M6879 3731 c-62 -62 -20 -171 66 -171 35 0 85 35 85 60 0 16 -39 12
-57 -6 -21 -20 -52 -14 -71 14 l-14 22 71 0 c68 0 71 1 71 24 0 14 -12 38 -26
55 -35 42 -84 43 -125 2z m97 -28 c17 -17 16 -18 -25 -21 -50 -4 -59 1 -41 23
17 20 44 19 66 -2z"/>
<path d="M7080 3660 c0 -93 1 -100 20 -100 18 0 20 7 20 64 0 55 3 67 22 80
15 11 26 12 40 5 15 -8 18 -22 18 -79 0 -68 1 -70 25 -70 24 0 25 2 25 74 0
59 -4 78 -21 100 -22 28 -56 34 -90 16 -13 -7 -19 -7 -19 0 0 5 -9 10 -20 10
-19 0 -20 -7 -20 -100z"/>
<path d="M7440 3660 c0 -93 1 -100 20 -100 19 0 20 7 20 100 0 93 -1 100 -20
100 -19 0 -20 -7 -20 -100z"/>
<path d="M7552 3744 c-43 -30 -23 -78 42 -99 33 -11 42 -38 15 -43 -9 -2 -24
4 -32 13 -24 23 -56 20 -50 -5 18 -70 143 -62 143 9 0 29 -27 61 -51 61 -9 0
-23 6 -33 13 -16 12 -16 14 -2 26 14 12 19 11 34 -3 20 -18 52 -22 52 -6 0 20
-41 50 -68 50 -15 0 -38 -7 -50 -16z"/>
<path d="M7970 3660 c0 -93 1 -100 20 -100 19 0 20 7 20 100 0 93 -1 100 -20
100 -19 0 -20 -7 -20 -100z"/>
<path d="M8070 3660 c0 -93 1 -100 20 -100 18 0 20 7 20 63 0 50 4 68 19 81
15 14 24 15 40 6 18 -9 21 -20 21 -80 0 -68 1 -70 25 -70 24 0 25 2 25 74 0
59 -4 78 -21 100 -22 28 -56 34 -90 16 -13 -7 -19 -7 -19 0 0 5 -9 10 -20 10
-19 0 -20 -7 -20 -100z"/>
<path d="M8630 3680 c0 -67 3 -83 20 -100 22 -22 51 -26 81 -10 16 9 19 7 19
-13 0 -46 -58 -66 -82 -27 -11 17 -58 29 -58 15 0 -16 31 -63 45 -69 40 -15
91 -6 116 20 22 24 24 35 27 145 l4 119 -26 0 c-24 0 -25 -2 -28 -72 -3 -68
-5 -73 -26 -76 -40 -6 -52 14 -52 84 0 57 -2 64 -20 64 -18 0 -20 -7 -20 -80z"/>
<path d="M9249 3731 c-23 -23 -29 -38 -29 -71 0 -101 130 -137 176 -49 18 36
18 63 -1 99 -30 59 -98 68 -146 21z m89 -27 c24 -17 30 -62 10 -82 -19 -19
-66 -15 -78 7 -15 29 -12 49 10 71 24 24 29 24 58 4z"/>
<path d="M9460 3660 c0 -93 1 -100 20 -100 18 0 20 7 20 63 0 50 4 68 19 81
15 14 24 15 40 6 18 -9 21 -20 21 -80 0 -68 1 -70 25 -70 24 0 25 2 25 74 0
59 -4 78 -21 100 -22 28 -56 34 -90 16 -13 -7 -19 -7 -19 0 0 5 -9 10 -20 10
-19 0 -20 -7 -20 -100z"/>
<path d="M3540 2922 c0 -5 14 -7 30 -4 17 2 30 6 30 8 0 2 -13 4 -30 4 -16 0
-30 -4 -30 -8z"/>
<path d="M3660 2920 c0 -9 10 -23 57 -79 l22 -26 -1 60 c-1 59 -1 59 -7 15
l-6 -45 -29 43 c-30 43 -36 49 -36 32z"/>
<path d="M3850 2917 c14 -8 27 -12 30 -10 7 6 -23 23 -40 23 -8 0 -4 -6 10
-13z"/>
<path d="M3947 2923 c19 -4 23 -12 26 -56 l3 -52 2 52 c2 40 6 53 20 56 9 3
-3 5 -28 4 -25 0 -35 -2 -23 -4z"/>
<path d="M4130 2905 c0 -22 -4 -25 -35 -25 -19 0 -35 -4 -35 -8 0 -4 15 -6 34
-4 31 4 35 1 39 -24 2 -16 5 -3 6 29 0 31 -1 57 -4 57 -3 0 -5 -11 -5 -25z"/>
<path d="M3802 2908 c-7 -7 -12 -22 -12 -33 0 -39 58 -73 76 -44 4 8 9 7 15
-2 6 -10 9 -4 9 19 0 29 -3 32 -27 31 -25 -2 -25 -2 -5 -6 26 -5 25 -21 -1
-37 -36 -23 -75 36 -47 70 15 17 9 19 -8 2z"/>
<path d="M3540 2872 c0 -5 14 -7 30 -4 17 2 30 6 30 8 0 2 -13 4 -30 4 -16 0
-30 -4 -30 -8z"/>
<path d="M3430 2829 c0 -5 11 -9 25 -9 14 0 25 2 25 4 0 2 -11 6 -25 8 -14 3
-25 1 -25 -3z"/>
<path d="M3540 2828 c0 -4 14 -8 30 -8 17 0 30 2 30 4 0 2 -13 6 -30 8 -16 3
-30 1 -30 -4z"/>
<path d="M3450 2517 c-55 -28 -28 -115 32 -103 31 6 37 -4 13 -24 -13 -11 -20
-11 -40 0 -32 17 -43 6 -20 -20 42 -46 105 -3 105 72 0 28 -7 46 -25 63 -28
29 -31 29 -65 12z m50 -32 c18 -21 5 -45 -25 -45 -20 0 -25 5 -25 23 0 39 26
50 50 22z"/>
<path d="M3604 2520 c-45 -18 -56 -110 -17 -152 21 -23 65 -23 87 1 25 28 31
83 12 119 -9 18 -21 32 -25 32 -5 0 -15 2 -23 4 -7 3 -22 1 -34 -4z m50 -36
c30 -30 13 -104 -24 -104 -37 0 -54 74 -24 104 8 9 19 16 24 16 5 0 16 -7 24
-16z"/>
<path d="M3800 2441 c0 -74 3 -91 15 -91 10 0 15 11 15 35 0 34 1 35 40 35 39
0 40 -1 40 -35 0 -24 5 -35 15 -35 12 0 15 17 15 91 0 68 -3 90 -12 87 -7 -3
-14 -21 -16 -41 -3 -36 -5 -37 -42 -37 -37 0 -39 1 -42 37 -2 20 -9 38 -15 41
-10 3 -13 -19 -13 -87z"/>
<path d="M4018 2515 c-56 -31 -64 -91 -19 -136 38 -37 82 -39 116 -4 69 68
-13 186 -97 140z m78 -40 c27 -27 26 -59 -4 -82 -57 -45 -123 36 -72 87 27 27
46 25 76 -5z"/>
<path d="M4170 2461 c0 -58 4 -75 20 -91 27 -27 62 -25 88 3 18 19 22 35 22
90 0 53 -3 67 -15 67 -12 0 -15 -14 -15 -64 0 -67 -13 -91 -47 -84 -15 3 -19
16 -23 72 -3 43 -10 71 -17 74 -10 3 -13 -15 -13 -67z"/>
<path d="M4340 2440 c0 -73 3 -90 15 -90 10 0 15 10 15 30 0 20 5 30 15 30 8
0 21 -13 30 -30 9 -16 22 -30 30 -30 19 0 19 4 0 39 -13 26 -13 30 0 41 8 7
15 25 15 41 0 36 -32 59 -82 59 l-38 0 0 -90z m85 30 c0 -20 -6 -26 -27 -28
-25 -3 -28 0 -28 28 0 28 3 31 28 28 21 -2 27 -8 27 -28z"/>
<path d="M4512 2514 c-13 -9 -22 -26 -22 -40 0 -21 8 -29 40 -41 27 -11 40
-22 38 -32 -4 -22 -46 -27 -54 -7 -7 17 -34 22 -34 6 0 -19 40 -50 63 -50 33
0 61 33 53 63 -4 16 -19 29 -48 40 -40 16 -41 18 -25 34 15 16 18 16 35 0 23
-21 32 -21 32 -3 0 13 -36 46 -50 46 -3 0 -16 -7 -28 -16z"/>
<path d="M3437 1842 c-22 -24 -21 -55 1 -75 24 -22 46 -22 63 0 13 15 12 15
-9 2 -30 -19 -57 -2 -57 36 0 38 27 55 57 36 21 -13 22 -13 9 2 -18 22 -44 21
-64 -1z"/>
<path d="M3577 1842 c-22 -24 -21 -55 1 -75 35 -32 82 -10 82 38 0 49 -52 71
-83 37z m63 -6 c28 -35 -11 -93 -47 -70 -36 22 -23 84 17 84 10 0 23 -7 30
-14z"/>
<path d="M3721 1843 c-1 -13 3 -23 7 -23 4 0 14 -16 21 -35 7 -19 16 -35 20
-35 4 0 13 17 21 38 l14 37 7 -40 c6 -37 6 -36 8 18 0 31 -1 57 -4 57 -3 0
-15 -21 -26 -47 l-21 -48 -23 50 c-17 36 -24 44 -24 28z"/>
<path d="M3890 1851 c0 -4 11 -6 24 -4 15 3 25 -1 29 -10 7 -19 -18 -41 -38
-33 -8 3 -15 1 -15 -4 0 -16 37 -12 54 6 22 21 4 54 -29 54 -14 0 -25 -4 -25
-9z"/>
<path d="M4120 1852 c0 -5 14 -7 30 -4 17 2 30 6 30 8 0 2 -13 4 -30 4 -16 0
-30 -4 -30 -8z"/>
<path d="M4237 1853 c19 -4 23 -12 26 -56 l3 -52 2 52 c2 40 6 53 20 56 9 3
-3 5 -28 4 -25 0 -35 -2 -23 -4z"/>
<path d="M4350 1852 c0 -5 14 -7 30 -4 17 2 30 6 30 8 0 2 -13 4 -30 4 -16 0
-30 -4 -30 -8z"/>
<path d="M4470 1851 c0 -5 9 -7 20 -4 26 7 50 -13 50 -42 0 -29 -24 -49 -50
-42 -11 3 -20 1 -20 -4 0 -15 47 -10 64 7 35 34 9 94 -40 94 -13 0 -24 -4 -24
-9z"/>
<path d="M4687 1842 c-22 -24 -21 -55 1 -75 35 -32 82 -10 82 38 0 49 -52 71
-83 37z m63 -6 c28 -35 -11 -93 -47 -70 -36 22 -23 84 17 84 10 0 23 -7 30
-14z"/>
<path d="M4827 1854 c-4 -4 2 -16 13 -28 10 -11 30 -34 44 -51 l25 -30 -1 60
c-1 59 -1 59 -7 15 l-6 -45 -29 43 c-31 46 -30 45 -39 36z"/>
<path d="M4120 1802 c0 -5 14 -7 30 -4 17 2 30 6 30 8 0 2 -13 4 -30 4 -16 0
-30 -4 -30 -8z"/>
<path d="M4350 1802 c0 -5 14 -7 30 -4 17 2 30 6 30 8 0 2 -13 4 -30 4 -16 0
-30 -4 -30 -8z"/>
<path d="M4010 1759 c0 -5 11 -9 25 -9 14 0 25 2 25 4 0 2 -11 6 -25 8 -14 3
-25 1 -25 -3z"/>
<path d="M4120 1758 c0 -4 14 -8 30 -8 17 0 30 2 30 4 0 2 -13 6 -30 8 -16 3
-30 1 -30 -4z"/>
<path d="M4350 1758 c0 -4 14 -8 30 -8 17 0 30 2 30 4 0 2 -13 6 -30 8 -16 3
-30 1 -30 -4z"/>
<path d="M10510 1755 c0 -22 -45 -109 -92 -178 -33 -49 -50 -63 -117 -96 -43
-22 -132 -70 -197 -108 -66 -37 -156 -83 -199 -102 -131 -55 -209 -91 -235
-109 l-25 -17 35 -5 35 -5 -106 -72 c-58 -39 -111 -79 -118 -87 -23 -28 14
-30 82 -6 76 28 337 141 470 204 113 53 114 60 -22 -100 -82 -97 -132 -177
-118 -191 4 -4 15 4 24 18 32 45 189 213 287 307 82 78 114 101 204 146 112
55 178 74 662 187 181 42 233 59 175 59 -26 0 -120 -21 -465 -105 -74 -18
-136 -32 -138 -30 -2 1 17 13 42 25 98 47 49 62 -78 24 -35 -11 -7 13 63 55
90 53 149 107 133 123 -20 20 -110 -8 -246 -78 -70 -36 -129 -64 -131 -62 -1
2 19 41 46 88 46 80 61 130 39 130 -5 0 -10 -7 -10 -15z m255 -95 c-3 -5 -61
-46 -128 -91 -85 -56 -145 -88 -197 -105 -41 -13 -79 -24 -83 -24 -5 0 2 14
14 31 16 23 67 53 192 115 157 77 218 99 202 74z m-140 -180 c-35 -23 -155
-73 -161 -67 -10 10 68 57 117 71 73 19 79 19 44 -4z m-300 -34 c-11 -17 -41
-33 -93 -50 -89 -30 -84 -20 19 34 87 46 95 48 74 16z m96 -32 c-31 -25 -121
-60 -121 -46 1 19 21 34 71 51 74 27 86 25 50 -5z m-160 -51 c-7 -15 -160 -72
-321 -120 -8 -3 1 6 20 18 34 23 273 118 298 119 9 0 10 -5 3 -17z m59 -28 c0
-5 -55 -35 -65 -35 -15 0 -2 22 18 30 25 10 47 12 47 5z m-115 -48 c-21 -32
-635 -310 -651 -294 -2 2 57 45 132 96 132 91 140 95 322 155 221 74 217 73
197 43z m20 -37 c-3 -5 -20 -19 -38 -30 l-32 -22 33 31 c32 30 49 40 37 21z"/>
<path d="M3500 1402 c0 -33 -3 -67 -6 -76 -9 -23 -41 -20 -49 4 -8 26 -25 26
-25 1 0 -43 48 -64 86 -37 16 12 19 27 19 87 0 49 -4 74 -12 76 -10 4 -13 -12
-13 -55z"/>
<path d="M3560 1391 c0 -58 4 -75 20 -91 27 -27 62 -25 88 3 18 19 22 35 22
90 0 53 -3 67 -15 67 -12 0 -15 -14 -15 -64 0 -67 -13 -91 -47 -84 -15 3 -19
16 -23 72 -3 43 -10 71 -17 74 -10 3 -13 -15 -13 -67z"/>
<path d="M3730 1371 l0 -91 50 0 c38 0 50 4 50 15 0 10 -11 15 -35 15 l-34 0
-3 72 c-2 46 -7 73 -15 76 -10 3 -13 -19 -13 -87z"/>
<path d="M4041 1441 c-40 -40 -35 -126 10 -154 42 -26 102 30 79 73 -16 30
-46 43 -70 30 -24 -13 -27 2 -4 24 19 19 19 19 44 4 29 -18 39 1 11 23 -29 24
-46 24 -70 0z m59 -86 c10 -12 10 -18 0 -30 -25 -30 -61 -7 -46 30 3 8 12 15
19 15 8 0 20 -7 27 -15z"/>
<path d="M4302 1444 c-24 -17 -30 -54 -8 -54 7 0 16 9 19 21 8 30 41 21 45
-13 2 -20 -6 -33 -37 -59 -57 -45 -54 -59 14 -59 42 0 55 3 55 15 0 10 -10 15
-31 15 l-31 0 31 29 c38 36 42 82 9 105 -12 9 -27 16 -33 16 -6 0 -21 -7 -33
-16z"/>
<path d="M4454 1450 c-45 -18 -56 -110 -17 -152 21 -23 65 -23 87 1 25 28 31
83 12 119 -9 18 -21 32 -25 32 -5 0 -15 2 -23 4 -7 3 -22 1 -34 -4z m50 -36
c30 -30 13 -104 -24 -104 -37 0 -54 74 -24 104 8 9 19 16 24 16 5 0 16 -7 24
-16z"/>
<path d="M4592 1444 c-24 -17 -30 -54 -8 -54 7 0 16 9 19 21 8 30 41 21 45
-13 2 -20 -6 -33 -37 -59 -57 -45 -54 -59 14 -59 42 0 55 3 55 15 0 10 -10 15
-31 15 l-31 0 31 29 c38 36 42 82 9 105 -12 9 -27 16 -33 16 -6 0 -21 -7 -33
-16z"/>
<path d="M3960 1440 c0 -6 -11 -16 -25 -22 -30 -14 -27 -34 4 -30 19 2 22 -3
21 -25 -4 -53 0 -83 10 -83 6 0 10 35 10 85 0 50 -4 85 -10 85 -5 0 -10 -5
-10 -10z"/>
<path d="M4725 1404 c-46 -62 -46 -84 0 -84 28 0 35 -4 35 -20 0 -11 7 -20 15
-20 8 0 15 9 15 19 0 10 7 21 15 25 8 3 15 10 15 16 0 5 -7 10 -15 10 -11 0
-15 12 -15 50 0 65 -17 66 -65 4z m35 -29 c0 -18 -5 -25 -20 -25 -20 0 -20 1
-4 25 9 14 18 25 20 25 2 0 4 -11 4 -25z"/>
<path d="M4155 1310 c-4 -6 -2 -17 4 -24 7 -9 7 -16 -1 -24 -7 -7 -8 -12 -2
-12 17 0 34 23 34 47 0 24 -23 32 -35 13z"/>
<path d="M3467 813 c-4 -3 -7 -75 -7 -160 0 -182 2 -184 91 -135 32 18 60 32
63 32 3 0 6 -23 8 -51 l3 -51 73 -40 c58 -32 78 -39 94 -31 19 8 12 14 -58 54
l-79 44 -3 50 -3 50 81 45 c70 39 78 47 63 57 -14 11 -27 7 -80 -23 l-63 -35
0 58 0 58 -75 43 c-73 41 -95 49 -108 35z m99 -74 l54 -30 0 -54 0 -54 -54
-30 c-29 -17 -56 -31 -60 -31 -3 0 -6 52 -6 115 0 63 3 115 6 115 4 0 31 -14
60 -31z"/>
<path d="M4100 681 l0 -59 -31 15 c-69 34 -149 -19 -149 -100 1 -65 45 -107
112 -107 18 0 40 4 48 10 9 6 17 5 21 -2 4 -6 14 -8 23 -5 14 6 16 25 14 154
-3 131 -5 148 -20 151 -16 3 -18 -5 -18 -57z m-20 -91 c48 -48 2 -139 -63
-126 -62 12 -85 70 -46 120 26 33 79 36 109 6z"/>
<path d="M4430 680 c0 -23 -4 -30 -20 -30 -13 0 -20 -7 -20 -20 0 -13 7 -20
20 -20 18 0 20 -7 20 -74 0 -84 14 -109 59 -104 35 4 34 32 -1 36 -28 3 -28 4
-28 73 l0 69 30 0 c23 0 30 4 30 20 0 16 -7 20 -30 20 -27 0 -30 3 -30 30 0
20 -5 30 -15 30 -10 0 -15 -10 -15 -30z"/>
<path d="M9530 671 c0 -45 -14 -61 -29 -34 -5 10 -12 15 -15 12 -3 -3 1 -14 9
-25 22 -30 49 -7 53 45 2 24 -1 41 -7 41 -6 0 -11 -18 -11 -39z"/>
<path d="M9872 660 c0 -41 2 -47 7 -25 9 43 39 45 44 3 l4 -33 1 38 c2 33 -1
37 -22 37 -15 0 -26 7 -29 18 -3 9 -5 -8 -5 -38z"/>
<path d="M10171 696 c-7 -8 -11 -27 -9 -43 4 -34 47 -54 73 -33 21 18 12 24
-13 9 -39 -24 -72 32 -37 61 12 10 21 10 42 1 23 -11 25 -10 13 3 -16 20 -54
21 -69 2z"/>
<path d="M10563 660 c0 -30 2 -43 4 -27 2 15 2 39 0 55 -2 15 -4 2 -4 -28z"/>
<path d="M9820 685 c-9 -11 -9 -15 -1 -15 6 0 11 -13 11 -30 0 -22 5 -30 18
-29 10 0 12 3 5 6 -15 5 -18 50 -4 55 5 2 3 8 -4 15 -10 10 -16 9 -25 -2z"/>
<path d="M9577 673 c-22 -21 0 -63 33 -63 18 0 32 40 19 56 -12 15 -41 19 -52
7z m43 -22 c0 -11 -5 -23 -11 -27 -15 -9 -33 12 -26 30 9 23 37 20 37 -3z"/>
<path d="M9651 643 c1 -36 2 -37 8 -8 8 40 38 46 44 8 4 -28 4 -28 3 2 -1 25
-6 31 -28 33 -26 3 -28 1 -27 -35z"/>
<path d="M9734 666 c-12 -31 1 -51 34 -54 31 -3 32 -2 32 32 0 33 -2 36 -30
36 -17 0 -33 -6 -36 -14z m46 -15 c0 -11 -5 -23 -11 -27 -15 -9 -33 12 -26 30
9 23 37 20 37 -3z"/>
<path d="M9954 666 c-12 -31 1 -51 34 -54 31 -3 32 -2 32 32 0 33 -2 36 -30
36 -17 0 -33 -6 -36 -14z m46 -15 c0 -11 -5 -23 -11 -27 -15 -9 -33 12 -26 30
9 23 37 20 37 -3z"/>
<path d="M10041 643 c1 -36 2 -37 8 -8 8 40 38 46 44 8 4 -28 4 -28 3 2 -1 25
-6 31 -28 33 -26 3 -28 1 -27 -35z"/>
<path d="M10277 673 c-22 -21 0 -63 33 -63 18 0 32 40 19 56 -12 15 -41 19
-52 7z m43 -22 c0 -11 -5 -23 -11 -27 -15 -9 -33 12 -26 30 9 23 37 20 37 -3z"/>
<path d="M10351 643 c1 -27 3 -31 6 -13 2 14 12 31 21 38 14 11 13 12 -6 12
-19 0 -22 -5 -21 -37z"/>
<path d="M10401 643 c1 -36 2 -37 8 -8 8 40 38 46 44 8 4 -28 4 -28 3 2 -1 25
-6 31 -28 33 -26 3 -28 1 -27 -35z"/>
<path d="M10484 666 c-15 -39 23 -74 50 -46 8 9 6 11 -11 6 -12 -4 -24 -2 -28
4 -4 6 4 10 20 10 20 0 26 4 23 18 -4 22 -46 29 -54 8z m46 -6 c0 -5 -9 -10
-21 -10 -11 0 -17 5 -14 10 3 6 13 10 21 10 8 0 14 -4 14 -10z"/>
<path d="M10603 645 c0 -22 2 -30 4 -17 2 12 2 30 0 40 -3 9 -5 -1 -4 -23z"/>
<path d="M10630 666 c0 -8 9 -18 20 -21 11 -4 18 -10 15 -15 -3 -5 -13 -6 -22
-3 -11 4 -14 3 -9 -5 9 -15 33 -15 42 -1 4 7 -4 20 -17 31 l-24 19 24 -6 c16
-5 21 -4 17 4 -10 16 -46 13 -46 -3z"/>
<path d="M10700 666 c0 -8 9 -18 20 -21 11 -4 18 -10 15 -15 -3 -5 -13 -6 -22
-3 -11 4 -14 3 -9 -5 9 -15 33 -15 42 -1 4 7 -4 20 -17 31 l-24 19 24 -6 c16
-5 21 -4 17 4 -10 16 -46 13 -46 -3z"/>
<path d="M10774 666 c-15 -39 23 -74 50 -46 8 9 6 11 -11 6 -12 -4 -24 -2 -28
4 -4 6 4 10 20 10 20 0 26 4 23 18 -4 22 -46 29 -54 8z m46 -6 c0 -5 -9 -10
-21 -10 -11 0 -17 5 -14 10 3 6 13 10 21 10 8 0 14 -4 14 -10z"/>
<path d="M10851 643 c1 -36 2 -37 8 -8 8 40 38 46 44 8 4 -28 4 -28 3 2 -1 25
-6 31 -28 33 -26 3 -28 1 -27 -35z"/>
<path d="M4203 630 c-64 -38 -66 -132 -5 -180 28 -22 82 -26 115 -9 16 9 22 9
25 0 2 -6 10 -11 18 -11 11 0 14 22 14 110 0 91 -3 110 -15 110 -8 0 -15 -7
-15 -15 0 -14 -3 -14 -30 0 -39 20 -68 19 -107 -5z m117 -47 c23 -30 22 -76
-3 -100 -44 -45 -127 -10 -127 53 0 71 86 103 130 47z"/>
<path d="M4574 631 c-63 -38 -70 -128 -13 -175 33 -28 85 -34 122 -15 16 9 22
9 25 0 2 -6 10 -11 18 -11 11 0 14 22 14 110 0 91 -3 110 -15 110 -8 0 -15 -7
-15 -15 0 -14 -3 -14 -30 0 -39 20 -68 19 -106 -4z m119 -53 c48 -64 -37 -149
-101 -101 -36 27 -42 83 -12 113 30 30 86 24 113 -12z"/>
<path d="M4823 634 c-17 -9 -39 -32 -48 -51 -33 -69 18 -153 92 -153 35 0 93
24 93 39 0 14 -32 23 -44 11 -5 -5 -27 -10 -47 -10 -43 0 -69 27 -69 72 0 56
78 91 119 54 11 -10 21 -12 31 -6 13 8 12 12 -6 30 -28 28 -81 34 -121 14z"/>
<path d="M5034 640 c-79 -32 -85 -164 -9 -198 32 -15 80 -15 105 -2 13 7 21 7
25 0 3 -5 13 -10 21 -10 11 0 14 21 14 110 0 102 -1 110 -19 110 -11 0 -21 -5
-23 -11 -2 -7 -12 -7 -31 0 -33 13 -54 13 -83 1z m96 -50 c48 -48 2 -139 -63
-126 -40 8 -55 23 -63 61 -13 68 77 114 126 65z"/>
<path d="M5214 637 c-3 -8 -3 -56 -2 -108 4 -126 18 -129 84 -17 l49 83 5 -79
c3 -46 10 -81 16 -83 7 -2 35 33 63 79 l51 83 0 -83 c0 -67 3 -82 15 -82 13 0
15 16 13 107 -4 138 -17 145 -79 41 l-44 -73 -5 70 c-7 98 -25 99 -82 3 l-43
-73 -3 73 c-2 56 -6 72 -18 72 -8 0 -17 -6 -20 -13z"/>
<path d="M5540 495 c0 -131 2 -155 15 -155 12 0 15 13 15 56 0 50 2 55 18 48
9 -4 36 -9 58 -12 85 -8 142 90 95 165 -28 45 -88 63 -136 40 -30 -14 -35 -15
-35 -2 0 8 -7 15 -15 15 -13 0 -15 -24 -15 -155z m160 95 c30 -30 27 -83 -6
-109 -30 -24 -43 -26 -77 -10 -24 11 -47 47 -47 73 0 7 9 25 21 40 26 33 79
36 109 6z"/>
<path d="M9501 536 c-7 -8 -11 -27 -9 -43 4 -34 47 -54 73 -33 21 18 12 24
-13 9 -39 -24 -72 32 -37 61 12 10 21 10 42 1 23 -11 25 -10 13 3 -16 20 -54
21 -69 2z"/>
<path d="M9600 500 l0 -50 38 1 c35 1 35 2 8 8 -38 8 -47 31 -12 31 14 0 26 5
26 10 0 6 -11 10 -25 10 -38 0 -32 28 8 33 31 4 31 4 -5 5 l-38 2 0 -50z"/>
<path d="M9701 536 c-22 -26 -9 -70 23 -81 24 -8 31 -6 47 14 23 28 24 45 3
65 -19 20 -58 21 -73 2z m67 -33 c2 -25 -1 -33 -18 -38 -39 -12 -67 34 -38 63
23 23 53 10 56 -25z"/>
<path d="M9870 500 c0 -48 1 -50 28 -50 31 0 62 26 62 53 0 25 -29 47 -61 47
-28 0 -29 -1 -29 -50z m70 21 c13 -25 4 -48 -21 -56 -28 -9 -39 2 -39 41 0 29
3 34 25 34 14 0 29 -8 35 -19z"/>
<path d="M10211 536 c-7 -8 -11 -27 -9 -43 4 -34 47 -54 73 -33 21 18 12 24
-13 9 -39 -24 -72 32 -37 61 12 10 21 10 42 1 23 -11 25 -10 13 3 -16 20 -54
21 -69 2z"/>
<path d="M10060 525 c-9 -11 -9 -15 -1 -15 6 0 11 -13 11 -30 0 -22 5 -30 18
-29 10 0 12 3 5 6 -15 5 -18 50 -4 55 5 2 3 8 -4 15 -10 10 -16 9 -25 -2z"/>
<path d="M9974 506 c-12 -31 1 -51 34 -54 31 -3 32 -2 32 32 0 33 -2 36 -30
36 -17 0 -33 -6 -36 -14z m46 -15 c0 -11 -5 -23 -11 -27 -15 -9 -33 12 -26 30
9 23 37 20 37 -3z"/>
<path d="M10114 506 c-12 -31 1 -51 34 -54 31 -3 32 -2 32 32 0 33 -2 36 -30
36 -17 0 -33 -6 -36 -14z m46 -15 c0 -11 -5 -23 -11 -27 -15 -9 -33 12 -26 30
9 23 37 20 37 -3z"/>
<path d="M10314 506 c-12 -31 1 -51 34 -54 31 -3 32 -2 32 32 0 33 -2 36 -30
36 -17 0 -33 -6 -36 -14z m46 -15 c0 -11 -5 -23 -11 -27 -15 -9 -33 12 -26 30
9 23 37 20 37 -3z"/>
<path d="M10401 482 c1 -36 2 -36 8 -7 3 17 13 30 21 30 8 0 18 -13 21 -30 l7
-30 1 33 c1 43 31 45 31 2 0 -16 5 -30 10 -30 12 0 13 40 2 56 -4 6 -28 12
-54 12 l-48 1 1 -37z"/>
<path d="M10521 468 c1 -29 3 -45 6 -36 2 9 14 18 25 20 51 7 49 68 -2 68 -30
0 -30 0 -29 -52z m56 27 c1 -5 -1 -16 -6 -24 -8 -12 -12 -12 -25 -2 -8 7 -12
19 -9 27 6 16 34 15 40 -1z"/>
<path d="M9800 460 c0 -5 5 -10 10 -10 6 0 10 5 10 10 0 6 -4 10 -10 10 -5 0
-10 -4 -10 -10z"/>
</g>
</svg>
