<?xml version="1.0" standalone="no"?>
<!DOCTYPE svg PUBLIC "-//W3C//DTD SVG 20010904//EN"
 "http://www.w3.org/TR/2001/REC-SVG-20010904/DTD/svg10.dtd">
<svg version="1.0" xmlns="http://www.w3.org/2000/svg"
 width="6000.000000pt" height="3700.000000pt" viewBox="0 0 6000.000000 3700.000000"
 preserveAspectRatio="xMidYMid meet">

<g transform="translate(0.000000,3700.000000) scale(0.100000,-0.100000)"
fill="#000000" stroke="none">
<path d="M2812 34580 c-104 -27 -167 -64 -247 -145 -82 -82 -118 -144 -145
-251 -20 -77 -20 -167 -20 -15684 0 -15517 0 -15607 20 -15684 27 -107 63
-169 145 -251 82 -82 144 -118 251 -145 77 -20 210 -20 27184 -20 26974 0
27107 0 27184 20 107 27 169 63 252 145 81 81 125 159 149 268 14 66 15 1480
13 15702 l-3 15630 -23 59 c-63 167 -175 281 -340 345 l-67 26 -27140 2
c-26712 2 -27141 2 -27213 -17z m54295 -412 c22 -15 51 -44 64 -65 l24 -38 0
-15567 0 -15566 -30 -43 c-16 -23 -50 -53 -74 -66 l-44 -23 -27047 0 -27047 0
-44 23 c-24 13 -57 43 -74 66 l-30 43 0 15568 0 15568 30 43 c17 23 50 53 74
66 l44 23 27057 -2 27056 -3 41 -27z"/>
<path d="M6950 26773 c-74 -15 -124 -93 -124 -193 0 -117 66 -190 171 -190 68
0 143 60 143 114 0 27 -48 20 -62 -9 -26 -58 -117 -64 -168 -10 -30 32 -39
115 -17 167 35 83 158 90 188 11 11 -29 59 -33 59 -5 0 28 -37 80 -67 96 -34
17 -89 26 -123 19z"/>
<path d="M9160 26773 c-74 -15 -124 -93 -124 -193 0 -117 66 -190 171 -190 68
0 143 60 143 114 0 27 -48 20 -62 -9 -26 -58 -117 -64 -168 -10 -30 32 -39
115 -17 167 35 83 158 90 188 11 11 -29 59 -33 59 -5 0 28 -37 80 -67 96 -34
17 -89 26 -123 19z"/>
<path d="M10830 26773 c-39 -8 -79 -41 -102 -86 -27 -52 -30 -157 -6 -202 64
-121 224 -127 289 -11 30 53 32 152 4 209 -32 68 -109 105 -185 90z m90 -68
c44 -23 63 -67 58 -137 -6 -78 -41 -118 -105 -118 -63 0 -104 39 -110 107 -7
68 11 120 51 144 38 23 67 24 106 4z"/>
<path d="M11786 26770 c-99 -31 -148 -183 -93 -290 31 -61 65 -83 134 -87 81
-6 136 31 158 105 6 19 3 22 -23 22 -21 0 -32 -7 -40 -26 -16 -35 -70 -56
-112 -44 -47 14 -67 35 -80 90 -22 91 19 166 97 177 32 4 45 0 71 -22 18 -15
32 -33 32 -41 0 -9 11 -14 31 -14 27 0 30 3 24 23 -24 82 -118 133 -199 107z"/>
<path d="M12210 26773 c-39 -8 -79 -41 -102 -86 -27 -52 -30 -157 -6 -202 64
-121 224 -127 289 -11 30 53 32 152 4 209 -32 68 -109 105 -185 90z m90 -68
c44 -23 63 -67 58 -137 -6 -78 -41 -118 -105 -118 -63 0 -104 39 -110 107 -7
68 11 120 51 144 38 23 67 24 106 4z"/>
<path d="M14726 26770 c-99 -30 -148 -183 -93 -290 33 -65 66 -85 142 -85 76
0 109 20 143 85 55 109 4 262 -97 290 -42 11 -55 11 -95 0z m91 -60 c78 -28
95 -185 26 -239 -34 -28 -101 -28 -136 -1 -54 43 -57 169 -5 217 38 34 66 40
115 23z"/>
<path d="M7250 26580 l0 -190 120 0 120 0 0 30 0 30 -91 0 -90 0 3 53 3 52 78
3 c74 3 77 4 77 27 0 24 -2 25 -80 25 l-80 0 0 55 0 55 85 0 c84 0 85 0 85 25
l0 25 -115 0 -115 0 0 -190z"/>
<path d="M7600 26580 l0 -190 30 0 29 0 3 73 3 72 35 0 c33 0 37 -4 75 -72 37
-68 42 -73 73 -73 l33 0 -42 76 -41 75 21 21 c42 38 52 97 26 148 -24 46 -62
60 -160 60 l-85 0 0 -190z m184 121 c9 -8 16 -28 16 -47 0 -43 -30 -64 -92
-64 l-48 0 0 66 0 66 54 -4 c30 -3 62 -10 70 -17z"/>
<path d="M7950 26745 c0 -24 3 -25 55 -25 l55 0 0 -165 0 -165 30 0 30 0 0
165 0 165 60 0 c57 0 60 1 60 25 l0 25 -145 0 -145 0 0 -25z"/>
<path d="M8340 26580 l0 -190 30 0 30 0 0 190 0 190 -30 0 -30 0 0 -190z"/>
<path d="M8520 26580 l0 -190 30 0 29 0 3 83 3 82 78 3 c74 3 77 4 77 27 0 24
-2 25 -80 25 l-80 0 0 55 0 55 85 0 c84 0 85 0 85 25 l0 25 -115 0 -115 0 0
-190z"/>
<path d="M8870 26580 l0 -190 25 0 25 0 0 190 0 190 -25 0 -25 0 0 -190z"/>
<path d="M9501 26593 c-35 -98 -66 -184 -69 -190 -3 -9 6 -13 26 -13 27 0 31
5 48 53 l19 52 49 3 c77 5 89 -1 109 -58 16 -45 21 -50 47 -50 17 0 30 1 30 3
0 1 -31 85 -68 187 -67 179 -70 185 -98 188 -29 3 -29 2 -93 -175z m120 22
c11 -28 19 -53 19 -57 0 -5 -20 -8 -45 -8 -25 0 -45 3 -45 7 0 22 35 113 43
110 5 -1 18 -25 28 -52z"/>
<path d="M9790 26745 c0 -24 3 -25 55 -25 l55 0 0 -165 0 -165 30 0 30 0 0
165 0 165 55 0 c52 0 55 1 55 25 l0 25 -140 0 -140 0 0 -25z"/>
<path d="M10180 26580 l0 -190 115 0 115 0 0 30 0 30 -91 0 -90 0 3 53 3 52
83 3 c79 3 82 4 82 27 0 23 -3 24 -82 27 l-83 3 0 50 0 50 88 3 c85 3 87 3 87
27 l0 25 -115 0 -115 0 0 -190z"/>
<path d="M11150 26580 l0 -190 25 0 c24 0 24 2 27 83 l3 82 78 3 c74 3 77 4
77 27 0 23 -3 24 -77 27 l-78 3 0 50 0 50 88 3 c85 3 87 3 87 27 l0 25 -115 0
-115 0 0 -190z"/>
<path d="M12530 26581 l0 -191 25 0 25 0 0 122 c0 73 4 118 9 113 5 -6 29 -59
54 -120 38 -94 48 -110 69 -113 22 -3 28 7 73 120 l50 123 3 -122 3 -123 29 0
30 0 0 190 0 190 -34 0 -34 0 -55 -137 c-30 -76 -59 -139 -63 -140 -5 -2 -34
59 -65 134 -54 134 -56 138 -87 141 l-32 3 0 -190z"/>
<path d="M13020 26581 l0 -191 30 0 c29 0 29 0 32 68 l3 67 68 5 c63 5 71 8
99 39 28 31 30 39 26 88 -4 42 -11 60 -32 81 -25 25 -33 27 -126 30 l-100 4 0
-191z m187 116 c22 -21 21 -72 -2 -97 -14 -15 -31 -20 -72 -20 l-53 0 0 71 0
71 56 -4 c32 -3 62 -11 71 -21z"/>
<path d="M13390 26580 l0 -190 115 0 115 0 0 30 0 30 -85 0 -85 0 0 160 0 160
-30 0 -30 0 0 -190z"/>
<path d="M13720 26580 l0 -190 120 0 120 0 0 30 0 30 -91 0 -90 0 3 53 3 52
78 3 c74 3 77 4 77 27 0 24 -2 25 -80 25 l-80 0 0 55 0 55 85 0 c84 0 85 0 85
25 l0 25 -115 0 -115 0 0 -190z"/>
<path d="M14050 26745 c0 -24 3 -25 55 -25 l55 0 0 -165 0 -165 30 0 30 0 0
165 0 165 60 0 c57 0 60 1 60 25 l0 25 -145 0 -145 0 0 -25z"/>
<path d="M14440 26580 l0 -190 30 0 30 0 0 190 0 190 -30 0 -30 0 0 -190z"/>
<path d="M15050 26580 l0 -190 30 0 30 0 0 130 c0 72 3 130 8 130 4 0 47 -59
96 -130 71 -104 94 -130 113 -130 l23 0 0 190 0 190 -25 0 -25 0 0 -130 c0
-71 -3 -130 -7 -130 -5 0 -48 59 -97 130 -79 115 -93 130 -118 130 l-28 0 0
-190z"/>
<path d="M10017 23574 c-4 -4 -7 -495 -7 -1091 l0 -1083 220 0 220 0 0 485 0
484 43 25 c60 36 161 60 220 53 62 -8 125 -43 154 -86 50 -74 53 -105 53 -532
0 -219 3 -404 6 -413 5 -14 34 -16 221 -16 l214 0 -3 518 c-4 504 -5 519 -27
592 -47 154 -121 250 -235 304 -179 84 -404 71 -576 -33 l-65 -39 -5 417 -5
416 -211 3 c-115 1 -213 -1 -217 -4z"/>
<path d="M19367 23554 c-4 -4 -7 -101 -7 -215 l0 -208 235 -3 c129 -2 235 0
235 5 0 4 1 100 1 215 l0 207 -229 3 c-125 1 -231 -1 -235 -4z"/>
<path d="M7440 22823 c0 -351 -5 -680 -10 -731 -16 -153 -66 -230 -171 -267
-49 -17 -230 -20 -298 -4 -24 5 -46 8 -48 5 -3 -2 1 -55 7 -118 6 -62 15 -150
19 -196 5 -46 13 -88 20 -95 14 -14 166 -36 261 -36 93 -1 237 21 310 47 195
68 304 221 349 487 9 51 11 271 9 805 l-3 735 -222 3 -223 2 0 -637z"/>
<path d="M14180 22430 l0 -1030 225 0 225 0 2 283 3 282 155 2 155 3 176 -283
176 -282 286 -3 c158 -1 287 0 287 3 0 3 -103 160 -230 350 -126 190 -230 349
-230 354 0 5 21 27 47 48 25 21 68 67 95 102 103 137 148 274 148 453 0 144
-21 242 -76 357 -77 159 -207 270 -391 334 -146 50 -226 57 -660 57 l-393 0 0
-1030z m721 616 c92 -17 153 -42 202 -86 77 -68 117 -168 117 -298 0 -153 -50
-260 -150 -320 -84 -50 -120 -57 -285 -57 l-150 0 -3 374 c-2 267 1 378 9 387
15 18 157 18 260 0z"/>
<path d="M23640 23455 c0 -3 0 -465 0 -1027 l0 -1023 432 -3 c364 -2 449 0
533 14 134 22 242 56 350 112 73 38 109 65 190 147 89 88 107 112 153 205 88
177 122 334 122 570 0 237 -30 384 -112 550 -45 92 -63 116 -143 196 -79 79
-105 97 -196 141 -216 105 -351 123 -916 123 -227 0 -413 -2 -413 -5z m768
-406 c130 -14 203 -34 284 -76 169 -89 239 -247 239 -538 0 -270 -68 -437
-219 -534 -106 -68 -204 -90 -434 -98 l-188 -6 0 625 c0 343 3 628 7 631 10
11 203 8 311 -4z"/>
<path d="M8790 22855 c-284 -57 -480 -237 -555 -510 -21 -79 -31 -290 -16
-381 26 -166 86 -289 196 -399 151 -151 364 -214 649 -194 425 31 687 349 662
801 -11 208 -69 359 -186 481 -106 112 -224 173 -395 203 -97 17 -266 16 -355
-1z m281 -365 c55 -15 119 -68 156 -129 85 -142 80 -373 -10 -504 -60 -86
-136 -126 -244 -127 -205 -1 -338 176 -320 428 17 258 189 393 418 332z"/>
<path d="M12394 22850 c-84 -22 -152 -55 -216 -104 -53 -39 -54 -39 -109 36
l-34 47 -157 1 -158 0 0 -715 0 -715 220 0 220 0 0 485 0 485 33 20 c61 37
129 55 212 54 92 0 127 -14 173 -69 53 -65 54 -76 59 -543 l5 -432 217 2 216
3 3 425 c4 537 -7 647 -80 797 -38 77 -117 154 -194 190 -119 54 -280 67 -410
33z"/>
<path d="M16550 22855 c-281 -56 -461 -229 -526 -506 -22 -92 -25 -313 -5
-414 46 -234 162 -397 346 -485 138 -67 184 -75 410 -75 182 0 207 2 275 23
118 37 168 68 180 111 14 52 58 315 54 320 -2 2 -39 -12 -81 -31 -187 -85
-441 -100 -572 -34 -89 46 -171 168 -171 256 l0 30 455 0 c417 0 456 1 462 17
9 24 -14 225 -37 319 -47 190 -162 344 -310 415 -132 64 -322 85 -480 54z
m317 -353 c73 -38 136 -128 145 -207 l3 -30 -275 0 c-316 0 -299 -6 -255 93
53 118 150 177 277 168 38 -3 83 -13 105 -24z"/>
<path d="M18324 22850 c-84 -22 -152 -55 -216 -104 -53 -39 -54 -39 -109 36
l-34 47 -158 1 -157 0 2 -712 3 -713 218 -3 217 -2 0 485 0 485 33 20 c61 37
129 55 212 54 87 0 121 -12 167 -61 59 -62 61 -77 66 -551 l4 -432 216 2 217
3 3 425 c4 463 -4 585 -45 709 -31 96 -63 148 -124 206 -118 110 -330 154
-515 105z"/>
<path d="M20650 22855 c-254 -51 -428 -203 -506 -442 -28 -84 -29 -96 -29
-278 0 -213 11 -275 71 -401 80 -170 224 -285 424 -339 98 -27 372 -33 481
-10 78 15 183 57 222 86 10 8 21 37 27 69 5 30 18 107 29 169 11 63 18 117 16
119 -3 3 -40 -11 -82 -30 -241 -110 -533 -99 -650 24 -38 39 -83 134 -90 189
l-6 39 459 2 459 3 3 55 c7 117 -33 300 -96 430 -104 218 -303 332 -576 329
-50 -1 -120 -7 -156 -14z m317 -354 c22 -11 55 -37 75 -59 37 -41 83 -145 74
-169 -4 -10 -59 -13 -276 -13 -217 0 -272 3 -276 13 -9 25 37 126 79 172 56
62 126 87 219 81 38 -3 83 -13 105 -25z"/>
<path d="M22492 22854 c-86 -19 -196 -78 -260 -140 -35 -33 -55 -47 -61 -40
-5 6 -25 44 -45 84 l-36 72 -170 0 -170 0 2 -712 3 -713 217 -3 218 -2 2 442
3 443 57 27 c73 35 195 67 278 74 36 3 75 7 88 10 l22 4 0 235 0 235 -42 -1
c-24 -1 -71 -7 -106 -15z"/>
<path d="M26217 22854 c-254 -50 -435 -214 -508 -459 -30 -100 -38 -336 -14
-460 53 -286 205 -456 476 -536 105 -31 371 -39 490 -14 100 20 226 77 239
108 13 31 62 328 55 335 -3 3 -24 -4 -48 -16 -129 -63 -224 -85 -382 -85 -110
-1 -138 3 -185 21 -69 27 -123 71 -156 128 -23 40 -54 130 -54 162 0 9 99 12
460 12 l460 0 0 73 c0 80 -22 225 -46 302 -55 175 -169 316 -305 379 -136 63
-322 82 -482 50z m317 -349 c75 -36 146 -136 150 -208 l1 -32 -269 -3 c-148
-1 -273 1 -278 6 -13 13 20 103 58 154 31 44 82 79 144 99 40 13 152 4 194
-16z"/>
<path d="M27937 22851 c-43 -10 -117 -38 -165 -62 -48 -24 -90 -44 -94 -44 -3
0 -20 19 -37 43 l-31 42 -145 0 -145 0 0 -979 c0 -883 2 -979 16 -985 9 -3
108 -6 220 -6 l204 0 0 254 c0 140 3 261 6 269 5 13 11 13 37 4 20 -8 100 -12
217 -12 162 0 195 3 263 23 124 35 209 84 298 169 66 63 87 92 124 167 70 142
80 192 79 396 0 147 -4 188 -22 255 -45 164 -132 293 -252 374 -150 100 -376
136 -573 92z m187 -376 c134 -39 216 -175 216 -360 0 -248 -118 -377 -346
-377 -104 -1 -202 24 -226 57 -4 5 -8 144 -8 307 0 326 -3 310 63 345 86 44
206 55 301 28z"/>
<path d="M29540 22849 c-273 -61 -461 -245 -531 -519 -31 -119 -31 -321 -2
-435 73 -281 252 -453 532 -511 87 -17 307 -21 387 -5 288 56 484 239 554 516
28 114 28 339 0 451 -87 338 -354 526 -743 523 -71 0 -143 -8 -197 -20z m336
-373 c67 -31 110 -76 148 -156 29 -63 30 -70 30 -200 1 -167 -18 -226 -98
-305 -60 -60 -121 -85 -207 -85 -153 0 -271 101 -308 261 -16 66 -13 207 4
274 52 198 249 294 431 211z"/>
<path d="M31474 22855 c-69 -15 -167 -61 -236 -112 l-47 -34 -47 60 -47 61
-153 0 c-129 0 -153 -2 -158 -16 -8 -20 -8 -1378 0 -1398 5 -14 34 -16 220
-16 l214 0 0 479 0 480 33 24 c109 81 306 86 379 10 62 -65 62 -66 68 -548 l5
-440 218 -3 218 -2 -3 507 c-4 485 -5 512 -25 585 -60 213 -169 322 -363 363
-86 18 -193 18 -276 0z"/>
<path d="M32930 22849 c-239 -53 -402 -199 -482 -432 -31 -90 -32 -96 -33
-272 0 -212 13 -280 81 -420 79 -164 209 -268 406 -326 104 -31 370 -38 489
-14 95 19 222 74 237 101 13 26 66 334 58 341 -3 4 -23 -3 -44 -14 -63 -35
-189 -72 -285 -84 -218 -27 -371 24 -443 147 -23 40 -54 130 -54 162 0 9 99
12 460 12 l460 0 0 74 c0 87 -22 225 -51 316 -52 164 -157 294 -293 360 -142
70 -332 88 -506 49z m308 -334 c67 -20 133 -86 161 -160 39 -104 61 -96 -256
-93 l-278 3 3 25 c1 14 17 54 35 90 62 125 192 177 335 135z"/>
<path d="M19380 22115 l0 -715 220 0 220 0 0 715 0 715 -220 0 -220 0 0 -715z"/>
<path d="M7714 20166 c-99 -43 -97 -155 3 -192 109 -39 133 -53 133 -73 0 -63
-129 -83 -155 -23 -7 15 -18 22 -37 22 -31 0 -33 -6 -18 -44 15 -41 66 -66
132 -66 50 0 62 4 93 31 30 26 35 38 35 73 0 68 -28 92 -150 128 -39 11 -45
17 -48 43 -5 37 19 55 69 55 28 0 43 -6 57 -25 22 -27 72 -35 72 -11 0 23 -42
68 -76 82 -41 17 -70 17 -110 0z"/>
<path d="M8274 20166 c-99 -43 -97 -155 3 -192 109 -39 133 -53 133 -73 0 -63
-129 -83 -155 -23 -7 15 -18 22 -37 22 -31 0 -33 -6 -18 -44 15 -41 66 -66
132 -66 50 0 62 4 93 31 30 26 35 38 35 73 0 68 -28 92 -150 128 -39 11 -45
17 -48 43 -5 37 19 55 69 55 28 0 43 -6 57 -25 22 -27 72 -35 72 -11 0 23 -42
68 -76 82 -41 17 -70 17 -110 0z"/>
<path d="M9107 20173 c-15 -2 -45 -21 -66 -41 -46 -44 -66 -105 -57 -176 13
-111 77 -170 178 -163 62 4 96 25 124 79 20 39 18 48 -16 48 -18 0 -30 -5 -30
-13 0 -28 -47 -59 -89 -59 -82 1 -116 47 -109 148 5 74 30 110 86 120 45 9 99
-17 108 -51 5 -19 12 -25 35 -25 33 0 35 9 13 56 -27 56 -102 89 -177 77z"/>
<path d="M9520 20173 c-74 -15 -124 -93 -124 -193 0 -117 66 -190 171 -190 68
0 143 60 143 114 0 27 -48 20 -62 -9 -26 -58 -117 -64 -168 -10 -30 32 -39
115 -17 167 35 83 158 90 188 11 11 -29 59 -33 59 -5 0 28 -37 80 -67 96 -34
17 -89 26 -123 19z"/>
<path d="M10233 20161 c-47 -22 -65 -48 -65 -98 0 -47 33 -80 102 -99 73 -21
100 -39 100 -68 0 -31 -20 -47 -69 -53 -35 -5 -44 -2 -71 26 -38 38 -81 43
-72 9 15 -63 57 -88 146 -88 69 0 115 36 123 95 7 58 -29 99 -105 121 -72 20
-102 39 -102 64 0 50 95 68 134 25 27 -29 66 -34 66 -7 0 27 -26 58 -64 76
-44 21 -71 20 -123 -3z"/>
<path d="M10603 20161 c-47 -22 -65 -48 -65 -98 0 -47 33 -80 102 -99 73 -21
100 -39 100 -68 0 -31 -20 -47 -69 -53 -35 -5 -44 -2 -71 26 -38 38 -81 43
-72 9 15 -63 57 -88 146 -88 69 0 115 36 123 95 7 58 -29 99 -105 121 -72 20
-102 39 -102 64 0 50 95 68 134 25 27 -29 66 -34 66 -7 0 27 -26 58 -64 76
-44 21 -71 20 -123 -3z"/>
<path d="M12996 20170 c-99 -31 -148 -183 -93 -290 31 -61 65 -83 134 -87 81
-6 136 31 158 105 6 19 3 22 -23 22 -21 0 -32 -7 -40 -26 -16 -35 -70 -56
-112 -44 -47 14 -67 35 -80 90 -22 91 19 166 97 177 32 4 45 0 71 -22 18 -15
32 -33 32 -41 0 -9 11 -14 31 -14 27 0 30 3 24 23 -24 82 -118 133 -199 107z"/>
<path d="M13417 20173 c-42 -7 -103 -70 -117 -123 -25 -94 8 -198 76 -238 48
-28 130 -26 171 4 54 40 68 70 71 152 3 66 0 83 -20 122 -35 65 -102 96 -181
83z m92 -68 c54 -27 77 -118 47 -189 -19 -45 -52 -66 -104 -66 -34 0 -48 6
-68 27 -31 33 -38 60 -32 128 8 95 79 141 157 100z"/>
<path d="M18040 20173 c-74 -15 -124 -93 -124 -193 0 -117 66 -190 171 -190
68 0 143 60 143 114 0 27 -48 20 -62 -9 -26 -58 -117 -64 -168 -10 -30 32 -39
115 -17 167 35 83 158 90 188 11 11 -29 59 -33 59 -5 0 28 -37 80 -67 96 -34
17 -89 26 -123 19z"/>
<path d="M18446 20170 c-99 -30 -148 -183 -93 -290 33 -65 66 -85 142 -85 76
0 109 20 143 85 55 109 4 262 -97 290 -42 11 -55 11 -95 0z m91 -60 c78 -28
95 -185 26 -239 -34 -28 -101 -28 -136 -1 -54 43 -57 169 -5 217 38 34 66 40
115 23z"/>
<path d="M19623 20161 c-47 -22 -63 -45 -63 -91 0 -60 30 -86 131 -116 47 -14
79 -36 79 -55 0 -23 -50 -59 -82 -59 -38 0 -78 24 -78 46 0 9 -11 14 -30 14
-40 0 -40 -28 -1 -72 26 -30 35 -33 100 -36 70 -4 71 -4 106 31 28 28 35 43
35 75 0 56 -32 86 -119 112 -72 22 -97 44 -85 75 17 42 102 49 132 10 12 -16
30 -25 47 -25 23 0 25 3 19 23 -9 32 -34 58 -71 73 -43 19 -70 17 -120 -5z"/>
<path d="M6840 19980 l0 -190 25 0 c24 0 24 2 27 83 l3 82 90 0 90 0 3 -82 c3
-81 3 -83 27 -83 l25 0 0 190 0 190 -25 0 c-23 0 -24 -3 -27 -77 l-3 -78 -90
0 -90 0 -3 78 c-3 74 -4 77 -27 77 l-25 0 0 -190z"/>
<path d="M7355 20153 c-4 -10 -24 -65 -45 -123 -21 -58 -50 -136 -64 -173
l-26 -68 31 3 c26 2 34 10 48 43 25 63 28 65 90 65 66 0 73 -6 92 -67 11 -38
16 -43 41 -43 15 0 28 3 28 8 0 4 -30 89 -66 190 -65 176 -68 182 -94 182 -17
0 -31 -7 -35 -17z m63 -143 l21 -60 -50 0 c-27 0 -49 2 -49 4 0 14 44 116 50
116 5 0 17 -27 28 -60z"/>
<path d="M8580 20020 l0 -150 33 -37 c29 -31 41 -37 88 -41 69 -5 122 16 149
60 17 29 20 50 20 176 l0 142 -30 0 -30 0 0 -134 c0 -74 -3 -142 -6 -151 -10
-26 -62 -48 -100 -41 -63 12 -74 41 -74 192 l0 134 -25 0 -25 0 0 -150z"/>
<path d="M9820 19980 l0 -190 120 0 120 0 0 30 0 30 -91 0 -90 0 3 53 3 52 78
3 c74 3 77 4 77 27 0 24 -2 25 -80 25 l-80 0 0 55 0 55 85 0 c84 0 85 0 85 25
l0 25 -115 0 -115 0 0 -190z"/>
<path d="M10910 19980 l0 -190 30 0 29 0 3 83 3 82 73 3 c69 3 72 4 72 27 0
24 -2 25 -75 25 l-75 0 0 55 0 55 85 0 c84 0 85 0 85 25 l0 25 -115 0 -115 0
0 -190z"/>
<path d="M11252 20023 c3 -127 6 -152 23 -177 55 -81 214 -73 257 14 15 28 18
62 18 173 l0 137 -30 0 -30 0 0 -139 0 -139 -31 -26 c-41 -35 -83 -34 -120 3
l-29 29 0 136 0 136 -31 0 -31 0 4 -147z"/>
<path d="M11670 19980 l0 -190 115 0 115 0 0 30 0 30 -85 0 -85 0 0 160 0 160
-30 0 -30 0 0 -190z"/>
<path d="M12010 19980 l0 -190 110 0 110 0 0 30 0 30 -85 0 -85 0 0 160 0 160
-25 0 -25 0 0 -190z"/>
<path d="M12351 20058 l69 -113 0 -77 c0 -77 0 -78 25 -78 24 0 25 2 25 75 0
72 1 77 55 165 30 50 62 102 71 115 16 25 16 25 -17 25 -32 0 -37 -5 -82 -80
-27 -44 -50 -80 -52 -80 -2 0 -24 36 -50 80 -44 75 -49 80 -80 80 l-34 0 70
-112z"/>
<path d="M13740 19981 l0 -191 25 0 25 0 0 122 c0 67 3 119 6 116 3 -3 26 -57
52 -119 42 -101 50 -114 72 -114 22 0 30 13 72 114 26 62 49 116 52 119 3 3 6
-49 6 -116 l0 -122 25 0 25 0 0 191 0 190 -31 -3 c-30 -3 -33 -8 -86 -140 -30
-76 -59 -138 -63 -138 -4 0 -33 62 -63 138 -53 132 -56 137 -86 140 l-31 3 0
-190z"/>
<path d="M14230 19980 l0 -190 30 0 c29 0 29 0 32 68 l3 67 66 5 c70 5 92 17
115 61 18 35 18 70 0 114 -21 49 -59 65 -161 65 l-85 0 0 -190z m186 115 c19
-26 17 -75 -3 -97 -12 -13 -30 -18 -70 -18 l-53 0 0 71 0 71 56 -4 c40 -3 61
-10 70 -23z"/>
<path d="M14600 19980 l0 -190 110 0 110 0 0 30 0 30 -85 0 -85 0 0 160 0 160
-25 0 -25 0 0 -190z"/>
<path d="M14930 19980 l0 -190 120 0 120 0 0 30 0 30 -91 0 -90 0 3 53 3 52
78 3 c74 3 77 4 77 27 0 24 -2 25 -80 25 l-80 0 0 55 0 55 85 0 c84 0 85 0 85
25 l0 25 -115 0 -115 0 0 -190z"/>
<path d="M15260 20145 c0 -24 3 -25 55 -25 l55 0 0 -165 0 -165 30 0 30 0 0
165 0 165 55 0 c52 0 55 1 55 25 l0 25 -140 0 -140 0 0 -25z"/>
<path d="M15650 19980 l0 -190 120 0 120 0 0 30 0 30 -91 0 -90 0 3 53 3 52
78 3 c74 3 77 4 77 27 0 24 -2 25 -80 25 l-80 0 0 55 0 55 85 0 c84 0 85 0 85
25 l0 25 -115 0 -115 0 0 -190z"/>
<path d="M16000 19980 l0 -190 75 0 c154 0 219 60 218 202 -1 71 -31 127 -83
157 -30 17 -55 21 -124 21 l-86 0 0 -190z m203 101 c23 -22 31 -41 35 -80 9
-100 -34 -151 -129 -151 l-59 0 0 128 c0 71 3 132 8 136 4 5 31 6 61 3 43 -5
61 -12 84 -36z"/>
<path d="M16580 20145 c0 -24 3 -25 55 -25 l55 0 0 -165 0 -165 30 0 30 0 0
165 0 165 55 0 c52 0 55 1 55 25 l0 25 -140 0 -140 0 0 -25z"/>
<path d="M16970 19980 l0 -190 30 0 29 0 3 83 3 82 85 0 85 0 3 -82 c3 -81 3
-83 27 -83 l25 0 0 190 0 190 -25 0 c-25 0 -25 -1 -25 -80 l0 -80 -90 0 -90 0
0 80 0 80 -30 0 -30 0 0 -190z"/>
<path d="M17390 19980 l0 -190 120 0 120 0 0 30 0 30 -91 0 -90 0 3 53 3 52
78 3 c74 3 77 4 77 27 0 24 -2 25 -80 25 l-80 0 0 55 0 55 85 0 c84 0 85 0 85
25 l0 25 -115 0 -115 0 0 -190z"/>
<path d="M18772 20023 c3 -127 6 -152 23 -177 55 -81 214 -73 257 14 15 28 18
62 18 173 l0 137 -30 0 -30 0 0 -139 0 -139 -31 -26 c-41 -35 -83 -34 -120 3
l-29 29 0 136 0 136 -31 0 -31 0 4 -147z"/>
<path d="M19190 19981 l0 -191 30 0 29 0 3 73 3 72 35 0 c33 0 37 -4 75 -72
37 -67 42 -72 73 -73 l34 0 -42 77 c-42 75 -42 76 -22 92 52 41 58 123 13 173
-29 33 -31 33 -130 36 l-101 4 0 -191z m187 116 c23 -22 21 -74 -3 -92 -11 -8
-42 -15 -71 -15 l-53 0 0 66 0 66 56 -4 c32 -3 62 -11 71 -21z"/>
<path d="M19930 19980 l0 -190 120 0 120 0 0 30 0 30 -91 0 -90 0 3 53 3 52
78 3 c74 3 77 4 77 27 0 24 -2 25 -80 25 l-80 0 0 55 0 55 85 0 c84 0 85 0 85
25 l0 25 -115 0 -115 0 0 -190z"/>
<path d="M11974 15905 c-34 -23 -49 -69 -34 -105 36 -88 171 -65 170 29 -1 40
-14 62 -47 79 -29 16 -64 15 -89 -3z"/>
<path d="M17524 15905 c-34 -23 -49 -69 -34 -105 36 -88 171 -65 170 29 -1 40
-14 62 -47 79 -29 16 -64 15 -89 -3z"/>
<path d="M22741 15894 c-23 -19 -31 -34 -31 -59 0 -92 123 -127 165 -46 22 44
19 69 -14 102 -37 37 -79 38 -120 3z"/>
<path d="M6890 15435 l0 -455 70 0 70 0 0 455 0 455 -70 0 -70 0 0 -455z"/>
<path d="M11660 15750 c0 -77 -3 -140 -6 -140 -3 0 -23 15 -46 32 -36 30 -47
33 -119 37 -70 3 -86 0 -135 -24 -66 -32 -124 -101 -151 -177 -27 -79 -24
-244 6 -320 26 -68 93 -141 154 -168 60 -28 166 -27 225 1 24 12 46 28 49 35
9 25 23 15 23 -16 l0 -30 70 0 70 0 0 455 0 455 -70 0 -70 0 0 -140z m-101
-215 c116 -59 136 -284 36 -393 -32 -36 -36 -37 -104 -37 -66 0 -72 2 -106 35
-103 100 -78 351 40 400 32 14 104 11 134 -5z"/>
<path d="M14390 15435 l0 -455 70 0 70 0 0 292 c0 179 4 288 9 283 5 -6 61
-136 124 -290 l115 -280 63 0 62 0 117 282 c64 155 119 285 123 289 4 4 7
-124 7 -284 l0 -292 70 0 70 0 0 455 0 456 -82 -3 -81 -3 -141 -342 c-77 -189
-143 -343 -146 -343 -3 0 -68 155 -145 345 l-140 345 -82 0 -83 0 0 -455z"/>
<path d="M16800 15435 l0 -455 64 0 64 0 4 233 c3 261 9 284 78 320 55 29 133
19 173 -22 l32 -31 3 -250 3 -250 70 0 70 0 -3 263 c-3 295 -9 321 -80 383
-49 43 -96 57 -182 52 -59 -3 -81 -9 -114 -31 -23 -15 -44 -27 -47 -27 -3 0
-5 61 -5 135 l0 135 -65 0 -65 0 0 -455z"/>
<path d="M19540 15435 l0 -455 275 0 275 0 0 65 0 65 -200 0 -200 0 0 390 0
390 -75 0 -75 0 0 -455z"/>
<path d="M7938 15753 l-3 -78 -47 -3 -48 -3 0 -60 0 -59 50 0 50 0 0 -220 c0
-200 2 -224 20 -260 24 -47 62 -75 123 -91 47 -11 132 -5 142 11 3 4 -1 34 -8
66 l-13 58 -46 -3 c-77 -4 -78 -1 -78 235 l0 204 70 0 70 0 0 60 0 60 -70 0
-70 0 0 80 0 80 -70 0 -69 0 -3 -77z"/>
<path d="M12960 15750 l0 -80 -50 0 -50 0 0 -60 0 -60 50 0 50 0 0 -218 c0
-210 1 -221 23 -263 34 -63 92 -94 179 -94 87 0 94 7 76 82 l-14 58 -43 -4
c-30 -2 -48 3 -62 15 -18 16 -19 33 -19 221 l0 203 70 0 70 0 0 60 0 60 -70 0
-70 0 0 80 0 80 -70 0 -70 0 0 -80z"/>
<path d="M9267 15680 c-21 -4 -51 -17 -67 -29 -36 -26 -40 -26 -40 -1 0 18 -7
20 -70 20 l-70 0 0 -345 0 -345 70 0 70 0 0 231 c0 257 5 280 63 314 23 14 49
19 99 18 l68 -1 0 69 0 69 -29 0 c-16 0 -35 2 -43 4 -7 2 -30 0 -51 -4z"/>
<path d="M21829 15681 c-20 -4 -52 -17 -71 -29 -43 -27 -48 -27 -48 -2 0 18
-7 20 -65 20 l-65 0 0 -345 0 -345 70 0 70 0 0 235 c0 262 4 281 63 312 20 10
54 16 95 16 l62 0 0 68 c0 66 -1 69 -24 69 -13 0 -30 2 -38 4 -7 2 -29 1 -49
-3z"/>
<path d="M7383 15650 l-53 -30 0 25 c0 24 -2 25 -70 25 l-70 0 0 -345 0 -345
70 0 70 0 0 225 c0 244 4 269 55 315 22 21 36 25 90 25 49 0 68 -4 85 -20 45
-40 50 -70 50 -315 l0 -230 71 0 71 0 -4 263 c-3 240 -5 266 -24 307 -40 86
-114 130 -221 130 -57 0 -76 -5 -120 -30z"/>
<path d="M8470 15648 c-120 -62 -175 -166 -174 -328 1 -122 27 -194 93 -260
65 -64 110 -84 208 -88 100 -5 162 13 222 64 37 32 81 98 81 122 0 7 -104 42
-124 42 -2 0 -14 -16 -26 -35 -28 -46 -67 -65 -130 -65 -92 0 -150 41 -175
124 l-14 46 237 2 237 3 -2 81 c-4 139 -53 234 -150 291 -36 21 -61 27 -131
30 -84 5 -89 4 -152 -29z m218 -118 c37 -23 72 -75 72 -107 0 -23 -1 -23 -160
-23 -138 0 -160 2 -160 15 0 40 53 105 100 124 43 17 112 13 148 -9z"/>
<path d="M9675 15666 c-17 -7 -36 -20 -44 -29 -19 -24 -31 -21 -31 8 0 24 -2
25 -65 25 l-65 0 0 -345 0 -345 70 0 70 0 0 235 c0 261 4 279 63 315 48 30
100 26 139 -9 l33 -29 3 -256 3 -256 70 0 69 0 0 251 0 251 35 35 c34 34 38
35 91 31 43 -4 61 -11 82 -32 l27 -26 3 -255 4 -255 69 0 69 0 0 223 c0 268
-9 336 -47 391 -43 61 -94 86 -177 86 -77 0 -135 -22 -176 -65 l-23 -24 -19
25 c-46 58 -175 84 -253 50z"/>
<path d="M10683 15664 c-63 -23 -128 -86 -165 -162 -31 -63 -33 -72 -33 -177
0 -100 3 -116 29 -173 36 -78 106 -144 177 -167 116 -39 277 -2 344 77 26 31
60 96 53 103 -3 3 -122 35 -130 35 -2 0 -12 -16 -22 -34 -35 -65 -138 -86
-222 -45 -33 15 -49 32 -68 72 -14 28 -26 57 -26 64 0 10 49 13 236 13 l236 0
-4 98 c-3 82 -8 107 -31 155 -52 104 -144 158 -271 156 -34 0 -80 -7 -103 -15z
m181 -128 c38 -16 73 -61 82 -105 l7 -31 -168 0 c-148 0 -166 2 -161 16 3 9 6
20 6 24 0 18 65 83 95 96 39 17 98 17 139 0z"/>
<path d="M12390 15665 c-56 -18 -124 -74 -151 -126 l-20 -40 33 -13 c90 -37
89 -37 134 13 40 44 43 45 111 49 62 4 73 1 97 -19 19 -17 29 -37 33 -66 6
-48 22 -42 -152 -67 -195 -29 -264 -83 -265 -209 0 -70 17 -112 61 -154 79
-75 230 -88 320 -28 l39 25 0 -25 c0 -24 2 -25 70 -25 l70 0 0 240 c0 131 -5
261 -10 288 -23 107 -119 172 -250 171 -41 0 -95 -7 -120 -14z m240 -417 c0
-52 -28 -101 -72 -129 -27 -16 -46 -19 -100 -17 -82 4 -108 23 -108 78 0 55
25 72 138 91 146 26 142 27 142 -23z"/>
<path d="M13527 15666 c-133 -49 -208 -170 -209 -336 -1 -102 11 -147 54 -219
37 -61 106 -114 171 -132 23 -6 76 -9 117 -7 61 2 88 9 134 33 60 31 109 86
121 136 6 25 3 27 -52 42 -75 21 -70 22 -88 -13 -52 -101 -231 -92 -292 15
-13 22 -23 50 -23 63 l0 22 236 0 237 0 -5 88 c-4 52 -14 109 -27 142 -23 60
-82 126 -141 156 -47 23 -181 29 -233 10z m183 -137 c38 -22 63 -55 74 -101
l6 -28 -165 0 c-96 0 -165 4 -165 9 0 21 22 67 43 90 49 53 141 67 207 30z"/>
<path d="M15600 15665 c-56 -18 -124 -74 -151 -126 l-20 -40 33 -13 c90 -37
89 -37 134 13 40 44 43 45 111 49 62 4 73 1 97 -19 19 -17 29 -37 33 -66 6
-48 22 -42 -152 -67 -195 -29 -264 -83 -265 -209 0 -70 17 -112 61 -154 79
-75 230 -88 320 -28 l39 25 0 -25 c0 -24 2 -25 70 -25 l70 0 0 240 c0 131 -5
261 -10 288 -23 107 -119 172 -250 171 -41 0 -95 -7 -120 -14z m240 -417 c0
-52 -28 -101 -72 -129 -27 -16 -46 -19 -100 -17 -82 4 -108 23 -108 78 0 55
25 72 138 91 146 26 142 27 142 -23z"/>
<path d="M16307 15666 c-135 -50 -209 -171 -209 -341 0 -150 55 -259 161 -318
70 -40 186 -49 258 -22 82 32 149 108 168 193 l7 32 -71 0 c-66 0 -71 -2 -77
-24 -3 -13 -19 -36 -35 -52 -57 -54 -182 -41 -228 25 -51 73 -61 213 -20 296
58 117 229 128 278 17 14 -32 16 -32 83 -32 37 0 68 4 68 8 0 27 -31 105 -54
134 -14 19 -50 48 -78 63 -43 24 -68 29 -133 32 -52 2 -93 -2 -118 -11z"/>
<path d="M18011 15669 c-13 -5 -36 -18 -51 -29 -36 -26 -40 -25 -40 5 0 24 -2
25 -65 25 l-65 0 0 -345 0 -345 70 0 70 0 0 233 c0 201 2 237 18 267 43 88
196 93 244 8 9 -17 14 -90 16 -265 l4 -243 64 0 64 0 0 263 c0 255 -1 263 -24
313 -25 54 -69 94 -125 113 -40 13 -146 14 -180 0z"/>
<path d="M18663 15664 c-63 -23 -128 -86 -165 -162 -31 -63 -33 -72 -33 -177
0 -100 3 -116 29 -173 36 -78 106 -144 177 -167 116 -39 277 -2 344 77 26 31
60 96 53 103 -3 3 -122 35 -130 35 -2 0 -12 -16 -22 -34 -35 -65 -138 -86
-222 -45 -33 15 -49 32 -68 72 -14 28 -26 57 -26 64 0 10 49 13 236 13 l236 0
-4 98 c-3 82 -8 107 -31 155 -52 104 -144 158 -271 156 -34 0 -80 -7 -103 -15z
m181 -128 c38 -16 73 -61 82 -105 l7 -31 -168 0 c-148 0 -166 2 -161 16 3 9 6
20 6 24 0 18 65 83 95 96 39 17 98 17 139 0z"/>
<path d="M20350 15648 c-120 -62 -175 -166 -174 -328 1 -122 27 -194 93 -260
65 -64 110 -84 208 -88 100 -5 162 13 222 64 37 32 81 98 81 122 0 7 -104 42
-124 42 -2 0 -14 -16 -26 -35 -28 -46 -67 -65 -130 -65 -92 0 -150 41 -175
124 l-14 46 237 2 237 3 -2 81 c-4 139 -53 234 -150 291 -36 21 -61 27 -131
30 -84 5 -89 4 -152 -29z m218 -118 c37 -23 72 -75 72 -107 0 -23 -1 -23 -160
-23 -138 0 -160 2 -160 15 0 40 53 105 100 124 43 17 112 13 148 -9z"/>
<path d="M21070 15671 c-79 -24 -141 -74 -176 -142 -14 -28 -14 -30 13 -40 58
-23 106 -39 108 -37 41 74 80 98 158 98 51 0 62 -4 88 -29 21 -22 29 -39 29
-65 0 -41 12 -36 -155 -61 -143 -21 -209 -52 -242 -114 -59 -113 -1 -257 121
-297 89 -30 205 -15 258 33 17 15 18 14 18 -10 0 -27 1 -27 71 -27 l70 0 -3
273 c-3 232 -5 277 -20 303 -26 48 -77 92 -126 109 -47 16 -168 19 -212 6z
m220 -424 c0 -90 -61 -147 -158 -147 -91 0 -134 39 -118 105 8 33 49 52 148
69 132 22 128 23 128 -27z"/>
<path d="M22234 15661 c-23 -10 -45 -24 -48 -30 -12 -19 -26 -12 -26 14 0 24
-2 25 -65 25 l-65 0 0 -345 0 -345 64 0 64 0 4 233 c4 251 9 277 63 313 61 40
163 25 196 -30 17 -28 19 -52 19 -273 l0 -243 70 0 70 0 0 248 c0 262 -5 303
-47 364 -54 80 -200 114 -299 69z"/>
<path d="M23203 15650 l-53 -30 0 25 c0 24 -2 25 -70 25 l-70 0 0 -345 0 -345
70 0 70 0 0 225 c0 244 4 269 55 315 22 21 36 25 90 25 49 0 68 -4 85 -20 45
-40 50 -70 50 -315 l0 -230 71 0 71 0 -4 263 c-3 240 -5 266 -24 307 -40 86
-114 130 -221 130 -57 0 -76 -5 -120 -30z"/>
<path d="M23885 15667 c-88 -34 -147 -97 -179 -191 -63 -184 -2 -382 138 -451
97 -47 211 -43 274 10 17 14 33 25 36 25 12 0 6 -102 -9 -136 -18 -43 -79 -73
-148 -74 -62 0 -109 20 -151 66 l-34 38 -56 -39 -56 -38 24 -31 c34 -46 101
-94 149 -108 23 -6 83 -12 132 -12 105 0 166 21 228 82 64 62 67 86 67 499 l0
363 -70 0 -70 0 0 -29 0 -30 -51 35 c-47 31 -57 34 -123 33 -39 0 -85 -6 -101
-12z m185 -135 c52 -26 83 -88 88 -183 4 -67 1 -84 -21 -132 -28 -61 -56 -85
-110 -94 -93 -15 -167 33 -193 125 -27 93 -3 213 53 264 44 40 125 49 183 20z"/>
<path d="M11950 15325 l0 -345 70 0 70 0 0 345 0 345 -70 0 -70 0 0 -345z"/>
<path d="M17500 15325 l0 -345 70 0 70 0 0 345 0 345 -70 0 -70 0 0 -345z"/>
<path d="M22730 15325 l0 -345 70 0 70 0 0 345 0 345 -70 0 -70 0 0 -345z"/>
<path d="M6950 13123 c-39 -8 -79 -41 -102 -86 -27 -52 -30 -157 -6 -202 64
-121 224 -127 289 -11 30 53 32 152 4 209 -32 68 -109 105 -185 90z m90 -68
c44 -23 63 -67 58 -137 -6 -78 -41 -118 -105 -118 -63 0 -104 39 -110 107 -7
68 11 120 51 144 38 23 67 24 106 4z"/>
<path d="M9653 13115 c-55 -23 -87 -115 -40 -115 15 0 27 11 37 33 12 25 22
33 48 35 37 4 72 -20 72 -47 0 -26 -32 -72 -109 -154 -49 -53 -71 -85 -71
-102 l0 -25 120 0 120 0 0 30 0 30 -82 0 -81 0 60 63 c69 72 93 113 93 159 0
43 -24 76 -66 94 -41 17 -60 17 -101 -1z"/>
<path d="M10012 13110 c-49 -30 -76 -97 -76 -190 0 -113 37 -168 117 -177 84
-10 137 42 137 133 0 39 -5 51 -34 80 -29 29 -41 34 -83 34 -27 0 -54 -5 -61
-12 -32 -32 -23 37 9 71 11 12 32 21 49 21 28 0 60 -22 60 -41 0 -5 14 -9 30
-9 36 0 39 16 9 54 -25 31 -69 56 -101 56 -13 0 -38 -9 -56 -20z m103 -195
c40 -39 29 -97 -22 -116 -58 -22 -116 36 -94 93 19 52 77 63 116 23z"/>
<path d="M10734 13116 c-39 -17 -64 -52 -64 -88 0 -23 4 -28 25 -28 18 0 25 5
25 18 0 26 31 52 61 52 36 0 62 -22 62 -53 0 -30 -21 -59 -117 -165 -36 -40
-66 -82 -66 -92 0 -19 7 -20 125 -20 l125 0 0 30 0 30 -81 0 -81 0 62 67 c62
66 90 114 90 153 0 37 -30 81 -65 96 -42 17 -61 17 -101 0z"/>
<path d="M11090 13113 c-56 -29 -75 -73 -75 -178 0 -66 5 -99 18 -125 47 -95
174 -93 218 3 38 86 19 239 -37 289 -30 26 -84 31 -124 11z m102 -74 c42 -56
31 -203 -17 -235 -70 -46 -132 61 -105 181 6 27 19 58 28 68 23 25 70 18 94
-14z"/>
<path d="M11444 13114 c-34 -16 -64 -61 -64 -94 0 -17 5 -21 27 -18 19 2 29
10 31 23 12 66 122 55 122 -13 0 -22 -19 -48 -117 -157 -39 -42 -63 -78 -63
-92 0 -23 2 -23 120 -23 l120 0 0 30 0 29 -76 3 -76 3 54 60 c77 85 88 104 88
150 0 47 -19 79 -60 100 -36 19 -67 19 -106 -1z"/>
<path d="M7270 12931 l0 -191 25 0 25 0 0 131 c0 91 3 130 11 127 6 -2 50 -60
98 -128 71 -103 91 -126 114 -128 l27 -3 0 190 0 191 -30 0 -29 0 -3 -132 -3
-133 -90 130 c-74 107 -95 131 -118 133 l-27 3 0 -190z"/>
<path d="M8020 12965 l0 -155 -25 -12 c-30 -13 -75 3 -75 27 0 10 -10 15 -30
15 -33 0 -36 -7 -18 -45 15 -33 56 -55 103 -55 89 0 105 34 105 230 l0 150
-30 0 -30 0 0 -155z"/>
<path d="M8210 12978 c0 -159 6 -179 59 -215 69 -46 184 -21 218 47 8 17 13
74 13 168 l0 142 -24 0 -24 0 -4 -140 c-3 -130 -5 -141 -26 -162 -32 -32 -102
-32 -134 0 -21 21 -23 33 -26 162 l-4 140 -24 0 -24 0 0 -142z"/>
<path d="M8630 12931 l0 -191 25 0 25 0 0 131 c0 91 3 130 11 127 6 -2 50 -60
98 -128 71 -103 91 -126 114 -128 l27 -3 0 190 0 191 -30 0 -29 0 -3 -132 -3
-133 -90 130 c-74 107 -95 131 -118 133 l-27 3 0 -190z"/>
<path d="M9050 12930 l0 -190 120 0 120 0 0 30 0 30 -91 0 -90 0 3 53 3 52 78
3 c74 3 77 4 77 27 0 24 -2 25 -80 25 l-80 0 0 55 0 55 85 0 c84 0 85 0 85 25
l0 25 -115 0 -115 0 0 -190z"/>
<path d="M11798 12996 c-44 -71 -78 -135 -78 -150 0 -25 2 -25 83 -28 l82 -3
3 -37 c3 -33 7 -38 28 -38 21 0 24 4 24 40 0 36 3 40 25 40 20 0 25 5 25 25 0
20 -5 25 -25 25 l-25 0 0 125 0 125 -32 0 c-31 0 -37 -7 -110 -124z m90 -48
l-3 -73 -47 -3 c-27 -2 -48 0 -48 4 0 15 82 144 92 144 5 0 8 -32 6 -72z"/>
<path d="M10296 12759 c-4 -29 -10 -65 -13 -81 -5 -27 -4 -29 18 -26 20 2 27
13 41 63 24 87 23 95 -11 95 -27 0 -29 -3 -35 -51z"/>
<path d="M9092 11659 c-31 -33 -145 -227 -157 -267 -12 -42 -78 -163 -141
-262 -23 -36 -47 -76 -54 -90 -7 -14 -16 -27 -20 -30 -14 -9 -77 -96 -102
-140 -30 -52 -44 -126 -26 -132 6 -2 11 -20 10 -39 0 -18 2 -45 4 -58 8 -36
24 -7 24 41 0 25 6 41 19 50 11 8 27 34 37 58 9 25 23 52 31 61 8 9 19 34 24
55 11 39 104 211 124 229 6 6 20 23 31 39 10 16 30 45 44 66 14 21 53 79 87
129 34 51 65 102 69 114 4 12 21 46 38 75 57 98 59 102 46 118 -20 23 -57 16
-88 -17z"/>
<path d="M14895 11416 c-5 -2 -71 -23 -145 -46 -129 -41 -249 -96 -335 -154
-22 -15 -42 -30 -45 -34 -10 -14 -68 -51 -101 -65 -19 -8 -70 -47 -114 -87
-44 -40 -90 -79 -102 -87 -13 -9 -23 -21 -23 -29 0 -8 -9 -19 -20 -26 -11 -7
-20 -24 -20 -37 l0 -25 20 22 c12 12 26 22 33 22 7 0 20 8 29 18 9 9 27 25 40
34 13 10 59 46 103 80 152 121 323 227 425 265 146 55 203 68 300 67 106 0
151 -16 204 -73 27 -28 28 -33 23 -98 -5 -68 -32 -140 -80 -210 -12 -17 -32
-49 -45 -70 -13 -21 -57 -74 -97 -118 -41 -44 -75 -83 -75 -87 0 -3 -22 -22
-49 -42 -28 -19 -74 -57 -104 -83 -30 -26 -71 -61 -91 -77 -20 -16 -36 -35
-36 -43 0 -17 64 -18 82 0 23 20 71 53 108 72 19 10 71 53 116 96 44 44 87 85
95 91 9 7 33 38 55 68 21 30 44 60 50 65 6 6 28 42 49 80 21 39 48 83 59 98
19 25 21 43 21 154 l0 125 -48 44 c-35 32 -67 49 -116 64 -69 20 -148 33 -166
26z"/>
<path d="M10058 10966 c-77 -41 -228 -159 -228 -179 0 -5 -7 -16 -16 -25 -13
-13 -14 -17 -3 -21 7 -2 15 1 17 8 2 6 10 11 19 11 8 0 44 17 80 38 35 20 73
42 84 48 10 6 27 18 37 27 18 17 63 23 75 11 6 -7 -55 -74 -67 -74 -7 0 -68
-54 -120 -106 -12 -11 -43 -36 -71 -54 -27 -18 -63 -47 -80 -63 -16 -16 -40
-36 -52 -44 -13 -9 -23 -21 -23 -27 0 -19 60 -7 73 15 7 11 15 19 19 19 15 0
371 291 399 326 40 51 38 78 -8 103 -35 18 -86 13 -135 -13z"/>
<path d="M13890 10775 c0 -9 -8 -19 -17 -22 -10 -4 -27 -16 -39 -27 -11 -12
-50 -47 -87 -79 -54 -47 -67 -64 -67 -88 0 -16 3 -29 7 -29 10 0 129 124 136
143 3 9 13 17 21 17 7 0 17 11 20 24 3 13 14 26 24 28 23 6 37 48 16 48 -8 0
-14 -7 -14 -15z"/>
<path d="M8507 10724 c-15 -15 -7 -45 11 -42 9 2 17 12 17 22 0 20 -16 31 -28
20z"/>
<path d="M8456 10651 c-9 -17 -23 -31 -30 -31 -15 0 -33 -57 -22 -67 8 -8 36
17 36 33 0 7 9 15 19 19 22 7 37 53 22 68 -6 6 -15 -2 -25 -22z"/>
<path d="M17257 10588 c-33 -46 -97 -180 -97 -205 0 -11 -8 -31 -18 -44 -10
-13 -23 -37 -30 -52 -6 -15 -17 -33 -23 -40 -16 -19 -78 -116 -115 -181 -46
-81 -187 -236 -215 -236 -11 0 -42 18 -67 41 -61 54 -85 65 -154 73 -64 7
-157 -4 -298 -34 -52 -12 -135 -30 -185 -41 -87 -19 -205 -53 -313 -91 -29
-10 -60 -18 -70 -18 -9 0 -29 -7 -45 -15 -15 -8 -53 -19 -85 -25 -31 -5 -70
-16 -87 -24 -72 -35 -145 -66 -155 -66 -6 0 -41 -17 -78 -38 -38 -22 -82 -42
-98 -46 -16 -4 -36 -13 -44 -20 -15 -13 -179 -106 -186 -106 -2 0 -27 -11 -56
-24 -82 -37 -96 -39 -124 -21 -18 12 -22 20 -15 33 5 9 12 37 16 62 12 75 97
197 167 239 72 45 335 302 344 336 9 35 -12 65 -45 65 -78 0 -306 -225 -451
-445 -11 -16 -36 -41 -56 -55 -20 -14 -47 -35 -59 -47 -12 -13 -33 -23 -47
-23 -14 0 -33 -9 -43 -20 -10 -11 -24 -20 -31 -20 -7 0 -25 -11 -41 -24 -15
-13 -38 -26 -51 -30 -12 -4 -20 -12 -17 -17 8 -12 72 -11 80 1 4 6 24 18 46
27 21 8 39 19 39 24 0 9 41 32 78 43 19 6 22 4 22 -17 0 -13 -7 -44 -15 -67
-23 -65 -19 -97 14 -131 21 -21 39 -29 64 -29 35 0 179 51 206 73 24 20 63 41
131 71 8 3 33 17 55 31 22 14 51 31 65 37 14 7 36 20 50 29 14 9 45 22 70 29
25 7 50 15 55 20 6 4 28 13 50 20 22 7 45 16 50 20 6 5 35 15 65 24 60 16 137
41 185 57 17 6 50 15 75 21 49 10 170 45 210 60 183 70 363 111 495 112 102 1
134 -12 163 -67 31 -57 77 -97 113 -97 40 0 94 36 129 86 14 20 37 50 51 67
14 18 41 59 59 92 34 60 61 103 100 160 50 73 67 103 74 128 3 15 17 43 31 63
14 20 25 42 25 49 0 7 6 18 13 24 8 6 20 29 27 51 29 87 56 57 80 -86 10 -60
23 -172 29 -249 6 -77 15 -156 21 -175 6 -19 17 -158 26 -308 8 -151 20 -285
25 -300 6 -14 14 -58 19 -98 11 -87 45 -144 105 -174 74 -38 271 -22 288 23
11 29 -14 36 -108 30 -133 -9 -158 -2 -197 55 -30 43 -33 54 -39 157 -4 60
-14 151 -22 200 -9 50 -21 200 -27 335 -6 135 -15 270 -20 300 -8 49 -22 206
-33 358 -8 103 -98 150 -150 80z"/>
<path d="M8360 10535 c-9 -11 -10 -19 -3 -26 7 -7 14 -5 23 6 9 11 10 19 3 26
-7 7 -14 5 -23 -6z"/>
<path d="M13650 10519 c0 -5 5 -7 10 -4 6 3 10 8 10 11 0 2 -4 4 -10 4 -5 0
-10 -5 -10 -11z"/>
<path d="M9653 10485 c-8 -23 1 -27 31 -14 19 9 23 15 14 21 -20 12 -38 9 -45
-7z"/>
<path d="M8310 10463 c0 -14 1 -24 3 -22 1 2 11 14 21 27 19 22 19 22 -2 22
-17 0 -22 -6 -22 -27z"/>
<path d="M8562 10455 c0 -16 2 -22 5 -12 2 9 2 23 0 30 -3 6 -5 -1 -5 -18z"/>
<path d="M9598 10441 c-7 -10 -23 -21 -35 -25 -13 -4 -23 -13 -23 -19 0 -7
-14 -18 -30 -25 -17 -8 -28 -18 -24 -23 9 -14 44 -10 50 6 4 8 11 15 18 15 16
0 86 63 86 78 0 18 -27 14 -42 -7z"/>
<path d="M13587 10453 c-12 -11 -8 -23 8 -23 8 0 15 7 15 15 0 16 -12 20 -23
8z"/>
<path d="M8512 10413 c-6 -10 -13 -38 -17 -63 -4 -25 -14 -53 -23 -62 -8 -10
-19 -41 -23 -70 -5 -29 -15 -58 -23 -63 -19 -14 -30 -76 -22 -120 9 -47 23
-36 31 24 4 28 15 60 25 71 11 12 22 43 26 68 3 26 13 54 21 63 16 18 43 110
43 147 0 26 -25 30 -38 5z"/>
<path d="M13541 10406 c-9 -10 -9 -16 -1 -21 17 -10 37 12 24 25 -8 8 -15 6
-23 -4z"/>
<path d="M13495 10359 c-10 -15 3 -25 16 -12 7 7 7 13 1 17 -6 3 -14 1 -17 -5z"/>
<path d="M9455 10321 c-3 -5 -1 -12 5 -16 5 -3 10 1 10 9 0 18 -6 21 -15 7z"/>
<path d="M8156 10289 c-14 -27 -14 -30 1 -27 18 3 36 45 23 53 -4 3 -15 -9
-24 -26z"/>
<path d="M13417 10271 c-20 -20 -37 -43 -37 -49 0 -6 -9 -16 -20 -22 -17 -9
-30 -60 -15 -60 3 0 22 19 42 41 21 23 48 52 61 64 16 16 20 28 15 43 -8 20
-10 19 -46 -17z"/>
<path d="M9360 10260 c0 -5 7 -7 15 -4 8 4 15 8 15 10 0 2 -7 4 -15 4 -8 0
-15 -4 -15 -10z"/>
<path d="M8111 10242 c-14 -27 -14 -32 3 -32 21 0 29 17 18 37 -9 15 -11 14
-21 -5z"/>
<path d="M9182 10196 c-18 -18 -48 -57 -67 -87 -20 -29 -50 -63 -68 -74 -59
-36 -107 -77 -107 -91 0 -8 -6 -14 -14 -14 -8 0 -18 -5 -22 -12 -5 -8 3 -9 29
-5 32 5 37 3 37 -14 0 -11 -6 -30 -14 -42 -7 -12 -21 -53 -30 -91 l-17 -68 25
-33 c21 -27 33 -33 78 -38 113 -11 228 14 283 63 11 10 31 21 43 25 23 7 64
33 147 94 22 17 58 39 81 49 39 19 171 103 223 143 165 126 170 130 195 123
37 -9 44 -22 62 -110 16 -77 16 -81 -6 -166 -19 -74 -21 -92 -11 -117 16 -38
70 -80 151 -116 62 -29 71 -30 205 -29 130 1 147 3 235 33 52 18 99 36 105 40
5 5 26 12 45 16 19 4 49 16 66 26 17 10 45 19 62 19 17 0 54 8 84 19 29 10 85
28 123 39 39 11 108 33 155 47 101 32 274 45 333 26 43 -14 121 -100 139 -152
6 -19 21 -46 34 -61 12 -15 24 -31 26 -35 9 -23 110 -94 163 -116 103 -43 163
-50 416 -45 l234 4 100 35 c91 31 100 36 103 61 3 22 -2 29 -21 34 -14 3 -34
1 -45 -5 -11 -6 -58 -23 -104 -38 -80 -27 -90 -28 -298 -28 -197 1 -222 3
-300 25 -120 34 -161 65 -225 171 -11 18 -27 43 -35 55 -8 11 -27 38 -41 60
-37 54 -66 78 -120 98 -64 24 -196 17 -319 -17 -244 -67 -315 -89 -376 -118
-23 -10 -48 -19 -55 -19 -8 0 -30 -8 -49 -18 -19 -11 -54 -22 -78 -26 -24 -3
-53 -13 -65 -20 -12 -8 -48 -19 -80 -25 -31 -6 -66 -15 -76 -21 -57 -30 -284
7 -379 61 -52 30 -60 58 -31 113 27 50 38 202 19 260 -17 53 -68 103 -114 112
-50 9 -84 -9 -186 -94 -41 -35 -86 -69 -100 -76 -25 -11 -69 -40 -149 -97 -24
-17 -55 -35 -68 -40 -12 -4 -74 -43 -135 -85 -110 -75 -116 -78 -211 -94 -110
-19 -141 -17 -162 12 -12 18 -10 29 15 97 45 120 87 197 137 246 26 25 50 45
54 45 4 0 20 16 35 35 l27 36 -23 24 c-13 14 -26 25 -29 25 -3 0 -21 -15 -39
-34z"/>
<path d="M9310 10219 c0 -5 5 -7 10 -4 6 3 10 8 10 11 0 2 -4 4 -10 4 -5 0
-10 -5 -10 -11z"/>
<path d="M8060 10180 c0 -5 5 -10 10 -10 6 0 10 5 10 10 0 6 -4 10 -10 10 -5
0 -10 -4 -10 -10z"/>
<path d="M8010 10095 c0 -8 5 -15 10 -15 6 0 10 7 10 15 0 8 -4 15 -10 15 -5
0 -10 -7 -10 -15z"/>
<path d="M7960 10044 c0 -8 5 -12 10 -9 6 3 10 10 10 16 0 5 -4 9 -10 9 -5 0
-10 -7 -10 -16z"/>
<path d="M7910 10000 c0 -5 5 -10 10 -10 6 0 10 5 10 10 0 6 -4 10 -10 10 -5
0 -10 -4 -10 -10z"/>
<path d="M13193 9940 c-6 -15 -7 -26 -1 -29 15 -5 20 5 16 31 l-5 23 -10 -25z"/>
<path d="M7862 9933 c-8 -14 -9 -24 -2 -28 12 -7 24 18 18 37 -3 8 -9 5 -16
-9z"/>
<path d="M8360 9926 c0 -29 -24 -114 -37 -128 -9 -10 -18 -41 -20 -70 -6 -67
-54 -171 -93 -198 -16 -11 -44 -26 -62 -32 -18 -6 -44 -19 -57 -30 -13 -10
-28 -18 -33 -18 -6 0 -21 -9 -35 -20 -14 -11 -35 -20 -46 -20 -11 0 -38 -9
-61 -19 -68 -32 -137 -52 -226 -65 -81 -13 -160 -46 -160 -67 0 -31 171 -25
265 10 56 21 232 108 255 126 8 7 28 15 44 19 16 4 40 15 52 25 22 18 50 17
113 0 9 -3 19 13 30 45 13 38 25 52 54 67 20 11 37 23 37 27 0 4 12 13 28 20
15 6 39 20 53 29 58 40 94 63 102 63 4 0 7 5 7 10 0 16 -60 12 -66 -4 -3 -8
-18 -18 -34 -21 -15 -3 -42 -17 -61 -31 -38 -28 -43 -29 -62 -10 -12 12 -13
25 -5 67 5 28 15 61 23 73 27 43 30 156 4 156 -5 0 -9 -2 -9 -4z"/>
<path d="M7800 9870 c-6 -11 -16 -20 -23 -20 -15 0 -77 -78 -77 -96 0 -7 -15
-21 -33 -33 -18 -11 -54 -44 -82 -73 -27 -29 -76 -76 -110 -103 -33 -28 -89
-78 -124 -113 -36 -34 -68 -62 -72 -62 -4 0 -29 -17 -56 -39 -65 -51 -104 -72
-183 -96 -60 -19 -69 -20 -117 -6 -45 12 -56 12 -90 -2 -21 -9 -31 -16 -22
-16 9 -1 24 -12 32 -24 19 -30 92 -51 152 -45 41 5 116 38 174 77 14 10 46 31
71 47 24 16 67 51 95 78 27 26 61 56 75 65 14 9 45 38 70 65 25 27 82 88 128
135 45 47 82 94 82 103 0 10 7 18 16 18 23 0 134 123 134 149 0 19 -29 12 -40
-9z"/>
<path d="M13143 9874 c-3 -8 -1 -20 6 -27 8 -8 11 -4 11 16 0 30 -7 35 -17 11z"/>
<path d="M8745 9830 c-3 -5 3 -10 14 -10 12 0 21 5 21 10 0 6 -6 10 -14 10 -8
0 -18 -4 -21 -10z"/>
<path d="M8678 9793 c-10 -2 -18 -10 -18 -18 0 -10 7 -11 35 -2 56 17 40 35
-17 20z"/>
<path d="M13096 9779 c-12 -34 -10 -89 3 -89 14 0 25 80 12 93 -7 7 -12 6 -15
-4z"/>
<path d="M8600 9750 c-13 -9 -13 -11 -1 -19 16 -10 51 3 51 19 0 13 -31 13
-50 0z"/>
<path d="M13046 9665 c-3 -8 -8 -37 -12 -65 -5 -41 -4 -50 9 -50 17 0 27 29
27 82 0 39 -14 58 -24 33z"/>
<path d="M13000 9491 c0 -10 7 -32 15 -47 8 -16 15 -37 15 -48 0 -23 60 -116
74 -116 7 0 19 -9 29 -20 9 -11 24 -20 33 -20 9 0 31 -9 48 -19 64 -39 140
-50 321 -46 104 2 198 9 243 19 40 9 76 16 78 16 3 0 4 6 1 13 -3 9 -68 12
-278 12 -266 0 -276 1 -334 25 -33 13 -71 32 -83 42 -33 25 -78 95 -93 146 -9
30 -20 47 -37 53 -31 12 -32 12 -32 -10z"/>
<path d="M14254 9385 c-10 -8 -26 -15 -34 -15 -8 0 -32 -9 -52 -20 -21 -11
-59 -25 -85 -30 -25 -6 -51 -18 -57 -26 -6 -8 -35 -18 -64 -23 -78 -12 -75
-21 9 -21 45 1 84 6 99 15 14 8 37 14 51 15 15 0 38 9 52 20 14 11 39 23 56
26 16 4 38 15 47 25 9 11 22 19 29 19 6 0 20 7 31 15 18 13 16 14 -22 15 -22
0 -49 -7 -60 -15z"/>
<path d="M8218 9304 c-5 -4 -8 -35 -7 -68 0 -50 2 -57 10 -36 11 27 8 116 -3
104z"/>
<path d="M8212 9125 c0 -16 2 -22 5 -12 2 9 2 23 0 30 -3 6 -5 -1 -5 -18z"/>
<path d="M8188 9057 c-28 -26 -26 -14 -50 -302 -15 -193 -14 -234 11 -259 l21
-20 23 22 c18 19 22 32 20 75 -13 271 -14 316 -3 362 6 28 10 72 8 99 l-3 48
-27 -25z"/>
<path d="M8523 7361 c-47 -22 -65 -48 -65 -98 0 -47 33 -80 102 -99 73 -21
100 -39 100 -68 0 -31 -20 -47 -69 -53 -35 -5 -44 -2 -71 26 -38 38 -81 43
-72 9 15 -63 57 -88 146 -88 69 0 115 36 123 95 7 58 -29 99 -105 121 -72 20
-102 39 -102 64 0 50 95 68 134 25 27 -29 66 -34 66 -7 0 27 -26 58 -64 76
-44 21 -71 20 -123 -3z"/>
<path d="M9130 7373 c-74 -15 -124 -93 -124 -193 0 -117 66 -190 171 -190 68
0 143 60 143 114 0 27 -48 20 -62 -9 -26 -58 -117 -64 -168 -10 -30 32 -39
115 -17 167 35 83 158 90 188 11 11 -29 59 -33 59 -5 0 28 -37 80 -67 96 -34
17 -89 26 -123 19z"/>
<path d="M9536 7370 c-99 -30 -148 -183 -93 -290 33 -65 66 -85 142 -85 76 0
109 20 143 85 55 109 4 262 -97 290 -42 11 -55 11 -95 0z m91 -60 c78 -28 95
-185 26 -239 -34 -28 -101 -28 -136 -1 -54 43 -57 169 -5 217 38 34 66 40 115
23z"/>
<path d="M9966 7370 c-99 -30 -148 -183 -93 -290 33 -65 66 -85 142 -85 76 0
109 20 143 85 55 109 4 262 -97 290 -42 11 -55 11 -95 0z m91 -60 c78 -28 95
-185 26 -239 -34 -28 -101 -28 -136 -1 -54 43 -57 169 -5 217 38 34 66 40 115
23z"/>
<path d="M12920 7373 c-39 -8 -79 -41 -102 -86 -27 -52 -30 -157 -6 -202 64
-121 224 -127 289 -11 30 53 32 152 4 209 -32 68 -109 105 -185 90z m90 -68
c44 -23 63 -67 58 -137 -6 -78 -41 -118 -105 -118 -63 0 -104 39 -110 107 -7
68 11 120 51 144 38 23 67 24 106 4z"/>
<path d="M14604 7361 c-97 -44 -131 -186 -71 -293 38 -70 144 -99 217 -59 44
23 69 65 77 130 l6 51 -77 0 c-74 0 -76 -1 -76 -25 0 -23 4 -25 40 -25 48 0
59 -17 35 -53 -34 -52 -117 -53 -165 -2 -28 30 -38 106 -20 160 13 40 59 75
98 75 35 0 77 -25 90 -54 9 -20 19 -26 42 -26 l30 0 -15 38 c-19 47 -54 78
-103 91 -50 14 -60 14 -108 -8z"/>
<path d="M15020 7357 c-67 -35 -92 -90 -88 -189 2 -58 8 -83 24 -104 35 -47
70 -67 126 -71 97 -7 158 45 166 142 l4 55 -76 0 c-74 0 -76 -1 -76 -25 0 -23
4 -25 40 -25 47 0 60 -18 37 -54 -24 -37 -66 -49 -112 -34 -57 19 -80 57 -80
131 1 42 6 71 18 88 41 62 134 62 172 2 14 -23 28 -32 48 -33 31 0 31 0 13 43
-17 40 -51 71 -95 86 -49 16 -72 14 -121 -12z"/>
<path d="M6935 7353 c-4 -10 -24 -65 -45 -123 -21 -58 -50 -136 -64 -173 l-26
-68 31 3 c26 2 34 10 48 43 25 63 28 65 90 65 66 0 73 -6 92 -67 11 -38 16
-43 41 -43 15 0 28 3 28 8 0 4 -30 89 -66 190 -65 176 -68 182 -94 182 -17 0
-31 -7 -35 -17z m63 -143 l21 -60 -50 0 c-27 0 -49 2 -49 4 0 14 44 116 50
116 5 0 17 -27 28 -60z"/>
<path d="M7230 7180 l0 -190 110 0 110 0 0 30 0 30 -85 0 -85 0 0 160 0 160
-25 0 -25 0 0 -190z"/>
<path d="M7560 7180 l0 -190 115 0 115 0 0 30 0 30 -91 0 -90 0 3 53 3 52 83
3 c79 3 82 4 82 27 0 23 -3 24 -82 27 l-83 3 0 50 0 50 88 3 c85 3 87 3 87 27
l0 25 -115 0 -115 0 0 -190z"/>
<path d="M7895 7330 c14 -22 41 -65 61 -95 l35 -55 -39 -58 c-21 -31 -48 -74
-61 -94 l-23 -38 34 0 c31 0 37 6 77 70 23 39 46 70 49 70 4 0 26 -32 50 -70
40 -64 46 -70 77 -70 l34 0 -60 96 -60 95 55 90 c31 49 56 92 56 95 0 3 -15 4
-32 2 -29 -3 -38 -12 -73 -70 -22 -37 -43 -67 -46 -68 -4 0 -25 32 -48 70 -39
65 -44 70 -77 70 l-34 0 25 -40z"/>
<path d="M8280 7180 l0 -190 25 0 25 0 0 190 0 190 -25 0 -25 0 0 -190z"/>
<path d="M10290 7180 l0 -190 30 0 30 0 0 63 c0 49 4 68 18 80 10 10 21 17 23
17 3 0 32 -36 64 -80 53 -73 62 -80 93 -80 39 0 42 -5 -51 113 -37 49 -67 92
-65 97 2 5 36 45 76 89 l73 81 -38 0 c-36 0 -44 -6 -108 -80 -39 -43 -73 -79
-77 -80 -5 0 -8 36 -8 80 l0 80 -30 0 -30 0 0 -190z"/>
<path d="M11050 7180 l0 -190 30 0 29 0 3 83 3 82 85 0 85 0 3 -82 c3 -81 3
-83 27 -83 l25 0 0 190 0 190 -25 0 c-25 0 -25 -1 -25 -80 l0 -80 -90 0 -90 0
0 80 0 80 -30 0 -30 0 0 -190z"/>
<path d="M11470 7180 l0 -190 120 0 120 0 0 30 0 30 -91 0 -90 0 3 53 3 52 78
3 c74 3 77 4 77 27 0 24 -2 25 -80 25 l-80 0 0 55 0 55 85 0 c84 0 85 0 85 25
l0 25 -115 0 -115 0 0 -190z"/>
<path d="M11857 7187 c-37 -100 -67 -186 -67 -190 0 -4 13 -7 28 -7 25 0 30 5
41 43 19 61 26 67 91 67 64 0 73 -6 93 -66 12 -33 19 -39 45 -42 31 -3 32 -3
21 25 -6 15 -35 93 -64 173 -29 80 -56 153 -60 163 -4 10 -18 17 -34 17 -26 0
-30 -7 -94 -183z m122 27 c11 -31 21 -58 21 -60 0 -2 -20 -4 -45 -4 -29 0 -45
4 -45 13 0 19 33 107 41 107 3 0 16 -25 28 -56z"/>
<path d="M12210 7180 l0 -190 75 0 c154 0 219 60 218 202 -1 71 -31 127 -83
157 -30 17 -55 21 -124 21 l-86 0 0 -190z m203 101 c23 -22 31 -41 35 -80 9
-100 -34 -151 -129 -151 l-59 0 0 128 c0 71 3 132 8 136 4 5 31 6 61 3 43 -5
61 -12 84 -36z"/>
<path d="M13240 7180 l0 -190 25 0 c24 0 24 2 27 83 l3 82 78 3 c74 3 77 4 77
27 0 23 -3 24 -77 27 l-78 3 0 50 0 50 88 3 c85 3 87 3 87 27 l0 25 -115 0
-115 0 0 -190z"/>
<path d="M13770 7180 l0 -190 30 0 30 0 0 63 c0 49 4 68 18 80 10 10 21 17 23
17 3 0 32 -36 64 -80 53 -73 62 -80 93 -80 39 0 42 -5 -51 113 -37 49 -67 92
-65 97 2 5 36 45 76 89 l73 81 -38 0 c-36 0 -44 -6 -108 -80 -39 -43 -73 -79
-77 -80 -5 0 -8 36 -8 80 l0 80 -30 0 -30 0 0 -190z"/>
<path d="M14245 7353 c-4 -10 -24 -65 -45 -123 -21 -58 -50 -136 -64 -173
l-26 -68 31 3 c26 2 34 10 48 43 25 63 28 65 90 65 66 0 73 -6 92 -67 11 -38
16 -43 41 -43 15 0 28 3 28 8 0 4 -30 89 -66 190 -65 176 -68 182 -94 182 -17
0 -31 -7 -35 -17z m63 -143 l21 -60 -50 0 c-27 0 -49 2 -49 4 0 14 44 116 50
116 5 0 17 -27 28 -60z"/>
<path d="M15360 7180 l0 -190 115 0 115 0 0 30 0 30 -85 0 -85 0 0 160 0 160
-30 0 -30 0 0 -190z"/>
<path d="M15690 7180 l0 -190 120 0 120 0 0 30 0 30 -91 0 -90 0 3 53 3 52 78
3 c74 3 77 4 77 27 0 24 -2 25 -80 25 l-80 0 0 55 0 55 85 0 c84 0 85 0 85 25
l0 25 -115 0 -115 0 0 -190z"/>
<path d="M16230 7180 l0 -190 115 0 115 0 0 30 0 30 -85 0 -85 0 0 160 0 160
-30 0 -30 0 0 -190z"/>
<path d="M16570 7180 l0 -190 115 0 115 0 0 30 0 30 -91 0 -90 0 3 53 3 52 83
3 c80 3 82 3 82 27 0 25 -1 25 -86 25 l-85 0 3 53 3 52 88 3 c85 3 87 3 87 27
l0 25 -115 0 -115 0 0 -190z"/>
<path d="M16951 7193 c-35 -98 -66 -184 -69 -190 -3 -9 6 -13 26 -13 27 0 31
5 48 53 l19 52 49 3 c77 5 89 -1 109 -58 16 -45 21 -50 47 -50 17 0 30 1 30 3
0 1 -31 85 -68 187 -67 179 -70 185 -98 188 -29 3 -29 2 -93 -175z m120 22
c11 -28 19 -53 19 -57 0 -5 -20 -8 -45 -8 -25 0 -45 3 -45 7 0 22 35 113 43
110 5 -1 18 -25 28 -52z"/>
<path d="M17300 7180 l0 -190 30 0 29 0 3 73 3 72 35 0 c33 0 37 -4 75 -72 37
-68 42 -73 73 -73 l33 0 -42 76 -41 75 21 21 c42 38 52 97 26 148 -24 46 -62
60 -160 60 l-85 0 0 -190z m184 121 c9 -8 16 -28 16 -47 0 -43 -30 -64 -92
-64 l-48 0 0 66 0 66 54 -4 c30 -3 62 -10 70 -17z"/>
<path d="M17670 7180 l0 -190 30 0 30 0 0 131 c0 80 4 128 10 124 5 -3 48 -62
95 -130 71 -103 90 -125 110 -125 l25 0 0 190 0 190 -25 0 -25 0 0 -124 c0
-69 -4 -127 -9 -130 -4 -3 -48 53 -97 124 -77 113 -93 130 -116 130 l-28 0 0
-190z"/>
<path d="M10676 7009 c-4 -29 -10 -65 -13 -81 -5 -27 -4 -29 18 -26 20 2 27
13 41 63 24 87 23 95 -11 95 -27 0 -29 -3 -35 -51z"/>
</g>
</svg>
