<?xml version="1.0" standalone="no"?>
<!DOCTYPE svg PUBLIC "-//W3C//DTD SVG 20010904//EN"
 "http://www.w3.org/TR/2001/REC-SVG-20010904/DTD/svg10.dtd">
<svg version="1.0" xmlns="http://www.w3.org/2000/svg"
 width="1600.000000pt" height="1190.000000pt" viewBox="0 0 1600.000000 1190.000000"
 preserveAspectRatio="xMidYMid meet">

<g transform="translate(0.000000,1190.000000) scale(0.100000,-0.100000)"
fill="#000000" stroke="none">
<path d="M1053 10877 l-93 -52 0 -52 c0 -29 2 -53 6 -53 3 0 47 24 98 54 l94
54 43 -25 c24 -13 68 -38 97 -55 l52 -29 0 54 0 55 -90 51 c-49 28 -96 51
-102 51 -7 -1 -55 -24 -105 -53z"/>
<path d="M10590 10821 c-15 -29 -12 -56 8 -74 24 -22 46 -22 63 0 13 15 12 15
-9 2 -44 -27 -84 37 -47 75 9 9 12 16 6 16 -6 0 -15 -9 -21 -19z"/>
<path d="M10645 10830 c3 -5 11 -10 16 -10 6 0 7 5 4 10 -3 6 -11 10 -16 10
-6 0 -7 -4 -4 -10z"/>
<path d="M10849 10825 c-7 -31 5 -88 19 -91 7 -1 8 0 2 3 -15 7 -13 63 3 63 8
0 9 3 1 8 -6 4 -13 14 -16 22 -3 11 -6 9 -9 -5z"/>
<path d="M10948 10823 c-2 -10 -1 -36 3 -58 l6 -40 2 38 c0 22 6 37 14 37 9 0
8 3 -2 9 -7 5 -10 14 -7 20 4 6 3 11 -2 11 -5 0 -11 -8 -14 -17z"/>
<path d="M11199 10825 c-7 -31 5 -88 19 -91 7 -1 8 0 2 3 -15 7 -13 63 3 63 8
0 9 3 1 8 -6 4 -13 14 -16 22 -3 11 -6 9 -9 -5z"/>
<path d="M11723 10800 c0 -25 2 -35 4 -22 2 12 2 32 0 45 -2 12 -4 2 -4 -23z"/>
<path d="M11760 10821 c-15 -29 -12 -56 8 -74 24 -22 46 -22 63 0 13 15 12 15
-9 2 -44 -27 -84 37 -47 75 9 9 12 16 6 16 -6 0 -15 -9 -21 -19z"/>
<path d="M11815 10830 c3 -5 11 -10 16 -10 6 0 7 5 4 10 -3 6 -11 10 -16 10
-6 0 -7 -4 -4 -10z"/>
<path d="M11977 10819 c4 -14 -4 -31 -28 -55 l-33 -34 40 1 c35 1 36 2 11 8
l-29 6 26 24 c26 25 34 55 17 65 -5 4 -7 -3 -4 -15z"/>
<path d="M12018 10823 c-2 -10 -1 -36 3 -58 l6 -40 2 38 c0 22 6 37 14 37 9 0
8 3 -2 9 -7 5 -10 14 -7 20 4 6 3 11 -2 11 -5 0 -11 -8 -14 -17z"/>
<path d="M12317 10819 c4 -14 -4 -31 -28 -55 l-33 -34 40 1 c35 1 36 2 11 8
l-29 6 26 24 c26 25 34 55 17 65 -5 4 -7 -3 -4 -15z"/>
<path d="M12407 10819 c4 -14 -4 -31 -28 -55 l-33 -34 40 1 c35 1 36 2 11 8
l-29 6 26 24 c26 25 34 55 17 65 -5 4 -7 -3 -4 -15z"/>
<path d="M12839 10823 c0 -10 -1 -33 -2 -51 -1 -19 1 -36 5 -39 5 -2 8 21 8
51 0 31 -2 56 -5 56 -3 0 -5 -8 -6 -17z"/>
<path d="M12978 10823 c-2 -10 -1 -36 3 -58 l6 -40 2 38 c0 22 6 37 14 37 9 0
8 3 -2 9 -7 5 -10 14 -7 20 4 6 3 11 -2 11 -5 0 -11 -8 -14 -17z"/>
<path d="M13138 10805 c4 -30 1 -35 -17 -35 -14 0 -20 4 -15 12 4 7 3 8 -4 4
-20 -12 -13 -26 13 -26 17 0 25 -6 26 -17 0 -14 2 -15 6 -3 3 8 11 18 17 22 8
5 7 8 -1 8 -8 0 -13 14 -13 35 0 19 -4 35 -8 35 -4 0 -6 -16 -4 -35z"/>
<path d="M13239 10823 c0 -10 -1 -33 -2 -51 -1 -19 1 -36 5 -39 5 -2 8 21 8
51 0 31 -2 56 -5 56 -3 0 -5 -8 -6 -17z"/>
<path d="M13318 10805 c4 -30 1 -35 -17 -35 -14 0 -20 4 -15 12 4 7 3 8 -4 4
-20 -12 -13 -26 13 -26 17 0 25 -6 26 -17 0 -14 2 -15 6 -3 3 8 11 18 17 22 8
5 7 8 -1 8 -8 0 -13 14 -13 35 0 19 -4 35 -8 35 -4 0 -6 -16 -4 -35z"/>
<path d="M13370 10821 c-12 -24 -13 -51 0 -71 6 -10 8 -4 4 21 -4 26 -1 40 11
52 9 9 12 17 6 17 -6 0 -15 -9 -21 -19z"/>
<path d="M13417 10830 c6 -8 13 -28 16 -45 l4 -30 2 31 c0 20 -6 37 -16 45
-16 12 -16 12 -6 -1z"/>
<path d="M13621 10823 c0 -11 3 -13 6 -5 2 6 16 12 29 12 17 0 23 -4 18 -12
-4 -7 -3 -8 4 -4 23 14 12 26 -23 26 -27 0 -35 -4 -34 -17z"/>
<path d="M13767 10819 c4 -14 -4 -31 -28 -55 l-33 -34 40 1 c35 1 36 2 11 8
l-29 6 26 24 c26 25 34 55 17 65 -5 4 -7 -3 -4 -15z"/>
<path d="M13808 10823 c-2 -10 -1 -36 3 -58 l6 -40 2 38 c0 22 6 37 14 37 9 0
8 3 -2 9 -7 5 -10 14 -7 20 4 6 3 11 -2 11 -5 0 -11 -8 -14 -17z"/>
<path d="M13968 10805 c4 -30 1 -35 -17 -35 -14 0 -20 4 -15 12 4 7 3 8 -4 4
-20 -12 -13 -26 13 -26 17 0 25 -6 26 -17 0 -14 2 -15 6 -3 3 8 11 18 17 22 8
5 7 8 -1 8 -8 0 -13 14 -13 35 0 19 -4 35 -8 35 -4 0 -6 -16 -4 -35z"/>
<path d="M14020 10821 c-12 -24 -13 -51 0 -71 6 -10 8 -4 4 21 -4 26 -1 40 11
52 9 9 12 17 6 17 -6 0 -15 -9 -21 -19z"/>
<path d="M14067 10830 c6 -8 13 -28 16 -45 l4 -30 2 31 c0 20 -6 37 -16 45
-16 12 -16 12 -6 -1z"/>
<path d="M14111 10823 c0 -11 3 -13 6 -5 2 6 16 12 29 12 17 0 23 -4 18 -12
-4 -7 -3 -8 4 -4 23 14 12 26 -23 26 -27 0 -35 -4 -34 -17z"/>
<path d="M14257 10819 c4 -14 -4 -31 -28 -55 l-33 -34 40 1 c35 1 36 2 11 8
l-29 6 26 24 c26 25 34 55 17 65 -5 4 -7 -3 -4 -15z"/>
<path d="M14580 10821 c-12 -24 -13 -51 0 -71 6 -10 8 -4 4 21 -4 26 -1 40 11
52 9 9 12 17 6 17 -6 0 -15 -9 -21 -19z"/>
<path d="M14627 10830 c6 -8 13 -28 16 -45 l4 -30 2 31 c0 20 -6 37 -16 45
-16 12 -16 12 -6 -1z"/>
<path d="M14671 10823 c0 -11 3 -13 6 -5 2 6 16 12 29 12 17 0 23 -4 18 -12
-4 -7 -3 -8 4 -4 23 14 12 26 -23 26 -27 0 -35 -4 -34 -17z"/>
<path d="M14919 10823 c0 -10 -1 -33 -2 -51 -1 -19 1 -36 5 -39 5 -2 8 21 8
51 0 31 -2 56 -5 56 -3 0 -5 -8 -6 -17z"/>
<path d="M10710 10806 c0 -2 9 -6 20 -9 11 -3 18 -1 14 4 -5 9 -34 13 -34 5z"/>
<path d="M11040 10795 c-15 -18 -10 -45 12 -59 12 -7 21 -7 28 0 8 8 4 10 -12
10 -18 -1 -23 4 -23 24 0 19 5 25 22 24 12 0 20 3 17 8 -8 13 -30 9 -44 -7z"/>
<path d="M11141 10804 c10 -3 17 -16 17 -30 0 -14 4 -30 9 -35 7 -7 8 3 4 28
-5 28 -11 38 -26 40 -13 1 -15 0 -4 -3z"/>
<path d="M11270 10806 c0 -2 9 -6 20 -9 11 -3 18 -1 14 4 -5 9 -34 13 -34 5z"/>
<path d="M11410 10806 c0 -2 7 -7 16 -10 8 -3 12 -2 9 4 -6 10 -25 14 -25 6z"/>
<path d="M11480 10795 c-26 -31 13 -82 44 -56 19 16 21 42 4 59 -16 16 -33 15
-48 -3z m45 -25 c0 -29 -32 -41 -41 -16 -9 24 4 48 23 44 12 -2 18 -12 18 -28z"/>
<path d="M12061 10792 c-1 -13 4 -32 9 -43 11 -19 44 -26 54 -10 3 4 -5 6 -18
4 -28 -6 -43 22 -24 45 8 10 9 13 1 9 -6 -4 -14 -1 -16 5 -3 7 -6 3 -6 -10z"/>
<path d="M12214 10799 c-3 -6 2 -18 12 -27 17 -16 17 -16 5 0 -7 9 -10 22 -6
28 3 5 4 10 1 10 -3 0 -8 -5 -12 -11z"/>
<path d="M12561 10804 c10 -3 17 -16 17 -30 0 -14 4 -30 9 -35 7 -7 8 3 4 28
-5 28 -11 38 -26 40 -13 1 -15 0 -4 -3z"/>
<path d="M12734 10799 c-3 -6 2 -18 12 -27 17 -16 17 -16 5 0 -7 9 -10 22 -6
28 3 5 4 10 1 10 -3 0 -8 -5 -12 -11z"/>
<path d="M12792 10798 c-22 -22 -7 -69 23 -68 5 0 2 5 -7 11 -10 5 -18 19 -18
29 0 10 8 24 18 29 9 6 12 11 7 11 -6 0 -16 -5 -23 -12z"/>
<path d="M12924 10799 c-3 -6 2 -18 12 -27 17 -16 17 -16 5 0 -7 9 -10 22 -6
28 3 5 4 10 1 10 -3 0 -8 -5 -12 -11z"/>
<path d="M13192 10798 c-22 -22 -7 -69 23 -68 5 0 2 5 -7 11 -10 5 -18 19 -18
29 0 10 8 24 18 29 9 6 12 11 7 11 -6 0 -16 -5 -23 -12z"/>
<path d="M14344 10799 c-3 -6 2 -18 12 -27 17 -16 17 -16 5 0 -7 9 -10 22 -6
28 3 5 4 10 1 10 -3 0 -8 -5 -12 -11z"/>
<path d="M14444 10799 c-3 -6 2 -18 12 -27 17 -16 17 -16 5 0 -7 9 -10 22 -6
28 3 5 4 10 1 10 -3 0 -8 -5 -12 -11z"/>
<path d="M14521 10804 c10 -3 17 -16 17 -30 0 -14 4 -30 9 -35 7 -7 8 3 4 28
-5 28 -11 38 -26 40 -13 1 -15 0 -4 -3z"/>
<path d="M14761 10792 c-1 -13 4 -32 9 -43 11 -19 44 -26 54 -10 3 4 -5 6 -18
4 -28 -6 -43 22 -24 45 8 10 9 13 1 9 -6 -4 -14 -1 -16 5 -3 7 -6 3 -6 -10z"/>
<path d="M14872 10798 c-22 -22 -7 -69 23 -68 5 0 2 5 -7 11 -10 5 -18 19 -18
29 0 10 8 24 18 29 9 6 12 11 7 11 -6 0 -16 -5 -23 -12z"/>
<path d="M14951 10792 c-1 -13 4 -32 9 -43 11 -19 44 -26 54 -10 3 4 -5 6 -18
4 -28 -6 -43 22 -24 45 8 10 9 13 1 9 -6 -4 -14 -1 -16 5 -3 7 -6 3 -6 -10z"/>
<path d="M12440 10789 c0 -5 5 -7 10 -4 6 3 10 8 10 11 0 2 -4 4 -10 4 -5 0
-10 -5 -10 -11z"/>
<path d="M12498 10773 c5 -21 7 -23 10 -9 2 10 0 22 -6 28 -6 6 -7 0 -4 -19z"/>
<path d="M13592 10770 c0 -19 2 -27 5 -17 2 9 2 25 0 35 -3 9 -5 1 -5 -18z"/>
<path d="M10691 10775 c-1 -25 17 -45 39 -44 10 0 9 3 -5 8 -11 4 -23 19 -26
32 -6 21 -7 21 -8 4z"/>
<path d="M11251 10775 c-1 -25 17 -45 39 -44 10 0 9 3 -5 8 -11 4 -23 19 -26
32 -6 21 -7 21 -8 4z"/>
<path d="M1760 10680 l0 -100 -42 21 c-33 17 -55 20 -108 17 -84 -4 -135 -36
-175 -109 -24 -45 -27 -59 -23 -124 3 -63 8 -80 34 -117 62 -89 190 -122 277
-71 36 22 37 22 37 3 0 -17 7 -20 50 -20 l50 0 0 300 0 300 -50 0 -50 0 0
-100z m-41 -177 c61 -47 65 -141 6 -200 -28 -28 -40 -33 -80 -33 -81 0 -135
52 -135 130 0 105 124 166 209 103z"/>
<path d="M11868 10773 c6 -2 18 -2 25 0 6 3 1 5 -13 5 -14 0 -19 -2 -12 -5z"/>
<path d="M12618 10773 c6 -2 18 -2 25 0 6 3 1 5 -13 5 -14 0 -19 -2 -12 -5z"/>
<path d="M13028 10773 c6 -2 18 -2 25 0 6 3 1 5 -13 5 -14 0 -19 -2 -12 -5z"/>
<path d="M13468 10773 c6 -2 18 -2 25 0 6 3 1 5 -13 5 -14 0 -19 -2 -12 -5z"/>
<path d="M13651 10773 c-1 -6 -4 -20 -7 -30 -5 -17 -5 -17 6 0 6 10 9 23 6 30
-3 9 -5 9 -5 0z"/>
<path d="M13858 10773 c6 -2 18 -2 25 0 6 3 1 5 -13 5 -14 0 -19 -2 -12 -5z"/>
<path d="M14141 10773 c-1 -6 -4 -20 -7 -30 -5 -17 -5 -17 6 0 6 10 9 23 6 30
-3 9 -5 9 -5 0z"/>
<path d="M14701 10773 c-1 -6 -4 -20 -7 -30 -5 -17 -5 -17 6 0 6 10 9 23 6 30
-3 9 -5 9 -5 0z"/>
<path d="M11115 10760 c-9 -15 4 -30 23 -29 15 1 14 2 -1 6 -11 3 -16 11 -13
19 6 16 0 19 -9 4z"/>
<path d="M12160 10764 c0 -26 51 -46 64 -25 4 5 -4 7 -15 4 -15 -4 -27 0 -35
12 -8 11 -14 14 -14 9z"/>
<path d="M12535 10760 c-9 -15 4 -30 23 -29 15 1 14 2 -1 6 -11 3 -16 11 -13
19 6 16 0 19 -9 4z"/>
<path d="M12680 10764 c0 -26 51 -46 64 -25 4 5 -4 7 -15 4 -15 -4 -27 0 -35
12 -8 11 -14 14 -14 9z"/>
<path d="M12870 10764 c0 -26 51 -46 64 -25 4 5 -4 7 -15 4 -15 -4 -27 0 -35
12 -8 11 -14 14 -14 9z"/>
<path d="M14290 10764 c0 -26 51 -46 64 -25 4 5 -4 7 -15 4 -15 -4 -27 0 -35
12 -8 11 -14 14 -14 9z"/>
<path d="M14390 10764 c0 -26 51 -46 64 -25 4 5 -4 7 -15 4 -15 -4 -27 0 -35
12 -8 11 -14 14 -14 9z"/>
<path d="M14495 10760 c-9 -15 4 -30 23 -29 15 1 14 2 -1 6 -11 3 -16 11 -13
19 6 16 0 19 -9 4z"/>
<path d="M11659 10748 c14 -19 46 -24 55 -9 4 5 -3 7 -14 4 -11 -3 -28 1 -38
8 -15 13 -16 12 -3 -3z"/>
<path d="M12452 10744 c9 -9 21 -15 27 -13 6 2 -2 10 -17 17 -25 11 -25 11
-10 -4z"/>
<path d="M13405 10740 c-16 -7 -17 -9 -3 -9 9 -1 20 4 23 9 7 11 7 11 -20 0z"/>
<path d="M14055 10740 c-16 -7 -17 -9 -3 -9 9 -1 20 4 23 9 7 11 7 11 -20 0z"/>
<path d="M14615 10740 c-16 -7 -17 -9 -3 -9 9 -1 20 4 23 9 7 11 7 11 -20 0z"/>
<path d="M2085 10621 c-126 -33 -193 -147 -164 -282 23 -108 133 -180 252
-165 56 8 113 34 140 64 17 19 17 20 -18 41 l-36 21 -39 -20 c-47 -24 -100
-26 -140 -5 -33 17 -60 52 -60 77 0 17 14 18 165 18 l165 0 0 50 c0 75 -46
151 -111 185 -33 18 -115 26 -154 16z m138 -121 c15 -16 27 -35 27 -40 0 -6
-46 -10 -115 -10 -63 0 -115 3 -115 8 0 18 35 55 64 68 48 22 106 11 139 -26z"/>
<path d="M2543 10601 c-27 -17 -33 -18 -33 -6 0 11 -13 15 -55 15 l-55 0 2
-212 3 -213 53 -3 52 -3 0 149 c0 144 1 150 25 176 13 14 35 26 49 26 73 0 86
-32 86 -210 l0 -140 49 0 50 0 3 149 c3 142 4 151 27 175 34 36 82 35 110 0
19 -24 21 -40 21 -175 l0 -149 56 0 56 0 -4 168 c-5 186 -13 217 -71 252 -48
30 -134 27 -181 -5 -45 -30 -44 -30 -73 -3 -34 32 -126 37 -170 9z"/>
<path d="M960 10468 c0 -168 9 -206 55 -247 90 -79 251 -62 313 32 26 39 27
47 31 199 l3 158 -56 0 -56 0 0 -145 c0 -142 -1 -147 -25 -170 -33 -34 -93
-34 -132 -1 -28 24 -28 24 -31 170 l-4 146 -49 0 -49 0 0 -142z"/>
<path d="M3053 10598 c3 -7 41 -103 86 -213 89 -216 91 -230 44 -285 -17 -21
-34 -30 -54 -30 -28 0 -29 -2 -29 -45 l0 -45 43 0 c52 0 97 26 126 73 16 26
165 367 238 545 4 9 -9 12 -48 12 l-54 0 -59 -145 c-32 -80 -62 -147 -66 -150
-4 -2 -34 63 -66 145 l-59 150 -54 0 c-38 0 -52 -3 -48 -12z"/>
<path d="M9990 10531 c-15 -29 -12 -56 8 -74 24 -22 46 -22 63 0 13 15 12 15
-9 2 -44 -27 -84 37 -47 75 9 9 12 16 6 16 -6 0 -15 -9 -21 -19z"/>
<path d="M10045 10540 c3 -5 11 -10 16 -10 6 0 7 5 4 10 -3 6 -11 10 -16 10
-6 0 -7 -4 -4 -10z"/>
<path d="M10249 10535 c-7 -31 5 -88 19 -91 7 -1 8 0 2 3 -15 7 -13 63 3 63 8
0 9 3 1 8 -6 4 -13 14 -16 22 -3 11 -6 9 -9 -5z"/>
<path d="M10348 10533 c-2 -10 -1 -36 3 -58 l6 -40 2 38 c0 22 6 37 14 37 9 0
8 3 -2 9 -7 5 -10 14 -7 20 4 6 3 11 -2 11 -5 0 -11 -8 -14 -17z"/>
<path d="M10599 10535 c-7 -31 5 -88 19 -91 7 -1 8 0 2 3 -15 7 -13 63 3 63 8
0 9 3 1 8 -6 4 -13 14 -16 22 -3 11 -6 9 -9 -5z"/>
<path d="M11199 10533 c0 -10 -1 -33 -2 -51 -1 -19 1 -36 5 -39 5 -2 8 21 8
51 0 31 -2 56 -5 56 -3 0 -5 -8 -6 -17z"/>
<path d="M11723 10510 c0 -25 2 -35 4 -22 2 12 2 32 0 45 -2 12 -4 2 -4 -23z"/>
<path d="M11760 10531 c-15 -29 -12 -56 8 -74 24 -22 46 -22 63 0 13 15 12 15
-9 2 -44 -27 -84 37 -47 75 9 9 12 16 6 16 -6 0 -15 -9 -21 -19z"/>
<path d="M11815 10540 c3 -5 11 -10 16 -10 6 0 7 5 4 10 -3 6 -11 10 -16 10
-6 0 -7 -4 -4 -10z"/>
<path d="M11977 10529 c4 -14 -4 -31 -28 -55 l-33 -34 40 1 c35 1 36 2 11 8
l-29 6 26 24 c26 25 34 55 17 65 -5 4 -7 -3 -4 -15z"/>
<path d="M12018 10533 c-2 -10 -1 -36 3 -58 l6 -40 2 38 c0 22 6 37 14 37 9 0
8 3 -2 9 -7 5 -10 14 -7 20 4 6 3 11 -2 11 -5 0 -11 -8 -14 -17z"/>
<path d="M12317 10529 c4 -14 -4 -31 -28 -55 l-33 -34 40 1 c35 1 36 2 11 8
l-29 6 26 24 c26 25 34 55 17 65 -5 4 -7 -3 -4 -15z"/>
<path d="M12407 10529 c4 -14 -4 -31 -28 -55 l-33 -34 40 1 c35 1 36 2 11 8
l-29 6 26 24 c26 25 34 55 17 65 -5 4 -7 -3 -4 -15z"/>
<path d="M12463 10543 c9 -2 23 -2 30 0 6 3 -1 5 -18 5 -16 0 -22 -2 -12 -5z"/>
<path d="M12839 10533 c0 -10 -1 -33 -2 -51 -1 -19 1 -36 5 -39 5 -2 8 21 8
51 0 31 -2 56 -5 56 -3 0 -5 -8 -6 -17z"/>
<path d="M12978 10533 c-2 -10 -1 -36 3 -58 l6 -40 2 38 c0 22 6 37 14 37 9 0
8 3 -2 9 -7 5 -10 14 -7 20 4 6 3 11 -2 11 -5 0 -11 -8 -14 -17z"/>
<path d="M13138 10515 c4 -30 1 -35 -17 -35 -14 0 -20 4 -15 12 4 7 3 8 -4 4
-20 -12 -13 -26 13 -26 17 0 25 -6 26 -17 0 -14 2 -15 6 -3 3 8 11 18 17 22 8
5 7 8 -1 8 -8 0 -13 14 -13 35 0 19 -4 35 -8 35 -4 0 -6 -16 -4 -35z"/>
<path d="M13239 10533 c0 -10 -1 -33 -2 -51 -1 -19 1 -36 5 -39 5 -2 8 21 8
51 0 31 -2 56 -5 56 -3 0 -5 -8 -6 -17z"/>
<path d="M13318 10515 c4 -30 1 -35 -17 -35 -14 0 -20 4 -15 12 4 7 3 8 -4 4
-20 -12 -13 -26 13 -26 17 0 25 -6 26 -17 0 -14 2 -15 6 -3 3 8 11 18 17 22 8
5 7 8 -1 8 -8 0 -13 14 -13 35 0 19 -4 35 -8 35 -4 0 -6 -16 -4 -35z"/>
<path d="M13370 10531 c-12 -24 -13 -51 0 -71 6 -10 8 -4 4 21 -4 26 -1 40 11
52 9 9 12 17 6 17 -6 0 -15 -9 -21 -19z"/>
<path d="M13417 10540 c6 -8 13 -28 16 -45 l4 -30 2 31 c0 20 -6 37 -16 45
-16 12 -16 12 -6 -1z"/>
<path d="M13621 10533 c0 -11 3 -13 6 -5 2 6 16 12 29 12 17 0 23 -4 18 -12
-4 -7 -3 -8 4 -4 23 14 12 26 -23 26 -27 0 -35 -4 -34 -17z"/>
<path d="M13767 10529 c4 -14 -4 -31 -28 -55 l-33 -34 40 1 c35 1 36 2 11 8
l-29 6 26 24 c26 25 34 55 17 65 -5 4 -7 -3 -4 -15z"/>
<path d="M13808 10533 c-2 -10 -1 -36 3 -58 l6 -40 2 38 c0 22 6 37 14 37 9 0
8 3 -2 9 -7 5 -10 14 -7 20 4 6 3 11 -2 11 -5 0 -11 -8 -14 -17z"/>
<path d="M13968 10515 c4 -30 1 -35 -17 -35 -14 0 -20 4 -15 12 4 7 3 8 -4 4
-20 -12 -13 -26 13 -26 17 0 25 -6 26 -17 0 -14 2 -15 6 -3 3 8 11 18 17 22 8
5 7 8 -1 8 -8 0 -13 14 -13 35 0 19 -4 35 -8 35 -4 0 -6 -16 -4 -35z"/>
<path d="M14020 10531 c-12 -24 -13 -51 0 -71 6 -10 8 -4 4 21 -4 26 -1 40 11
52 9 9 12 17 6 17 -6 0 -15 -9 -21 -19z"/>
<path d="M14067 10540 c6 -8 13 -28 16 -45 l4 -30 2 31 c0 20 -6 37 -16 45
-16 12 -16 12 -6 -1z"/>
<path d="M14111 10533 c0 -11 3 -13 6 -5 2 6 16 12 29 12 17 0 23 -4 18 -12
-4 -7 -3 -8 4 -4 23 14 12 26 -23 26 -27 0 -35 -4 -34 -17z"/>
<path d="M14257 10529 c4 -14 -4 -31 -28 -55 l-33 -34 40 1 c35 1 36 2 11 8
l-29 6 26 24 c26 25 34 55 17 65 -5 4 -7 -3 -4 -15z"/>
<path d="M14580 10531 c-12 -24 -13 -51 0 -71 6 -10 8 -4 4 21 -4 26 -1 40 11
52 9 9 12 17 6 17 -6 0 -15 -9 -21 -19z"/>
<path d="M14627 10540 c6 -8 13 -28 16 -45 l4 -30 2 31 c0 20 -6 37 -16 45
-16 12 -16 12 -6 -1z"/>
<path d="M14670 10533 c0 -11 3 -14 8 -7 4 6 14 14 22 17 10 4 8 6 -7 6 -16 1
-23 -5 -23 -16z"/>
<path d="M14723 10535 c0 -8 4 -12 9 -9 4 3 8 9 8 15 0 5 -4 9 -8 9 -5 0 -9
-7 -9 -15z"/>
<path d="M14919 10533 c0 -10 -1 -33 -2 -51 -1 -19 1 -36 5 -39 5 -2 8 21 8
51 0 31 -2 56 -5 56 -3 0 -5 -8 -6 -17z"/>
<path d="M10110 10516 c0 -2 9 -6 20 -9 11 -3 18 -1 14 4 -5 9 -34 13 -34 5z"/>
<path d="M10440 10505 c-15 -18 -10 -45 12 -59 12 -7 21 -7 28 0 8 8 4 10 -12
10 -18 -1 -23 4 -23 24 0 19 5 25 22 24 12 0 20 3 17 8 -8 13 -30 9 -44 -7z"/>
<path d="M10541 10514 c10 -3 17 -16 17 -30 0 -14 4 -30 9 -35 7 -7 8 3 4 28
-5 28 -11 38 -26 40 -13 1 -15 0 -4 -3z"/>
<path d="M10670 10516 c0 -2 9 -6 20 -9 11 -3 18 -1 14 4 -5 9 -34 13 -34 5z"/>
<path d="M10782 10495 c0 -16 2 -22 5 -12 2 9 2 23 0 30 -3 6 -5 -1 -5 -18z"/>
<path d="M11052 10495 c0 -16 2 -22 5 -12 2 9 2 23 0 30 -3 6 -5 -1 -5 -18z"/>
<path d="M11152 10508 c-22 -22 -7 -69 23 -68 5 0 2 5 -7 11 -10 5 -18 19 -18
29 0 10 8 24 18 29 9 6 12 11 7 11 -6 0 -16 -5 -23 -12z"/>
<path d="M11250 10516 c0 -2 9 -6 20 -9 11 -3 18 -1 14 4 -5 9 -34 13 -34 5z"/>
<path d="M11398 10513 c6 -2 12 -12 12 -21 0 -15 2 -15 10 -2 9 15 -4 30 -25
29 -5 0 -4 -3 3 -6z"/>
<path d="M11447 10513 c6 -4 13 -24 16 -43 4 -34 4 -33 3 4 -1 26 -6 41 -16
43 -10 3 -11 2 -3 -4z"/>
<path d="M12061 10502 c-1 -13 4 -32 9 -43 11 -19 44 -26 54 -10 3 4 -5 6 -18
4 -28 -6 -43 22 -24 45 8 10 9 13 1 9 -6 -4 -14 -1 -16 5 -3 7 -6 3 -6 -10z"/>
<path d="M12214 10509 c-3 -6 2 -18 12 -27 17 -16 17 -16 5 0 -7 9 -10 22 -6
28 3 5 4 10 1 10 -3 0 -8 -5 -12 -11z"/>
<path d="M12561 10514 c10 -3 17 -16 17 -30 0 -14 4 -30 9 -35 7 -7 8 3 4 28
-5 28 -11 38 -26 40 -13 1 -15 0 -4 -3z"/>
<path d="M12734 10509 c-3 -6 2 -18 12 -27 17 -16 17 -16 5 0 -7 9 -10 22 -6
28 3 5 4 10 1 10 -3 0 -8 -5 -12 -11z"/>
<path d="M12792 10508 c-22 -22 -7 -69 23 -68 5 0 2 5 -7 11 -10 5 -18 19 -18
29 0 10 8 24 18 29 9 6 12 11 7 11 -6 0 -16 -5 -23 -12z"/>
<path d="M12924 10509 c-3 -6 2 -18 12 -27 17 -16 17 -16 5 0 -7 9 -10 22 -6
28 3 5 4 10 1 10 -3 0 -8 -5 -12 -11z"/>
<path d="M13192 10508 c-22 -22 -7 -69 23 -68 5 0 2 5 -7 11 -10 5 -18 19 -18
29 0 10 8 24 18 29 9 6 12 11 7 11 -6 0 -16 -5 -23 -12z"/>
<path d="M14344 10509 c-3 -6 2 -18 12 -27 17 -16 17 -16 5 0 -7 9 -10 22 -6
28 3 5 4 10 1 10 -3 0 -8 -5 -12 -11z"/>
<path d="M14444 10509 c-3 -6 2 -18 12 -27 17 -16 17 -16 5 0 -7 9 -10 22 -6
28 3 5 4 10 1 10 -3 0 -8 -5 -12 -11z"/>
<path d="M14521 10514 c10 -3 17 -16 17 -30 0 -14 4 -30 9 -35 7 -7 8 3 4 28
-5 28 -11 38 -26 40 -13 1 -15 0 -4 -3z"/>
<path d="M14761 10502 c-1 -13 4 -32 9 -43 11 -19 44 -26 54 -10 3 4 -5 6 -18
4 -28 -6 -43 22 -24 45 8 10 9 13 1 9 -6 -4 -14 -1 -16 5 -3 7 -6 3 -6 -10z"/>
<path d="M14872 10508 c-22 -22 -7 -69 23 -68 5 0 2 5 -7 11 -10 5 -18 19 -18
29 0 10 8 24 18 29 9 6 12 11 7 11 -6 0 -16 -5 -23 -12z"/>
<path d="M14951 10502 c-1 -13 4 -32 9 -43 11 -19 44 -26 54 -10 3 4 -5 6 -18
4 -28 -6 -43 22 -24 45 8 10 9 13 1 9 -6 -4 -14 -1 -16 5 -3 7 -6 3 -6 -10z"/>
<path d="M12440 10499 c0 -5 5 -7 10 -4 6 3 10 8 10 11 0 2 -4 4 -10 4 -5 0
-10 -5 -10 -11z"/>
<path d="M12498 10483 c5 -21 7 -23 10 -9 2 10 0 22 -6 28 -6 6 -7 0 -4 -19z"/>
<path d="M13592 10480 c0 -19 2 -27 5 -17 2 9 2 25 0 35 -3 9 -5 1 -5 -18z"/>
<path d="M10091 10485 c-1 -25 17 -45 39 -44 10 0 9 3 -5 8 -11 4 -23 19 -26
32 -6 21 -7 21 -8 4z"/>
<path d="M10651 10485 c-1 -25 17 -45 39 -44 10 0 9 3 -5 8 -11 4 -23 19 -26
32 -6 21 -7 21 -8 4z"/>
<path d="M11231 10485 c-1 -25 17 -45 39 -44 10 0 9 3 -5 8 -11 4 -23 19 -26
32 -6 21 -7 21 -8 4z"/>
<path d="M11868 10483 c6 -2 18 -2 25 0 6 3 1 5 -13 5 -14 0 -19 -2 -12 -5z"/>
<path d="M12618 10483 c6 -2 18 -2 25 0 6 3 1 5 -13 5 -14 0 -19 -2 -12 -5z"/>
<path d="M13028 10483 c6 -2 18 -2 25 0 6 3 1 5 -13 5 -14 0 -19 -2 -12 -5z"/>
<path d="M13468 10483 c6 -2 18 -2 25 0 6 3 1 5 -13 5 -14 0 -19 -2 -12 -5z"/>
<path d="M13651 10483 c-1 -6 -4 -20 -7 -30 -5 -17 -5 -17 6 0 6 10 9 23 6 30
-3 9 -5 9 -5 0z"/>
<path d="M13858 10483 c6 -2 18 -2 25 0 6 3 1 5 -13 5 -14 0 -19 -2 -12 -5z"/>
<path d="M14141 10483 c-1 -6 -4 -20 -7 -30 -5 -17 -5 -17 6 0 6 10 9 23 6 30
-3 9 -5 9 -5 0z"/>
<path d="M14701 10483 c-1 -6 -4 -20 -7 -30 -5 -17 -5 -17 6 0 6 10 9 23 6 30
-3 9 -5 9 -5 0z"/>
<path d="M10515 10470 c-9 -15 4 -30 23 -29 15 1 14 2 -1 6 -11 3 -16 11 -13
19 6 16 0 19 -9 4z"/>
<path d="M12160 10474 c0 -26 51 -46 64 -25 4 5 -4 7 -15 4 -15 -4 -27 0 -35
12 -8 11 -14 14 -14 9z"/>
<path d="M12535 10470 c-9 -15 4 -30 23 -29 15 1 14 2 -1 6 -11 3 -16 11 -13
19 6 16 0 19 -9 4z"/>
<path d="M12680 10474 c0 -26 51 -46 64 -25 4 5 -4 7 -15 4 -15 -4 -27 0 -35
12 -8 11 -14 14 -14 9z"/>
<path d="M12870 10474 c0 -26 51 -46 64 -25 4 5 -4 7 -15 4 -15 -4 -27 0 -35
12 -8 11 -14 14 -14 9z"/>
<path d="M14290 10474 c0 -26 51 -46 64 -25 4 5 -4 7 -15 4 -15 -4 -27 0 -35
12 -8 11 -14 14 -14 9z"/>
<path d="M14390 10474 c0 -26 51 -46 64 -25 4 5 -4 7 -15 4 -15 -4 -27 0 -35
12 -8 11 -14 14 -14 9z"/>
<path d="M14495 10470 c-9 -15 4 -30 23 -29 15 1 14 2 -1 6 -11 3 -16 11 -13
19 6 16 0 19 -9 4z"/>
<path d="M11659 10458 c14 -19 46 -24 55 -9 4 5 -3 7 -14 4 -11 -3 -28 1 -38
8 -15 13 -16 12 -3 -3z"/>
<path d="M12452 10454 c9 -9 21 -15 27 -13 6 2 -2 10 -17 17 -25 11 -25 11
-10 -4z"/>
<path d="M10797 10449 c7 -7 15 -10 18 -7 3 3 -2 9 -12 12 -14 6 -15 5 -6 -5z"/>
<path d="M11067 10449 c7 -7 15 -10 18 -7 3 3 -2 9 -12 12 -14 6 -15 5 -6 -5z"/>
<path d="M11510 10441 c0 -11 -5 -22 -10 -24 -6 -3 -5 -4 1 -3 15 3 32 46 19
46 -6 0 -10 -9 -10 -19z"/>
<path d="M13405 10450 c-16 -7 -17 -9 -3 -9 9 -1 20 4 23 9 7 11 7 11 -20 0z"/>
<path d="M14055 10450 c-16 -7 -17 -9 -3 -9 9 -1 20 4 23 9 7 11 7 11 -20 0z"/>
<path d="M14615 10450 c-16 -7 -17 -9 -3 -9 9 -1 20 4 23 9 7 11 7 11 -20 0z"/>
<path d="M13211 10193 c1 -32 4 -46 6 -30 2 15 9 27 16 27 6 0 22 -12 35 -27
19 -23 21 -24 8 -4 -10 16 -12 29 -6 36 7 8 1 10 -20 7 -26 -4 -30 -1 -30 18
0 19 4 22 29 18 17 -2 28 -1 25 4 -3 4 -18 8 -35 8 -29 0 -29 0 -28 -57z"/>
<path d="M13408 10233 c-2 -10 -1 -36 3 -58 l6 -40 2 38 c0 22 6 37 14 37 9 0
8 3 -2 9 -7 5 -10 14 -7 20 4 6 3 11 -2 11 -5 0 -11 -8 -14 -17z"/>
<path d="M14000 10195 c0 -32 2 -56 4 -54 8 7 10 98 3 105 -4 4 -7 -19 -7 -51z"/>
<path d="M14071 10211 c-1 -39 -3 -42 -18 -30 -13 11 -13 8 3 -16 l19 -29 3
32 c2 18 1 45 -1 60 -3 18 -4 13 -6 -17z"/>
<path d="M14670 10231 c-12 -24 -13 -51 0 -71 6 -10 8 -4 4 21 -4 26 -1 40 11
52 9 9 12 17 6 17 -6 0 -15 -9 -21 -19z"/>
<path d="M14717 10240 c6 -8 13 -28 16 -45 l4 -30 2 31 c0 20 -6 37 -16 45
-16 12 -16 12 -6 -1z"/>
<path d="M14770 10231 c-12 -24 -13 -51 0 -71 6 -10 8 -4 4 21 -4 26 -1 40 11
52 9 9 12 17 6 17 -6 0 -15 -9 -21 -19z"/>
<path d="M14817 10240 c6 -8 13 -28 16 -45 l4 -30 2 31 c0 20 -6 37 -16 45
-16 12 -16 12 -6 -1z"/>
<path d="M14870 10231 c-12 -24 -13 -51 0 -71 6 -10 8 -4 4 21 -4 26 -1 40 11
52 9 9 12 17 6 17 -6 0 -15 -9 -21 -19z"/>
<path d="M14917 10240 c6 -8 13 -28 16 -45 l4 -30 2 31 c0 20 -6 37 -16 45
-16 12 -16 12 -6 -1z"/>
<path d="M15008 10215 c4 -30 1 -35 -17 -35 -14 0 -20 4 -15 12 4 7 3 8 -4 4
-20 -12 -13 -26 13 -26 17 0 25 -6 26 -17 0 -14 2 -15 6 -3 3 8 11 18 17 22 8
5 7 8 -1 8 -8 0 -13 14 -13 35 0 19 -4 35 -8 35 -4 0 -6 -16 -4 -35z"/>
<path d="M13330 10216 c0 -2 9 -6 20 -9 11 -3 18 -1 14 4 -5 9 -34 13 -34 5z"/>
<path d="M13470 10216 c0 -2 9 -6 20 -9 11 -3 18 -1 14 4 -5 9 -34 13 -34 5z"/>
<path d="M13620 10216 c0 -2 9 -6 20 -9 11 -3 18 -1 14 4 -5 9 -34 13 -34 5z"/>
<path d="M13720 10216 c0 -2 7 -7 16 -10 8 -3 12 -2 9 4 -6 10 -25 14 -25 6z"/>
<path d="M13790 10205 c-15 -18 -10 -45 12 -59 12 -7 21 -7 28 0 8 8 4 10 -12
10 -18 -1 -23 4 -23 24 0 19 5 25 22 24 12 0 20 3 17 8 -8 13 -30 9 -44 -7z"/>
<path d="M13880 10216 c0 -2 9 -6 20 -9 11 -3 18 -1 14 4 -5 9 -34 13 -34 5z"/>
<path d="M14111 10204 c0 -11 3 -14 6 -6 3 7 2 16 -1 19 -3 4 -6 -2 -5 -13z"/>
<path d="M14238 10213 c6 -2 12 -12 12 -21 0 -15 2 -15 10 -2 9 15 -4 30 -25
29 -5 0 -4 -3 3 -6z"/>
<path d="M14287 10213 c6 -4 13 -24 16 -43 4 -34 4 -33 3 4 -1 26 -6 41 -16
43 -10 3 -11 2 -3 -4z"/>
<path d="M14450 10216 c0 -2 9 -6 20 -9 11 -3 18 -1 14 4 -5 9 -34 13 -34 5z"/>
<path d="M14402 10180 c0 -19 2 -27 5 -17 2 9 2 25 0 35 -3 9 -5 1 -5 -18z"/>
<path d="M13311 10185 c-1 -25 17 -45 39 -44 10 0 9 3 -5 8 -11 4 -23 19 -26
32 -6 21 -7 21 -8 4z"/>
<path d="M13451 10185 c-1 -25 17 -45 39 -44 10 0 9 3 -5 8 -11 4 -23 19 -26
32 -6 21 -7 21 -8 4z"/>
<path d="M13601 10185 c-1 -25 17 -45 39 -44 10 0 9 3 -5 8 -11 4 -23 19 -26
32 -6 21 -7 21 -8 4z"/>
<path d="M13861 10185 c-1 -25 17 -45 39 -44 10 0 9 3 -5 8 -11 4 -23 19 -26
32 -6 21 -7 21 -8 4z"/>
<path d="M14431 10185 c-1 -25 17 -45 39 -44 10 0 9 3 -5 8 -11 4 -23 19 -26
32 -6 21 -7 21 -8 4z"/>
<path d="M14127 10149 c7 -7 15 -10 18 -7 3 3 -2 9 -12 12 -14 6 -15 5 -6 -5z"/>
<path d="M14805 10150 c-16 -7 -17 -9 -3 -9 9 -1 20 4 23 9 7 11 7 11 -20 0z"/>
<path d="M14905 10150 c-16 -7 -17 -9 -3 -9 9 -1 20 4 23 9 7 11 7 11 -20 0z"/>
<path d="M1000 8780 c-27 -27 -35 -65 -20 -101 14 -33 37 -49 72 -49 34 0 66
25 52 40 -8 8 -14 9 -18 1 -4 -6 -21 -11 -37 -11 -22 0 -32 6 -39 26 -22 57
20 110 64 81 32 -21 56 -5 25 17 -32 22 -75 20 -99 -4z"/>
<path d="M1180 8715 l0 -85 60 0 c47 0 60 3 60 15 0 11 -12 15 -45 15 -38 0
-45 3 -45 20 0 17 7 20 40 20 29 0 40 4 40 15 0 11 -11 15 -40 15 -33 0 -40 3
-40 20 0 17 7 20 40 20 29 0 40 4 40 15 0 12 -13 15 -55 15 l-55 0 0 -85z"/>
<path d="M1360 8716 c0 -68 3 -86 14 -86 9 0 16 12 18 32 4 44 24 46 49 4 13
-22 29 -36 41 -36 19 0 19 1 -2 31 -20 28 -21 31 -6 48 18 19 20 48 7 70 -5 8
-32 16 -65 19 l-56 4 0 -86z m95 29 c0 -15 -8 -21 -32 -23 -30 -3 -33 -1 -33
23 0 24 3 26 33 23 24 -2 32 -8 32 -23z"/>
<path d="M1540 8786 c0 -8 10 -16 23 -18 20 -3 22 -9 25 -70 2 -52 6 -68 17
-68 12 0 15 15 15 70 0 63 2 70 20 70 11 0 20 7 20 15 0 12 -13 15 -60 15 -45
0 -60 -3 -60 -14z"/>
<path d="M1720 8715 c0 -69 3 -85 15 -85 12 0 15 16 15 85 0 69 -3 85 -15 85
-12 0 -15 -16 -15 -85z"/>
<path d="M1810 8715 c0 -69 3 -85 15 -85 10 0 15 11 15 35 0 33 2 35 35 35 24
0 35 5 35 15 0 10 -11 15 -35 15 -28 0 -35 4 -35 20 0 17 7 20 40 20 29 0 40
4 40 15 0 12 -13 15 -55 15 l-55 0 0 -85z"/>
<path d="M1980 8715 c0 -69 3 -85 15 -85 12 0 15 16 15 85 0 69 -3 85 -15 85
-12 0 -15 -16 -15 -85z"/>
<path d="M2100 8780 c-27 -27 -35 -65 -20 -101 14 -33 37 -49 72 -49 34 0 66
25 52 40 -8 8 -14 9 -18 1 -4 -6 -21 -11 -37 -11 -22 0 -32 6 -39 26 -22 57
20 110 64 81 32 -21 56 -5 25 17 -32 22 -75 20 -99 -4z"/>
<path d="M2296 8723 c-14 -43 -26 -81 -26 -86 0 -16 28 -6 33 13 4 15 14 20
37 20 23 0 33 -5 37 -20 3 -11 13 -20 23 -20 17 0 17 6 -9 83 -22 64 -32 83
-48 85 -18 3 -25 -8 -47 -75z m58 15 c10 -38 7 -48 -14 -48 -11 0 -20 6 -20
13 0 23 12 57 20 57 4 0 10 -10 14 -22z"/>
<path d="M2450 8786 c0 -8 10 -16 23 -18 20 -3 22 -9 25 -70 2 -52 6 -68 17
-68 12 0 15 15 15 70 0 63 2 70 20 70 11 0 20 7 20 15 0 12 -13 15 -60 15 -45
0 -60 -3 -60 -14z"/>
<path d="M2630 8715 l0 -85 60 0 c47 0 60 3 60 15 0 11 -12 15 -45 15 -38 0
-45 3 -45 20 0 17 7 20 40 20 29 0 40 4 40 15 0 11 -11 15 -40 15 -33 0 -40 3
-40 20 0 17 7 20 40 20 29 0 40 4 40 15 0 12 -13 15 -55 15 l-55 0 0 -85z"/>
<path d="M2910 8780 c-27 -27 -35 -65 -20 -101 34 -82 150 -54 150 36 0 70
-83 112 -130 65z m78 -16 c43 -30 22 -104 -29 -104 -23 0 -32 6 -39 26 -12 31
-3 71 19 84 21 13 23 12 49 -6z"/>
<path d="M3090 8715 c0 -69 3 -85 15 -85 10 0 15 11 15 35 0 33 2 35 35 35 24
0 35 5 35 15 0 10 -11 15 -35 15 -28 0 -35 4 -35 20 0 17 7 20 40 20 29 0 40
4 40 15 0 12 -13 15 -55 15 l-55 0 0 -85z"/>
<path d="M3350 8780 c-27 -27 -35 -65 -20 -101 14 -33 37 -49 72 -49 34 0 66
25 52 40 -8 8 -14 9 -18 1 -4 -6 -21 -11 -37 -11 -22 0 -32 6 -39 26 -22 57
20 110 64 81 32 -21 56 -5 25 17 -32 22 -75 20 -99 -4z"/>
<path d="M3550 8780 c-27 -27 -35 -65 -20 -101 34 -82 150 -54 150 36 0 70
-83 112 -130 65z m78 -16 c43 -30 22 -104 -29 -104 -23 0 -32 6 -39 26 -12 31
-3 71 19 84 21 13 23 12 49 -6z"/>
<path d="M3740 8715 c0 -69 3 -85 15 -85 12 0 15 15 16 68 1 70 5 67 29 -25
15 -60 35 -55 55 15 9 31 18 62 20 67 2 6 4 -20 4 -57 1 -53 4 -68 16 -68 12
0 15 16 15 85 0 83 -1 85 -24 85 -20 0 -26 -8 -41 -62 l-18 -63 -14 50 c-8 28
-16 56 -18 63 -3 6 -16 12 -30 12 -25 0 -25 -1 -25 -85z"/>
<path d="M3980 8715 c0 -67 3 -85 14 -85 9 0 16 12 18 33 3 29 7 32 42 37 45
6 62 26 53 62 -7 28 -30 38 -89 38 l-38 0 0 -85z m95 30 c0 -15 -8 -21 -32
-23 -30 -3 -33 -1 -33 23 0 24 3 26 33 23 24 -2 32 -8 32 -23z"/>
<path d="M4170 8715 l0 -85 50 0 c38 0 50 4 50 15 0 10 -11 15 -35 15 l-35 0
0 70 c0 56 -3 70 -15 70 -12 0 -15 -16 -15 -85z"/>
<path d="M4330 8715 l0 -85 60 0 c47 0 60 3 60 15 0 11 -12 15 -45 15 -38 0
-45 3 -45 20 0 17 7 20 40 20 29 0 40 4 40 15 0 11 -11 15 -40 15 -33 0 -40 3
-40 20 0 17 7 20 40 20 29 0 40 4 40 15 0 12 -13 15 -55 15 l-55 0 0 -85z"/>
<path d="M4490 8786 c0 -8 10 -16 23 -18 20 -3 22 -9 25 -70 2 -52 6 -68 17
-68 12 0 15 15 15 70 0 63 2 70 20 70 11 0 20 7 20 15 0 12 -13 15 -60 15 -45
0 -60 -3 -60 -14z"/>
<path d="M4670 8715 c0 -69 3 -85 15 -85 12 0 15 16 15 85 0 69 -3 85 -15 85
-12 0 -15 -16 -15 -85z"/>
<path d="M4793 8785 c-30 -21 -39 -74 -19 -113 25 -49 81 -57 121 -17 71 70
-21 187 -102 130z m75 -21 c43 -30 22 -104 -29 -104 -23 0 -32 6 -39 26 -12
31 -3 71 19 84 21 13 23 12 49 -6z"/>
<path d="M4980 8715 c0 -68 3 -85 15 -85 10 0 15 15 17 58 l3 57 35 -57 c21
-36 42 -58 52 -58 16 0 18 10 18 85 0 68 -3 85 -15 85 -10 0 -15 -15 -17 -57
l-3 -58 -35 57 c-21 34 -42 58 -52 58 -16 0 -18 -11 -18 -85z"/>
<path d="M4369 8181 c-17 -18 -29 -40 -29 -56 0 -32 49 -85 80 -85 29 0 76 26
84 45 17 46 4 91 -35 110 -42 22 -67 18 -100 -14z"/>
<path d="M8678 8172 c-85 -27 -117 -42 -85 -42 8 0 23 -7 31 -16 14 -13 16
-54 16 -294 0 -153 -3 -286 -6 -295 -4 -9 -18 -22 -33 -28 -23 -11 -19 -12 41
-15 38 -2 98 -2 135 0 68 3 68 3 38 18 l-30 15 -3 165 c-2 146 -1 166 15 177
29 22 70 16 92 -13 19 -24 21 -40 21 -181 0 -146 -1 -155 -20 -160 -52 -14 -9
-23 107 -23 125 0 134 2 91 24 -22 11 -23 18 -29 181 -6 189 -15 221 -72 255
-57 35 -128 23 -178 -31 l-29 -31 0 161 c0 89 -3 161 -7 160 -5 0 -47 -12 -95
-27z"/>
<path d="M10625 8161 c-69 -31 -108 -87 -129 -183 -5 -23 -12 -28 -36 -28 -23
0 -30 -4 -30 -20 0 -16 7 -20 30 -20 l30 0 -2 -197 c-3 -194 -3 -198 -26 -209
-12 -6 -25 -14 -29 -18 -3 -3 60 -6 141 -6 96 0 145 4 141 10 -3 6 -15 10 -25
10 -46 0 -50 20 -50 221 l0 189 65 0 c58 0 65 2 65 20 0 18 -7 20 -69 20 l-69
0 -16 40 c-20 51 -20 99 0 128 24 34 51 27 86 -23 26 -37 37 -45 63 -45 40 0
55 16 55 56 0 68 -103 97 -195 55z"/>
<path d="M3447 8125 c-61 -20 -123 -81 -133 -129 -18 -96 38 -172 178 -242 48
-24 103 -58 122 -75 31 -26 36 -37 36 -73 0 -119 -181 -143 -260 -34 -15 21
-36 65 -46 98 -10 33 -21 60 -26 60 -4 0 -8 -49 -8 -108 l0 -108 49 -18 c75
-27 186 -32 254 -12 112 33 185 137 158 227 -20 65 -71 112 -191 174 -60 30
-118 67 -129 81 -59 75 17 162 117 135 59 -16 87 -43 118 -116 16 -36 32 -65
36 -65 5 0 8 42 8 93 l0 94 -42 13 c-68 20 -186 22 -241 5z"/>
<path d="M990 8110 c0 -5 8 -10 18 -10 10 0 28 -7 40 -16 22 -15 22 -18 22
-283 0 -247 -1 -269 -18 -284 -10 -10 -26 -17 -35 -17 -9 0 -19 -5 -23 -11 -4
-8 50 -10 192 -7 170 4 209 8 265 26 84 28 148 83 180 154 33 75 33 202 1 273
-64 140 -186 185 -498 185 -89 0 -144 -4 -144 -10z m395 -54 c30 -16 47 -35
70 -81 27 -55 30 -68 30 -165 0 -122 -15 -183 -57 -234 -31 -38 -101 -66 -165
-66 l-33 0 0 291 0 290 58 -6 c31 -4 75 -17 97 -29z"/>
<path d="M7060 8110 c0 -5 8 -10 18 -10 10 0 28 -7 40 -16 22 -15 22 -18 22
-283 0 -247 -1 -269 -18 -284 -10 -10 -26 -17 -35 -17 -9 0 -19 -4 -22 -10 -4
-7 53 -10 165 -10 112 0 169 3 165 10 -3 6 -17 10 -31 10 -13 0 -33 9 -44 20
-18 18 -20 33 -20 129 l0 109 108 4 c89 3 115 7 157 28 72 36 98 79 93 155 -8
139 -96 175 -425 175 -109 0 -173 -4 -173 -10z m355 -34 c48 -20 75 -68 75
-134 0 -103 -36 -144 -138 -158 l-52 -7 0 157 0 156 40 0 c22 0 56 -6 75 -14z"/>
<path d="M11930 8110 c0 -5 8 -10 18 -10 10 0 28 -7 40 -16 22 -15 22 -18 22
-283 0 -247 -1 -269 -18 -284 -10 -10 -26 -17 -35 -17 -9 0 -19 -5 -23 -11 -4
-8 50 -10 192 -7 170 4 209 8 265 26 84 28 148 83 180 154 33 75 33 202 1 273
-64 140 -186 185 -498 185 -89 0 -144 -4 -144 -10z m395 -54 c30 -16 47 -35
70 -81 27 -55 30 -68 30 -165 0 -122 -15 -183 -57 -234 -31 -38 -101 -66 -165
-66 l-33 0 0 291 0 290 58 -6 c31 -4 75 -17 97 -29z"/>
<path d="M2353 8057 c-47 -40 -62 -58 -62 -79 -1 -26 -4 -28 -41 -28 -33 0
-40 -3 -40 -19 0 -16 8 -20 38 -23 l37 -3 5 -188 5 -189 33 -29 c24 -22 42
-29 73 -29 50 0 103 24 129 58 28 35 25 43 -12 25 -28 -14 -35 -14 -57 -2
l-26 15 -3 172 -2 172 55 0 c48 0 55 2 55 20 0 18 -7 20 -55 20 l-55 0 0 80
c0 44 -3 80 -7 79 -5 0 -36 -23 -70 -52z"/>
<path d="M8343 8057 c-47 -40 -62 -58 -62 -79 -1 -26 -4 -28 -41 -28 -33 0
-40 -3 -40 -19 0 -16 8 -20 38 -23 l37 -3 5 -188 5 -189 33 -29 c24 -22 42
-29 73 -29 50 0 103 24 129 58 28 35 25 43 -12 25 -28 -14 -35 -14 -57 -2
l-26 15 -3 172 -2 172 55 0 c48 0 55 2 55 20 0 18 -7 20 -55 20 l-55 0 0 80
c0 44 -3 80 -7 79 -5 0 -36 -23 -70 -52z"/>
<path d="M13293 8057 c-47 -40 -62 -58 -62 -79 -1 -26 -4 -28 -41 -28 -33 0
-40 -3 -40 -19 0 -16 8 -20 38 -23 l37 -3 5 -188 5 -189 33 -29 c24 -22 42
-29 73 -29 50 0 103 24 129 58 28 35 25 43 -12 25 -28 -14 -35 -14 -57 -2
l-26 15 -3 172 -2 172 55 0 c48 0 55 2 55 20 0 18 -7 20 -55 20 l-55 0 0 80
c0 44 -3 80 -7 79 -5 0 -36 -23 -70 -52z"/>
<path d="M1844 7937 c-52 -25 -97 -73 -107 -114 -5 -22 -2 -23 54 -23 l59 0 0
31 c0 32 15 69 34 81 6 4 25 8 43 8 43 0 63 -30 63 -97 0 -45 -3 -53 -22 -59
-57 -17 -188 -88 -214 -115 -49 -51 -30 -130 41 -163 61 -29 112 -19 167 32
15 14 29 24 30 21 2 -2 8 -13 14 -24 28 -51 108 -56 164 -9 31 27 32 51 1 35
-40 -22 -46 -1 -46 167 0 134 -3 162 -18 185 -29 44 -62 60 -140 64 -61 3 -80
0 -123 -20z m144 -284 c-3 -84 -4 -88 -30 -100 -38 -19 -75 -2 -94 42 -20 49
-3 82 61 117 28 15 54 28 58 28 4 0 6 -39 5 -87z"/>
<path d="M2724 7937 c-52 -25 -97 -73 -107 -114 -5 -22 -2 -23 54 -23 l59 0 0
31 c0 32 15 69 34 81 6 4 25 8 43 8 43 0 63 -30 63 -97 0 -45 -3 -53 -22 -59
-57 -17 -188 -88 -214 -115 -49 -51 -30 -130 41 -163 61 -29 112 -19 167 32
15 14 29 24 30 21 2 -2 8 -13 14 -24 28 -51 108 -56 164 -9 31 27 32 51 1 35
-40 -22 -46 -1 -46 167 0 134 -3 162 -18 185 -29 44 -62 60 -140 64 -61 3 -80
0 -123 -20z m144 -284 c-3 -84 -4 -88 -30 -100 -38 -19 -75 -2 -94 42 -20 49
-3 82 61 117 28 15 54 28 58 28 4 0 6 -39 5 -87z"/>
<path d="M4012 7947 c-19 -6 -55 -30 -82 -54 -164 -147 -85 -423 120 -423 59
0 100 21 148 75 36 41 50 65 39 65 -1 0 -20 -9 -42 -20 -106 -54 -214 13 -223
140 -6 80 4 123 35 160 38 46 70 38 102 -24 33 -63 49 -73 89 -57 38 16 48 42
32 81 -24 57 -131 85 -218 57z"/>
<path d="M4385 7926 c-97 -32 -100 -35 -50 -51 13 -4 15 -30 13 -182 -3 -173
-4 -178 -26 -189 -44 -22 -34 -24 102 -24 89 0 135 4 131 10 -3 6 -14 10 -25
10 -10 0 -21 7 -24 16 -3 9 -6 112 -6 230 0 118 -3 214 -7 213 -5 0 -53 -15
-108 -33z"/>
<path d="M4752 7947 c-52 -19 -100 -64 -129 -120 -36 -70 -39 -181 -6 -243 28
-52 72 -90 121 -104 94 -26 174 0 243 78 41 47 40 66 -3 38 -13 -8 -40 -18
-61 -21 -103 -19 -183 41 -202 153 l-7 42 157 0 158 0 -7 42 c-18 111 -147
177 -264 135z m118 -59 c11 -18 20 -43 20 -55 0 -22 -3 -23 -86 -23 l-86 0 6
32 c10 49 42 78 88 78 32 0 41 -5 58 -32z"/>
<path d="M5163 7929 c-90 -29 -118 -49 -69 -49 13 0 27 -7 30 -16 10 -27 7
-324 -4 -345 -6 -10 -17 -19 -25 -19 -7 0 -17 -4 -20 -10 -4 -6 39 -10 121
-10 l127 0 -27 25 -26 25 2 162 3 163 38 9 c34 9 40 7 65 -17 25 -26 27 -33
30 -137 5 -141 -3 -201 -29 -207 -51 -14 -7 -23 108 -23 125 0 134 2 91 24
-22 11 -23 17 -29 181 -6 180 -11 205 -54 245 -22 21 -37 25 -85 25 -55 0 -62
-3 -100 -40 l-40 -39 0 42 c0 23 -3 42 -7 41 -5 0 -50 -14 -100 -30z"/>
<path d="M5820 7947 c-19 -6 -58 -34 -87 -62 -41 -40 -55 -62 -68 -109 -46
-159 47 -306 195 -306 59 0 100 21 148 75 36 41 50 65 39 65 -1 0 -20 -9 -42
-20 -106 -54 -214 13 -223 140 -6 80 4 123 35 160 38 46 70 38 102 -24 33 -63
49 -73 89 -57 38 16 48 42 32 81 -24 58 -131 85 -220 57z"/>
<path d="M6262 7947 c-52 -19 -100 -64 -129 -120 -36 -70 -39 -181 -6 -243 28
-52 72 -90 121 -104 94 -26 174 0 243 78 41 47 40 66 -3 38 -13 -8 -40 -18
-60 -21 -104 -19 -184 41 -203 153 l-7 42 157 0 158 0 -6 40 c-15 111 -148
179 -265 137z m118 -59 c11 -18 20 -43 20 -55 0 -22 -3 -23 -86 -23 l-86 0 6
32 c10 49 42 78 88 78 32 0 41 -5 58 -32z"/>
<path d="M6673 7950 c-77 -31 -46 -150 38 -150 83 0 111 108 38 145 -32 17
-44 18 -76 5z"/>
<path d="M9311 7946 c-84 -30 -161 -136 -161 -222 0 -97 53 -189 132 -230 43
-22 129 -29 182 -14 94 26 176 133 176 231 0 172 -169 293 -329 235z m111 -27
c52 -28 88 -230 59 -337 -31 -113 -128 -106 -163 12 -14 46 -17 226 -5 269 16
57 62 81 109 56z"/>
<path d="M9783 7929 c-90 -29 -118 -49 -69 -49 13 0 27 -7 30 -16 10 -27 7
-324 -4 -345 -6 -10 -17 -19 -25 -19 -7 0 -17 -4 -20 -10 -4 -6 39 -10 121
-10 l127 0 -27 25 -26 25 2 162 3 163 38 9 c34 9 40 7 65 -17 25 -26 27 -33
30 -137 5 -141 -3 -201 -29 -207 -51 -14 -7 -23 108 -23 125 0 134 2 91 24
-22 11 -23 17 -29 181 -6 180 -11 205 -54 245 -22 21 -37 25 -85 25 -55 0 -62
-3 -100 -40 l-40 -39 0 42 c0 23 -3 42 -7 41 -5 0 -50 -14 -100 -30z"/>
<path d="M10931 7946 c-84 -30 -161 -136 -161 -222 0 -97 53 -189 132 -230 43
-22 129 -29 182 -14 94 26 176 133 176 231 0 172 -169 293 -329 235z m111 -27
c52 -28 88 -230 59 -337 -31 -113 -128 -106 -163 12 -14 46 -17 226 -5 269 16
57 62 81 109 56z"/>
<path d="M11405 7926 c-97 -32 -100 -35 -50 -51 13 -4 15 -30 13 -182 l-3
-178 -30 -15 c-30 -15 -29 -15 43 -18 112 -4 221 2 197 11 -52 21 -50 15 -53
188 -2 145 -1 165 15 176 26 20 36 16 62 -22 17 -26 31 -35 52 -35 34 0 69 41
69 82 0 34 -39 78 -70 78 -31 0 -74 -25 -103 -60 -14 -16 -28 -30 -31 -30 -3
0 -6 20 -8 44 l-3 45 -100 -33z"/>
<path d="M12784 7937 c-52 -25 -97 -73 -107 -114 -5 -22 -2 -23 54 -23 l59 0
0 31 c0 32 15 69 34 81 6 4 25 8 43 8 43 0 63 -30 63 -97 0 -45 -3 -53 -22
-59 -57 -17 -188 -88 -214 -115 -49 -51 -30 -130 41 -163 61 -29 112 -19 167
32 15 14 29 24 30 21 2 -2 8 -13 14 -24 28 -51 108 -56 164 -9 31 27 32 51 1
35 -40 -22 -46 -1 -46 167 0 134 -3 162 -18 185 -29 44 -62 60 -140 64 -61 3
-80 0 -123 -20z m144 -284 c-3 -84 -4 -88 -30 -100 -38 -19 -75 -2 -94 42 -20
49 -3 82 61 117 28 15 54 28 58 28 4 0 6 -39 5 -87z"/>
<path d="M13664 7937 c-52 -25 -97 -73 -107 -114 -5 -22 -2 -23 54 -23 l59 0
0 31 c0 32 15 69 34 81 6 4 25 8 43 8 43 0 63 -30 63 -97 0 -45 -3 -53 -22
-59 -57 -17 -188 -88 -214 -115 -49 -51 -30 -130 41 -163 61 -29 112 -19 167
32 15 14 29 24 30 21 2 -2 8 -13 14 -24 28 -51 108 -56 164 -9 31 27 32 51 1
35 -40 -22 -46 -1 -46 167 0 134 -3 162 -18 185 -29 44 -62 60 -140 64 -61 3
-80 0 -123 -20z m144 -284 c-3 -84 -4 -88 -30 -100 -38 -19 -75 -2 -94 42 -20
49 -3 82 61 117 28 15 54 28 58 28 4 0 6 -39 5 -87z"/>
<path d="M7694 7928 c15 -14 67 -114 126 -242 l100 -218 -26 -59 c-15 -32 -30
-59 -34 -59 -3 0 -17 11 -30 25 -40 42 -90 28 -90 -25 0 -37 29 -60 74 -60 78
0 80 5 208 339 105 277 110 286 146 305 26 14 23 15 -58 15 -81 0 -84 -1 -57
-15 15 -8 27 -20 27 -28 0 -13 -33 -112 -70 -211 l-23 -59 -53 134 c-28 73
-50 139 -47 146 2 7 17 17 31 23 20 7 -9 10 -111 10 l-138 1 25 -22z"/>
<path d="M6655 7605 c-16 -15 -25 -36 -25 -55 0 -19 9 -40 25 -55 15 -16 36
-25 55 -25 19 0 40 9 55 25 16 15 25 36 25 55 0 19 -9 40 -25 55 -15 16 -36
25 -55 25 -19 0 -40 -9 -55 -25z"/>
<path d="M4089 7081 c-17 -18 -29 -40 -29 -56 0 -32 49 -85 80 -85 29 0 76 26
84 45 17 46 4 91 -35 110 -42 22 -67 18 -100 -14z"/>
<path d="M2853 7071 c-93 -30 -103 -36 -70 -45 14 -3 27 -16 31 -28 9 -37 7
-544 -3 -571 -5 -13 -20 -28 -33 -33 -28 -9 74 -17 179 -12 68 3 68 3 38 18
l-30 15 -3 343 c-2 264 -5 342 -15 341 -6 -1 -49 -13 -94 -28z"/>
<path d="M8520 7074 c-109 -35 -109 -35 -79 -46 15 -5 30 -19 33 -31 10 -36 7
-544 -3 -570 -5 -13 -20 -28 -33 -33 -28 -9 74 -17 179 -12 68 3 68 3 38 18
l-30 15 -3 343 c-2 264 -5 342 -15 341 -6 -1 -46 -12 -87 -25z"/>
<path d="M8840 7074 c-109 -35 -109 -35 -79 -46 15 -5 30 -19 33 -31 10 -36 7
-544 -3 -570 -5 -13 -20 -28 -33 -33 -28 -9 74 -17 179 -12 68 3 68 3 38 18
l-30 15 -3 343 c-2 264 -5 342 -15 341 -6 -1 -46 -12 -87 -25z"/>
<path d="M1293 7027 l-42 -21 -97 -250 c-100 -258 -138 -346 -152 -346 -5 0
-17 -7 -28 -15 -17 -13 -8 -14 94 -15 73 0 111 4 107 10 -3 6 -15 10 -25 10
-36 0 -53 29 -47 84 2 28 9 63 15 79 l12 27 114 0 114 0 26 -65 c33 -84 34
-113 1 -125 -14 -5 -25 -12 -25 -15 0 -3 65 -5 145 -5 80 0 145 4 145 9 0 5
-9 11 -19 14 -10 2 -26 15 -35 29 -8 13 -68 158 -132 321 -64 163 -120 296
-123 295 -3 0 -25 -10 -48 -21z m1 -271 c25 -65 46 -120 46 -122 0 -2 -43 -4
-96 -4 -87 0 -96 2 -90 18 36 97 90 232 92 230 1 -2 23 -56 48 -122z"/>
<path d="M5072 7019 c-43 -13 -106 -77 -122 -124 -13 -40 -4 -61 14 -30 6 11
25 34 43 52 28 30 37 33 88 33 49 0 60 -4 86 -29 24 -25 29 -38 29 -79 0 -101
-45 -176 -210 -353 l-101 -109 230 0 231 0 0 65 0 65 -147 0 -148 0 70 62
c172 152 217 214 217 299 0 98 -74 160 -188 158 -32 0 -74 -5 -92 -10z"/>
<path d="M5633 7009 c-117 -58 -191 -219 -166 -362 20 -119 79 -208 165 -251
68 -34 128 -34 196 0 181 90 225 384 82 547 -74 84 -187 111 -277 66z m151
-34 c39 -42 51 -106 51 -275 0 -172 -12 -234 -53 -275 -33 -33 -76 -33 -106 0
-40 43 -51 105 -51 285 0 136 3 173 18 213 31 78 95 102 141 52z"/>
<path d="M6172 7019 c-43 -13 -106 -77 -122 -124 -13 -40 -4 -61 14 -30 6 11
25 34 43 52 28 30 37 33 88 33 49 0 60 -4 86 -29 24 -25 29 -37 29 -80 0 -103
-40 -170 -211 -353 l-100 -108 230 0 231 0 0 65 0 65 -147 0 -148 0 70 62
c172 152 217 214 217 299 0 98 -74 160 -188 158 -32 0 -74 -5 -92 -10z"/>
<path d="M6682 7019 c-43 -13 -106 -77 -122 -124 -13 -40 -4 -61 14 -30 6 11
25 34 43 52 28 30 37 33 88 33 49 0 60 -4 86 -29 24 -25 29 -37 29 -80 0 -103
-40 -170 -211 -353 l-100 -108 230 0 231 0 0 65 0 65 -147 0 -148 0 70 62
c172 152 217 214 217 299 0 98 -74 160 -188 158 -32 0 -74 -5 -92 -10z"/>
<path d="M7240 7010 c0 -5 8 -10 18 -10 10 0 28 -7 40 -16 22 -15 22 -18 22
-283 0 -247 -1 -269 -18 -284 -10 -10 -26 -17 -35 -17 -9 0 -19 -4 -22 -10 -4
-7 53 -10 165 -10 112 0 169 3 165 10 -3 6 -17 10 -31 10 -13 0 -33 9 -44 20
-18 18 -20 33 -20 145 l0 125 56 0 c70 0 91 -11 115 -63 l19 -42 -1 125 c0
100 -3 119 -11 95 -21 -59 -45 -75 -115 -75 l-63 0 0 131 0 132 76 -6 c127
-11 188 -50 223 -143 28 -74 41 -67 35 18 -3 40 -7 92 -10 116 l-5 42 -280 0
c-179 0 -279 -4 -279 -10z"/>
<path d="M9230 7011 c0 -6 8 -11 18 -11 10 0 28 -7 40 -16 22 -15 22 -18 22
-283 0 -247 -1 -269 -18 -284 -10 -10 -26 -17 -35 -17 -9 0 -19 -4 -22 -10 -4
-7 62 -10 192 -10 208 0 282 10 344 46 127 74 95 242 -54 284 l-46 12 42 22
c76 41 112 121 83 190 -12 28 -27 42 -63 59 -44 20 -67 22 -275 25 -161 3
-228 1 -228 -7z m342 -31 c55 -16 78 -51 78 -119 0 -97 -46 -141 -147 -141
l-33 0 0 135 0 135 33 0 c17 0 49 -5 69 -10z m58 -308 c35 -27 50 -60 50 -115
0 -105 -49 -151 -153 -145 l-52 3 -3 144 -3 144 68 -6 c42 -4 77 -14 93 -25z"/>
<path d="M11133 6957 c-47 -40 -62 -58 -62 -79 -1 -26 -4 -28 -41 -28 -33 0
-40 -3 -40 -19 0 -16 8 -20 38 -23 l37 -3 5 -188 5 -189 33 -29 c24 -22 42
-29 73 -29 50 0 103 24 129 58 28 35 25 43 -12 25 -28 -14 -35 -14 -57 -2
l-26 15 -3 172 -2 172 55 0 c48 0 55 2 55 20 0 18 -7 20 -55 20 l-55 0 0 80
c0 44 -3 80 -7 79 -5 0 -36 -23 -70 -52z"/>
<path d="M1763 6829 c-90 -29 -118 -49 -69 -49 13 0 27 -7 30 -16 10 -27 7
-324 -4 -345 -6 -10 -17 -19 -25 -19 -7 0 -17 -4 -20 -10 -4 -6 39 -10 121
-10 l127 0 -27 25 -26 25 2 162 3 163 38 9 c34 9 40 7 65 -17 25 -26 27 -33
30 -137 5 -141 -3 -201 -29 -207 -51 -14 -7 -23 108 -23 125 0 134 2 91 24
-22 11 -23 17 -29 181 -6 180 -11 205 -54 245 -22 21 -37 25 -85 25 -55 0 -62
-3 -100 -40 l-40 -39 0 42 c0 23 -3 42 -7 41 -5 0 -50 -14 -100 -30z"/>
<path d="M2364 6837 c-52 -25 -97 -73 -107 -114 -5 -22 -2 -23 54 -23 l59 0 0
31 c0 32 15 69 34 81 6 4 25 8 43 8 43 0 63 -30 63 -97 0 -45 -3 -53 -22 -59
-57 -17 -188 -88 -214 -115 -49 -51 -30 -130 41 -163 61 -29 112 -19 167 32
15 14 29 24 30 21 2 -2 8 -13 14 -24 28 -51 108 -56 164 -9 31 27 32 51 1 35
-40 -22 -46 -1 -46 167 0 134 -3 162 -18 185 -29 44 -62 60 -140 64 -61 3 -80
0 -123 -20z m144 -284 c-3 -84 -4 -88 -30 -100 -38 -19 -75 -2 -94 42 -20 49
-3 82 61 117 28 15 54 28 58 28 4 0 6 -39 5 -87z"/>
<path d="M3680 6838 c-59 -30 -84 -74 -76 -131 9 -58 51 -106 128 -147 83 -43
108 -67 108 -101 0 -34 -24 -49 -77 -49 -56 0 -97 30 -124 89 -12 28 -26 51
-31 51 -4 0 -8 -34 -8 -75 0 -73 1 -76 28 -86 15 -6 59 -14 97 -16 152 -11
252 79 215 191 -14 43 -53 77 -134 118 -79 39 -106 65 -106 100 0 35 34 53 83
44 47 -9 85 -41 107 -90 l19 -41 0 76 1 76 -37 7 c-78 12 -148 7 -193 -16z"/>
<path d="M4105 6826 c-97 -32 -100 -35 -50 -51 13 -4 15 -30 13 -182 -3 -173
-4 -178 -26 -189 -44 -22 -34 -24 102 -24 89 0 135 4 131 10 -3 6 -14 10 -25
10 -10 0 -21 7 -24 16 -3 9 -6 112 -6 230 0 118 -3 214 -7 213 -5 0 -53 -15
-108 -33z"/>
<path d="M4430 6838 c-59 -30 -84 -74 -76 -131 9 -58 51 -106 128 -147 83 -43
108 -67 108 -101 0 -34 -24 -49 -77 -49 -56 0 -97 30 -124 89 -12 28 -26 51
-31 51 -4 0 -8 -34 -8 -75 0 -73 1 -76 28 -86 15 -6 59 -14 97 -16 152 -11
252 79 215 191 -14 43 -53 77 -134 118 -79 39 -106 65 -106 100 0 35 34 53 83
44 47 -9 85 -41 107 -90 l19 -41 0 76 1 76 -37 7 c-78 12 -148 7 -193 -16z"/>
<path d="M10081 6846 c-84 -30 -161 -136 -161 -222 0 -97 53 -189 132 -230 43
-22 129 -29 182 -14 94 26 176 133 176 231 0 172 -169 293 -329 235z m111 -27
c52 -28 88 -230 59 -337 -31 -113 -128 -106 -163 12 -14 46 -17 226 -5 269 16
57 62 81 109 56z"/>
<path d="M10631 6846 c-84 -30 -161 -136 -161 -222 0 -97 53 -189 132 -230 43
-22 129 -29 182 -14 94 26 176 133 176 231 0 172 -169 293 -329 235z m111 -27
c52 -28 88 -230 59 -337 -31 -113 -128 -106 -163 12 -14 46 -17 226 -5 269 16
57 62 81 109 56z"/>
<path d="M11550 6847 c-19 -6 -58 -34 -87 -62 -41 -40 -55 -62 -68 -109 -46
-159 47 -306 195 -306 59 0 100 21 148 75 36 41 50 65 39 65 -1 0 -20 -9 -42
-20 -106 -54 -214 13 -223 140 -6 80 4 123 35 160 38 46 70 38 102 -24 33 -63
49 -73 89 -57 38 16 48 42 32 81 -24 58 -131 85 -220 57z"/>
<path d="M11954 6837 c-52 -25 -97 -73 -107 -114 -5 -22 -2 -23 54 -23 l59 0
0 31 c0 32 15 69 34 81 6 4 25 8 43 8 43 0 63 -30 63 -97 0 -45 -3 -53 -22
-59 -57 -17 -188 -88 -214 -115 -49 -51 -30 -130 41 -163 61 -29 112 -19 167
32 15 14 29 24 30 21 2 -2 8 -13 14 -24 28 -51 108 -56 164 -9 31 27 32 51 1
35 -40 -22 -46 -1 -46 167 0 134 -3 162 -18 185 -29 44 -62 60 -140 64 -61 3
-80 0 -123 -20z m144 -284 c-3 -84 -4 -88 -30 -100 -38 -19 -75 -2 -94 42 -20
49 -3 82 61 117 28 15 54 28 58 28 4 0 6 -39 5 -87z"/>
<path d="M12433 6829 c-90 -29 -118 -49 -69 -49 13 0 27 -7 30 -16 10 -27 7
-324 -4 -345 -6 -10 -17 -19 -25 -19 -7 0 -17 -4 -20 -10 -4 -6 39 -10 121
-10 l127 0 -27 25 -26 25 2 162 3 163 38 9 c34 9 40 7 65 -17 25 -26 27 -33
30 -137 5 -141 -3 -201 -29 -207 -51 -14 -7 -23 108 -23 125 0 134 2 91 24
-22 11 -23 18 -28 171 -5 147 -3 161 14 178 26 24 63 21 91 -8 24 -23 25 -28
25 -169 0 -151 -4 -176 -25 -176 -8 0 -17 -4 -20 -10 -4 -6 38 -10 119 -10 71
0 126 4 126 9 0 5 -10 11 -22 13 -31 4 -36 30 -37 201 -1 168 -11 205 -63 237
-61 37 -141 20 -193 -41 -19 -23 -30 -30 -33 -20 -2 7 -17 28 -32 45 -26 28
-34 31 -89 31 -56 0 -62 -2 -101 -40 l-40 -39 0 42 c0 23 -3 42 -7 41 -5 0
-50 -14 -100 -30z"/>
<path d="M13271 6829 c-104 -32 -112 -36 -87 -44 9 -3 23 -7 31 -10 13 -4 15
-41 13 -277 -3 -272 -3 -272 -26 -284 -12 -6 -25 -14 -29 -18 -3 -3 60 -6 141
-6 96 0 145 4 141 10 -3 6 -15 10 -25 10 -37 0 -50 27 -50 107 0 67 2 74 18
68 133 -51 275 54 289 215 19 211 -161 340 -287 205 l-25 -27 -5 40 -5 40 -94
-29z m211 -79 c51 -40 81 -174 58 -259 -21 -79 -83 -114 -138 -75 -21 15 -22
21 -22 179 0 121 3 165 13 168 27 12 66 6 89 -13z"/>
<path d="M3064 6828 c15 -14 67 -114 126 -242 l100 -218 -26 -59 c-15 -32 -30
-59 -34 -59 -3 0 -17 11 -30 25 -40 42 -90 28 -90 -25 0 -37 29 -60 74 -60 78
0 80 5 208 339 105 277 110 286 146 305 26 14 23 15 -58 15 -81 0 -84 -1 -57
-15 15 -8 27 -20 27 -28 0 -13 -33 -112 -70 -211 l-23 -59 -53 134 c-28 73
-50 139 -47 146 2 7 17 17 31 23 20 7 -9 10 -111 10 l-138 1 25 -22z"/>
<path d="M7913 6832 c-46 -8 -83 -19 -83 -23 0 -5 9 -9 20 -9 32 0 40 -33 40
-177 0 -113 4 -145 19 -179 31 -69 121 -95 188 -54 17 10 37 28 43 39 16 30
30 26 30 -8 0 -17 5 -33 10 -36 11 -7 180 45 180 56 0 4 -11 10 -25 13 -15 4
-27 16 -31 30 -3 12 -4 100 -2 194 2 103 -1 172 -6 172 -33 0 -196 -35 -196
-42 0 -4 9 -8 20 -8 34 0 41 -32 38 -182 l-3 -143 -27 -12 c-40 -20 -74 -2
-88 44 -7 23 -10 97 -8 191 3 175 17 160 -119 134z"/>
<path d="M980 5745 c0 -50 4 -85 10 -85 6 0 10 35 10 85 0 50 -4 85 -10 85 -6
0 -10 -35 -10 -85z"/>
<path d="M1298 5824 c-5 -4 -8 -16 -8 -26 0 -10 -7 -18 -17 -18 -17 -1 -17 -1
-1 -13 10 -8 18 -31 20 -58 3 -39 6 -44 28 -47 22 -2 23 -1 8 8 -12 7 -18 23
-18 47 0 22 7 41 18 49 16 12 16 13 0 14 -10 0 -18 10 -20 26 -2 14 -6 22 -10
18z"/>
<path d="M1728 5824 c-5 -4 -8 -16 -8 -26 0 -10 -7 -18 -17 -18 -17 -1 -17 -1
-1 -13 10 -8 18 -31 20 -58 3 -39 6 -44 28 -47 22 -2 23 -1 8 8 -12 7 -18 23
-18 47 0 22 7 41 18 49 16 12 16 13 0 14 -10 0 -18 10 -20 26 -2 14 -6 22 -10
18z"/>
<path d="M2315 5818 c-3 -7 -16 -46 -29 -85 -23 -69 -24 -73 -6 -73 10 0 20 7
24 15 3 9 18 15 36 15 18 0 33 -6 36 -15 4 -8 15 -15 26 -15 12 0 18 5 15 13
-2 6 -15 45 -28 85 -20 62 -26 72 -46 72 -13 0 -26 -6 -28 -12z m39 -60 c9
-35 8 -38 -14 -38 -11 0 -20 3 -20 8 0 19 13 52 20 52 4 0 10 -10 14 -22z"/>
<path d="M2440 5745 c0 -67 3 -85 14 -85 10 0 16 14 18 42 2 31 8 44 21 46 14
3 17 -4 17 -42 0 -39 3 -46 20 -46 17 0 20 7 20 49 0 55 -16 76 -55 69 -22 -5
-25 -2 -25 23 0 19 -5 29 -15 29 -12 0 -15 -16 -15 -85z"/>
<path d="M3020 5802 c0 -26 -3 -28 -28 -24 -36 5 -62 -19 -62 -58 0 -42 23
-59 80 -58 l50 0 0 84 c0 77 -2 84 -20 84 -15 0 -20 -7 -20 -28z m-2 -75 c5
-23 -15 -47 -34 -40 -8 3 -14 18 -14 35 0 25 4 29 22 26 13 -2 24 -11 26 -21z"/>
<path d="M3140 5745 c0 -78 2 -85 20 -85 18 0 20 7 20 85 0 78 -2 85 -20 85
-18 0 -20 -7 -20 -85z"/>
<path d="M3210 5746 l0 -83 45 -1 c52 -1 75 16 75 58 0 39 -26 63 -62 58 -25
-4 -28 -2 -28 24 0 18 -5 28 -15 28 -12 0 -15 -16 -15 -84z m84 -11 c8 -23 -4
-45 -25 -45 -22 0 -34 22 -25 45 3 8 14 15 25 15 10 0 21 -7 25 -15z"/>
<path d="M3580 5745 c0 -67 3 -85 14 -85 10 0 16 14 18 42 2 31 8 44 21 46 14
3 17 -4 17 -42 0 -39 3 -46 20 -46 17 0 20 7 20 49 0 55 -16 76 -55 69 -22 -5
-25 -2 -25 23 0 19 -5 29 -15 29 -12 0 -15 -16 -15 -85z"/>
<path d="M3720 5815 c0 -8 7 -15 15 -15 8 0 15 7 15 15 0 8 -7 15 -15 15 -8 0
-15 -7 -15 -15z"/>
<path d="M4185 5810 c-24 -27 -7 -67 32 -76 48 -10 53 -13 53 -29 0 -18 -32
-20 -62 -4 -15 8 -23 8 -32 -1 -17 -17 20 -40 65 -40 45 0 71 23 67 58 -2 21
-12 30 -46 42 -50 17 -52 35 -5 35 37 0 53 12 33 25 -27 17 -86 11 -105 -10z"/>
<path d="M4340 5745 l0 -85 48 0 c27 0 56 6 65 13 38 27 38 117 0 144 -9 7
-38 13 -65 13 l-48 0 0 -85z m90 35 c11 -11 20 -26 20 -33 0 -20 -23 -44 -47
-50 -22 -5 -23 -2 -23 49 0 60 14 70 50 34z"/>
<path d="M4520 5745 l0 -85 60 0 c47 0 60 3 60 15 0 11 -11 15 -40 15 -33 0
-40 3 -40 20 0 16 7 20 35 20 24 0 35 5 35 15 0 10 -11 15 -35 15 -28 0 -35 4
-35 20 0 17 7 20 40 20 29 0 40 4 40 15 0 12 -13 15 -60 15 l-60 0 0 -85z"/>
<path d="M4755 5818 c-3 -7 -16 -46 -29 -85 -23 -69 -24 -73 -6 -73 10 0 20 7
24 15 3 9 18 15 36 15 18 0 33 -6 36 -15 4 -8 15 -15 26 -15 12 0 18 5 15 13
-2 6 -15 45 -28 85 -20 62 -26 72 -46 72 -13 0 -26 -6 -28 -12z m39 -60 c9
-35 8 -38 -14 -38 -11 0 -20 3 -20 8 0 19 13 52 20 52 4 0 10 -10 14 -22z"/>
<path d="M4993 5823 c-7 -3 -13 -13 -13 -24 0 -19 -27 -25 -82 -20 -15 2 -18
-7 -18 -58 0 -48 3 -61 15 -61 10 0 15 10 15 33 0 37 9 54 30 57 33 5 39 -2
42 -42 3 -39 6 -43 31 -46 28 -3 38 15 12 24 -9 4 -15 19 -15 35 0 19 5 29 15
29 8 0 15 7 15 15 0 8 -6 15 -14 15 -8 0 -16 11 -18 23 -2 14 -8 22 -15 20z"/>
<path d="M5250 5725 c0 -87 3 -105 15 -105 12 0 15 18 15 105 0 87 -3 105 -15
105 -12 0 -15 -18 -15 -105z"/>
<path d="M5381 5804 c-47 -60 -10 -144 64 -144 50 0 75 28 75 85 0 58 -25 85
-79 85 -31 0 -44 -6 -60 -26z m99 -30 c21 -54 -25 -107 -65 -74 -18 15 -20 71
-3 88 21 21 58 14 68 -14z"/>
<path d="M5703 5823 c-7 -3 -13 -13 -13 -24 0 -10 -7 -19 -15 -19 -19 0 -19
-16 -1 -27 8 -4 16 -26 18 -48 3 -35 6 -40 31 -43 28 -3 38 15 12 24 -9 4 -15
19 -15 35 0 19 5 29 15 29 8 0 15 7 15 15 0 8 -6 15 -14 15 -8 0 -16 11 -18
23 -2 14 -8 22 -15 20z"/>
<path d="M1040 5718 c0 -32 4 -58 10 -58 6 0 10 20 10 45 0 33 5 47 18 54 27
15 42 -5 42 -56 0 -24 5 -43 10 -43 13 0 13 76 0 101 -8 14 -20 18 -50 17
l-40 -1 0 -59z"/>
<path d="M1171 5766 c-17 -20 -2 -46 30 -53 36 -7 43 -17 25 -33 -11 -9 -20
-9 -36 0 -25 13 -42 4 -20 -10 23 -15 66 -12 80 5 18 22 5 45 -30 51 -17 4
-33 11 -36 16 -10 15 18 28 37 17 18 -9 34 2 22 15 -12 11 -60 6 -72 -8z"/>
<path d="M1370 5718 c0 -32 4 -58 10 -58 6 0 10 21 10 46 0 37 4 47 20 51 30
8 24 22 -10 21 -30 -1 -30 -1 -30 -60z"/>
<path d="M1462 5723 l3 -58 43 -1 42 -2 0 59 c0 33 -4 59 -10 59 -5 0 -10 -22
-10 -49 0 -48 -10 -63 -37 -54 -8 3 -13 23 -13 54 0 28 -5 49 -10 49 -7 0 -10
-22 -8 -57z"/>
<path d="M1596 5758 c-21 -30 -20 -61 2 -81 21 -19 49 -22 72 -7 21 13 5 23
-18 11 -16 -9 -24 -7 -36 5 -34 33 -4 94 36 73 23 -12 39 -2 18 11 -26 16 -58
11 -74 -12z"/>
<path d="M1796 5758 c-33 -46 -7 -98 47 -98 29 0 47 24 47 64 0 53 -65 76 -94
34z m74 -38 c0 -38 -31 -57 -54 -34 -33 33 -4 94 35 74 12 -7 19 -21 19 -40z"/>
<path d="M1920 5718 c0 -32 4 -58 10 -58 6 0 10 21 10 46 0 37 4 47 20 51 30
8 24 22 -10 21 -30 -1 -30 -1 -30 -60z"/>
<path d="M2001 5766 c-17 -20 -2 -46 30 -53 36 -7 43 -17 25 -33 -11 -9 -20
-9 -36 0 -25 13 -42 4 -20 -10 23 -15 66 -12 80 5 18 22 5 45 -30 51 -17 4
-33 11 -36 16 -10 15 18 28 37 17 18 -9 34 2 22 15 -12 11 -60 6 -72 -8z"/>
<path d="M2580 5719 c0 -45 3 -59 14 -59 10 0 16 14 18 42 2 31 8 44 21 46 14
3 17 -4 17 -42 0 -39 3 -46 20 -46 17 0 20 7 20 46 0 38 3 45 18 42 12 -2 18
-15 20 -46 2 -29 8 -42 18 -42 12 0 14 12 12 58 -3 51 -5 57 -26 60 -13 2 -29
-2 -37 -8 -9 -7 -15 -8 -19 -1 -4 6 -27 10 -51 9 l-45 -1 0 -58z"/>
<path d="M2807 5762 c-49 -53 21 -132 82 -93 21 14 5 28 -27 23 -16 -2 -33 1
-36 7 -5 7 8 11 38 11 50 0 57 10 30 48 -19 27 -64 29 -87 4z m61 -20 c2 -7
-6 -12 -17 -12 -21 0 -27 11 -14 24 9 9 26 2 31 -12z"/>
<path d="M3360 5719 c0 -46 3 -59 15 -59 10 0 15 10 15 29 0 39 9 61 26 61 8
0 14 6 14 14 0 9 -12 14 -35 14 l-35 0 0 -59z"/>
<path d="M3450 5760 c-9 -17 -8 -20 10 -20 11 0 20 5 20 10 0 6 7 10 16 10 23
0 11 -24 -16 -30 -28 -7 -45 -32 -37 -53 5 -13 19 -16 57 -16 l50 2 0 46 c0
26 -5 52 -12 59 -20 20 -76 15 -88 -8z m60 -65 c0 -8 -6 -15 -14 -15 -17 0
-28 14 -19 24 12 12 33 6 33 -9z"/>
<path d="M3720 5720 c0 -47 3 -60 15 -60 12 0 15 13 15 60 0 47 -3 60 -15 60
-12 0 -15 -13 -15 -60z"/>
<path d="M3790 5719 c0 -45 3 -59 14 -59 10 0 16 14 18 42 2 31 8 44 21 46 14
3 17 -4 17 -42 0 -39 3 -46 20 -46 17 0 20 7 20 46 0 38 3 45 18 42 12 -2 18
-15 20 -46 2 -29 8 -42 18 -42 12 0 14 12 12 58 -3 51 -5 57 -26 60 -13 2 -29
-2 -37 -8 -9 -7 -15 -8 -19 -1 -4 6 -27 10 -51 9 l-45 -1 0 -58z"/>
<path d="M5070 5765 c-14 -17 -7 -43 15 -50 8 -3 22 -7 31 -10 8 -3 12 -9 9
-15 -4 -7 -13 -6 -27 1 -15 8 -23 8 -31 0 -16 -16 8 -31 49 -31 61 0 71 52 14
71 -39 14 -39 30 0 23 18 -4 30 -2 30 4 0 24 -71 30 -90 7z"/>
<path d="M5557 5762 c-49 -53 21 -132 82 -93 22 14 3 31 -29 24 -28 -5 -30 -3
-30 25 0 29 23 51 35 32 9 -15 35 -12 35 4 0 30 -68 36 -93 8z"/>
<path d="M5780 5760 c-9 -17 -8 -20 10 -20 11 0 20 5 20 10 0 6 7 10 16 10 23
0 11 -24 -16 -30 -28 -7 -45 -32 -37 -53 5 -13 19 -16 57 -16 l50 2 0 46 c0
26 -5 52 -12 59 -20 20 -76 15 -88 -8z m60 -65 c0 -8 -6 -15 -14 -15 -17 0
-28 14 -19 24 12 12 33 6 33 -9z"/>
<path d="M5912 5720 c16 -49 24 -60 42 -60 18 0 26 10 40 56 10 31 15 58 12
61 -13 14 -36 -9 -42 -44 l-7 -38 -14 43 c-10 29 -20 42 -33 42 -18 0 -18 -2
2 -60z"/>
<path d="M6037 5762 c-50 -55 16 -128 84 -92 24 13 26 72 3 94 -21 22 -67 20
-87 -2z m71 -46 c-2 -13 -12 -22 -25 -24 -20 -3 -23 1 -23 26 0 17 6 32 13 35
19 7 38 -14 35 -37z"/>
<path d="M4000 5680 c0 -11 5 -20 11 -20 8 0 9 -4 0 -13 -14 -18 -2 -30 16
-16 7 6 13 24 13 40 0 22 -5 29 -20 29 -13 0 -20 -7 -20 -20z"/>
<path d="M1090 2112 c0 -202 -6 -217 -76 -209 l-44 5 0 -43 c0 -40 2 -44 30
-50 39 -8 108 2 138 22 44 27 52 68 52 263 l0 180 -50 0 -50 0 0 -168z"/>
<path d="M1650 2050 l0 -230 50 0 50 0 0 98 c0 113 12 142 60 142 42 0 50 -23
50 -139 l0 -101 50 0 50 0 0 103 c-1 166 -19 208 -96 223 -24 4 -46 0 -74 -14
l-40 -19 0 83 0 84 -50 0 -50 0 0 -230z"/>
<path d="M2580 2051 l0 -231 50 0 50 0 0 85 0 85 34 0 c32 0 37 -5 82 -81 26
-44 52 -83 59 -85 7 -3 34 -4 59 -2 l47 3 -55 86 -54 87 37 24 c62 40 76 133
29 193 -37 47 -74 58 -210 63 l-128 5 0 -232z m256 114 c18 -25 18 -38 -3 -64
-14 -15 -35 -22 -85 -27 l-68 -7 0 63 0 62 71 -4 c55 -3 74 -8 85 -23z"/>
<path d="M3770 2230 l0 -50 50 0 50 0 0 50 0 50 -50 0 -50 0 0 -50z"/>
<path d="M4730 2058 c-41 -122 -76 -226 -78 -230 -2 -4 21 -8 51 -8 l55 0 11
45 11 45 83 0 83 0 12 -45 12 -45 54 0 54 0 -76 230 -77 230 -60 0 -60 0 -75
-222z m176 -30 l7 -38 -53 0 c-60 0 -58 -10 -18 125 l21 70 19 -60 c10 -33 21
-77 24 -97z"/>
<path d="M6280 2050 l0 -230 50 0 50 0 0 230 0 230 -50 0 -50 0 0 -230z"/>
<path d="M6990 2050 l0 -230 113 0 c164 1 209 22 253 115 44 93 28 219 -36
286 -43 45 -99 59 -235 59 l-95 0 0 -230z m256 97 c45 -53 39 -180 -10 -212
-12 -8 -50 -18 -84 -21 l-62 -7 0 138 0 137 66 -4 c57 -4 70 -8 90 -31z"/>
<path d="M1355 2135 c-48 -17 -80 -52 -94 -103 -15 -53 -13 -81 9 -129 46
-102 204 -123 280 -37 34 39 45 86 35 151 -8 57 -53 106 -110 122 -51 14 -71
13 -120 -4z m119 -87 c23 -33 21 -113 -4 -138 -20 -20 -65 -26 -86 -12 -44 29
-44 135 0 164 24 16 75 8 90 -14z"/>
<path d="M2177 2131 c-29 -15 -37 -16 -37 -5 0 10 -14 14 -50 14 l-50 0 0
-160 0 -160 50 0 50 0 0 98 c0 113 12 142 60 142 42 0 50 -23 50 -139 l0 -101
51 0 51 0 -4 128 c-5 142 -13 167 -63 188 -45 19 -63 18 -108 -5z"/>
<path d="M3097 2136 c-50 -19 -67 -34 -88 -81 -24 -51 -23 -99 1 -152 44 -98
186 -121 272 -44 l31 27 -34 21 c-32 21 -33 21 -57 2 -45 -35 -132 -15 -132
32 0 18 8 19 110 19 l110 0 0 35 c0 48 -34 111 -69 130 -44 22 -101 27 -144
11z m103 -76 c33 -33 24 -40 -45 -40 -71 0 -85 15 -43 44 31 22 64 20 88 -4z"/>
<path d="M3517 2131 c-29 -15 -37 -16 -37 -5 0 10 -14 14 -50 14 l-50 0 0
-160 0 -160 50 0 50 0 0 98 c0 113 12 142 60 142 42 0 50 -23 50 -139 l0 -101
51 0 51 0 -4 128 c-5 142 -13 167 -63 188 -45 19 -63 18 -108 -5z"/>
<path d="M4037 2136 c-50 -19 -67 -34 -88 -81 -24 -51 -23 -99 1 -152 44 -98
186 -121 272 -44 l31 27 -34 21 c-32 21 -33 21 -57 2 -45 -35 -132 -15 -132
32 0 18 8 19 110 19 l110 0 0 35 c0 48 -34 111 -69 130 -44 22 -101 27 -144
11z m103 -76 c33 -33 24 -40 -45 -40 -71 0 -85 15 -43 44 31 22 64 20 88 -4z"/>
<path d="M4477 2140 c-16 -5 -35 -14 -43 -21 -11 -9 -14 -8 -14 5 0 13 -11 16
-50 16 l-50 0 0 -160 0 -160 50 0 50 0 0 95 c0 90 2 98 26 122 17 17 33 24 50
20 23 -4 24 -2 24 44 0 27 -3 49 -7 48 -5 0 -21 -5 -36 -9z"/>
<path d="M5257 2131 c-29 -15 -37 -16 -37 -5 0 10 -14 14 -50 14 l-50 0 0
-160 0 -160 50 0 50 0 0 98 c0 113 12 142 60 142 42 0 50 -23 50 -139 l0 -101
51 0 51 0 -4 128 c-5 142 -13 167 -63 188 -45 19 -63 18 -108 -5z"/>
<path d="M5595 2139 c-117 -33 -137 -225 -31 -294 29 -19 114 -22 146 -5 18
10 20 8 20 -18 0 -61 -80 -85 -124 -37 -24 25 -68 33 -94 16 -23 -14 9 -75 51
-94 47 -23 151 -22 197 1 61 30 70 63 70 260 l0 172 -44 0 c-24 0 -46 -5 -48
-10 -2 -7 -16 -5 -40 5 -41 17 -58 17 -103 4z m122 -95 c9 -15 17 -41 17 -59
0 -18 -8 -44 -17 -59 -38 -58 -127 -17 -127 59 0 76 89 117 127 59z"/>
<path d="M5997 2136 c-50 -19 -67 -34 -88 -81 -24 -51 -23 -99 1 -152 44 -98
186 -121 272 -44 l31 27 -34 21 c-32 21 -33 21 -57 2 -45 -35 -132 -15 -132
32 0 18 8 19 110 19 l110 0 0 35 c0 48 -34 111 -69 130 -44 22 -101 27 -144
11z m103 -76 c33 -33 24 -40 -45 -40 -71 0 -85 15 -43 44 31 22 64 20 88 -4z"/>
<path d="M6545 2135 c-48 -17 -80 -52 -94 -103 -15 -53 -13 -81 9 -129 46
-102 204 -123 280 -37 34 39 45 86 35 151 -8 57 -53 106 -110 122 -51 14 -71
13 -120 -4z m119 -87 c9 -12 16 -43 16 -68 0 -60 -21 -90 -63 -90 -38 0 -50 7
-66 37 -21 41 -9 114 23 135 24 16 75 8 90 -14z"/>
<path d="M7537 2136 c-50 -19 -67 -34 -88 -81 -24 -51 -23 -99 1 -152 44 -98
186 -121 272 -44 l31 27 -34 21 c-32 21 -33 21 -57 2 -45 -35 -132 -15 -132
32 0 18 8 19 110 19 l110 0 0 35 c0 48 -34 111 -69 130 -44 22 -101 27 -144
11z m103 -76 c33 -33 24 -40 -45 -40 -71 0 -85 15 -43 44 31 22 64 20 88 -4z"/>
<path d="M7958 2132 c-30 -16 -38 -17 -38 -6 0 10 -14 14 -50 14 l-50 0 0
-225 0 -225 50 0 50 0 0 75 c0 41 2 75 4 75 2 0 17 -7 32 -15 64 -33 149 -2
183 67 71 147 -51 308 -181 240z m86 -84 c23 -33 21 -113 -4 -138 -20 -20 -65
-26 -86 -12 -19 12 -34 49 -34 82 0 33 15 70 34 82 24 16 75 8 90 -14z"/>
<path d="M8305 2135 c-48 -17 -80 -52 -94 -103 -15 -53 -13 -81 9 -129 46
-102 204 -123 280 -37 34 39 45 86 35 151 -8 57 -53 106 -110 122 -51 14 -71
13 -120 -4z m119 -87 c9 -12 16 -43 16 -68 0 -60 -21 -90 -63 -90 -38 0 -50 7
-66 37 -21 41 -9 114 23 135 24 16 75 8 90 -14z"/>
<path d="M8737 2131 c-29 -15 -37 -16 -37 -5 0 10 -14 14 -50 14 l-50 0 0
-160 0 -160 50 0 50 0 0 98 c0 113 12 142 60 142 42 0 50 -23 50 -139 l0 -101
51 0 51 0 -4 128 c-5 142 -13 167 -63 188 -45 19 -63 18 -108 -5z"/>
<path d="M9077 2136 c-50 -19 -67 -34 -88 -81 -24 -51 -23 -99 1 -152 44 -98
186 -121 272 -44 l31 27 -34 21 c-32 21 -33 21 -57 2 -45 -35 -132 -15 -132
32 0 18 8 19 110 19 l110 0 0 35 c0 48 -34 111 -69 130 -44 22 -101 27 -144
11z m103 -76 c33 -33 24 -40 -45 -40 -71 0 -85 15 -43 44 31 22 64 20 88 -4z"/>
<path d="M3770 1980 l0 -160 50 0 50 0 0 160 0 160 -50 0 -50 0 0 -160z"/>
<path d="M980 1275 l0 -85 44 0 c63 0 91 25 91 83 0 63 -24 87 -87 87 l-48 0
0 -85z m100 50 c6 -8 12 -30 12 -50 0 -46 -17 -65 -58 -65 l-34 0 0 65 0 65
34 0 c18 0 39 -7 46 -15z"/>
<path d="M1298 1354 c-5 -4 -8 -16 -8 -26 0 -10 -7 -18 -17 -18 -17 -1 -17 -1
-1 -13 10 -8 18 -31 20 -58 3 -39 6 -44 28 -47 22 -2 23 -1 8 8 -12 7 -18 23
-18 47 0 22 7 41 18 49 16 12 16 13 0 14 -10 0 -18 10 -20 26 -2 14 -6 22 -10
18z"/>
<path d="M1685 1348 c-3 -7 -16 -46 -29 -85 -23 -69 -24 -73 -6 -73 10 0 20 7
24 15 3 9 18 15 36 15 18 0 33 -6 36 -15 4 -8 15 -15 26 -15 12 0 18 5 15 13
-2 6 -15 45 -28 85 -20 62 -26 72 -46 72 -13 0 -26 -6 -28 -12z m39 -60 c9
-35 8 -38 -14 -38 -11 0 -20 3 -20 8 0 19 13 52 20 52 4 0 10 -10 14 -22z"/>
<path d="M2225 1344 c-20 -20 -16 -48 8 -52 12 -2 17 3 17 17 0 14 6 21 20 21
36 0 25 -44 -20 -83 -55 -47 -52 -57 20 -57 47 0 60 3 60 15 0 10 -10 15 -31
15 l-31 0 31 31 c33 32 41 75 19 97 -17 17 -74 15 -93 -4z"/>
<path d="M2393 1347 c-4 -8 -16 -16 -25 -20 -24 -9 -23 -27 2 -27 18 0 20 -7
20 -55 0 -48 2 -55 20 -55 18 0 20 7 20 85 0 68 -3 85 -15 85 -7 0 -18 -6 -22
-13z"/>
<path d="M2595 1344 c-20 -20 -16 -48 8 -52 12 -2 17 3 17 17 0 14 6 21 20 21
36 0 25 -44 -20 -83 -55 -47 -52 -57 20 -57 47 0 60 3 60 15 0 10 -10 15 -31
15 l-31 0 31 31 c33 32 41 75 19 97 -17 17 -74 15 -93 -4z"/>
<path d="M2741 1347 c-28 -34 -26 -111 5 -141 19 -20 68 -21 84 -1 21 25 24
89 6 123 -14 26 -23 32 -50 32 -18 0 -39 -6 -45 -13z m67 -62 c3 -47 -9 -70
-32 -62 -11 5 -16 19 -16 50 0 48 6 59 30 55 10 -2 16 -16 18 -43z"/>
<path d="M2885 1344 c-20 -20 -16 -48 8 -52 12 -2 17 3 17 17 0 14 6 21 20 21
36 0 25 -44 -20 -83 -55 -47 -52 -57 20 -57 47 0 60 3 60 15 0 10 -10 15 -31
15 l-31 0 31 31 c33 32 41 75 19 97 -17 17 -74 15 -93 -4z"/>
<path d="M3025 1344 c-20 -20 -16 -48 8 -52 12 -2 17 3 17 17 0 14 6 21 20 21
36 0 25 -44 -20 -83 -55 -47 -52 -57 20 -57 47 0 60 3 60 15 0 10 -10 15 -31
15 l-31 0 31 31 c33 32 41 75 19 97 -17 17 -74 15 -93 -4z"/>
<path d="M1157 1303 c-4 -3 -7 -13 -7 -21 0 -13 3 -12 19 2 10 9 25 14 35 10
25 -10 15 -25 -24 -38 -28 -9 -35 -16 -35 -36 0 -23 4 -25 50 -27 l50 -1 -4
46 c-2 26 -8 53 -13 60 -11 13 -60 17 -71 5z m63 -67 c0 -20 -25 -37 -44 -30
-21 8 -20 20 2 33 24 15 42 13 42 -3z"/>
<path d="M1366 1288 c-21 -30 -20 -61 2 -81 23 -21 65 -22 82 -2 10 12 6 13
-25 8 -26 -4 -40 -2 -46 8 -15 25 -10 29 36 29 49 0 59 15 29 44 -22 23 -60
20 -78 -6z m62 0 c20 -20 14 -28 -23 -28 -38 0 -46 13 -17 29 22 13 26 13 40
-1z"/>
<path d="M1801 1278 c2 -73 10 -83 67 -85 l52 -2 0 59 c0 53 -2 60 -19 60 -16
0 -20 -8 -23 -42 -2 -30 -8 -43 -18 -43 -10 0 -16 13 -18 43 -3 34 -7 42 -23
42 -15 0 -19 -7 -18 -32z"/>
<path d="M1955 1294 c-8 -9 -15 -29 -15 -44 0 -35 38 -65 70 -55 12 4 20 2 20
-5 0 -17 -31 -24 -50 -12 -26 16 -46 -1 -25 -22 19 -18 57 -21 86 -6 16 9 19
22 19 84 l0 73 -45 1 c-27 1 -50 -5 -60 -14z m70 -44 c0 -38 -39 -35 -43 3 -3
25 0 28 20 25 17 -2 23 -9 23 -28z"/>
<path d="M2090 1210 c0 -13 7 -20 20 -20 13 0 20 7 20 20 0 13 -7 20 -20 20
-13 0 -20 -7 -20 -20z"/>
<path d="M2460 1210 c0 -11 5 -20 11 -20 8 0 9 -4 0 -13 -14 -18 -2 -30 16
-16 7 6 13 24 13 40 0 22 -5 29 -20 29 -13 0 -20 -7 -20 -20z"/>
<path d="M980 905 l0 -85 55 0 c30 0 55 5 55 10 0 6 -20 10 -45 10 l-45 0 0
75 c0 43 -4 75 -10 75 -6 0 -10 -35 -10 -85z"/>
<path d="M1528 984 c-5 -4 -8 -16 -8 -26 0 -10 -7 -18 -17 -18 -17 -1 -17 -1
-1 -13 10 -8 18 -31 20 -58 3 -39 6 -44 28 -47 22 -2 23 -1 8 8 -12 7 -18 23
-18 47 0 22 7 41 18 49 16 12 16 13 0 14 -10 0 -18 10 -20 26 -2 14 -6 22 -10
18z"/>
<path d="M1600 905 c0 -50 4 -85 10 -85 6 0 10 20 10 45 0 33 5 47 18 54 27
15 42 -5 42 -56 0 -24 5 -43 10 -43 15 0 12 83 -3 105 -10 12 -22 16 -40 13
-24 -5 -27 -2 -27 23 0 16 -4 29 -10 29 -6 0 -10 -35 -10 -85z"/>
<path d="M1906 974 c-22 -21 -29 -57 -22 -98 8 -44 27 -58 68 -54 72 7 70 108
-3 108 -20 0 -29 4 -27 13 6 17 39 21 49 6 6 -11 11 -11 20 -2 9 9 9 16 -1 28
-16 20 -64 19 -84 -1z m62 -96 c-2 -15 -10 -23 -23 -23 -13 0 -21 8 -23 23 -3
18 1 22 23 22 22 0 26 -4 23 -22z"/>
<path d="M2113 983 c-7 -3 -13 -13 -13 -24 0 -10 -7 -19 -15 -19 -19 0 -19
-16 -1 -27 8 -4 16 -26 18 -48 3 -35 6 -40 31 -43 28 -3 38 15 12 24 -9 4 -15
19 -15 35 0 19 5 29 15 29 8 0 15 7 15 15 0 8 -6 15 -14 15 -8 0 -16 11 -18
23 -2 14 -8 22 -15 20z"/>
<path d="M2353 983 c-7 -3 -13 -13 -13 -24 0 -10 -7 -19 -15 -19 -19 0 -19
-16 -1 -27 8 -4 16 -26 18 -48 3 -35 6 -40 31 -43 28 -3 38 15 12 24 -9 4 -15
19 -15 35 0 19 5 29 15 29 8 0 15 7 15 15 0 8 -6 15 -14 15 -8 0 -16 11 -18
23 -2 14 -8 22 -15 20z"/>
<path d="M2560 905 c0 -69 3 -85 15 -85 12 0 15 16 15 85 0 69 -3 85 -15 85
-12 0 -15 -16 -15 -85z"/>
<path d="M2680 905 c0 -67 3 -85 14 -85 10 0 16 14 18 42 2 31 8 44 21 46 14
3 17 -4 17 -42 0 -39 3 -46 20 -46 17 0 20 7 20 49 0 55 -16 76 -55 69 -22 -5
-25 -2 -25 23 0 19 -5 29 -15 29 -12 0 -15 -16 -15 -85z"/>
<path d="M1116 918 c-21 -30 -20 -61 2 -81 23 -21 65 -22 82 -2 10 12 6 13
-25 8 -26 -4 -40 -2 -46 8 -15 25 -10 29 36 29 49 0 59 15 29 44 -22 23 -60
20 -78 -6z m62 0 c20 -20 14 -28 -23 -28 -38 0 -46 13 -17 29 22 13 26 13 40
-1z"/>
<path d="M1240 878 c0 -32 4 -58 10 -58 6 0 10 20 10 45 0 33 5 47 18 54 27
15 42 -5 42 -56 0 -24 5 -43 10 -43 13 0 13 76 0 101 -8 14 -20 18 -50 17
l-40 -1 0 -59z"/>
<path d="M1374 914 c-31 -47 13 -113 57 -86 19 12 20 11 17 -10 -3 -26 -46
-38 -59 -17 -4 8 -11 10 -15 6 -12 -11 17 -37 42 -37 40 0 54 25 54 99 l0 68
-40 1 c-32 2 -43 -3 -56 -24z m76 -35 c0 -33 -23 -48 -49 -32 -39 24 -11 94
30 73 12 -7 19 -21 19 -41z"/>
<path d="M2197 922 c-50 -55 16 -128 84 -92 24 13 26 72 3 94 -21 22 -67 20
-87 -2z m71 -46 c-2 -13 -12 -22 -25 -24 -20 -3 -23 1 -23 26 0 17 6 32 13 35
19 7 38 -14 35 -37z"/>
<path d="M2430 920 c-9 -17 -8 -20 10 -20 11 0 20 5 20 10 0 6 7 10 16 10 23
0 11 -24 -16 -30 -28 -7 -45 -32 -37 -53 5 -13 19 -16 57 -16 l50 2 0 46 c0
26 -5 52 -12 59 -20 20 -76 15 -88 -8z m60 -65 c0 -8 -6 -15 -14 -15 -17 0
-28 14 -19 24 12 12 33 6 33 -9z"/>
<path d="M2827 922 c-50 -55 16 -128 84 -92 24 13 26 72 3 94 -21 22 -67 20
-87 -2z m71 -46 c-2 -13 -12 -22 -25 -24 -20 -3 -23 1 -23 26 0 17 6 32 13 35
19 7 38 -14 35 -37z"/>
<path d="M2951 908 c2 -73 10 -83 67 -85 l52 -2 0 59 c0 53 -2 60 -19 60 -16
0 -20 -8 -23 -42 -2 -30 -8 -43 -18 -43 -10 0 -16 13 -18 43 -3 34 -7 42 -23
42 -15 0 -19 -7 -18 -32z"/>
<path d="M3100 879 c0 -46 3 -59 15 -59 10 0 15 10 15 29 0 39 9 61 26 61 8 0
14 6 14 14 0 9 -12 14 -35 14 l-35 0 0 -59z"/>
<path d="M3190 925 c-14 -17 -7 -43 15 -50 8 -3 22 -7 31 -10 8 -3 12 -9 9
-15 -4 -7 -13 -6 -27 1 -15 8 -23 8 -31 0 -16 -16 8 -31 49 -31 61 0 71 52 14
71 -39 14 -39 30 0 23 18 -4 30 -2 30 4 0 24 -71 30 -90 7z"/>
</g>
</svg>
